<?xml version="1.0" encoding="utf-8"?>
<!-- Generator: Adobe Illustrator 16.0.0, SVG Export Plug-In . SVG Version: 6.00 Build 0)  -->
<!DOCTYPE svg PUBLIC "-//W3C//DTD SVG 1.1//EN" "http://www.w3.org/Graphics/SVG/1.1/DTD/svg11.dtd">
<svg version="1.1" id="Layer_1" xmlns="http://www.w3.org/2000/svg" xmlns:xlink="http://www.w3.org/1999/xlink" x="0px" y="0px"
	 width="100%" height="100%" viewBox="0 0 72 72" enable-background="new 0 0 72 72" xml:space="preserve">
<g id="cmd">
	<path fill="black" d="M36,5.736c4.187,0,8.117,0.791,11.792,2.373c3.675,1.582,6.875,3.748,9.602,6.498
		c2.726,2.75,4.892,5.963,6.498,9.638c1.606,3.675,2.409,7.606,2.409,11.792c0,4.137-0.803,8.043-2.409,11.718
		c-1.606,3.676-3.772,6.888-6.498,9.639c-2.727,2.75-5.927,4.916-9.602,6.498S40.187,66.265,36,66.265
		c-4.186,0-8.117-0.791-11.792-2.373c-3.675-1.582-6.875-3.748-9.601-6.498c-2.726-2.751-4.892-5.963-6.498-9.639
		c-1.606-3.675-2.41-7.581-2.41-11.718c0-4.186,0.803-8.117,2.41-11.792c1.606-3.675,3.772-6.888,6.498-9.638
		s5.926-4.917,9.601-6.498C27.883,6.527,31.814,5.736,36,5.736z M60.971,46.916c0.73-1.704,1.314-3.48,1.752-5.33
		c0.438-1.85,0.657-3.7,0.657-5.549c0-3.797-0.718-7.35-2.153-10.66c-1.437-3.31-3.396-6.206-5.878-8.688s-5.391-4.442-8.726-5.878
		C43.289,9.374,39.748,8.656,36,8.656c-3.797,0-7.362,0.718-10.697,2.154c-3.334,1.436-6.23,3.396-8.688,5.878
		s-4.405,5.378-5.841,8.688c-1.436,3.31-2.154,6.863-2.154,10.66c0,3.504,0.608,6.802,1.826,9.893
		c1.217,3.091,2.945,5.829,5.184,8.214c0-0.438,0.037-1.034,0.11-1.788c0.073-0.755,0.146-1.497,0.219-2.228
		c0.073-0.729,0.158-1.424,0.256-2.081c0.097-0.656,0.219-1.107,0.365-1.351c0.292-0.633,0.694-1.119,1.205-1.46
		c0.511-0.341,0.767-0.535,0.767-0.584h0.073l3.359-0.804l0.876-1.313l0.146-0.073l0.073-0.146l3.358-0.949l2.628-1.168l0.073-1.972
		l0.146-0.072l0.073-0.146l0.146-0.073c-0.292-0.341-0.56-0.693-0.803-1.059c-0.244-0.365-0.414-0.596-0.511-0.693v-0.146
		l-0.146-0.073c-0.049-0.341-0.097-0.681-0.146-1.022c-0.049-0.244-0.109-0.511-0.183-0.803c-0.073-0.292-0.134-0.56-0.183-0.803
		c-0.097-0.389-0.231-0.961-0.401-1.716s-0.256-1.229-0.256-1.424c-0.097-0.146-0.219-0.365-0.365-0.657s-0.316-0.596-0.511-0.913
		s-0.353-0.645-0.475-0.985c-0.122-0.341-0.183-0.633-0.183-0.876c-0.048-0.389-0.024-0.803,0.073-1.241
		c0.097-0.438,0.195-0.779,0.292-1.022c-0.097-0.292-0.207-0.584-0.329-0.876s-0.231-0.584-0.329-0.876
		c-0.097-0.39-0.109-0.864-0.037-1.424c0.073-0.56,0.158-1.132,0.256-1.716c0-0.243,0-0.462,0-0.657s0.024-0.341,0.073-0.438
		c0-0.049,0.024-0.097,0.073-0.146c0.048-0.049,0.073-0.097,0.073-0.146c-0.097-0.195-0.17-0.511-0.219-0.949
		c-0.049-0.438-0.024-0.876,0.073-1.314c0.098-0.292,0.292-0.621,0.584-0.985c0.292-0.365,0.609-0.718,0.949-1.059
		c0.39-0.34,0.852-0.706,1.388-1.095l3.358-1.022l1.679-1.022c0.438-0.048,0.901-0.073,1.387-0.073c0.39,0,0.743,0,1.059,0
		s0.572,0.024,0.767,0.073c0.341,0.098,0.718,0.256,1.131,0.475c0.414,0.219,0.646,0.329,0.694,0.329
		c0.048,0.049,0.23,0.11,0.547,0.183c0.316,0.073,0.67,0.158,1.059,0.256c0.39,0.097,0.767,0.219,1.132,0.365
		s0.646,0.292,0.84,0.438c0.341,0.244,0.9,0.706,1.68,1.388c0.778,0.681,1.411,1.29,1.898,1.825c0.438,0.535,0.754,1.059,0.949,1.57
		c0.194,0.511,0.34,1.034,0.438,1.57c0.049,0.292,0.098,0.633,0.146,1.022c0.049,0.39,0.085,0.767,0.109,1.132
		s0.061,0.694,0.109,0.986s0.073,0.487,0.073,0.584c0.097,0.243,0.219,0.499,0.365,0.767c0.146,0.268,0.219,0.426,0.219,0.475
		c-0.098,0-0.219,0.341-0.365,1.022c0.341,0.438,0.463,1.071,0.365,1.898c-0.049,0.292-0.207,0.682-0.475,1.168
		s-0.56,0.974-0.876,1.46c-0.316,0.487-0.621,0.913-0.913,1.278c-0.292,0.365-0.486,0.596-0.584,0.694
		c-0.243,0.243-0.499,0.377-0.767,0.401s-0.475,0.037-0.621,0.037l-0.219,2.92h0.219l0.073,0.073l0.146,0.146
		c0.049,0.049,0.268,0.438,0.657,1.168c0.389,0.73,0.681,1.339,0.876,1.825c0.243,0.925,0.414,1.68,0.511,2.264
		c0.341,0.195,0.986,0.499,1.936,0.913c0.948,0.413,1.716,0.718,2.3,0.912c0.097,0.098,0.219,0.158,0.364,0.183
		c0.146,0.024,0.316,0.085,0.512,0.183c0.535,0.146,1.095,0.329,1.679,0.548c0.585,0.219,0.998,0.353,1.241,0.401
		c0.341,0.098,0.633,0.256,0.877,0.475c0.243,0.219,0.413,0.353,0.511,0.401c0.098,0.098,0.45,0.28,1.059,0.548
		s1.132,0.475,1.57,0.621c0.389,0.194,0.729,0.34,1.021,0.438s0.487,0.171,0.585,0.219h0.292c0.34,0,0.705,0.146,1.095,0.438V46.916
		z M21.178,59.036c0.243,0.146,0.535,0.304,0.876,0.475c0.341,0.17,0.657,0.328,0.949,0.475l-1.022-4.235l-0.511-9.054l-0.511,6.571
		L21.178,59.036z M35.781,55.75l-0.219,1.898l1.314,0.146l0.365-1.898L35.781,55.75z M37.606,53.487l-1.387-0.073l-0.365,1.679
		l1.534,0.146L37.606,53.487z M37.825,55.97l-0.219,1.825l1.387,0.219l0.22-1.898L37.825,55.97z M37.898,55.313l1.46,0.146
		l0.22-1.825l-1.461-0.146L37.898,55.313z M41.841,31.218c-0.194,0.048-0.401,0.109-0.62,0.182c-0.22,0.073-0.377,0.231-0.475,0.475
		c-0.243,0.487-0.341,0.925-0.292,1.314s0.024,0.633-0.073,0.73c-0.341,0.341-0.718,0.828-1.132,1.46s-0.815,1.266-1.205,1.898
		c0.438-0.34,0.73-0.56,0.877-0.657c0.243-0.243,0.608-0.621,1.095-1.132c0.487-0.511,0.755-0.864,0.804-1.059
		c0.048-0.097,0.097-0.28,0.146-0.547c0.049-0.268,0.122-0.572,0.219-0.913c0.098-0.389,0.171-0.827,0.22-1.314L41.841,31.218z
		 M39.87,56.188l-0.292,1.825l1.605,0.219l0.22-1.898L39.87,56.188z M41.476,55.531l0.146-1.825l-1.533-0.073l-0.219,1.825
		L41.476,55.531z M60.313,48.521c0.098-0.194,0.183-0.377,0.256-0.547c0.073-0.171,0.134-0.354,0.183-0.548
		c-0.049-0.049-0.073-0.098-0.073-0.146c0-0.048-0.049-0.097-0.146-0.146v-0.146H60.46h-0.146v-0.072H60.24h-0.146h-0.073h-0.146
		h-0.073h-0.146h-0.072l-0.073-0.073c-0.049,0-0.098-0.013-0.146-0.037s-0.097-0.036-0.146-0.036
		c-0.146-0.098-0.341-0.183-0.584-0.256c-0.244-0.072-0.512-0.207-0.804-0.401c-0.292-0.098-0.596-0.219-0.912-0.365
		c-0.316-0.146-0.597-0.268-0.84-0.365c-0.292-0.146-0.633-0.292-1.022-0.438l-0.438-0.292c-0.146-0.098-0.413-0.243-0.803-0.438
		c-0.341-0.194-0.925-0.426-1.752-0.693c-0.828-0.268-1.534-0.523-2.118-0.767c-0.341-0.098-0.754-0.256-1.241-0.475
		c-0.486-0.219-0.974-0.45-1.46-0.693c-0.535-0.195-1.119-0.438-1.752-0.73c-0.049-0.292-0.098-0.584-0.146-0.876
		c-0.049-0.243-0.098-0.512-0.146-0.804c-0.049-0.292-0.122-0.56-0.22-0.803l-0.876-1.752c-0.194-0.341-0.39-0.73-0.584-1.168
		h-0.073h-0.219h-0.073c-0.098,0-0.158-0.024-0.183-0.073s-0.085-0.073-0.183-0.073l0.146-0.438l0.073-2.774v-0.438
		c-0.049-0.098-0.122-0.146-0.22-0.146c-0.049,0-0.073-0.024-0.073-0.073c-0.243,0.536-0.45,1.083-0.62,1.643
		c-0.17,0.56-0.305,0.985-0.401,1.278v3.358c0.341-0.341,0.608-0.56,0.803-0.657c0.098-0.049,0.183-0.097,0.256-0.146
		s0.158-0.097,0.256-0.146c0.048-0.049,0.097-0.073,0.146-0.073l1.825,4.819l9.419,3.65l0.073,0.219
		c-0.243,0.341-0.584,0.84-1.022,1.497c-0.438,0.657-0.852,1.278-1.241,1.862c-0.146,0.243-0.377,0.693-0.693,1.351
		s-0.67,1.436-1.059,2.336c-0.39,0.901-0.815,1.838-1.278,2.812c-0.462,0.974-0.863,1.874-1.204,2.701l0.146-1.095l-1.752-0.22
		l-0.219,2.045l1.387,0.146c-0.39,0.877-0.633,1.534-0.73,1.972c0,0.049-0.024,0.109-0.072,0.183
		c-0.049,0.073-0.073,0.134-0.073,0.183c0.535-0.243,1.034-0.486,1.497-0.73c0.462-0.243,0.912-0.486,1.351-0.729l0.876-3.505
		l1.168-4.527l2.045-4.089c0.243-0.34,0.462-0.633,0.657-0.876c0.438-0.535,0.729-0.803,0.876-0.803
		c0.097,0.049,0.328,0.134,0.693,0.256c0.365,0.121,0.742,0.255,1.132,0.401l1.46,0.584c0,0.049,0.024,0.073,0.073,0.073h0.365
		c-0.098,0.146-0.28,0.535-0.548,1.168s-0.572,1.326-0.912,2.081c-0.341,0.754-0.657,1.473-0.949,2.153
		c-0.293,0.682-0.487,1.193-0.585,1.533c-0.048,0.098-0.109,0.244-0.182,0.438c-0.073,0.194-0.11,0.341-0.11,0.438
		c0.195-0.195,0.378-0.378,0.548-0.548c0.171-0.171,0.353-0.377,0.548-0.621c0.098-0.292,0.17-0.56,0.219-0.803
		s0.122-0.414,0.219-0.511c0.098-0.244,0.28-0.572,0.548-0.986c0.268-0.413,0.523-0.815,0.767-1.204
		c0.292-0.487,0.608-0.998,0.949-1.534c0.049-0.097,0.098-0.268,0.146-0.511c0.049-0.146,0.085-0.304,0.109-0.475
		c0.024-0.17,0.085-0.377,0.183-0.62c0.049,0.097,0.121,0.146,0.219,0.146c0,0.049,0.024,0.146,0.073,0.292
		c0.049,0.098,0.073,0.231,0.073,0.401C60.168,48.218,60.216,48.376,60.313,48.521z M41.914,56.334l-0.219,1.898l1.533,0.22
		l0.292-2.045L41.914,56.334z M43.666,55.75l0.22-1.898l-1.606-0.146l-0.219,1.972L43.666,55.75z M44.178,56.554l-0.219,1.898
		l1.679,0.219l0.073-2.045L44.178,56.554z M45.856,55.97l0.073-1.898l-1.533-0.146l-0.219,1.825L45.856,55.97z M48.12,56.115
		l0.073-1.972l-1.533-0.072l-0.292,1.898L48.12,56.115z"/>
</g>
</svg>
