<?xml version="1.0" encoding="utf-8"?>
<!-- Generator: Adobe Illustrator 16.0.0, SVG Export Plug-In . SVG Version: 6.00 Build 0)  -->
<!DOCTYPE svg PUBLIC "-//W3C//DTD SVG 1.1//EN" "http://www.w3.org/Graphics/SVG/1.1/DTD/svg11.dtd">
<svg version="1.1" xmlns="http://www.w3.org/2000/svg" xmlns:xlink="http://www.w3.org/1999/xlink" x="0px" y="0px"
	 width="100%" height="100%" viewBox="0 0 72 72" enable-background="new 0 0 72 72" xml:space="preserve">
<g id="def">
	<path fill="black" d="M35.963,5.736c4.137,0,8.056,0.791,11.755,2.373c3.699,1.582,6.912,3.748,9.638,6.498
		s4.892,5.951,6.498,9.601c1.606,3.651,2.41,7.569,2.41,11.755c0,4.137-0.804,8.056-2.41,11.755s-3.772,6.924-6.498,9.675
		c-2.726,2.75-5.938,4.916-9.638,6.498s-7.618,2.373-11.755,2.373c-4.186,0-8.117-0.791-11.792-2.373
		c-3.675-1.582-6.875-3.748-9.602-6.498c-2.726-2.751-4.88-5.976-6.461-9.675c-1.582-3.699-2.373-7.618-2.373-11.755
		c0-4.186,0.791-8.104,2.373-11.755c1.582-3.65,3.736-6.851,6.461-9.601c2.726-2.75,5.926-4.917,9.602-6.498
		C27.847,6.527,31.777,5.736,35.963,5.736z M53.56,56.846c2.97-2.531,5.343-5.598,7.119-9.2c1.776-3.602,2.665-7.496,2.665-11.682
		c0-3.796-0.718-7.35-2.154-10.66c-1.436-3.31-3.395-6.194-5.877-8.652s-5.392-4.405-8.726-5.841s-6.875-2.154-10.624-2.154
		c-3.796,0-7.362,0.718-10.696,2.154c-3.334,1.436-6.23,3.383-8.689,5.841c-2.458,2.458-4.405,5.354-5.841,8.688
		c-1.436,3.334-2.154,6.875-2.154,10.624c0,4.284,0.9,8.263,2.701,11.938c1.801,3.675,4.284,6.778,7.448,9.31l0.292-11.609
		l-0.438-0.292l-2.993-10.514l0.073-0.146l4.162-8.762l-0.657-0.949c-0.146-0.098-0.146-0.219,0-0.365
		c0-0.049,0.073-0.073,0.219-0.073h0.073v-1.534h0.146V21.58h0.219v1.387h0.219V24.5h0.438l0.292-0.73l0.657-0.438l-0.876-1.095
		v-0.219c0.146-0.146,0.268-0.219,0.365-0.219l0.073,0.073v-1.898h0.219v-1.972h0.292v1.972h0.146v1.898l1.606,0.146l3.286-2.264
		l-0.146-0.146v-0.073c0.098-0.097,0.158-0.182,0.183-0.255c0.024-0.073,0.085-0.134,0.183-0.183h0.219h0.073v-1.606h0.146V15.52
		h0.292v1.972h0.219v1.46l1.168-0.73l5.184-1.168l2.702,0.073v-0.438h0.219v-1.972h0.219v1.972h0.219v0.438l2.629,0.146l4.892,1.387
		l1.168,0.73h0.073v-1.606h0.146v-2.044h0.22v2.044h0.219v1.533h0.219c0.195,0.049,0.292,0.146,0.292,0.292
		c0,0.292-0.024,0.511-0.072,0.657l2.701,2.044l1.752-0.219v-1.898h0.22v-1.971H52.1v1.971h0.292v1.898h0.073
		c0.146,0,0.219,0.049,0.219,0.146c0.194,0.097,0.194,0.195,0,0.292l-0.803,1.314l0.729,0.511l0.073,0.438v-1.387h0.219v-1.534h0.22
		v1.534h0.146v1.387h0.073c0.146,0,0.219,0.073,0.219,0.219c0.098,0,0.146,0.037,0.146,0.11c0,0.073-0.049,0.109-0.146,0.109
		l-0.438,0.657l3.942,9.346l-3.358,10.368l-0.219,0.292L53.56,56.846z M23.113,60.131l0.073,0.073l1.46-5.914l-0.073-4.454
		l-1.095-0.876L23.04,60.131H23.113z M24.354,60.643c0,0.048,0.17,0.17,0.511,0.364l1.533-7.301v-0.292v-2.045l-1.387-1.241
		c0.049,0.39,0.098,0.828,0.146,1.314c0.049,0.487,0.098,0.925,0.146,1.314c0.049,0.486,0.098,0.949,0.146,1.387L24.354,60.643z
		 M30.123,53.268l-0.584-0.073l-0.073,9.419c0.195,0,0.365,0.024,0.511,0.073L30.123,53.268z M30.707,53.414h-0.292l-0.219,9.272
		c0.098,0,0.158,0.024,0.183,0.073s0.109,0.073,0.255,0.073L30.707,53.414z M32.24,53.706l-1.168-0.219l-0.219,9.346
		c0.146,0.048,0.316,0.072,0.511,0.072l0.219-5.914l0.584-0.219L32.24,53.706z M33.992,18.075l-0.949,3.286l2.92-0.146
		L33.992,18.075z M33.043,22.31l0.73,4.235l2.848-4.527L33.043,22.31z M37.424,23.113l-3.14,4.819l0.803,2.263l6.936,0.146
		L37.424,23.113z M36.767,17.783h-2.263l1.46,1.825c0-0.146,0.024-0.316,0.073-0.511c0.048-0.195,0.122-0.341,0.219-0.438
		c0.098-0.097,0.183-0.158,0.256-0.183c0.073-0.024,0.158-0.085,0.255-0.183V17.783z M42.097,31.218h-6.571l0.511,0.949h2.628v1.168
		h-1.898l1.68,3.505L42.097,31.218z M39.541,17.856l-2.117-0.073v0.511c0.243,0.195,0.39,0.316,0.438,0.365
		c0.097,0.097,0.158,0.243,0.182,0.438c0.024,0.195,0.037,0.341,0.037,0.438L39.541,17.856z M40.271,18.513l-0.219-0.073
		l-2.264,2.702l7.374,1.095L40.271,18.513z M45.602,23.113l-7.594-1.095l5.184,8.177L45.602,23.113z M40.929,61.737
		c-0.098-1.119-0.171-2.239-0.22-3.358c-0.048-1.12-0.121-2.264-0.219-3.432h-0.876l-0.438,6.79H40.929z M42.973,31.729l-3.65,6.426
		l2.044,2.774l4.235,0.219L42.973,31.729z M44.506,20.923v-0.438c0-0.146,0.024-0.219,0.073-0.219
		c0.098-0.049,0.194-0.098,0.292-0.146c0.098-0.049,0.194-0.098,0.292-0.146l-0.365-0.803l-0.072-0.073l-3.797-1.022L44.506,20.923z
		 M43.849,30.561l7.886,1.533l-5.403-8.542L43.849,30.561z M46.623,40.929l5.258-7.886l-7.959-1.533L46.623,40.929z M45.163,52.538
		l-0.584,0.219c0,0.243-0.012,0.486-0.036,0.73c-0.024,0.243-0.037,0.462-0.037,0.656v0.657l0.512,1.825l0.219-4.088H45.163z
		 M46.112,61.372c0.438-0.146,0.876-0.328,1.314-0.547c0.438-0.22,0.876-0.451,1.314-0.694v-1.314l-1.096-5.622l-0.803,1.388V51.15
		l-0.073-7.813L45.82,48.96l0.073,2.848L46.112,61.372z M51.004,24.062l-4.161-3.358c-0.098,0.097-0.195,0.195-0.292,0.292
		c-0.098,0.097-0.171,0.17-0.22,0.219c0,0.048-0.024,0.097-0.072,0.146h-0.073h-0.073l0.438,1.095L51.004,24.062z M48.813,34.576
		l-2.409-0.365l0.146-1.241l2.263,0.365V34.576z M52.465,31.729l-0.73-6.279l-0.073-0.292l-0.219-0.146l-4.162-1.46L52.465,31.729z
		 M49.69,41.95l2.482-1.679l0.438-6.499l-1.606,2.336l-3.577,5.403L49.69,41.95z M49.982,59.474
		c0.194-0.097,0.365-0.206,0.511-0.328c0.146-0.122,0.316-0.231,0.511-0.329l-0.146-11.171l-0.876,0.657V59.474z M52.173,57.867
		c0.194-0.097,0.365-0.206,0.511-0.328c0.146-0.122,0.292-0.231,0.438-0.328L53.049,45.82v-0.949v-0.146v0.146l-0.876,5.695V57.867z
		 M56.042,34.138l-3.14-7.593l0.585,5.987L56.042,34.138z M54.436,36.183l0.22-1.168l1.168,0.73l0.438-0.73l-2.702-1.533
		l-0.292,6.499l1.972-3.286L54.436,36.183z"/>
</g>
</svg>
