<svg width="60" height="60" viewBox="0 0 60 60" version="1.1" xmlns="http://www.w3.org/2000/svg" xmlns:xlink="http://www.w3.org/1999/xlink">
<title>logo-imperial</title>
<desc>Created using Figma</desc>
<g id="Canvas" transform="translate(486 31)">
<g id="logo-imperial">
<g id="l1">
<g id="p1">
<use xlink:href="#path0_fill" transform="translate(-486 -31)"/>
</g>
</g>
</g>
</g>
<defs>
<path id="path0_fill" d="M 30 -1.50879e-07C 13.44 -1.50879e-07 -7.2168e-07 13.44 -7.2168e-07 30C -7.2168e-07 46.56 13.44 60 30 60C 46.56 60 60 46.56 60 30C 60 13.44 46.56 -1.50879e-07 30 -1.50879e-07ZM 28.5842 2.48725C 28.6011 2.48639 28.6183 2.48807 28.6352 2.48725L 28.7628 4.52169C 27.0324 4.60418 25.3483 4.85652 23.7245 5.26786L 24.2283 7.25128C 19.9661 8.33087 16.1698 10.5754 13.1952 13.6288L 11.7347 12.2003C 10.5469 13.4189 9.48492 14.7574 8.55868 16.1926L 6.84949 15.0638C 11.5176 7.84605 19.469 2.94979 28.5842 2.48725ZM 31.3648 2.48725C 40.5011 2.93418 48.4738 7.83268 53.1505 15.0638L 51.4413 16.1926C 50.5172 14.761 49.4562 13.4227 48.2717 12.2066L 46.8112 13.6288C 43.8361 10.5738 40.0354 8.33125 35.7717 7.25128L 36.2755 5.26786C 34.6517 4.85652 32.9676 4.60418 31.2372 4.52169L 31.3648 2.48725ZM 30 11.4796C 30.8673 11.4776 31.7347 11.5306 32.449 11.6327L 31.3329 20.9184C 33.6789 21.2605 35.7357 22.4883 37.1556 24.2538L 44.6046 18.6671C 45.5094 19.7943 46.5352 21.5626 47.0727 22.9018L 38.514 26.5625C 38.9442 27.6253 39.1837 28.7835 39.1837 30C 39.1837 31.172 38.9658 32.2919 38.565 33.3227L 47.0536 36.9515C 46.5298 38.2987 45.5148 40.0638 44.6237 41.199L 37.2258 35.6633C 35.8077 37.4692 33.7273 38.7303 31.352 39.0816L 32.449 48.2143C 31.0204 48.4343 28.9796 48.4311 27.551 48.227L 28.648 39.0816C 26.2709 38.73 24.1923 37.4649 22.7742 35.6569L 15.3954 41.1926C 14.4906 40.0654 13.4648 38.2971 12.9273 36.9579L 21.4349 33.3163C 21.0356 32.287 20.8163 31.1699 20.8163 30C 20.8163 28.7814 21.0544 27.6205 21.486 26.5561L 12.9464 22.9082C 13.4702 21.561 14.4852 19.7958 15.3763 18.6607L 22.8444 24.2538C 24.2643 22.4883 26.3211 21.2605 28.6671 20.9184L 27.551 11.6454C 28.2653 11.5354 29.1327 11.4816 30 11.4796ZM 5.48469 17.4235L 7.32143 18.3291C 6.54675 19.8309 5.91337 21.4165 5.44643 23.074L 7.41071 23.6288C 6.83967 25.6554 6.53061 27.7916 6.53061 30C 6.53061 32.2105 6.83859 34.3493 7.41071 36.3775L 5.44643 36.9324C 5.91305 38.5872 6.54771 40.1714 7.32143 41.6709L 5.48469 42.5765C 3.54488 38.8054 2.44898 34.5301 2.44898 30C 2.44898 25.4699 3.54488 21.1946 5.48469 17.4235ZM 54.5153 17.4235C 56.4551 21.1946 57.551 25.4699 57.551 30C 57.551 34.5301 56.4551 38.8054 54.5153 42.5765L 52.6786 41.6709C 53.4526 40.1709 54.0868 38.5877 54.5536 36.9324L 52.5893 36.3775C 53.1614 34.3493 53.4694 32.2105 53.4694 30C 53.4694 27.7916 53.1603 25.6554 52.5893 23.6288L 54.5536 23.074C 54.0868 21.417 53.4529 19.8306 52.6786 18.3291L 54.5153 17.4235ZM 8.55868 43.8074C 9.48527 45.2425 10.5468 46.5811 11.7347 47.7997L 13.1952 46.3712C 16.1698 49.4246 19.9661 51.6691 24.2283 52.7487L 23.7245 54.7321C 25.3483 55.1435 27.0324 55.3958 28.7628 55.4783L 28.6352 57.5127C 19.4989 57.0658 11.5262 52.1673 6.84949 44.9362L 8.55868 43.8074ZM 51.4477 43.8074L 53.1505 44.9362C 48.4738 52.1673 40.5011 57.0658 31.3648 57.5127L 31.2372 55.4783C 32.9676 55.3958 34.6517 55.1435 36.2755 54.7321L 35.7717 52.7487C 40.0354 51.6688 43.8361 49.4262 46.8112 46.3712L 48.2717 47.7934C 49.4577 46.5758 50.5224 45.2409 51.4477 43.8074Z"/>
</defs>
</svg>