<svg viewBox="0 0 60 60" xmlns="http://www.w3.org/2000/svg" xmlns:xlink="http://www.w3.org/1999/xlink">
  <path d="M30 0C13.44 0 0 13.44 0 30C0 46.56 13.44 60 30 60C46.56 60 60 46.56 60 30C60 13.44 46.56 0 30 0ZM28.5842 2.48725C28.6011 2.48639 28.6183 2.48807 28.6352 2.48725L28.7628 4.52169C27.0324 4.60418 25.3483 4.85652 23.7245 5.26786L24.2283 7.25128C19.9661 8.33087 16.1698 10.5754 13.1952 13.6288L11.7347 12.2003C10.5469 13.4189 9.48492 14.7574 8.55868 16.1926L6.84949 15.0638C11.5176 7.84605 19.469 2.94979 28.5842 2.48725ZM31.3648 2.48725C40.5011 2.93418 48.4738 7.83268 53.1505 15.0638L51.4413 16.1926C50.5172 14.761 49.4562 13.4227 48.2717 12.2066L46.8112 13.6288C43.8361 10.5738 40.0354 8.33125 35.7717 7.25128L36.2755 5.26786C34.6517 4.85652 32.9676 4.60418 31.2372 4.52169L31.3648 2.48725ZM30 11.4796C30.8673 11.4776 31.7347 11.5306 32.449 11.6327L31.3329 20.9184C33.6789 21.2605 35.7357 22.4883 37.1556 24.2538L44.6046 18.6671C45.5094 19.7943 46.5352 21.5626 47.0727 22.9018L38.514 26.5625C38.9442 27.6253 39.1837 28.7835 39.1837 30C39.1837 31.172 38.9658 32.2919 38.565 33.3227L47.0536 36.9515C46.5298 38.2987 45.5148 40.0638 44.6237 41.199L37.2258 35.6633C35.8077 37.4692 33.7273 38.7303 31.352 39.0816L32.449 48.2143C31.0204 48.4343 28.9796 48.4311 27.551 48.227L28.648 39.0816C26.2709 38.73 24.1923 37.4649 22.7742 35.6569L15.3954 41.1926C14.4906 40.0654 13.4648 38.2971 12.9273 36.9579L21.4349 33.3163C21.0356 32.287 20.8163 31.1699 20.8163 30C20.8163 28.7814 21.0544 27.6205 21.486 26.5561L12.9464 22.9082C13.4702 21.561 14.4852 19.7958 15.3763 18.6607L22.8444 24.2538C24.2643 22.4883 26.3211 21.2605 28.6671 20.9184L27.551 11.6454C28.2653 11.5354 29.1327 11.4816 30 11.4796ZM5.48469 17.4235L7.32143 18.3291C6.54675 19.8309 5.91337 21.4165 5.44643 23.074L7.41071 23.6288C6.83967 25.6554 6.53061 27.7916 6.53061 30C6.53061 32.2105 6.83859 34.3493 7.41071 36.3775L5.44643 36.9324C5.91305 38.5872 6.54771 40.1714 7.32143 41.6709L5.48469 42.5765C3.54488 38.8054 2.44898 34.5301 2.44898 30C2.44898 25.4699 3.54488 21.1946 5.48469 17.4235ZM54.5153 17.4235C56.4551 21.1946 57.551 25.4699 57.551 30C57.551 34.5301 56.4551 38.8054 54.5153 42.5765L52.6786 41.6709C53.4526 40.1709 54.0868 38.5877 54.5536 36.9324L52.5893 36.3775C53.1614 34.3493 53.4694 32.2105 53.4694 30C53.4694 27.7916 53.1603 25.6554 52.5893 23.6288L54.5536 23.074C54.0868 21.417 53.4529 19.8306 52.6786 18.3291L54.5153 17.4235ZM8.55868 43.8074C9.48527 45.2425 10.5468 46.5811 11.7347 47.7997L13.1952 46.3712C16.1698 49.4246 19.9661 51.6691 24.2283 52.7487L23.7245 54.7321C25.3483 55.1435 27.0324 55.3958 28.7628 55.4783L28.6352 57.5127C19.4989 57.0658 11.5262 52.1673 6.84949 44.9362L8.55868 43.8074ZM51.4477 43.8074L53.1505 44.9362C48.4738 52.1673 40.5011 57.0658 31.3648 57.5127L31.2372 55.4783C32.9676 55.3958 34.6517 55.1435 36.2755 54.7321L35.7717 52.7487C40.0354 51.6688 43.8361 49.4262 46.8112 46.3712L48.2717 47.7934C49.4577 46.5758 50.5224 45.2409 51.4477 43.8074Z"/>
</svg>