<?xml version="1.0" encoding="utf-8"?>
<!-- Generator: Adobe Illustrator 16.0.0, SVG Export Plug-In . SVG Version: 6.00 Build 0)  -->
<!DOCTYPE svg PUBLIC "-//W3C//DTD SVG 1.1//EN" "http://www.w3.org/Graphics/SVG/1.1/DTD/svg11.dtd">
<svg version="1.1" id="Layer_1" xmlns="http://www.w3.org/2000/svg" xmlns:xlink="http://www.w3.org/1999/xlink" x="0px" y="0px"
	 width="100%" height="100%" viewBox="0 0 72 72" enable-background="new 0 0 72 72" xml:space="preserve">
<g>
	<path fill="black" d="M24.069,8.111c3.733-1.61,7.66-2.415,11.785-2.415c4.123,0,8.051,0.805,11.785,2.415
		c3.732,1.61,6.953,3.77,9.662,6.478c2.708,2.708,4.867,5.929,6.478,9.662S66.193,31.9,66.193,36s-0.805,8.028-2.415,11.785
		c-1.61,3.758-3.77,6.99-6.478,9.698c-2.709,2.708-5.93,4.868-9.662,6.479c-3.733,1.61-7.662,2.415-11.785,2.415
		c-4.125,0-8.052-0.805-11.785-2.415c-3.733-1.61-6.954-3.771-9.662-6.479c-2.708-2.708-4.868-5.94-6.478-9.698
		C6.319,44.027,5.514,40.099,5.514,36s0.805-8.015,2.416-11.748s3.77-6.954,6.478-9.662C17.115,11.881,20.336,9.722,24.069,8.111z
		 M15.542,16.529l1.098,3.367c-1.123,1.171-2.123,2.758-3.001,4.758c-0.196,0.391-0.391,0.818-0.585,1.281
		c-0.196,0.464-0.355,0.878-0.476,1.244c-0.122,0.366-0.245,0.721-0.366,1.062c-0.123,0.342-0.232,0.647-0.33,0.915
		c-0.098,0.269-0.171,0.5-0.22,0.695c-0.049,0.195-0.098,0.342-0.146,0.439v0.146l-2.123,0.952l-0.146,1.464l2.123-1.245
		c0.976-2.781,1.757-4.806,2.342-6.075c0.439-0.829,0.89-1.622,1.354-2.379c0.463-0.756,0.878-1.365,1.244-1.83
		c0.366-0.463,0.707-0.866,1.025-1.208c0.317-0.341,0.573-0.585,0.769-0.732l0.22-0.22L15.542,16.529z M13.712,38.854
		c0.585,2.733,1.146,4.709,1.684,5.929c0.244,0.585,0.659,1.317,1.244,2.195c0.585,0.879,1.098,1.636,1.537,2.27l0.659,0.878
		l0.585-0.438c-1.269-1.61-2.367-3.392-3.293-5.344c-0.099-0.243-0.208-0.536-0.33-0.878c-0.123-0.341-0.245-0.684-0.366-1.025
		c-0.123-0.341-0.232-0.695-0.33-1.062c-0.098-0.365-0.183-0.706-0.256-1.024c-0.073-0.316-0.146-0.609-0.219-0.878
		c-0.073-0.268-0.135-0.476-0.183-0.622v-0.146L13.712,38.854z M35.378,10.015l-2.562,0.22c-1.756,2.831-3.172,4.856-4.245,6.075
		c-0.538,0.585-1.306,1.33-2.306,2.232c-1.001,0.904-1.892,1.696-2.672,2.379l-1.098,0.952l-5.783-5.709l-0.22,0.22l2.855,3.294
		l-1.684,2.635l2.416,4.904l-4.172-1.83l-0.366,1.245l4.685,1.976l-0.146,0.659l-0.952-0.146c-0.099,0.195-0.196,0.452-0.293,0.769
		c-0.098,0.318-0.245,0.988-0.439,2.013c-0.196,1.025-0.293,2.062-0.293,3.111c0,1.05,0.134,2.306,0.403,3.77
		c0.268,1.464,0.719,2.854,1.354,4.172c0.536,1.171,1.195,2.27,1.976,3.294c0.78,1.024,1.512,1.843,2.196,2.452
		c0.683,0.61,1.341,1.123,1.976,1.537c0.634,0.415,1.122,0.721,1.464,0.915l0.585,0.22l0.293-0.293l0.439,0.512l-0.366,0.806
		l0.293,0.293l-2.855,6.588l0.659,0.292l3.147-7.1c0.146,0.049,0.33,0.099,0.549,0.146c0.219,0.049,0.683,0.159,1.391,0.329
		c0.707,0.172,1.391,0.293,2.049,0.366s1.5,0.135,2.525,0.183c1.025,0.05,1.952,0,2.782-0.146c1.414-0.194,2.817-0.561,4.209-1.098
		c1.391-0.536,2.402-1.024,3.037-1.464l1.024-0.659l0.659,0.439c1.269-1.317,2.146-2.293,2.635-2.928l1.83-2.562l2.854,1.684
		c0.487-1.269,0.806-2.147,0.952-2.636l0.439-2.195l4.099-1.099c0.146-0.976,0.243-1.684,0.293-2.122v-1.903l-8.198-0.22
		l-0.22,2.635l-0.731,0.366l-0.146,0.586l0.438,0.293c-0.391,1.366-1.073,2.928-2.049,4.685c-0.538,0.977-1.111,1.818-1.721,2.524
		c-0.61,0.708-1.086,1.208-1.427,1.501l-0.586,0.366l-1.537-0.659l-0.951,0.732v0.366l-2.196,0.731l-5.343,0.951l-0.439-0.438
		c-0.684,0.098-1.439,0.073-2.269-0.073c-0.342-0.048-0.684-0.121-1.024-0.22c-0.342-0.098-0.586-0.194-0.732-0.293l-0.22-0.146
		l-0.146,0.366l-4.318-1.903l-2.782-2.708l-3.294-4.685l-0.951-4.611l-0.293-3.074l0.439-0.586l0.366-1.976V30.29l0.732-1.464
		l-1.025-1.757c0.732-1.171,1.292-2,1.684-2.489c0.194-0.194,0.463-0.45,0.805-0.769c0.341-0.316,0.634-0.573,0.878-0.769
		l0.439-0.366l0.22,0.22l1.977-1.391l-0.22-0.366l4.245-1.757l0.22,0.22l1.83-0.366v-0.219l3.001-0.366L35.378,10.015z
		 M16.64,15.578l5.563,5.417c3.074-2.537,5.197-4.489,6.368-5.856c0.829-0.976,1.598-2,2.306-3.074
		c0.707-1.073,1.208-1.927,1.5-2.562l0.439-0.878c-0.342,0-0.817,0.037-1.427,0.11c-0.611,0.073-1.793,0.342-3.55,0.805
		c-1.757,0.464-3.44,1.11-5.051,1.939c-1.123,0.585-2.196,1.22-3.221,1.903c-1.024,0.684-1.756,1.22-2.196,1.61L16.64,15.578z
		 M20.189,13.528c0.366-0.39,0.78-0.366,1.245,0.073c0.463,0.439,0.5,0.854,0.11,1.245c-0.391,0.391-0.805,0.366-1.245-0.073
		C19.86,14.333,19.824,13.919,20.189,13.528z M21.178,13.931c0-0.317-0.171-0.476-0.512-0.476c-0.342,0-0.512,0.159-0.512,0.476
		c0,0.318,0.17,0.476,0.512,0.476C21.006,14.406,21.178,14.249,21.178,13.931z M23.081,31.681c1.171-2.488,2.562-4.392,4.172-5.709
		c0.78-0.586,1.817-1.146,3.111-1.684c1.292-0.537,2.427-0.829,3.403-0.878c2.244-0.146,3.916-0.061,5.014,0.256
		c1.099,0.318,2.306,0.915,3.624,1.793c0.779,0.538,1.537,1.196,2.269,1.977c0.732,0.781,1.391,1.647,1.977,2.598
		c0.585,0.952,0.976,1.892,1.171,2.818c0.439,1.317,0.573,2.843,0.402,4.575c-0.171,1.732-0.647,3.33-1.427,4.794
		c-0.538,1.074-1.221,2.026-2.05,2.855c-0.83,0.83-1.513,1.391-2.05,1.684l-0.805,0.438H41.16c-0.146,0.099-0.378,0.196-0.695,0.293
		c-0.317,0.099-0.891,0.245-1.72,0.439c-0.83,0.195-1.586,0.269-2.269,0.22c-3.514-0.098-6.417-1.172-8.71-3.221
		c-1.66-1.464-2.782-3.074-3.367-4.831c-0.439-1.317-0.695-2.586-0.769-3.807c-0.073-1.219-0.037-2.097,0.11-2.635l0.22-0.805
		L23.52,32.12c-0.098,0.292-0.219,0.72-0.366,1.281c-0.146,0.562-0.172,1.66-0.073,3.294c0.097,1.635,0.487,3.184,1.171,4.647
		c0.586,1.317,1.537,2.587,2.855,3.807c1.317,1.22,2.659,2.099,4.026,2.635c1.171,0.488,2.317,0.805,3.44,0.951
		c1.122,0.146,2.085,0.172,2.891,0.073c0.806-0.097,1.537-0.23,2.196-0.402c0.658-0.17,1.135-0.329,1.427-0.476l0.513-0.293
		l1.83,0.951c1.854-1.464,3.342-3.024,4.465-4.685c0.439-0.633,0.793-1.292,1.062-1.976c0.268-0.684,0.427-1.22,0.476-1.61
		l0.073-0.513l0.439-0.22l0.073-0.585l-0.293-0.146c0.097-1.172,0.146-2.05,0.146-2.635l-0.073-2.562l0.293-0.293l-0.22-1.244
		l-0.439-0.073l-1.317-3.074v-0.585l-0.879-1.318l-0.365-0.073c-0.732-0.926-1.317-1.561-1.757-1.903
		c-1.563-1.122-2.88-1.927-3.953-2.416c-0.244-0.097-0.562-0.194-0.951-0.293c-0.392-0.097-0.757-0.183-1.098-0.256
		c-0.342-0.073-0.685-0.146-1.025-0.22c-0.342-0.073-0.61-0.11-0.805-0.11l-0.293-0.073l-0.293-0.439l-0.439,0.146l-3.44,0.22V21.36
		l-1.464,0.292v0.293l-3.586,1.684l-0.585-0.073l-1.171,0.732l-0.073,0.366c-0.83,0.781-1.44,1.391-1.83,1.83
		c-0.488,0.585-0.915,1.196-1.281,1.83c-0.366,0.635-0.622,1.123-0.769,1.464l-0.22,0.512L23.081,31.681z M24.691,53.64
		c-0.196-0.097-0.415-0.109-0.659-0.036c-0.245,0.073-0.439,0.256-0.586,0.549c-0.342,0.585-0.269,1.024,0.22,1.317
		c0.194,0.099,0.414,0.099,0.659,0c0.244-0.098,0.439-0.268,0.585-0.513C25.251,54.372,25.179,53.933,24.691,53.64z M23.923,55.323
		c-0.269,0-0.403-0.146-0.403-0.439c0-0.292,0.134-0.438,0.403-0.438c0.268,0,0.402,0.146,0.402,0.438
		C24.325,55.177,24.19,55.323,23.923,55.323z M24.179,33.364l1.61,1.83l-1.024,0.22v0.366l1.684-0.073
		c0-0.097-0.013-0.22-0.037-0.366c-0.025-0.146-0.013-0.439,0.037-0.878c0.048-0.439,0.146-0.89,0.292-1.354
		c0.146-0.463,0.427-1.012,0.842-1.647c0.414-0.634,0.915-1.269,1.5-1.903c0.293-0.244,0.585-0.487,0.878-0.732
		c0.293-0.244,0.573-0.439,0.842-0.585c0.268-0.146,0.536-0.28,0.805-0.403c0.268-0.121,0.512-0.207,0.732-0.256
		c0.22-0.048,0.402-0.098,0.549-0.146c0.146-0.048,0.268-0.097,0.366-0.146h0.146l-0.366-2.123c-0.098,0-0.208,0.012-0.329,0.037
		c-0.123,0.025-0.403,0.085-0.842,0.183c-0.439,0.099-0.867,0.245-1.281,0.439c-0.415,0.195-0.94,0.501-1.574,0.915
		c-0.635,0.415-1.27,0.891-1.903,1.427c-0.391,0.391-0.769,0.842-1.135,1.354c-0.366,0.512-0.659,0.977-0.878,1.391
		c-0.219,0.416-0.391,0.818-0.512,1.208c-0.123,0.391-0.208,0.684-0.256,0.878L24.179,33.364z M24.911,36.438l0.073,0.513
		l2.196-0.22l4.538,4.318l0.512-0.22l0.22-0.805c-0.146-0.048-0.306-0.121-0.476-0.22c-0.171-0.098-0.428-0.402-0.769-0.915
		c-0.342-0.513-0.61-1.158-0.805-1.939c-0.049-0.244-0.073-0.5-0.073-0.769c0-0.268,0.011-0.5,0.037-0.696
		c0.024-0.194,0.061-0.39,0.109-0.585c0.048-0.194,0.097-0.354,0.146-0.476c0.048-0.121,0.097-0.231,0.146-0.33
		c0.048-0.097,0.097-0.17,0.146-0.219l0.073-0.073l-2.782-1.61c-0.391,0.538-0.684,1.147-0.878,1.83
		c-0.049,0.245-0.085,0.562-0.109,0.952c-0.025,0.391-0.013,0.708,0.036,0.952v0.439L24.911,36.438z M27.583,37.829
		c-0.123-0.146-0.269-0.22-0.439-0.22c-0.172,0-0.33,0.073-0.476,0.22s-0.219,0.306-0.219,0.476c0,0.172,0.073,0.318,0.219,0.439
		c0.146,0.122,0.304,0.184,0.476,0.184c0.17,0,0.316-0.062,0.439-0.184c0.121-0.121,0.183-0.268,0.183-0.439
		C27.766,38.135,27.704,37.976,27.583,37.829z M27.07,38.854c-0.172,0-0.256-0.11-0.256-0.33s0.084-0.329,0.256-0.329
		c0.17,0,0.256,0.109,0.256,0.329S27.241,38.854,27.07,38.854z M28.205,39.696c0-0.22-0.146-0.33-0.439-0.33
		c-0.293,0-0.439,0.11-0.439,0.33c0,0.219,0.146,0.329,0.439,0.329C28.058,40.025,28.205,39.915,28.205,39.696z M29.998,9.063
		c0.268,0.196,0.427,0.476,0.476,0.842c0.048,0.366-0.012,0.708-0.183,1.025c-0.172,0.318-0.416,0.512-0.732,0.585
		c-0.318,0.073-0.611,0.013-0.878-0.183c-0.269-0.194-0.428-0.463-0.476-0.805c-0.049-0.244-0.037-0.476,0.037-0.695
		c0.073-0.219,0.183-0.414,0.33-0.585c0.146-0.17,0.317-0.28,0.512-0.33C29.424,8.819,29.729,8.869,29.998,9.063z M29.888,10.125
		c0.244-0.366,0.183-0.67-0.183-0.915c-0.366-0.244-0.671-0.183-0.915,0.183c-0.245,0.366-0.183,0.671,0.183,0.915
		C29.339,10.552,29.644,10.49,29.888,10.125z M34.061,24.947l0.292,3.221c-1.123,0.098-2.123,0.415-3.001,0.952
		c-0.195,0.146-0.391,0.281-0.585,0.402c-0.196,0.123-0.366,0.245-0.512,0.366c-0.146,0.122-0.306,0.245-0.476,0.366
		c-0.171,0.123-0.305,0.245-0.402,0.366c-0.099,0.122-0.196,0.219-0.293,0.292c-0.098,0.073-0.171,0.135-0.22,0.183l-0.073,0.073
		l3.66,2.342c-0.146,0.098-0.293,0.245-0.439,0.439c-0.146,0.196-0.318,0.598-0.512,1.208c-0.195,0.611-0.245,1.208-0.146,1.793
		c0.048,0.391,0.17,0.757,0.366,1.098c0.194,0.342,0.402,0.622,0.622,0.842s0.451,0.415,0.695,0.586
		c0.244,0.171,0.439,0.305,0.585,0.402l0.22,0.073l-1.025,1.464l0.146,0.659l-1.976,3.147l0.366,0.512l2.05-3.221l2.562,1.83
		c0.195,0,0.439-0.012,0.732-0.036c0.293-0.024,0.89-0.257,1.794-0.695c0.902-0.439,1.768-1.049,2.598-1.83
		c1.61-1.513,2.317-3.757,2.123-6.734c-0.049-0.536-0.183-1.085-0.402-1.647c-0.22-0.561-0.476-1.061-0.769-1.5
		c-0.293-0.439-0.599-0.842-0.915-1.208c-0.318-0.366-0.574-0.646-0.769-0.842l-0.293-0.293l2.123-2.416
		c-1.563-1.025-2.904-1.684-4.026-1.976c-0.635-0.146-1.28-0.244-1.939-0.293c-0.659-0.048-1.184-0.048-1.574,0L34.061,24.947z
		 M30.181,45.003l0.366,0.22l1.903-3.221l0.073-0.586l-0.513,0.146L30.181,45.003z M32.67,62.131l1.391,0.146l2.563-3.66
		c2.829,0.146,5.221-0.048,7.173-0.586c1.707-0.438,3.977-1.438,6.807-3.001c0.391-0.194,0.866-0.512,1.428-0.951
		c0.561-0.439,1.036-0.829,1.428-1.171l0.585-0.513l0.439-0.146l3.074,0.806c1.464-2.147,2.464-3.758,3.001-4.831
		c0.243-0.537,0.78-2.196,1.61-4.978l0.366-1.537l-0.22-0.22l-4.758,0.951c-0.635,2.538-1.27,4.368-1.903,5.49
		c-0.977,1.708-2.269,3.27-3.879,4.685c-1.318,1.171-3.001,2.269-5.051,3.294c-1.952,0.928-3.782,1.563-5.49,1.903
		c-0.927,0.195-1.866,0.305-2.817,0.329c-0.952,0.025-1.672,0.036-2.16,0.036l-0.805-0.073L32.67,62.131z M33.329,9.063
		l-0.073,0.513c0.341,0,0.842-0.024,1.5-0.073c0.659-0.048,1.914,0.037,3.77,0.256c1.854,0.22,3.623,0.623,5.307,1.208
		s3.367,1.367,5.051,2.342c1.684,0.977,2.915,1.806,3.696,2.489l1.244,1.098l0.22-0.512c-0.293-0.293-0.695-0.67-1.208-1.135
		c-0.512-0.463-1.586-1.208-3.221-2.232s-3.257-1.805-4.867-2.342c-1.952-0.683-3.868-1.159-5.746-1.427
		c-1.879-0.268-3.306-0.354-4.282-0.256L33.329,9.063z M36.403,15.138l-0.073,3.66c1.464,0.098,2.537,0.22,3.22,0.366
		c0.293,0.099,0.671,0.232,1.135,0.403c0.463,0.171,0.842,0.329,1.135,0.476l0.513,0.22l1.537-3.514
		c-1.807-0.536-3.124-0.902-3.953-1.098L36.403,15.138z M36.476,10.161v4.172c2.927,0.196,5.513,0.805,7.758,1.83
		c0.537,0.293,1.122,0.622,1.757,0.988c0.634,0.366,1.208,0.732,1.721,1.098c0.512,0.366,0.988,0.721,1.427,1.062
		c0.439,0.342,0.78,0.611,1.025,0.805l0.365,0.293l2.709-3.074c-0.196-0.195-0.488-0.476-0.879-0.842
		c-0.391-0.366-1.232-1-2.525-1.903c-1.293-0.902-2.671-1.671-4.136-2.306c-1.464-0.683-2.964-1.195-4.501-1.537
		c-1.537-0.341-2.721-0.536-3.55-0.585H36.476z M42.917,27.801l-1.61,1.61c0.194,0.146,0.427,0.379,0.695,0.695
		c0.268,0.318,0.671,0.915,1.208,1.793c0.536,0.878,0.854,1.708,0.951,2.489c0.098,0.684,0.158,1.306,0.184,1.867
		c0.023,0.562-0.025,1.098-0.146,1.61c-0.122,0.512-0.208,0.903-0.256,1.171c-0.05,0.269-0.22,0.647-0.513,1.135
		c-0.293,0.488-0.465,0.781-0.513,0.878c-0.049,0.099-0.269,0.392-0.658,0.879c-0.293,0.488-0.831,0.988-1.61,1.5
		c-0.781,0.513-1.489,0.892-2.123,1.135l-0.878,0.439l0.146,1.83l0.512-0.073l0.073-0.806l0.806,0.806
		c0.097-0.049,0.219-0.085,0.365-0.11c0.146-0.023,0.451-0.134,0.915-0.329c0.464-0.194,0.902-0.439,1.317-0.732
		c0.414-0.293,0.903-0.695,1.465-1.207c0.56-0.513,1.061-1.086,1.5-1.721c0.634-0.926,1.146-2.159,1.537-3.696
		c0.39-1.537,0.513-2.915,0.366-4.136c-0.099-0.536-0.22-1.061-0.366-1.574c-0.146-0.512-0.342-0.988-0.586-1.427
		c-0.244-0.439-0.488-0.866-0.731-1.281c-0.245-0.414-0.488-0.78-0.732-1.098c-0.244-0.317-0.464-0.597-0.658-0.842
		c-0.195-0.244-0.366-0.439-0.513-0.585L42.917,27.801z M42.332,56.421l1.244-0.292l-0.22-0.879c1.512-0.634,2.635-1.171,3.367-1.61
		l3.44-2.342l1.464,0.365c0.779-0.878,1.341-1.561,1.684-2.049l1.464-2.27l-2.123-1.317c-1.171,1.709-2.099,2.928-2.781,3.66
		c-1.221,1.171-2.514,2.221-3.88,3.147c-0.195,0.146-0.476,0.317-0.842,0.512c-0.365,0.196-0.731,0.366-1.098,0.513
		s-0.708,0.293-1.024,0.439c-0.318,0.146-0.574,0.269-0.769,0.366l-0.293,0.146L42.332,56.421z M43.283,20.701
		c1.415,0.732,2.391,1.318,2.928,1.757c0.244,0.196,0.536,0.464,0.879,0.805c0.341,0.342,0.633,0.635,0.878,0.878l0.366,0.366v0.439
		l2.195,3.367l0.293-0.073l1.171,3.074l-0.292,0.22l0.365,1.61l0.293,0.22l0.293,2.416l8.418,0.073
		c-0.099-2.293-0.27-3.977-0.513-5.051c-0.099-0.536-0.293-1.231-0.586-2.086c-0.292-0.853-0.562-1.598-0.805-2.232l-0.366-0.952
		l-4.245,1.977c-1.709-2.879-3.074-4.879-4.1-6.002c-0.391-0.439-0.854-0.878-1.391-1.317s-1.037-0.816-1.5-1.135
		c-0.465-0.316-0.903-0.609-1.317-0.878c-0.416-0.268-0.745-0.476-0.988-0.623l-0.439-0.219L43.283,20.701z M51.481,15.943v0.073
		c0.341,0.245,0.366,0.562,0.073,0.952c-0.293,0.391-0.611,0.452-0.952,0.183c-0.342-0.268-0.365-0.597-0.073-0.988
		c0.146-0.194,0.341-0.292,0.586-0.292c-0.099,0-0.172,0.025-0.22,0.073c-0.146,0.196-0.109,0.392,0.11,0.586
		c0.219,0.195,0.402,0.195,0.549,0C51.701,16.335,51.676,16.139,51.481,15.943z M51.188,21.067c0.927,1.074,1.585,1.903,1.977,2.489
		l1.61,2.928l3.586-1.83c-0.731-1.464-1.317-2.537-1.756-3.221l-2.489-3.22L51.188,21.067z M54.556,17.627
		c0.293,0.342,0.683,0.818,1.171,1.427c0.487,0.611,1.281,1.83,2.379,3.66c1.098,1.83,1.915,3.623,2.452,5.38
		c0.586,1.855,0.951,3.843,1.098,5.965c0.146,2.123,0.146,3.795,0,5.014l-0.293,1.757l0.732-0.146
		c0.048-0.146,0.098-0.365,0.146-0.658c0.048-0.293,0.097-0.915,0.146-1.866c0.048-0.952,0.048-1.903,0-2.855
		c-0.05-0.952-0.172-2.11-0.366-3.477c-0.195-1.366-0.488-2.683-0.878-3.953c-0.538-1.805-1.318-3.574-2.343-5.307
		c-1.024-1.731-1.903-3.038-2.635-3.916l-1.099-1.317L54.556,17.627z M57.923,33.145c0,0.245-0.086,0.452-0.257,0.623
		c-0.171,0.171-0.378,0.256-0.622,0.256s-0.451-0.084-0.622-0.256c-0.172-0.17-0.256-0.377-0.256-0.623
		c0-0.243,0.084-0.439,0.256-0.585c0.171-0.146,0.378-0.219,0.622-0.219c0.293,0,0.513,0.098,0.659,0.292
		c-0.05-0.048-0.123-0.073-0.22-0.073c-0.293,0-0.439,0.183-0.439,0.549c0,0.366,0.146,0.549,0.439,0.549
		C57.727,33.657,57.873,33.487,57.923,33.145z"/>
</g>
</svg>
