<?xml version="1.0" encoding="utf-8"?>
<!-- Generator: Adobe Illustrator 16.0.0, SVG Export Plug-In . SVG Version: 6.00 Build 0)  -->
<!DOCTYPE svg PUBLIC "-//W3C//DTD SVG 1.1//EN" "http://www.w3.org/Graphics/SVG/1.1/DTD/svg11.dtd">
<svg version="1.1" id="Layer_1" xmlns="http://www.w3.org/2000/svg" xmlns:xlink="http://www.w3.org/1999/xlink" x="0px" y="0px"
	 width="100%" height="100%" viewBox="0 0 72 72" enable-background="new 0 0 72 72" xml:space="preserve">
<g>
	<path fill="black" d="M24.105,7.892c3.757-1.61,7.697-2.416,11.821-2.416c4.123,0,8.063,0.805,11.821,2.416
		c3.757,1.61,7.002,3.782,9.735,6.514c2.731,2.733,4.904,5.979,6.515,9.735c1.61,3.758,2.415,7.711,2.415,11.858
		c0,4.147-0.805,8.101-2.415,11.858s-3.782,6.99-6.515,9.697c-2.733,2.709-5.979,4.868-9.735,6.479
		c-3.759,1.61-7.698,2.415-11.821,2.415c-4.124,0-8.064-0.805-11.821-2.415c-3.758-1.61-7.002-3.771-9.735-6.479
		c-2.733-2.707-4.904-5.939-6.515-9.697C6.246,44.102,5.44,40.146,5.44,36c0-4.147,0.805-8.1,2.416-11.858
		c1.61-3.757,3.781-7.002,6.515-9.735C17.103,11.674,20.348,9.502,24.105,7.892z M25.57,31.827
		c-0.245-1.366-0.416-3.025-0.513-4.977c-0.049-1.708,0.097-3.587,0.439-5.636c0.146-0.78,0.329-1.585,0.549-2.416
		c0.22-0.829,0.403-1.439,0.549-1.83l0.22-0.659l0.146-0.146l0.585-0.292l29.645,7.027l0.146,0.219
		c-0.1,0.245-0.195,0.622-0.293,1.135c-0.098,0.512-0.232,1.684-0.402,3.513c-0.172,1.83-0.207,3.819-0.108,5.966
		c0.048,0.83,0.229,1.903,0.549,3.221c0.315,1.317,0.622,2.44,0.915,3.366l0.438,1.317c-0.098,0.392-0.22,0.61-0.365,0.658
		l-1.024,0.073l-18.958-2.854l-0.438,0.293c0.877,1.463,1.463,2.465,1.756,3c0.341,0.685,0.806,1.807,1.392,3.367
		c0.976,0.439,1.769,0.94,2.379,1.5c0.609,0.563,0.964,1.014,1.062,1.354l0.22,0.514l3.294,11.271
		c4.732-2.293,8.527-5.66,11.382-10.102c2.854-4.439,4.282-9.369,4.282-14.786c0-3.708-0.73-7.258-2.195-10.65
		c-1.464-3.391-3.43-6.319-5.893-8.784c-2.465-2.464-5.393-4.429-8.784-5.893c-3.392-1.464-6.953-2.196-10.686-2.196
		s-7.296,0.732-10.687,2.196c-3.392,1.464-6.32,3.429-8.784,5.893c-2.464,2.464-4.428,5.393-5.892,8.784
		c-1.464,3.392-2.196,6.942-2.196,10.65c0,6.929,2.293,12.981,6.88,18.153l2.635-6.223c0.243-0.633,1.341-1.293,3.293-1.977
		c0.586-0.243,1.366-0.439,2.342-0.586l-0.073-0.878h0.073l-0.073-0.513l-0.366,0.072l0.073,0.146l-0.805,0.513l-0.366,0.146
		L21.837,45l-0.146,0.073l-0.146-0.22l-1.025-0.221l-1.391-4.025l-0.878-2.709l0.073-0.512l0.732-0.732l0.146,0.221l-0.659,0.585
		l-0.146,0.513l2.196,6.441l0.22,0.072l1.537-1.243V42.88l-0.805-2.123v-0.073c-0.196-0.341-0.318-0.584-0.366-0.73l-0.512-0.732
		l-0.293,0.073l-1.171-2.635l0.146-0.22l0.585-0.146l1.025-1.317v-0.659c-0.293-0.293-0.513-0.487-0.659-0.585l-0.732-0.293
		l0.146-0.366l0.439-1.391l0.219-0.146l0.366,0.073c0.048,0,0.097,0.025,0.146,0.073l1.317,0.22l1.025,0.659l0.951-0.952
		l0.586-0.146C25.154,31.56,25.423,31.681,25.57,31.827z M20.885,59.057l1.61-11.199c-0.684,0.146-1.489,0.343-2.416,0.586
		l-2.562,0.951l-2.123,4.979C17.006,56.178,18.835,57.739,20.885,59.057z M17.665,48.955c1.024-0.487,2.342-0.902,3.953-1.244
		c0.78-0.146,1.537-0.268,2.269-0.365c0.732-0.098,1.244-0.146,1.537-0.146h0.439l0.513-2.049c-2.245,0.291-3.807,0.562-4.685,0.805
		c-0.391,0.146-0.769,0.293-1.135,0.439c-0.366,0.146-0.671,0.269-0.915,0.365c-0.245,0.098-0.452,0.208-0.622,0.329
		c-0.171,0.122-0.318,0.231-0.439,0.329c-0.123,0.1-0.208,0.172-0.256,0.221c-0.049,0.049-0.099,0.098-0.146,0.146v0.073
		L17.665,48.955z M20.519,31.681h-0.22l-0.512,1.684c0.487,0.245,0.805,0.415,0.952,0.513l0.805,0.878l-0.22,0.073l-0.146,0.293
		l-0.219,0.073l-0.878,1.244l-0.22,0.22l0.585,1.536l0.22,0.146L22.861,36l0.439,0.292l0.951,1.244l-0.073,0.293l-2.488,2.854
		l0.878,1.977l2.782-3.221c0.439,0.487,0.732,0.879,0.878,1.17l0.659,1.318l0.073,2.049l0.659,0.073l-0.146-0.585
		c0.194,0.292,0.341,0.512,0.439,0.658l0.146,0.586c0.683,0,1.512,0,2.489,0c-0.635-1.609-1.123-2.745-1.464-3.402
		c-0.342-0.66-0.903-1.673-1.684-3.039c-0.781-1.072-1.391-1.854-1.83-2.342c-0.099-0.146-0.269-0.317-0.513-0.512l-1.464-1.391
		l0.22,0.073c0.097,0.049,0.17,0.099,0.22,0.146h0.073l0.293,0.146l0.952-1.098c-0.196-0.633-0.538-1.146-1.025-1.537l-1.171,1.245
		c-0.196,0.098-0.172,0.245,0.073,0.439l0.073,0.146l0.073,0.073l0.073,0.146c-0.098-0.097-0.195-0.17-0.292-0.22
		C22.617,33.097,21.738,32.462,20.519,31.681z M20.446,39.659h0.073l0.146,0.146l0.146,0.366c0.292,0.685,0.463,1.171,0.512,1.464
		c0.097,0.391,0.146,0.781,0.146,1.172c0,0.342-0.049,0.586-0.146,0.731l-0.659,0.364l-0.073-0.146
		c0.341-0.097,0.537-0.219,0.585-0.364c0.146-0.439,0.17-0.902,0.073-1.392c-0.049-0.293-0.146-0.634-0.292-1.024
		s-0.269-0.707-0.366-0.951L20.446,39.659z M26.814,61.984c-0.439-2-0.732-3.44-0.878-4.318l-0.512-4.318l-3.44,0.365l-0.805,5.563
		C22.935,60.398,24.813,61.302,26.814,61.984z M22.788,47.857l-0.732,5.488l3.367-0.438c0.048-1.563,0.121-2.637,0.22-3.221
		l0.219-2.196c-0.635,0.049-1.098,0.099-1.391,0.146L22.788,47.857z M23.008,48.225l0.732-0.074l0.073-0.219l0.585-0.074
		l-0.146,0.439l-1.244,0.146V48.225z M25.277,44.93l-0.146-3.074l-0.292,0.365l0.073,2.782C25.008,45.003,25.13,44.979,25.277,44.93
		z M25.862,32.413c0,0.245,0.037,0.525,0.11,0.842c0.073,0.318,0.158,0.635,0.256,0.952c0.097,0.318,0.194,0.647,0.292,0.988
		c0.098,0.342,0.195,0.647,0.293,0.915c0.097,0.269,0.17,0.525,0.22,0.769c0.048,0.245,0.097,0.415,0.146,0.514l0.073,0.219h0.22
		l0.585-0.658c-0.245-0.537-0.512-1.318-0.805-2.342l20.568,2.854l-20.714-3.367c-0.439-1.512-0.757-3.098-0.952-4.758l6.148,0.952
		l0.585,2.782l-0.292-10.907l-0.22,0.146c-0.146,0.781-0.245,1.684-0.293,2.708l-6.002-1.245c0.048-0.976,0.097-1.708,0.146-2.196
		c0.048-0.341,0.134-0.805,0.256-1.391c0.122-0.585,0.207-0.926,0.256-1.025l21.886,4.539l-21.813-4.978l0.512-2.342V16.09
		l-0.292,0.073c-0.684,1.317-1.196,3.197-1.537,5.636c-0.293,2.049-0.391,3.978-0.293,5.783
		C25.251,28.899,25.471,30.51,25.862,32.413z M25.643,33.291l0.219,0.293l0.073,0.366l-0.439,0.293v0.439l0.659,0.659l0.293-0.073
		l-0.659-2.416L25.643,33.291z M25.936,44.855l0.073-4.025l-0.22,0.365l-0.292,0.146l0.146,3.588
		C25.74,44.882,25.837,44.855,25.936,44.855z M27.107,37.391l-0.293-0.879l-0.293-0.292l-0.512-0.586L25.936,36l0.952,1.391H27.107z
		 M26.082,24.288l6.002,1.024c-0.098,0.831-0.122,1.61-0.073,2.342c0,0.684,0.073,1.464,0.22,2.342l-6.075-1.171
		c-0.099-0.78-0.146-1.561-0.146-2.342C26.009,25.801,26.033,25.069,26.082,24.288z M26.375,44.783h0.292v-2.928l-0.219-0.221
		L26.375,44.783z M27.034,44.783c0.048,0,0.11,0,0.183,0c0.073,0,0.146-0.012,0.219-0.037c0.073-0.023,0.134-0.036,0.183-0.036
		l0.146-0.146l-0.146-0.366h-0.585V44.783z M27.985,56.787c0.194-0.146,0.414-0.268,0.659-0.366h0.512l0.073-0.731l-0.22-0.219
		c-0.049-1.854-0.098-3.002-0.146-3.441c0-0.146-0.025-0.279-0.073-0.401c-0.049-0.121-0.099-0.207-0.146-0.256
		c-0.049-0.099-0.146-0.073-0.293,0.073c-0.195,0.146-0.293,0.316-0.293,0.512l0.073,3.66l-0.219,0.293L27.985,56.787z
		 M29.303,62.789l-0.22-6.002l-0.439-0.073l-0.586,0.438l0.22,5.345L29.303,62.789z M30.84,58.396l0.22,0.367
		c0.194-0.146,0.341-0.244,0.439-0.293l0.439,0.072v-2.05l-0.293-0.292l-0.146-2.123c-0.098-0.439-0.171-0.707-0.22-0.807
		c0-0.047-0.073-0.047-0.219,0l-0.22,0.586l0.22,2.636l-0.22,0.073V58.396z M31.206,62.789c0.39-0.048,0.634-0.098,0.732-0.146
		l0.366-0.438L32.23,60.74l-0.292-0.221V58.91l-0.366-0.146l-0.439,0.293l0.073,1.465l-0.146,1.023L31.206,62.789z M32.377,62.716
		l-0.439,0.293l-0.659,0.146h0.952L32.377,62.716z M35.158,44.855v0.146l0.732-0.146v-0.513c0-0.39-0.025-0.657-0.073-0.805
		c-0.146-0.438-0.269-0.659-0.366-0.659c-0.098,0-0.171,0.025-0.22,0.073c-0.049,0.049-0.073,0.122-0.073,0.22v0.073l-0.292,0.585
		l-0.073,0.513L35.158,44.855z M37.063,30.802l-2.049-0.146l2.049,0.512l0.293,2.196l0.293,0.146v-3.294h-0.293L37.063,30.802z
		 M36.549,45.148c0.049-0.244,0.049-0.438,0-0.586l-0.366-0.365l0.073,0.951H36.549z M37.063,25.898l0.438,0.073v-2.05l-0.073-0.732
		c-0.146,0.488-0.22,0.854-0.22,1.098L37.063,25.898z M39.55,24.581l-0.512-0.219v3.806l0.512-0.439V24.581z M39.623,32.779v-3.367
		l-0.512-0.073l0.072,3.733L39.623,32.779z M42.697,25.459l-2.709-0.805v3.147l2.636,0.439L42.697,25.459z M40.063,32.706
		l2.636,0.366l0.073-2.928l-2.488-0.585l-0.221,0.073V32.706z M44.016,28.387v-3.075l-0.22-0.073l-0.293,0.366v3.147L44.016,28.387z
		 M44.088,33.511l-0.072-3.514l-0.513,0.22l0.146,3.514L44.088,33.511z M44.381,28.46l2.489,0.439l-0.073-2.635l-2.416-0.659V28.46z
		 M44.381,30.51l0.073,2.928l2.416,0.366l0.146-0.293l-0.22-2.781l-2.271-0.439L44.381,30.51z M51.115,27.289l-0.146-1.61
		c-0.099,0.391-0.172,0.684-0.22,0.878l-0.073,0.732H51.115z M50.676,32.925L51.262,36v-3.367l-0.072-0.146L50.676,32.925z"/>
</g>
</svg>
