<?xml version="1.0" encoding="utf-8"?>
<!-- Generator: Adobe Illustrator 16.0.0, SVG Export Plug-In . SVG Version: 6.00 Build 0)  -->
<!DOCTYPE svg PUBLIC "-//W3C//DTD SVG 1.1//EN" "http://www.w3.org/Graphics/SVG/1.1/DTD/svg11.dtd">
<svg version="1.1" id="Layer_1" xmlns="http://www.w3.org/2000/svg" xmlns:xlink="http://www.w3.org/1999/xlink" x="0px" y="0px"
	 width="100%" height="100%" viewBox="0 0 72 72" enable-background="new 0 0 72 72" xml:space="preserve">
<path fill="black" d="M36,5.636C19.23,5.636,5.636,19.23,5.636,36S19.23,66.364,36,66.364S66.364,52.77,66.364,36
	S52.77,5.636,36,5.636z M36,62.983C21.098,62.983,9.017,50.903,9.017,36C9.017,21.098,21.098,9.017,36,9.017
	c10.835,0,20.172,6.389,24.466,15.602c-0.187-0.04-0.38-0.062-0.578-0.062c-0.156,0-0.308,0.021-0.457,0.046
	C55.194,15.93,46.284,9.94,35.999,9.94C21.63,9.94,9.94,21.63,9.94,35.999c0,14.37,11.69,26.061,26.059,26.061
	c14.37,0,26.061-11.69,26.061-26.061c0-2.153-0.268-4.244-0.762-6.247c0.306-0.18,0.558-0.43,0.776-0.708
	c0.59,2.22,0.909,4.55,0.909,6.955C62.983,50.903,50.902,62.983,36,62.983z M57.111,27.533l-4.567,2.108
	c-3.429-7.41-10.931-12.567-19.618-12.567c-8.664,0-16.149,5.129-19.59,12.508c2.802-9.88,11.897-17.142,22.663-17.142
	c9.468,0,17.645,5.617,21.386,13.69c-0.182,0.37-0.292,0.781-0.292,1.221C57.093,27.414,57.107,27.472,57.111,27.533z
	 M32.926,19.574c7.684,0,14.304,4.567,17.336,11.121l-11.756,5.427c0.058-0.445,0.097-0.89,0.097-1.329
	c0-5.755-4.682-10.438-10.438-10.438c-5.37,0-9.768,4.01-10.352,9.263c-1.851,1.699-3.23,3.895-3.926,6.379
	c-0.03-0.438-0.067-0.873-0.067-1.318C13.82,28.145,22.391,19.574,32.926,19.574z M36.542,33.868
	c-2.462-2.386-5.811-3.862-9.502-3.862c-2.449,0-4.745,0.656-6.735,1.789c1.206-3.191,4.254-5.438,7.859-5.438
	C32.504,26.356,36.078,29.651,36.542,33.868z M27.041,32.506c3.752,0,7.07,1.865,9.097,4.71l-8.939,4.128
	c-0.503-0.49-1.188-0.795-1.947-0.795c-1.543,0-2.794,1.251-2.794,2.795s1.251,2.795,2.794,2.795s2.794-1.251,2.794-2.795
	c0-0.062-0.014-0.119-0.018-0.18l9.121-4.212c0.675,1.438,1.063,3.034,1.063,4.725c0,6.159-5.011,11.171-11.171,11.171
	c-6.159,0-11.17-5.012-11.17-11.171S20.881,32.506,27.041,32.506z M40.712,43.677c0-2.064-0.474-4.016-1.296-5.771l11.591-5.352
	c0.557,1.636,0.888,3.369,0.978,5.167c-3.164,0.349-5.634,3.035-5.634,6.291c0,2.083,1.016,3.93,2.573,5.084
	c-3.414,5.225-9.305,8.691-15.998,8.691c-1.509,0-2.971-0.194-4.381-0.526C35.377,56.508,40.712,50.706,40.712,43.677z
	 M51.979,39.752c-0.151,2.718-0.865,5.283-2.04,7.584c-0.962-0.796-1.588-1.982-1.588-3.324
	C48.351,41.864,49.926,40.09,51.979,39.752z M51.215,50.165c0.472,0.112,0.961,0.179,1.467,0.179c0.822,0,1.606-0.162,2.328-0.449
	c-3.671,5.008-9.268,8.517-15.69,9.427C44.289,57.778,48.492,54.483,51.215,50.165z M52.682,48.344
	c-0.143,0-0.277-0.028-0.417-0.042c1.251-2.504,2.028-5.28,2.218-8.217c1.489,0.686,2.531,2.184,2.531,3.927
	C57.014,46.4,55.07,48.344,52.682,48.344z M54.515,37.953c-0.075-2.256-0.496-4.427-1.215-6.458l4.641-2.142
	c0.235,0.229,0.511,0.416,0.814,0.551c0.522,1.945,0.805,3.988,0.805,6.096c0,2.132-0.29,4.197-0.823,6.163
	C58.12,40.15,56.528,38.563,54.515,37.953z"/>
</svg>
