<?xml version="1.0" encoding="utf-8"?>
<!-- Generator: Adobe Illustrator 16.0.0, SVG Export Plug-In . SVG Version: 6.00 Build 0)  -->
<!DOCTYPE svg PUBLIC "-//W3C//DTD SVG 1.1//EN" "http://www.w3.org/Graphics/SVG/1.1/DTD/svg11.dtd">
<svg version="1.1" xmlns="http://www.w3.org/2000/svg" xmlns:xlink="http://www.w3.org/1999/xlink" x="0px" y="0px"
	 width="100%" height="100%" viewBox="0 0 72 72" enable-background="new 0 0 72 72" xml:space="preserve">
<g id="ion">
	<path fill="black" d="M35.963,5.699c4.186,0,8.117,0.803,11.792,2.41c3.676,1.606,6.876,3.784,9.602,6.535
		c2.726,2.75,4.892,5.951,6.498,9.601c1.606,3.651,2.41,7.569,2.41,11.755c0,4.187-0.804,8.129-2.41,11.828s-3.772,6.9-6.498,9.602
		s-5.926,4.855-9.602,6.462c-3.675,1.606-7.605,2.409-11.792,2.409s-8.117-0.803-11.792-2.409c-3.675-1.606-6.875-3.761-9.602-6.462
		c-2.726-2.701-4.88-5.902-6.461-9.602C6.527,44.129,5.736,40.187,5.736,36c0-4.186,0.791-8.104,2.373-11.755
		c1.582-3.65,3.736-6.851,6.461-9.601c2.726-2.75,5.926-4.929,9.602-6.535C27.847,6.502,31.777,5.699,35.963,5.699z M51.881,22.492
		c3.31,0,6.303,0.755,8.98,2.264c-1.119-2.336-2.52-4.49-4.198-6.462c-1.68-1.971-3.603-3.675-5.769-5.111s-4.502-2.556-7.009-3.358
		c-2.507-0.803-5.147-1.205-7.922-1.205c-3.796,0-7.362,0.73-10.696,2.19c-3.334,1.46-6.23,3.419-8.689,5.878
		c-2.458,2.458-4.405,5.354-5.841,8.688S8.583,32.252,8.583,36c0,2.872,0.426,5.634,1.277,8.287
		c0.852,2.652,2.057,5.087,3.614,7.302s3.383,4.174,5.476,5.877c2.093,1.704,4.405,3.043,6.937,4.016V50.822
		c0.535-0.39,1.217-0.804,2.044-1.241c0.681-0.39,1.497-0.828,2.446-1.314c0.949-0.487,2.008-0.998,3.176-1.533
		c-0.244-0.779-0.426-1.619-0.548-2.52s-0.183-1.789-0.183-2.665v-1.021l-3.286-1.68l-0.219-1.752l1.533-0.876v-1.314
		c-0.828-0.487-1.716-1.01-2.665-1.57s-1.911-1.107-2.884-1.643c-0.243,0.097-0.486,0.097-0.73,0l-7.155-3.797
		c-0.243-0.195-0.316-0.487-0.219-0.876v-0.073c-1.168-0.633-1.825-1.046-1.971-1.241c-0.146-0.049-0.243-0.183-0.292-0.402
		c-0.049-0.219-0.024-0.426,0.073-0.621c0.098-0.194,0.219-0.353,0.365-0.475c0.146-0.122,0.316-0.158,0.511-0.109
		c0.097,0,0.316,0.085,0.657,0.256c0.34,0.17,0.876,0.377,1.606,0.621c0.195-0.341,0.414-0.462,0.657-0.365l0.584,0.219v-0.073
		l0.073-0.438c0.195-0.341,0.462-0.438,0.803-0.292l5.038,1.606c0.341,0.098,0.463,0.316,0.365,0.657l-0.219,0.292l1.168,0.438
		c0.195,0,0.341,0.073,0.438,0.219c0.098,0.146,0.146,0.316,0.146,0.511v0.073c0,0.049-0.048,0.073-0.146,0.073
		c0.925,0.292,1.813,0.572,2.665,0.84c0.852,0.268,1.594,0.523,2.227,0.767c0.73,0.243,1.436,0.462,2.117,0.657l1.022-0.876
		l-0.657-0.438l0.511-0.657l0.876,0.365l0.657-0.657l1.533,0.511c1.752-1.801,3.809-3.237,6.17-4.308
		C46.538,23.028,49.106,22.492,51.881,22.492z M18.951,25.194c0.049,0.098,0.085,0.268,0.109,0.511
		c0.024,0.243-0.012,0.511-0.109,0.803c-0.146,0.097-0.219,0.195-0.219,0.292l0.657,0.365c0.049-0.098,0.098-0.158,0.146-0.183
		c0.049-0.024,0.073-0.085,0.073-0.183c0.292-0.682,0.292-1.217,0-1.606c-0.146,0-0.268-0.024-0.365-0.073l-0.292-0.146
		c-0.097,0.048-0.146,0.097-0.146,0.146C18.805,25.169,18.854,25.194,18.951,25.194z M20.338,25.705
		c0.098,0.097,0.146,0.28,0.146,0.547c0,0.268-0.048,0.572-0.146,0.913c-0.048,0.048-0.073,0.097-0.073,0.146
		c0,0.048-0.049,0.097-0.146,0.146l0.803,0.438c0-0.049,0.073-0.219,0.219-0.511c0.244-0.876,0.195-1.46-0.146-1.752
		c-0.146,0-0.268-0.024-0.365-0.073c-0.048,0-0.085-0.012-0.109-0.037s-0.061-0.037-0.109-0.037h-0.073
		C20.192,25.486,20.192,25.559,20.338,25.705z M21.945,26.143c0.195,0.341,0.195,0.925,0,1.752
		c-0.049,0.049-0.073,0.097-0.073,0.146s-0.048,0.097-0.146,0.146l0.803,0.365c0.049-0.098,0.073-0.17,0.073-0.219
		s0.048-0.122,0.146-0.219c0.292-0.876,0.243-1.533-0.146-1.971c-0.049-0.049-0.098-0.073-0.146-0.073
		c-0.098,0-0.17-0.024-0.219-0.073c-0.097-0.049-0.195-0.073-0.292-0.073C21.848,26.07,21.848,26.143,21.945,26.143z M23.624,26.727
		c0.292,0.292,0.292,0.901,0,1.826c-0.097,0.048-0.146,0.109-0.146,0.183c0,0.073-0.024,0.109-0.073,0.109l0.73,0.438
		c0.146-0.195,0.243-0.341,0.292-0.438c0.195-0.438,0.268-0.864,0.219-1.278c-0.049-0.414-0.146-0.694-0.292-0.84
		c0-0.097-0.11-0.182-0.329-0.255c-0.219-0.073-0.353-0.061-0.402,0.037c-0.097,0.048-0.146,0.097-0.146,0.146
		S23.527,26.727,23.624,26.727z M25.45,27.384c0.097,0.098,0.182,0.329,0.255,0.694c0.073,0.365,0.012,0.767-0.183,1.205
		c-0.049,0.097-0.097,0.183-0.146,0.255c-0.049,0.073-0.073,0.134-0.073,0.183l0.803,0.365c0.049-0.098,0.098-0.183,0.146-0.256
		c0.049-0.073,0.073-0.134,0.073-0.182c0.243-0.536,0.329-0.998,0.255-1.387c-0.073-0.39-0.207-0.73-0.401-1.022
		c0-0.049-0.109-0.097-0.329-0.146s-0.353-0.073-0.401-0.073V27.384z M32.021,32.642c0-0.146-0.024-0.219-0.073-0.219l-4.965-2.264
		c-0.146,0-0.219,0.049-0.219,0.146c-0.097,0-0.122,0.012-0.073,0.037c0.048,0.024,0.073,0.085,0.073,0.183l4.965,2.482l0.073,0.073
		c0-0.049,0.024-0.098,0.073-0.146C31.972,32.836,32.021,32.739,32.021,32.642z M32.824,32.203h0.073l0.146-0.073
		c0.097-0.195,0.049-0.39-0.146-0.584l-5.622-2.044c-0.146,0-0.244,0.048-0.292,0.146l0.219,0.219L32.824,32.203z M32.167,33.08
		l2.117,1.095l0.438,0.219l0.657,0.292c0.097-0.048,0.195-0.17,0.292-0.365c0.195-0.341,0.365-0.779,0.511-1.314
		c0.097-0.438,0.122-0.754,0.073-0.949c-0.048-0.195-0.122-0.316-0.219-0.365l-0.292-0.146l-3.067-1.022v0.584
		c0.146,0.049,0.316,0.122,0.511,0.219c0.341,0.195,0.536,0.462,0.584,0.803c-0.097,0.292-0.365,0.438-0.803,0.438
		c-0.194,0-0.365-0.049-0.511-0.146L32.167,33.08z M39.396,29.721l-1.388-0.657l-0.365-0.219l-0.511-0.219l-1.314,1.679l0.584,0.219
		l0.292,0.073l2.044,0.73L39.396,29.721z M40.345,33.006c0.146-0.195,0.072-0.389-0.22-0.584l-1.021-0.292l-1.461-0.584
		c-0.292-0.097-0.438-0.024-0.438,0.219c-0.098,0.244-0.024,0.438,0.219,0.584l1.314,0.438l1.095,0.438h0.22
		C40.247,33.226,40.345,33.152,40.345,33.006z M37.351,33.226c0,0.292,0.073,0.438,0.219,0.438l0.657,0.365l1.388,0.584h0.219
		c0.243,0,0.39-0.073,0.438-0.219c0.098-0.243,0.024-0.462-0.219-0.657l-1.534-0.511l-0.656-0.219
		C37.618,32.86,37.448,32.934,37.351,33.226z M46.404,29.063c-0.778,2.482-0.657,4.868,0.365,7.156c0,0.097-0.085,0.353-0.256,0.767
		c-0.17,0.414-0.401,0.864-0.693,1.351c-0.243,0.535-0.535,1.168-0.876,1.897l-0.146,1.606c0.195-0.341,0.39-0.682,0.584-1.021
		c0.195-0.292,0.402-0.608,0.621-0.949s0.401-0.657,0.548-0.949c0.243-0.438,0.462-0.853,0.657-1.241
		c0.194-0.39,0.364-0.828,0.511-1.314c0.827-2.288,1.314-4.527,1.46-6.717v-0.146c-0.146,0-0.268-0.024-0.365-0.073
		c-0.34-0.097-0.693-0.195-1.059-0.292c-0.364-0.097-0.767-0.195-1.204-0.292c0,0.097-0.024,0.146-0.073,0.146
		S46.404,29.015,46.404,29.063z M50.858,41.841c0.049,0.049,0,0.22-0.146,0.512c-0.146,0.292-0.341,0.657-0.584,1.095l-0.949,1.46
		l0.146,0.949l0.876-0.949c0.292-0.34,0.535-0.681,0.73-1.021c0.438-0.682,0.827-1.363,1.168-2.045c0-0.049,0.012-0.072,0.036-0.072
		s0.037-0.049,0.037-0.146c0.535-0.925,0.974-1.874,1.314-2.848c0.34-0.974,0.632-1.898,0.876-2.774v-0.073
		c-0.098,0-0.183-0.024-0.256-0.073s-0.134-0.073-0.183-0.073c-0.39-0.243-0.815-0.438-1.277-0.584
		c-0.463-0.146-0.913-0.341-1.351-0.584l-1.388-0.365l0.219-1.022c0.049-0.341,0.098-0.706,0.146-1.095
		c0.049-0.341,0.097-0.706,0.146-1.095c0.049-0.39,0.098-0.754,0.146-1.095c-0.098,0-0.183-0.012-0.256-0.037
		s-0.134-0.037-0.183-0.037c-0.097,0.39-0.207,0.986-0.328,1.789c-0.122,0.803-0.329,1.716-0.621,2.738
		c-0.194,0.682-0.426,1.375-0.693,2.081s-0.523,1.302-0.767,1.789C48.546,39.675,49.593,40.867,50.858,41.841z M51.661,22.931
		c0.049,0.048,0.073,0.146,0.073,0.292s-0.024,0.268-0.073,0.365c-1.411,0.633-2.652,1.534-3.724,2.702
		c0.098,0.146,0.158,0.316,0.183,0.511s0.085,0.414,0.183,0.657v0.292l0.073,0.584c0.73,0.244,1.387,0.438,1.972,0.584
		c0.584,0.146,1.021,0.268,1.313,0.365c-0.097,0.633-0.194,1.375-0.292,2.227c-0.097,0.852-0.146,1.302-0.146,1.351l-0.146,0.219
		l0.365,0.146l1.388,0.73l0.219-0.657V33.08c0.682-3.213,0.755-5.841,0.219-7.886c-0.194-0.876-0.584-1.63-1.168-2.263h-0.219
		H51.661z M56.407,47.244c0.243-0.341,0.463-0.706,0.657-1.095c0.194-0.293,0.377-0.585,0.548-0.877
		c0.17-0.292,0.353-0.56,0.548-0.803c0.097-0.292,0.23-0.572,0.401-0.84c0.17-0.268,0.304-0.572,0.401-0.913
		c0.292-0.535,0.523-1.07,0.693-1.605c0.171-0.536,0.354-1.071,0.548-1.606v-0.146c-0.098,0-0.219-0.073-0.365-0.219
		c-0.682-0.487-1.436-0.949-2.264-1.388c-0.827-0.438-1.679-0.9-2.555-1.387c-0.098,0.34-0.256,0.9-0.475,1.679
		c-0.22,0.779-0.499,1.534-0.84,2.264c-0.243,0.536-0.487,1.047-0.73,1.533c-0.243,0.487-0.438,0.853-0.584,1.096
		c0.584,0.39,1.205,0.767,1.862,1.132c0.656,0.365,1.399,0.669,2.227,0.912c0,0.049-0.085,0.243-0.256,0.584
		c-0.17,0.341-0.353,0.73-0.547,1.169c-0.195,0.486-0.463,0.997-0.804,1.533l0.146,0.876c0.243-0.39,0.486-0.73,0.729-1.022
		c0.195-0.243,0.354-0.462,0.475-0.657C56.347,47.269,56.407,47.195,56.407,47.244z M58.16,35.781
		c0.681-2.823,0.973-5.293,0.876-7.411c-0.098-2.118-0.657-3.688-1.68-4.709c-0.098,0-0.17-0.012-0.219-0.037
		s-0.122-0.037-0.219-0.037c-0.536-0.194-1.132-0.34-1.789-0.438c-0.657-0.097-1.278-0.17-1.862-0.219
		c-0.097,0-0.17,0.024-0.219,0.073c0.146,0.244,0.316,0.572,0.511,0.986c0.195,0.414,0.341,0.961,0.438,1.643
		c0.39,1.996,0.39,3.943,0,5.841l-0.511,2.702c0.243,0.097,0.438,0.183,0.584,0.255c0.146,0.073,0.316,0.158,0.511,0.255
		c0.584,0.292,1.156,0.597,1.716,0.913s1.107,0.645,1.643,0.985l0.22-0.438V35.781z M61.372,46.076
		c0.584-1.412,1.047-2.97,1.388-4.673c-0.243-0.244-0.535-0.487-0.876-0.73s-0.682-0.535-1.022-0.876
		c-0.098,0.341-0.243,0.778-0.438,1.314c-0.194,0.535-0.462,1.119-0.803,1.752c-0.243,0.486-0.487,0.985-0.73,1.497
		c-0.243,0.511-0.462,0.912-0.657,1.204C59.157,45.809,60.204,45.979,61.372,46.076z M63.344,36c0-1.898-0.194-3.736-0.584-5.513
		c-0.39-1.776-0.949-3.517-1.68-5.22c-0.438-0.244-0.864-0.475-1.277-0.694c-0.414-0.219-0.889-0.401-1.424-0.547
		c0.146,0.243,0.328,0.584,0.548,1.022c0.219,0.438,0.377,0.949,0.475,1.533c0.194,1.168,0.304,2.178,0.328,3.03
		c0.024,0.852-0.036,1.789-0.183,2.811c-0.098,0.974-0.268,1.935-0.511,2.884c-0.243,0.949-0.438,1.497-0.584,1.643
		c0.729,0.438,1.436,0.876,2.117,1.314c0.682,0.438,1.339,0.925,1.972,1.46l0.146-0.584c0-0.049,0.013-0.098,0.036-0.146
		c0.024-0.048,0.037-0.097,0.037-0.146c0.098-0.341,0.194-0.693,0.292-1.059s0.194-0.742,0.292-1.132V36z"/>
</g>
</svg>
