<?xml version="1.0" standalone="no"?>
<!DOCTYPE svg PUBLIC "-//W3C//DTD SVG 20010904//EN"
 "http://www.w3.org/TR/2001/REC-SVG-20010904/DTD/svg10.dtd">
<svg version="1.0" xmlns="http://www.w3.org/2000/svg"
 width="669.000000pt" height="669.000000pt" viewBox="0 0 669.000000 669.000000"
 preserveAspectRatio="xMidYMid meet">

<g transform="translate(0.000000,669.000000) scale(0.100000,-0.100000)"
fill="#000000" stroke="none">
<path d="M3055 6509 c-565 -53 -1111 -259 -1571 -594 -553 -404 -966 -976
-1174 -1630 -196 -615 -186 -1367 25 -1974 160 -459 400 -849 733 -1193 478
-493 1104 -823 1762 -927 340 -55 716 -55 1047 -1 907 147 1726 703 2207 1499
392 647 537 1404 415 2171 -141 891 -697 1714 -1482 2194 -337 207 -728 356
-1104 421 -241 41 -619 56 -858 34z m909 -326 c45 -134 28 -124 156 -98 60 12
110 21 110 18 0 -2 -31 -40 -70 -84 -38 -45 -70 -85 -70 -90 0 -5 32 -45 71
-90 39 -44 70 -81 68 -83 -2 -1 -53 7 -112 19 l-109 21 -10 -25 c-5 -14 -22
-61 -36 -103 -15 -43 -29 -78 -33 -78 -3 0 -15 32 -28 71 -12 39 -29 85 -36
103 l-14 33 -111 -22 c-60 -12 -110 -21 -110 -19 0 2 32 40 70 85 39 44 70 85
70 89 0 5 -31 45 -70 90 -38 45 -70 83 -70 84 0 2 44 -6 98 -16 53 -10 103
-20 111 -21 9 -1 26 31 50 100 20 57 38 103 41 103 3 0 18 -39 34 -87z m-1072
-11 c14 -42 31 -89 37 -103 l10 -27 110 23 c61 12 111 20 111 18 0 -3 -31 -41
-70 -84 -38 -44 -70 -84 -70 -89 0 -5 32 -45 70 -89 39 -43 70 -81 70 -84 0
-2 -50 6 -111 18 l-110 23 -8 -22 c-5 -11 -21 -58 -37 -103 -16 -46 -31 -83
-34 -83 -3 0 -21 45 -40 100 -39 116 -29 111 -172 81 -49 -10 -88 -16 -88 -14
0 7 123 147 133 151 18 9 2 37 -63 111 -38 43 -70 81 -70 84 0 2 39 -4 88 -14
143 -30 133 -35 172 81 19 55 37 100 40 100 3 0 17 -35 32 -78z m-998 -395
c16 -45 32 -92 37 -103 l8 -22 110 23 c61 12 111 21 111 19 0 -1 -31 -39 -70
-84 -38 -45 -70 -85 -70 -90 0 -5 32 -45 70 -89 39 -43 70 -81 70 -84 0 -2
-50 6 -111 18 l-110 23 -10 -27 c-6 -14 -22 -61 -37 -103 -14 -43 -28 -78 -31
-78 -3 0 -22 45 -41 100 -39 116 -29 111 -172 81 -49 -10 -88 -16 -88 -14 0 3
32 41 70 84 39 44 70 84 70 89 0 6 -31 46 -70 89 -38 44 -70 82 -70 84 0 2 50
-6 111 -18 l110 -23 8 22 c5 11 21 58 37 103 16 46 31 83 34 83 3 0 18 -37 34
-83z m3048 -35 c14 -42 31 -89 37 -103 l10 -27 110 23 c61 12 111 21 111 18 0
-2 -31 -40 -70 -84 -38 -45 -70 -85 -70 -90 0 -5 32 -44 70 -88 39 -43 70 -81
70 -84 0 -2 -39 4 -87 14 -144 30 -134 35 -173 -81 -19 -55 -37 -100 -41 -100
-3 0 -15 32 -28 71 -12 39 -29 85 -36 103 l-14 33 -111 -22 c-60 -12 -110 -21
-110 -19 0 1 32 39 70 84 39 45 70 85 70 91 0 5 -31 45 -70 88 -38 44 -70 82
-70 84 0 2 50 -6 110 -18 l111 -22 14 33 c7 18 24 64 36 103 13 39 25 71 28
71 4 0 18 -35 33 -78z m-1411 -399 c96 -108 181 -206 190 -218 16 -19 15 -24
-15 -75 -77 -132 -138 -306 -152 -431 l-7 -64 50 60 c27 33 81 89 118 124 77
72 215 166 225 154 116 -131 190 -214 213 -240 l29 -31 -60 -31 c-86 -43 -203
-141 -269 -224 -96 -123 -163 -292 -199 -504 -21 -120 -15 -365 11 -463 46
-177 155 -327 282 -391 66 -33 71 -34 188 -34 112 0 125 2 191 31 386 167 659
679 614 1153 -30 316 -181 655 -420 940 -94 111 -81 110 73 -6 475 -361 713
-704 843 -1216 101 -401 88 -818 -41 -1242 -229 -752 -800 -1276 -1565 -1434
-180 -38 -513 -52 -705 -31 -716 80 -1354 525 -1681 1172 -149 296 -222 587
-231 924 -8 284 19 479 103 734 109 331 280 608 538 866 117 116 361 314 388
314 6 0 -6 -19 -26 -42 -72 -86 -191 -273 -261 -411 -226 -448 -250 -863 -73
-1222 206 -416 589 -631 873 -491 186 92 298 310 312 607 9 206 -32 394 -133
603 -77 159 -190 276 -341 354 -40 20 -72 41 -70 46 2 5 57 69 122 141 l120
133 47 -25 c102 -55 219 -162 324 -298 14 -18 15 -15 9 43 -13 135 -76 308
-157 435 -27 43 -29 49 -16 65 8 9 82 93 164 186 82 93 162 184 177 202 16 19
32 34 36 34 5 0 87 -89 182 -197z m-2392 -374 c12 -39 29 -85 36 -103 l14 -33
111 22 c60 12 110 20 110 18 0 -3 -31 -41 -70 -84 -38 -44 -70 -84 -70 -89 0
-6 32 -46 70 -89 39 -44 70 -82 70 -84 0 -2 -39 4 -87 14 -144 30 -134 35
-173 -81 -19 -55 -37 -100 -40 -100 -3 0 -16 32 -29 71 -12 39 -29 85 -36 103
l-14 33 -88 -18 c-145 -30 -144 -31 -63 62 38 45 70 85 70 89 0 4 -31 44 -70
89 -38 44 -70 82 -70 84 0 3 50 -6 110 -18 l111 -22 14 33 c7 18 24 64 36 103
13 39 26 71 29 71 3 0 16 -32 29 -71z m4570 -30 c12 -39 29 -85 36 -103 l14
-33 111 22 c60 12 110 20 110 18 0 -3 -31 -41 -70 -84 -38 -44 -70 -84 -70
-89 0 -5 32 -45 70 -89 39 -43 70 -81 70 -84 0 -2 -39 4 -87 14 -144 30 -134
35 -173 -81 -19 -55 -37 -100 -40 -100 -3 0 -21 45 -40 100 -39 116 -29 111
-172 81 -49 -10 -88 -16 -88 -14 0 3 32 41 70 84 39 44 70 84 70 89 0 5 -31
45 -70 89 -38 43 -70 81 -70 84 0 2 50 -6 111 -18 l110 -23 8 22 c5 11 21 58
37 103 16 46 31 83 35 83 3 0 15 -32 28 -71z m-4905 -1062 c16 -45 32 -92 37
-103 l8 -22 110 23 c61 12 111 21 111 20 0 -2 -31 -40 -70 -86 -38 -45 -70
-86 -70 -90 0 -3 32 -43 70 -88 81 -93 82 -92 -63 -62 l-89 18 -7 -21 c-5 -12
-21 -58 -37 -103 -16 -46 -31 -83 -34 -83 -3 0 -20 45 -39 100 -39 116 -29
111 -173 81 -49 -10 -88 -17 -88 -15 0 2 32 40 70 85 39 44 70 85 70 89 0 5
-31 45 -70 90 -39 45 -70 83 -70 84 0 2 39 -5 88 -15 142 -30 132 -35 172 81
19 55 37 100 40 100 3 0 18 -37 34 -83z m5230 -20 c16 -45 32 -92 37 -103 l8
-22 110 23 c61 12 111 20 111 18 0 -3 -31 -41 -70 -84 -38 -44 -70 -83 -70
-88 0 -4 32 -44 70 -89 39 -44 70 -83 70 -85 0 -2 -39 4 -87 14 -143 30 -133
35 -173 -81 -19 -55 -37 -100 -40 -100 -3 0 -21 45 -40 100 -39 116 -29 111
-172 81 -49 -10 -88 -16 -88 -14 0 3 32 41 70 84 39 44 70 84 70 89 0 5 -31
45 -70 89 -38 43 -70 81 -70 84 0 2 50 -6 111 -18 l110 -23 8 22 c5 11 21 58
37 103 16 46 31 83 34 83 3 0 18 -37 34 -83z m-5105 -1077 c39 -116 29 -111
174 -81 48 10 87 17 87 15 0 -1 -31 -39 -70 -84 -38 -45 -70 -85 -70 -91 0 -5
32 -45 71 -89 80 -92 81 -91 -64 -61 l-89 18 -7 -21 c-5 -12 -21 -58 -37 -103
-16 -46 -31 -83 -34 -83 -3 0 -20 45 -39 100 -39 114 -29 109 -159 84 -45 -9
-85 -14 -88 -11 -4 3 23 41 60 83 36 43 66 81 66 85 0 4 -31 44 -70 89 -39 45
-70 83 -70 84 0 2 39 -5 88 -15 142 -30 132 -35 172 81 19 55 37 100 40 100 3
0 20 -45 39 -100z m5010 -70 c39 -116 29 -111 174 -81 48 10 87 16 87 14 0 -3
-31 -41 -70 -84 -38 -44 -70 -84 -70 -88 0 -5 32 -46 70 -90 39 -45 70 -83 70
-85 0 -2 -50 7 -111 19 l-110 23 -8 -22 c-5 -11 -21 -58 -37 -103 -16 -46 -31
-83 -34 -83 -3 0 -21 45 -40 100 -39 116 -29 111 -172 81 -49 -10 -88 -16 -88
-14 0 2 32 40 70 84 39 43 70 83 70 89 0 5 -31 45 -70 89 -38 43 -70 81 -70
84 0 2 39 -4 88 -14 144 -30 134 -35 173 81 19 55 36 100 39 100 3 0 20 -45
39 -100z m-4485 -893 c16 -45 32 -92 37 -103 l8 -22 110 23 c61 12 111 20 111
18 0 -2 -31 -41 -70 -85 -38 -45 -70 -84 -70 -88 0 -4 32 -43 70 -88 39 -44
70 -83 70 -85 0 -2 -50 6 -111 18 l-110 23 -10 -27 c-6 -14 -23 -61 -37 -103
-15 -43 -29 -78 -32 -78 -3 0 -17 35 -32 78 -14 42 -31 89 -37 103 l-10 27
-110 -23 c-61 -12 -111 -20 -111 -18 0 3 32 41 70 84 39 44 70 84 70 89 0 6
-31 46 -70 89 -38 44 -70 82 -70 84 0 2 39 -4 88 -14 143 -30 133 -35 172 81
19 55 37 100 40 100 3 0 18 -37 34 -83z m3890 -20 c16 -45 32 -92 37 -103 l8
-22 110 23 c61 12 111 20 111 18 0 -3 -31 -41 -70 -84 -38 -44 -70 -84 -70
-89 0 -6 32 -46 70 -89 39 -44 70 -82 70 -84 0 -2 -39 4 -87 14 -145 30 -135
35 -174 -81 -19 -55 -36 -100 -39 -100 -4 0 -16 32 -29 71 -12 39 -29 85 -36
103 l-14 33 -88 -18 c-145 -30 -144 -31 -64 61 39 44 71 85 71 90 0 5 -31 46
-70 89 -38 44 -70 82 -70 84 0 2 42 -4 93 -14 140 -28 128 -34 167 81 19 55
37 100 40 100 3 0 18 -37 34 -83z m-2992 -625 c14 -42 31 -89 37 -103 l10 -27
110 23 c61 12 111 20 111 18 0 -3 -31 -41 -70 -84 -38 -44 -70 -84 -70 -89 0
-6 32 -46 70 -89 39 -44 70 -82 70 -84 0 -2 -39 4 -87 14 -143 30 -133 35
-173 -81 -19 -55 -37 -100 -40 -100 -3 0 -21 45 -40 100 -39 116 -29 111 -172
81 -49 -10 -88 -16 -88 -14 0 3 32 41 70 84 39 44 70 84 70 89 0 6 -31 46 -70
89 -38 44 -70 82 -70 84 0 2 39 -4 88 -14 142 -30 132 -35 172 81 19 55 37
100 40 100 3 0 17 -35 32 -78z m2080 0 c14 -42 31 -89 37 -103 l10 -27 110 23
c61 12 111 20 111 18 0 -3 -31 -41 -70 -84 -38 -44 -70 -84 -70 -89 0 -6 32
-46 70 -89 39 -44 70 -82 70 -84 0 -2 -39 4 -87 14 -143 30 -133 35 -173 -81
-18 -55 -36 -100 -40 -100 -3 0 -17 35 -32 78 -14 42 -31 89 -37 103 l-10 27
-110 -23 c-61 -12 -111 -20 -111 -18 0 2 32 40 70 84 39 43 70 83 70 89 0 5
-31 45 -70 89 -38 43 -70 81 -70 84 0 2 39 -4 88 -14 142 -30 132 -35 172 81
19 55 37 100 40 100 3 0 17 -35 32 -78z m-1058 -225 c16 -45 32 -92 37 -103
l8 -22 110 23 c61 12 111 20 111 18 0 -3 -31 -41 -70 -84 -38 -44 -70 -84 -70
-89 0 -6 32 -46 70 -89 39 -44 70 -82 70 -84 0 -2 -50 6 -111 18 l-110 23 -10
-27 c-6 -14 -23 -61 -37 -103 -15 -43 -29 -78 -33 -78 -3 0 -15 32 -28 71 -12
39 -29 85 -36 103 l-14 33 -111 -22 c-60 -12 -110 -20 -110 -18 0 2 32 41 70
85 39 45 70 85 70 89 0 5 -31 45 -70 88 -38 44 -70 82 -70 84 0 2 50 -6 111
-18 l110 -23 10 27 c6 14 23 61 37 103 15 43 29 78 32 78 3 0 18 -37 34 -83z"/>
</g>
</svg>
