<?xml version="1.0" encoding="utf-8"?>
<!-- Generator: Adobe Illustrator 16.0.0, SVG Export Plug-In . SVG Version: 6.00 Build 0)  -->
<!DOCTYPE svg PUBLIC "-//W3C//DTD SVG 1.1//EN" "http://www.w3.org/Graphics/SVG/1.1/DTD/svg11.dtd">
<svg version="1.1" xmlns="http://www.w3.org/2000/svg" xmlns:xlink="http://www.w3.org/1999/xlink" x="0px" y="0px"
	 width="100%" height="100%" viewBox="0 0 72 72" enable-background="new 0 0 72 72" xml:space="preserve">
<g id="ord">
	<path fill="black" d="M36,5.736c4.187,0,8.117,0.779,11.792,2.336s6.875,3.711,9.602,6.461c2.726,2.75,4.892,5.963,6.498,9.638
		c1.606,3.675,2.409,7.605,2.409,11.792s-0.803,8.129-2.409,11.829s-3.772,6.912-6.498,9.638c-2.727,2.726-5.927,4.88-9.602,6.462
		S40.187,66.265,36,66.265c-4.186,0-8.117-0.791-11.792-2.373c-3.675-1.582-6.875-3.736-9.601-6.462s-4.892-5.938-6.498-9.638
		c-1.606-3.699-2.41-7.643-2.41-11.829s0.803-8.117,2.41-11.792c1.606-3.675,3.772-6.888,6.498-9.638
		c2.726-2.75,5.926-4.904,9.601-6.461C27.883,6.515,31.814,5.736,36,5.736z M36,63.563c3.797,0,7.35-0.718,10.66-2.153
		c3.31-1.442,6.218-3.401,8.725-5.89c2.507-2.483,4.479-5.409,5.915-8.774c1.436-3.358,2.153-6.942,2.153-10.745
		s-0.718-7.383-2.153-10.745c-1.437-3.365-3.408-6.289-5.915-8.774s-5.415-4.448-8.725-5.887C43.35,9.158,39.797,8.437,36,8.437
		c-3.602,0-6.985,0.645-10.149,1.938c-3.164,1.29-5.963,3.033-8.396,5.227l3.14,2.924c0.097,0.101,0.316,0.356,0.657,0.77
		c0.341,0.414,0.682,0.889,1.022,1.424c0.389,0.539,0.803,1.147,1.241,1.829l-1.752-1.314c-0.438-0.341-0.876-0.685-1.314-1.025
		c-0.438-0.34-0.706-0.56-0.803-0.657l-2.848-3.365c-2.58,2.537-4.624,5.497-6.133,8.883C9.155,28.458,8.401,32.1,8.401,36
		c0,3.803,0.73,7.387,2.19,10.745c1.46,3.365,3.432,6.291,5.914,8.774c2.482,2.488,5.391,4.447,8.725,5.89
		C28.565,62.845,32.155,63.563,36,63.563z M18.039,24.135l4.381,4.6l-2.994,0.292l-0.657-0.511l-5.549,1.606l-0.73-0.73
		L18.039,24.135z M18.258,23.113c-0.098-0.098-0.146-0.17-0.146-0.219c-0.341-0.682-0.487-1.375-0.438-2.081
		c0.049-0.706,0.268-1.351,0.657-1.935l0.219,0.073c0.097,0.098,0.207,0.244,0.329,0.438c0.122,0.195,0.304,0.39,0.547,0.584
		c-0.438,0.584-0.682,1.18-0.73,1.789c-0.049,0.608-0.024,1.302,0.073,2.081c-0.146-0.146-0.219-0.292-0.219-0.438
		c-0.098-0.049-0.17-0.122-0.219-0.219h-0.073V23.113z M23.734,27.494c0.097,0.341,0.194,0.743,0.292,1.205
		c0.097,0.462,0.194,0.888,0.292,1.278c-0.098,0.146-0.146,0.365-0.146,0.657c-0.098-0.34-0.195-0.681-0.292-1.022
		c-0.098-0.341-0.17-0.633-0.219-0.876v-0.146l-4.162-4.308c-0.049-0.292-0.098-0.536-0.146-0.73
		c-0.049-0.195-0.073-0.414-0.073-0.657L23.734,27.494z M31.546,23.551c-1.85,0.097-3.48,0.852-4.892,2.263
		c-0.779,0.779-1.387,1.631-1.825,2.556c-0.098-0.244-0.17-0.499-0.219-0.767c-0.049-0.268-0.073-0.45-0.073-0.548v-0.219
		l-5.038-5.184c0.097-0.244,0.17-0.39,0.219-0.438c0.049-0.049,0.122-0.195,0.219-0.438c0.341,0.292,0.645,0.536,0.913,0.73
		s0.45,0.316,0.548,0.365l3.285,2.19c0,0.146,0.073,0.146,0.219,0c0.097-0.097,0.097-0.219,0-0.365l-2.044-3.286
		c-0.097-0.146-0.195-0.316-0.292-0.511c-0.097-0.146-0.207-0.292-0.329-0.438s-0.231-0.316-0.329-0.511
		c0.536-0.389,1.059-0.596,1.57-0.621s1.132,0.085,1.862,0.329l4.162,4.308h0.073c0.341,0.098,0.669,0.195,0.986,0.292
		C30.877,23.356,31.206,23.454,31.546,23.551z M24.902,17.856c-0.682-0.146-1.326-0.207-1.935-0.183
		c-0.608,0.024-1.253,0.231-1.935,0.621c-0.146-0.243-0.316-0.426-0.511-0.547s-0.341-0.231-0.438-0.329
		c0.584-0.438,1.229-0.657,1.935-0.657c0.706,0,1.351,0.122,1.935,0.365c0.146,0.146,0.219,0.243,0.219,0.292h0.146l0.073,0.146
		h0.073l0.073,0.073C24.634,17.637,24.756,17.71,24.902,17.856z M34.905,34.43c-0.779,0.73-1.473,1.533-2.081,2.41
		c-0.608,0.876-1.034,1.801-1.278,2.774l-4.965-5.184l-0.073-0.073h-0.073c-0.097-0.146-0.17-0.219-0.219-0.219
		c-0.098-0.097-0.17-0.195-0.219-0.292c-0.049-0.098-0.122-0.195-0.219-0.292c0-0.049-0.012-0.073-0.036-0.073
		s-0.037-0.049-0.037-0.146v-0.073l-0.146-0.146c-0.049,0-0.073-0.024-0.073-0.073v-0.219c-0.34-0.925-0.34-1.947,0-3.066
		c0.341-1.12,0.998-2.117,1.972-2.994c0.925-0.925,1.85-1.509,2.774-1.752l7.228,7.375C36.536,32.97,35.684,33.651,34.905,34.43z
		 M29.721,21.799l-4.454-4.673l5.403-5.184l0.876,0.657l-1.825,5.476l0.511,0.657L29.721,21.799z M31.4,24.719
		c0.682-0.146,1.46-0.048,2.336,0.292h0.073l0.219,0.146h0.073l0.146,0.073l0.073,0.146c0.243,0.097,0.438,0.243,0.584,0.438
		l0.219,0.219l0.073,0.073l5.111,5.184c-0.341,0.098-0.682,0.207-1.022,0.329c-0.34,0.122-0.656,0.231-0.948,0.329L31.4,24.719z
		 M33.518,42.754c-0.195,1.07-0.17,2.093,0.073,3.066c-1.071-1.363-1.387-2.993-0.949-4.892c0.292-2.094,1.338-3.967,3.139-5.623
		c0.779-0.779,1.655-1.412,2.628-1.898c0.974-0.487,1.996-0.828,3.066-1.022c0.877-0.097,1.74-0.049,2.593,0.146
		c0.852,0.195,1.594,0.584,2.227,1.168c-0.438-0.098-0.913-0.183-1.424-0.256c-0.511-0.073-1.059-0.061-1.643,0.037
		c-2.288,0.244-4.405,1.29-6.353,3.14c-0.876,0.876-1.618,1.826-2.227,2.847C34.041,40.49,33.664,41.586,33.518,42.754z
		 M42.353,49.033c0.243,0.194,0.511,0.39,0.803,0.584s0.56,0.365,0.804,0.511c-0.146,0.536-0.244,1.083-0.293,1.644
		c-0.048,0.56,0.024,1.106,0.22,1.643c-1.753-0.876-3.42-1.862-5.002-2.957c-1.582-1.096-2.811-2.032-3.687-2.812
		c-0.779-1.46-0.876-3.115-0.292-4.965c0.682,0.682,1.375,1.351,2.081,2.008c0.706,0.657,1.448,1.278,2.227,1.862
		c0.389,0.341,0.815,0.669,1.277,0.985c0.463,0.316,0.913,0.669,1.351,1.059C41.987,48.692,42.157,48.838,42.353,49.033z
		 M48.996,44.434c-0.535,0.243-1.034,0.511-1.496,0.803c-0.463,0.292-0.913,0.633-1.351,1.022c-0.438,0.389-0.815,0.815-1.132,1.277
		c-0.316,0.463-0.597,0.962-0.84,1.497c-0.438-0.292-0.852-0.633-1.241-1.022c-0.098-0.098-0.207-0.17-0.329-0.219
		c-0.121-0.049-0.23-0.122-0.328-0.22c-0.39-0.34-0.791-0.669-1.205-0.985c-0.413-0.316-0.84-0.645-1.277-0.985
		c-1.753-1.363-3.31-2.727-4.673-4.089c0.486-1.509,1.387-2.848,2.701-4.016c0.584-0.536,1.217-1.022,1.898-1.46
		s1.412-0.779,2.19-1.022c1.314,1.46,2.543,2.982,3.688,4.564C46.745,41.159,47.877,42.778,48.996,44.434z M43.01,34.795
		c1.946-0.438,3.65-0.268,5.11,0.511c0.682,0.974,1.521,2.263,2.52,3.87c0.997,1.606,1.91,3.286,2.737,5.038
		c-0.925-0.39-1.995-0.39-3.212,0c-0.974-1.655-2.069-3.273-3.286-4.855S44.372,36.255,43.01,34.795z M47.025,47.135
		c1.168-1.12,2.409-1.789,3.724-2.008c1.314-0.22,2.409,0.036,3.285,0.767c0.536,1.362,0.864,2.641,0.986,3.833
		c0.121,1.192-0.086,2.203-0.621,3.03c-0.194,0.39-0.486,0.778-0.876,1.168c-0.194,0.194-0.401,0.353-0.621,0.475
		c-0.219,0.122-0.401,0.256-0.547,0.401c-0.828,0.487-1.85,0.633-3.067,0.438c-1.217-0.194-2.482-0.584-3.796-1.168
		c-0.682-0.877-0.889-1.983-0.621-3.322S45.856,48.205,47.025,47.135z M53.085,53.414c0.779-0.73,1.229-1.582,1.351-2.556
		c0.122-0.974-0.109-1.825-0.693-2.556h-0.146c-0.049-0.049-0.122-0.109-0.22-0.183c-0.097-0.073-0.194-0.158-0.292-0.255h0.073
		c-0.682-0.341-1.424-0.451-2.227-0.329c-0.804,0.122-1.57,0.548-2.3,1.277c-0.682,0.633-1.12,1.363-1.314,2.19
		c-0.195,0.828-0.122,1.582,0.219,2.264v-0.073c0.098,0.098,0.171,0.207,0.219,0.329c0.049,0.122,0.122,0.231,0.22,0.328
		c0.633,0.584,1.448,0.853,2.445,0.804C51.418,54.606,52.307,54.192,53.085,53.414z M49.288,49.617
		c0.633-0.633,1.314-1.01,2.045-1.132s1.387,0.109,1.972,0.693c0.048,0.146,0.072,0.316,0.072,0.512c0,0.194,0,0.389,0,0.584
		c-0.048,0-0.072-0.024-0.072-0.073s-0.049-0.098-0.146-0.146c-0.535-0.486-1.144-0.632-1.825-0.438
		c-0.146,0-0.219,0.073-0.219,0.219c0,0.049,0.072,0.073,0.219,0.073c0.39,0.146,0.608,0.268,0.657,0.365
		c0.535,0.535,0.438,1.144-0.292,1.825c-0.292,0.243-0.597,0.401-0.913,0.475s-0.596-0.013-0.84-0.256
		c-0.146-0.194-0.219-0.438-0.219-0.729c0-0.146-0.098-0.22-0.292-0.22c-0.146,0-0.219,0.024-0.219,0.073
		c-0.146,0.827,0.024,1.484,0.511,1.972l0.219,0.219c-0.194,0-0.401-0.024-0.62-0.073s-0.401-0.097-0.548-0.146
		c-0.486-0.487-0.682-1.096-0.584-1.825C48.34,50.712,48.704,50.055,49.288,49.617z"/>
</g>
</svg>
