<svg width="60" height="60" viewBox="0 0 60 60" version="1.1" xmlns="http://www.w3.org/2000/svg" xmlns:xlink="http://www.w3.org/1999/xlink">
<title>logo-rebel</title>
<desc>Created using Figma</desc>
<g id="Canvas" transform="translate(411 31)">
<g id="logo-rebel">
<g id="Group">
<g id="Vector">
<use xlink:href="#path0_fill" transform="translate(-411 -31)"/>
</g>
</g>
</g>
</g>
<defs>
<path id="path0_fill" d="M 0.0144618 29.28C 0.383497 19.6958 5.34175 10.856 14.4058 5.01468C 14.4326 5.02451 14.6674 4.94074 14.5601 5.13962C 13.8421 5.79178 0.9336 20.7295 12.8155 32.5203C 12.8155 32.5203 19.0584 38.3996 23.8993 32.821C 23.8993 32.821 28.6763 26.763 23.8389 17.5795C 23.8389 17.5795 22.6145 14.5809 18.203 12.7209L 21.7558 8.88092C 21.7558 8.88092 24.758 10.1428 27.0829 13.5654C 27.0829 13.5654 27.2068 9.96197 24.389 6.12216L 29.8974 -1.56267e-09L 35.3503 6.0646C 35.3503 6.0646 32.8427 9.54475 32.6581 13.623C 32.6581 13.623 34.3707 10.8626 38.0475 8.88112L 41.5363 12.7211C 41.5363 12.7211 38.1815 13.804 35.9341 17.5404C 34.0017 21.0023 32.5141 28.4063 36.021 32.9478C 36.021 32.9478 39.946 38.3998 46.85 32.626C 46.85 32.626 59.544 21.4839 45.5482 5.37476C 45.5482 5.37476 44.7834 4.71257 45.6421 5.07244C 51.8281 9.48432 59.2352 15.3025 60 29.8226C 59.6981 47.4304 47.6615 60 30.0853 60C 12.8761 59.9998 -0.501979 45.9315 0.0144618 29.28Z"/>
</defs>
</svg>