<?xml version="1.0" encoding="UTF-8"?>
<svg width="60px" height="60px" viewBox="0 0 60 60" version="1.1" xmlns="http://www.w3.org/2000/svg" xmlns:xlink="http://www.w3.org/1999/xlink">
    <title>Artboard Copy</title>
    <g id="Artboard-Copy" stroke="none" stroke-width="1" fill="none" fill-rule="evenodd">
        <g id="Republic_Emblem" fill="#000000" fill-rule="nonzero">
            <path d="M30,-1.00000022e-07 C46.5602857,-1.00000022e-07 60,13.4397172 60,29.9999999 C60,46.5602875 46.560293,59.9999999 30,59.9999999 C13.4397172,59.9999999 -7.10542736e-15,46.5602837 -7.10542736e-15,29.9999999 C-7.10542736e-15,13.4397202 13.4397193,-1.00000022e-07 30,-1.00000022e-07 Z M30,1.9999999 C14.5442888,1.9999999 2,14.5442897 2,29.9999999 C2,45.4557142 14.5442867,57.9999999 30,57.9999999 C45.4557236,57.9999999 58,45.4557179 58,29.9999999 C58,14.5442869 45.4557164,1.9999999 30,1.9999999 Z M16.531248,48.190625 C19.443608,50.351153 22.895938,51.822964 26.643748,52.38125 L26.643748,52.38125 L26.643748,55.3625 C22.087958,54.763526 17.906528,52.962606 14.431248,50.290625 L14.431248,50.290625 Z M43.459373,48.196875 L45.553123,50.3 C42.076143,52.96815 37.897433,54.767388 33.340623,55.3625 L33.340623,55.3625 L33.340623,52.390625 C37.089693,51.835765 40.535759,50.35553 43.449998,48.196875 L43.449998,48.196875 L43.459373,48.196875 Z M31.874998,10.715625 L31.874998,20.740625 C33.090628,20.986033 34.217703,21.467335 35.215623,22.13125 L35.215623,22.13125 L42.312498,15.034375 L44.965623,17.6875 L37.868748,24.784375 C38.529648,25.780157 39.014674,26.912922 39.259373,28.125 L39.259373,28.125 L49.284373,28.125 L49.284373,31.875 L39.259373,31.875 C39.014733,33.086486 38.529207,34.210845 37.868748,35.20625 L37.868748,35.20625 L44.965623,42.30625 L42.312498,44.959375 L35.215623,37.859375 C34.217693,38.523291 33.090628,39.010842 31.874998,39.25625 L31.874998,39.25625 L31.874998,49.284375 L28.124998,49.284375 L28.124998,39.25625 C26.910528,39.011076 25.775343,38.531678 24.778123,37.86875 L24.778123,37.86875 L17.687498,44.959375 L15.034373,42.30625 L22.131248,35.20625 C21.470538,34.210674 20.988437,33.08677 20.743748,31.875 L20.743748,31.875 L10.715623,31.875 L10.715623,28.125 L20.743748,28.125 C20.988488,26.912654 21.470118,25.780319 22.131248,24.784375 L22.131248,24.784375 L15.034373,17.6875 L17.687498,15.034375 L24.778123,22.121875 C25.775343,21.458947 26.910528,20.985801 28.124998,20.740625 L28.124998,20.740625 L28.124998,10.715625 L31.874998,10.715625 Z M55.362498,33.346875 C54.763858,37.903157 52.961504,42.083221 50.290623,45.559375 L50.290623,45.559375 L48.190623,43.459375 C50.351773,40.544773 51.826731,37.09542 52.384373,33.346875 L52.384373,33.346875 Z M7.618748,33.346875 C8.173858,37.091253 9.638728,40.538855 11.793748,43.45 L11.793748,43.45 L9.693748,45.553125 C7.027128,42.078243 5.233088,37.90003 4.637498,33.346875 L4.637498,33.346875 Z M50.290623,14.43125 C52.964223,17.908624 54.764609,22.094142 55.362498,26.653125 L55.362498,26.653125 L52.384373,26.653125 C51.827023,22.902135 50.352734,19.445744 48.190623,16.53125 L48.190623,16.53125 Z M9.699998,14.446875 L11.803123,16.55 C9.645683,19.461548 8.175408,22.9082 7.618748,26.653125 L7.618748,26.653125 L4.637498,26.653125 C5.234788,22.099325 7.031878,17.920898 9.699998,14.446875 L9.699998,14.446875 Z M26.643748,4.6468749 L26.643748,7.6156249 C22.897578,8.173029 19.452324,9.651383 16.540623,11.809375 L16.540623,11.809375 L16.531248,11.809375 L14.440623,9.709375 C17.914973,7.0420589 22.090038,5.244799 26.643748,4.6468749 L26.643748,4.6468749 Z M33.340623,4.6374999 C37.896973,5.2319979 42.076153,7.0255201 45.553123,9.69375 L45.553123,9.69375 L43.449998,11.79375 C40.536738,9.637166 37.088143,8.169809 33.340623,7.6156249 L33.340623,7.6156249 Z" id="Combined-Shape"/>
        </g>
    </g>
</svg>