<?xml version="1.0" encoding="UTF-8"?>
<svg baseProfile="tiny" version="1.2" viewBox="0 0 1024 1024" xmlns="http://www.w3.org/2000/svg">
<polygon points="383 153 382 152 382 151 382 150 382 149 383 148 383 148 383 147 384 146 384 146 384 145 385 144 385 144 385 143 386 142 386 142 386 141 387 140 387 140 387 139 388 138 388 138 388 137 389 136 389 136 389 135 390 134 390 134 390 133 391 132 391 132 391 131 392 130 392 130 392 129 393 128 393 128 393 127 394 126 394 126 394 125 395 124 395 124 395 123 396 122 396 122 397 121 397 121 398 120 398 120 399 119 400 119 400 119 401 118 401 118 402 117 403 117 403 117 404 116 405 116 405 116 406 115 407 115 407 115 408 114 409 114 409 114 410 113 411 113 411 113 412 112 413 112 413 112 414 111 415 111 415 111 416 110 417 110 417 110 418 109 419 109 419 109 420 108 421 108 421 108 422 107 423 107 423 107 424 106 425 106 425 106 426 105 427 105 428 105 428 105 429 104 430 104 430 104 431 103 432 103 432 103 433 102 434 102 434 102 435 101 436 101 437 102 437 103 437 104 436 105 436 105 436 106 435 107 435 107 435 108 434 109 434 109 434 110 434 111 433 112 433 112 433 113 433 114 433 115 432 116 432 116 432 117 432 118 431 119 431 119 431 120 431 121 431 122 430 123 430 123 430 124 430 125 429 126 429 126 429 127 429 128 428 129 428 129 428 130 428 131 427 132 427 132 427 133 427 134 426 135 426 135 425 136 424 136 424 136 423 137 423 137 422 138 421 138 420 138 420 138 419 139 419 139 418 140 417 140 417 140 416 141 415 141 414 141 414 141 413 142 412 142 412 142 411 143 410 143 410 143 409 144 408 144 408 144 407 145 406 145 405 145 405 145 404 146 403 146 402 146 402 146 401 147 400 147 399 147 399 147 398 148 397 148 396 148 396 148 395 149 394 149 393 149 393 149 392 150 391 150 390 150 390 150 389 151 388 151 388 151 387 152 386 152 385 152 384 152 384 152"/>
<polygon points="513 892 512 892 511 892 510 892 509 892 508 892 507 892 506 892 505 892 504 892 503 892 502 892 501 892 500 892 499 892 498 892 497 892 496 892 495 892 494 892 493 892 492 892 491 892 490 892 489 892 488 892 487 891 487 891 486 891 485 891 484 891 483 891 482 891 481 891 480 891 479 891 478 891 477 890 477 890 476 890 475 890 474 890 473 890 472 889 472 889 471 889 470 889 469 889 468 889 467 889 466 889 465 889 464 888 464 888 463 888 462 888 461 888 460 888 459 887 459 887 458 887 457 887 456 887 455 887 454 887 453 886 453 886 452 886 451 886 450 886 449 886 448 885 448 885 447 885 446 885 445 885 444 885 443 884 443 884 442 884 441 884 440 884 439 884 438 883 438 883 437 883 436 883 435 882 435 882 434 882 433 882 432 882 431 882 430 882 429 881 429 881 428 881 427 881 426 880 426 880 425 880 424 880 423 880 422 879 422 879 421 879 420 879 419 879 418 878 418 878 417 878 416 878 415 878 414 877 414 877 413 877 412 877 411 877 410 876 410 876 409 876 408 875 408 875 407 875 406 875 405 875 404 875 403 874 403 874 402 874 401 873 401 873 400 873 399 873 398 873 397 872 397 872 396 872 395 872 394 871 394 871 393 871 392 871 391 871 390 870 390 870 389 870 388 870 387 869 387 869 386 869 385 869 384 868 384 868 383 868 382 868 381 868 380 867 380 867 379 867 378 866 378 866 377 866 376 866 375 866 374 865 374 865 373 864 373 864 372 864 371 864 370 864 369 863 369 863 368 863 367 862 367 862 366 862 365 862 364 861 364 861 363 861 362 860 362 860 361 860 360 859 360 859 359 859 358 859 357 858 357 858 356 858 355 857 355 857 354 857 353 856 353 856 352 855 352 855 351 855 350 854 350 854 349 853 349 852 350 851 350 851 351 850 351 850 352 849 353 849 353 849 354 848 354 848 355 847 355 847 356 846 356 846 356 845 356 844 356 843 356 842 356 842 355 841 355 841 354 841 353 840 353 840 352 839 352 839 351 839 350 839 349 839 348 838 348 838 347 838 346 838 345 837 345 837 344 837 343 837 342 837 341 836 341 836 340 836 339 836 338 836 337 835 337 835 336 835 335 835 334 834 334 834 333 834 332 834 331 833 331 833 330 833 329 833 328 832 328 832 327 832 326 832 325 832 324 832 323 831 323 831 322 831 321 830 321 830 320 830 319 830 318 830 317 829 317 829 316 829 315 829 314 829 313 828 313 828 312 828 311 828 310 827 310 827 309 827 308 827 307 826 307 826 306 825 306 825 305 825 304 825 303 824 303 824 302 823 302 823 301 823 300 822 300 822 299 821 299 821 298 821 297 820 297 820 296 819 296 819 295 819 294 818 294 818 293 817 293 817 292 816 292 816 291 816 290 815 290 815 289 814 289 814 288 813 288 813 287 813 286 812 286 812 285 811 285 811 284 810 284 810 283 809 283 809 282 809 281 808 281 808 280 807 280 807 279 806 279 806 278 805 278 805 277 805 276 804 276 804 275 803 275 803 274 802 274 802 273 801 273 801 272 800 272 800 271 799 271 799 270 799 269 798 269 798 268 797 268 797 267 796 267 796 266 795 266 795 265 794 265 794 264 793 264 793 263 792 263 792 262 791 262 791 261 790 261 790 260 790 259 789 259 789 258 788 258 788 257 787 257 787 256 786 256 786 255 785 255 785 254 784 254 784 253 783 253 783 252 782 252 782 251 781 251 781 250 780 250 780 249 779 249 779 248 778 248 778 247 777 247 777 246 776 246 776 245 775 245 775 244 774 244 774 243 773 243 773 242 772 242 772 241 771 241 771 240 770 240 770 239 769 239 769 238 768 238 768 237 768 236 767 236 767 235 766 235 766 234 765 234 765 233 764 233 764 232 763 232 763 231 762 231 762 230 761 230 761 229 760 229 759 229 759 228 759 227 758 227 757 227 757 226 756 226 756 225 755 225 755 224 754 224 754 223 753 223 753 222 752 222 752 221 751 221 751 220 750 220 750 219 749 219 748 219 748 218 747 219 746 220 746 221 746 222 746 223 746 224 746 225 746 226 746 227 747 227 747 228 747 229 747 230 747 231 747 232 747 233 747 234 747 235 747 236 747 236 747 237 746 238 746 239 746 240 746 241 746 241 746 242 745 242 745 242 744 243 743 243 743 243 742 243 741 243 740 243 739 243 738 243 737 243 737 242 736 242 736 241 735 241 735 240 734 240 734 239 733 239 732 240 731 240 731 241 730 241 730 242 729 242 729 243 728 243 728 244 727 244 727 244 726 244 725 245 724 245 724 245 723 245 723 244 722 244 721 244 720 244 720 243 719 243 719 242 719 241 719 240 718 240 718 239 718 238 718 237 718 236 718 235 717 235 717 234 717 233 717 232 717 232 717 231 718 230 718 229 718 228 718 227 718 227 718 226 719 225 719 225 719 225 720 224 721 224 721 224 722 223 723 223 723 223 724 222 725 221 725 220 725 219 725 218 725 217 725 216 725 215 725 214 724 214 724 213 724 212 723 212 723 211 723 210 722 210 722 209 721 209 721 208 720 208 720 207 719 207 719 206 718 206 718 205 717 205 717 204 717 203 717 202 716 202 716 201 716 200 716 199 716 198 715 198 715 197 715 196 714 196 714 195 713 195 713 194 712 194 711 194 711 193 710 193 710 192 709 192 709 191 708 191 708 190 707 190 707 189 706 189 705 189 705 188 704 188 704 187 703 187 702 187 702 186 701 186 701 185 700 185 700 184 699 184 698 184 698 183 697 183 696 183 696 182 695 182 695 181 694 181 694 180 693 180 692 180 692 179 691 179 690 179 690 178 689 178 688 178 688 177 687 177 686 177 685 177 685 176 684 177 683 177 683 178 682 178 682 179 681 180 681 181 681 182 681 183 681 184 681 185 681 185 681 186 680 187 680 187 680 188 679 189 679 189 679 190 678 190 678 191 677 192 677 192 677 193 676 193 676 194 675 194 675 195 674 195 674 195 674 194 673 194 672 194 672 193 671 193 670 193 669 193 668 193 668 192 667 192 666 192 665 192 665 191 664 191 664 190 663 190 663 189 663 188 662 188 662 187 662 186 661 186 661 185 661 184 661 183 661 182 661 181 660 181 660 180 660 179 660 178 660 177 660 176 660 175 660 174 660 173 660 172 659 172 659 171 659 170 659 169 659 168 659 167 659 166 658 166 657 166 657 165 656 165 656 164 655 164 654 164 653 164 653 163 652 163 652 162 651 162 650 162 649 162 649 161 648 161 647 161 647 160 646 160 645 160 645 159 644 159 643 159 643 158 642 158 641 158 640 158 640 157 639 157 638 157 637 157 637 156 636 156 635 156 635 155 634 155 633 155 632 155 631 155 631 154 630 154 629 154 629 153 628 153 627 153 626 153 626 152 625 152 624 152 623 152 623 151 622 151 621 151 620 151 620 150 619 150 618 150 617 150 617 149 616 149 615 149 614 149 613 149 613 148 612 148 611 148 610 148 609 148 609 147 608 147 607 147 606 147 606 146 605 146 604 146 603 146 602 146 602 145 601 145 600 145 599 145 598 145 598 144 597 144 596 144 595 144 594 144 593 144 593 143 592 143 591 143 590 143 589 143 588 143 588 142 587 142 586 142 585 142 584 142 583 142 583 141 582 141 581 141 580 141 579 141 578 141 577 141 576 141 575 141 574 141 573 141 572 141 571 141 571 140 570 140 569 140 568 140 567 140 566 140 565 140 564 140 563 140 562 140 561 140 561 139 560 139 559 139 558 139 557 139 556 139 555 139 554 139 554 138 553 138 552 138 552 137 551 137 550 137 549 137 549 136 548 136 548 135 547 135 546 135 545 135 544 135 544 134 543 134 542 134 541 134 540 134 539 134 538 134 537 135 536 135 536 135 535 135 534 136 533 136 533 137 532 137 532 137 531 137 530 137 529 137 528 137 527 137 526 137 526 136 525 136 524 136 523 136 522 136 521 136 520 136 519 136 518 136 517 136 516 136 515 136 514 136 513 136 512 136 511 136 510 136 509 136 508 136 507 136 506 136 505 136 504 136 503 136 502 136 501 136 500 136 499 136 498 136 497 136 496 136 495 136 494 136 493 136 492 136 491 136 490 137 489 138 489 139 490 139 490 140 491 140 491 141 492 141 492 142 493 142 493 143 493 144 494 144 494 145 495 145 495 146 496 146 496 147 497 147 497 148 498 148 498 149 499 149 499 150 500 150 500 151 500 152 501 152 501 153 501 153 501 153 500 153 499 153 498 153 497 153 496 153 495 153 494 153 494 152 493 152 492 152 491 152 490 152 489 152 488 152 487 152 486 152 485 152 485 151 484 151 483 151 482 151 481 151 480 151 479 151 478 151 477 151 476 151 475 151 474 151 473 151 473 150 472 150 471 150 470 150 469 151 468 151 468 151 467 151 466 152 465 152 465 152 464 153 463 153 463 153 462 153 461 154 460 154 460 154 459 155 458 155 458 155 457 156 456 157 456 158 456 159 457 159 457 160 458 160 458 161 459 161 460 161 460 162 461 162 461 163 462 163 462 164 463 164 463 165 464 165 464 166 465 166 465 167 466 167 466 168 466 169 467 169 467 170 468 170 468 171 469 171 469 172 469 173 470 173 470 174 471 174 471 175 471 176 472 176 472 177 473 177 473 178 474 178 474 179 475 179 475 180 476 180 477 180 478 180 478 181 479 181 479 182 480 182 480 183 481 183 481 184 482 184 482 185 483 185 483 186 484 186 484 187 485 187 485 188 486 188 486 189 487 189 487 190 487 191 487 192 487 193 487 194 487 195 487 196 488 196 488 197 488 198 488 198 488 199 487 200 487 201 487 202 488 202 488 203 488 204 488 205 488 206 488 207 488 208 488 209 488 210 488 211 488 212 488 213 488 214 488 215 489 215 489 215 489 216 488 216 488 216 487 216 486 216 486 215 485 215 484 215 483 215 483 214 482 214 481 214 480 214 479 214 479 213 478 213 477 213 476 213 476 212 475 212 474 212 473 212 473 211 472 211 471 211 470 211 470 210 469 210 468 210 467 210 467 209 466 209 465 209 465 208 464 208 463 208 462 208 462 207 461 207 460 207 459 207 458 207 458 206 457 206 456 206 455 206 454 206 454 205 453 205 452 205 451 205 450 205 449 205 448 205 447 205 446 205 445 205 444 205 443 205 442 205 441 205 440 205 439 205 438 206 437 206 437 206 436 206 435 206 434 206 433 206 432 206 431 206 430 206 429 206 428 206 427 206 426 206 425 206 424 206 423 206 422 206 421 206 421 205 420 205 420 204 419 204 418 204 418 203 417 203 417 202 416 202 416 201 415 201 415 200 414 200 414 199 413 199 413 198 412 198 412 197 411 197 411 196 410 196 410 195 409 195 409 194 408 194 408 193 407 193 407 192 406 192 406 191 405 191 405 190 404 190 404 189 403 189 403 188 402 188 402 187 402 186 401 186 401 185 400 185 400 184 399 184 399 183 398 183 398 182 397 182 397 181 396 181 396 180 395 180 394 180 394 179 393 179 393 178 392 178 391 178 391 177 390 178 389 178 389 178 388 178 387 178 386 179 385 179 385 179 384 179 383 180 382 180 382 180 381 180 380 181 379 181 379 181 378 181 377 181 376 182 375 182 375 182 374 182 373 182 372 183 371 183 371 183 370 183 369 183 368 183 367 184 366 184 366 184 365 184 364 184 363 184 362 184 361 185 360 185 360 185 359 185 358 185 357 185 356 186 355 186 355 186 354 186 353 186 352 187 351 187 351 187 350 188 349 188 349 189 348 189 348 190 347 190 347 191 346 191 346 192 345 192 345 193 344 193 344 194 343 194 343 195 342 195 342 196 341 197 341 197 341 198 340 198 340 199 339 199 339 200 338 200 338 201 337 201 337 201 336 202 335 202 335 202 334 202 333 203 332 203 332 203 331 203 330 203 329 203 328 204 327 204 327 204 326 204 325 204 324 204 323 205 322 205 322 205 321 206 320 206 320 207 319 207 319 208 318 208 318 209 317 209 317 210 316 210 316 211 315 211 315 212 314 212 314 213 313 214 313 214 313 215 312 215 312 216 311 216 311 217 310 217 310 218 309 218 309 219 308 219 308 220 307 220 307 221 306 222 306 222 306 223 305 223 305 224 304 224 304 225 303 225 303 226 302 226 302 227 301 228 301 228 301 229 300 229 300 230 299 230 299 231 298 231 298 232 297 232 297 233 296 234 296 234 296 235 295 235 295 236 294 236 294 237 293 238 293 238 293 239 292 239 292 240 291 241 291 241 291 242 290 243 290 244 290 245 290 246 291 246 291 247 292 247 293 246 294 246 294 246 295 246 296 245 297 245 297 245 298 245 299 245 300 244 301 244 301 244 302 244 303 244 304 243 305 243 305 243 306 243 307 243 308 242 309 242 309 242 310 242 311 242 312 242 313 242 314 242 315 241 316 241 316 241 317 241 318 241 319 241 320 241 321 241 322 240 323 240 323 240 324 240 325 240 326 240 327 240 328 240 329 240 330 240 331 239 332 239 332 239 333 239 334 239 335 239 336 239 337 239 338 239 339 239 340 239 341 239 342 239 343 239 344 239 345 238 346 238 346 238 347 238 348 238 349 238 350 237 351 237 351 237 352 237 353 236 354 236 354 236 355 235 356 235 356 235 357 234 358 234 358 234 359 234 360 233 361 233 361 233 362 232 363 232 363 232 364 231 365 231 365 231 366 231 367 230 368 230 368 230 369 229 370 229 370 229 371 228 372 228 372 228 373 228 374 228 375 228 376 228 377 228 378 228 379 228 379 229 380 229 381 229 381 230 382 230 383 230 383 231 384 231 385 231 385 232 386 232 387 232 387 233 388 233 389 233 389 234 390 234 391 234 391 235 392 235 393 235 393 236 394 236 395 236 395 237 396 237 397 237 397 238 398 238 399 238 400 238 401 238 401 239 402 239 403 239 404 239 405 239 406 239 407 239 408 239 409 239 410 239 410 240 411 240 412 240 413 240 414 240 415 240 416 240 417 240 417 241 418 241 419 241 420 241 421 241 422 241 423 241 423 242 424 242 425 242 426 242 427 242 427 243 428 243 429 243 430 243 431 243 431 244 432 244 433 244 434 244 435 244 435 245 436 245 437 245 438 245 439 245 439 246 440 246 441 246 442 246 442 247 443 247 444 247 445 247 445 248 446 248 447 248 448 248 448 249 449 249 450 249 451 249 451 250 452 250 453 250 453 251 454 251 455 251 456 251 456 252 457 252 458 252 458 253 459 253 460 253 461 253 461 254 462 254 463 254 463 255 464 255 465 255 465 256 466 256 467 256 467 257 468 257 469 257 469 258 470 258 471 258 471 259 472 259 473 259 473 260 474 260 475 260 475 261 476 261 477 261 477 262 478 262 479 262 479 263 480 263 480 264 481 264 482 264 482 265 483 265 484 265 484 266 485 266 485 267 486 267 487 267 487 268 488 268 488 269 489 269 490 269 490 270 491 270 491 271 492 271 493 271 493 272 494 272 494 273 495 273 496 273 496 274 497 274 497 275 498 275 498 276 499 276 500 276 500 277 501 277 501 278 502 278 502 279 503 279 504 279 504 280 505 280 505 281 506 281 506 282 507 282 507 283 508 283 508 284 509 284 509 285 510 285 510 286 511 286 511 287 512 287 512 288 513 288 514 288 514 289 515 289 515 290 516 290 516 291 517 291 517 292 518 292 518 293 518 294 519 294 519 295 520 295 520 296 521 296 521 297 522 297 522 298 523 298 523 299 524 299 524 300 525 300 525 301 526 301 526 302 527 302 527 303 528 303 529 303 530 302 531 302 531 301 532 300 532 300 532 299 533 298 533 298 533 297 534 297 534 297 534 298 534 299 535 299 535 300 535 301 535 302 535 303 536 303 536 304 536 305 537 305 537 306 537 307 538 307 538 308 539 308 539 309 539 310 540 310 540 311 541 311 541 312 541 313 542 313 542 314 542 315 542 316 543 316 543 317 544 317 544 318 544 319 545 319 545 320 546 320 546 321 546 322 547 322 547 323 548 323 548 324 549 324 549 325 549 326 550 326 550 327 551 327 551 328 552 328 552 329 553 329 553 330 554 330 554 331 555 331 555 332 556 332 556 333 557 333 558 333 558 334 559 334 560 334 560 335 561 335 562 335 562 336 563 336 563 337 564 337 564 338 564 339 564 340 564 341 564 342 564 343 564 344 564 345 564 346 564 347 565 347 565 348 566 348 566 349 566 350 567 350 567 351 568 351 568 352 568 353 569 353 570 353 570 354 571 354 571 355 572 355 572 356 573 356 573 357 573 358 573 359 573 360 573 361 573 361 573 362 572 363 572 363 572 364 571 365 571 365 571 366 570 367 570 367 570 368 569 368 569 369 568 370 568 371 568 371 568 372 567 373 567 374 567 374 567 375 566 376 566 377 566 378 566 378 566 379 565 380 565 381 565 381 565 382 564 383 564 384 564 385 564 386 564 387 564 388 564 389 564 389 564 390 563 391 563 392 563 393 563 393 563 394 562 395 562 396 562 397 562 397 562 398 561 399 561 400 561 400 561 401 560 402 560 403 560 404 560 404 560 405 559 406 559 406 559 407 558 408 558 408 558 409 557 410 557 411 557 411 557 412 556 413 556 413 556 414 555 415 555 415 555 416 554 416 554 417 553 418 553 418 553 419 552 420 552 420 552 421 551 421 551 422 550 423 550 423 550 424 549 424 549 425 548 426 548 426 548 427 547 427 547 428 546 428 546 429 545 429 545 430 544 431 544 431 544 432 543 432 543 433 542 433 542 434 541 434 541 435 540 435 540 436 539 437 539 437 539 438 538 438 538 439 537 439 537 440 536 441 536 441 536 442 535 443 535 443 535 444 534 445 534 446 534 446 534 447 533 448 533 449 533 449 533 450 532 451 532 451 532 452 531 452 531 453 530 453 530 453 529 454 528 454 528 454 527 454 526 454 525 454 524 454 523 455 522 455 522 455 521 455 520 455 519 455 518 455 517 455 516 456 515 456 515 456 514 456 513 456 512 456 511 457 510 457 510 457 509 457 508 458 507 458 507 458 506 458 505 459 504 459 504 459 503 459 502 460 501 460 501 460 500 461 499 461 499 461 498 462 497 462 497 462 496 462 495 463 494 463 494 463 493 463 492 464 491 464 491 464 490 465 489 465 489 465 488 465 487 466 486 466 486 466 485 466 484 466 483 467 482 467 482 467 481 467 480 467 479 467 478 467 477 468 476 468 476 468 475 468 474 468 473 468 472 469 471 469 471 469 470 469 469 469 468 469 467 469 466 469 465 469 464 469 463 469 462 469 461 469 460 470 459 470 459 470 458 470 457 470 456 470 455 470 454 470 453 470 452 470 451 470 450 470 449 470 448 470 447 470 446 470 445 470 444 470 443 470 442 470 441 470 440 470 439 470 438 470 437 470 436 470 435 470 434 470 433 470 432 470 431 470 431 469 430 469 429 469 428 469 427 469 426 469 425 469 424 469 423 469 422 469 421 469 420 469 419 469 418 469 417 469 416 469 415 469 414 469 414 468 413 468 412 468 411 468 410 468 409 468 408 468 407 468 407 467 406 467 405 467 404 467 403 467 402 467 401 467 400 467 399 467 399 466 398 466 397 466 396 466 395 466 395 465 394 465 393 465 392 465 391 465 390 465 389 465 389 464 388 464 387 464 386 464 385 464 385 463 384 463 383 463 382 463 382 462 381 462 380 462 379 462 378 462 378 461 377 461 376 461 375 461 374 461 374 460 373 460 372 460 372 459 371 459 370 459 369 459 369 458 368 458 367 458 366 458 366 457 365 457 364 457 363 457 363 456 362 456 361 456 360 456 360 455 359 455 358 455 358 454 357 454 356 454 355 454 355 453 354 453 353 453 353 452 352 452 351 452 351 451 350 451 349 451 349 450 348 450 347 450 347 449 346 449 345 449 344 449 344 448 343 448 343 447 342 447 341 447 340 447 340 446 339 446 339 445 338 445 337 445 336 445 336 444 335 444 335 443 334 443 333 443 333 442 332 442 331 442 331 441 330 441 330 440 329 440 328 440 328 439 327 439 326 439 326 438 325 438 325 437 324 437 323 437 323 436 322 436 321 436 321 435 320 435 320 434 319 434 318 434 318 433 317 433 317 432 316 432 315 432 315 431 314 431 313 431 312 431 311 431 311 430 310 430 309 430 308 430 307 430 306 430 306 429 305 429 304 429 303 429 303 428 302 428 301 428 301 427 300 427 299 427 299 426 298 426 298 425 297 425 297 424 296 424 296 423 296 422 295 422 295 421 294 421 294 420 294 419 293 419 293 418 293 417 292 417 292 416 292 415 292 414 291 414 291 413 291 412 290 412 290 411 290 410 290 409 289 409 289 408 289 407 289 406 289 405 288 405 288 404 288 403 288 402 288 401 287 401 287 400 287 399 287 398 286 398 286 397 285 397 285 396 284 396 284 395 283 395 283 394 282 394 282 393 281 393 280 393 280 392 279 392 279 391 278 391 278 390 277 390 276 390 276 389 276 388 275 388 275 387 275 386 275 385 274 385 274 384 274 383 274 382 274 381 274 380 274 379 274 378 273 378 273 377 273 376 273 375 273 374 272 374 271 375 270 375 270 376 269 376 269 376 268 377 267 377 267 378 266 378 266 379 265 379 265 380 264 380 264 381 263 381 263 382 262 382 262 383 261 383 261 384 260 384 260 384 259 385 258 385 258 386 257 386 257 387 256 387 256 388 255 388 255 389 254 389 254 390 253 390 253 391 252 391 252 392 251 392 251 392 250 393 249 393 249 394 248 394 248 395 247 395 247 396 246 396 246 397 245 397 245 398 244 398 244 399 243 399 243 400 242 400 242 401 241 401 241 401 240 402 239 402 239 403 238 403 238 404 237 404 237 405 236 405 236 406 235 406 235 407 234 407 234 408 233 408 233 409 232 409 232 410 231 410 231 411 230 411 230 412 229 412 229 413 228 413 228 413 227 414 226 414 226 415 225 415 225 416 224 417 224 417 224 418 223 419 223 420 223 421 224 421 224 422 225 422 225 423 225 424 226 424 226 425 226 426 227 426 227 427 227 428 228 428 228 429 229 429 229 430 229 431 230 431 230 432 231 432 231 433 231 434 232 434 232 435 233 435 233 436 234 436 234 437 234 438 235 438 235 439 236 439 236 440 237 440 237 441 238 441 238 442 238 443 239 443 239 444 240 444 240 445 241 445 241 446 242 446 242 447 243 447 243 448 244 448 244 449 245 449 245 450 246 450 246 451 247 451 247 452 248 452 248 453 249 453 250 453 250 454 251 454 252 454 252 455 253 455 254 455 254 456 255 456 256 456 257 456 258 456 258 457 259 457 259 458 259 459 260 459 260 460 260 461 260 462 260 463 260 464 261 464 261 465 261 466 261 467 261 468 262 468 262 469 263 469 263 470 264 470 265 470 265 471 266 471 267 471 267 472 268 472 269 472 269 473 270 473 271 473 271 474 272 474 273 474 273 475 274 475 274 476 274 477 275 477 275 478 275 479 276 479 276 479 276 480 275 480 275 481 274 481 274 482 273 482 273 482 272 482 271 483 270 483 270 483 269 483 268 483 267 483 266 483 265 483 264 483 263 483 262 483 261 483 261 482 260 482 259 482 258 482 257 482 256 482 255 482 254 482 253 482 253 481 252 481 251 481 250 481 249 481 249 480 248 480 247 480 246 480 246 479 245 479 244 479 243 479 243 478 242 478 241 478 241 477 240 477 239 477 239 476 238 476 237 476 236 476 236 475 235 475 234 475 234 474 233 474 232 474 232 473 231 473 230 473 230 472 229 472 228 472 228 471 227 471 226 471 226 470 225 470 224 470 224 469 223 469 222 469 222 468 221 468 220 468 219 468 219 467 218 467 217 467 217 466 216 466 215 466 215 465 214 465 213 465 213 464 212 464 211 464 211 463 210 463 209 463 208 463 208 462 207 462 206 462 206 461 205 461 204 461 204 460 203 460 202 460 201 460 201 459 200 459 199 459 199 458 198 458 197 458 196 458 196 457 195 457 194 457 194 456 193 456 192 456 191 456 191 455 190 455 189 455 188 455 188 454 187 454 186 454 186 453 185 453 184 453 183 453 182 453 181 454 180 454 180 454 179 455 178 455 178 456 177 456 177 456 176 457 175 457 175 458 174 458 174 459 173 459 173 460 172 460 172 460 171 461 170 461 170 462 169 462 169 463 168 463 168 464 167 464 167 465 166 465 166 465 165 466 164 466 164 467 163 467 163 468 162 468 162 469 161 469 161 470 160 470 160 471 159 471 159 472 158 472 158 473 157 473 157 474 156 474 156 475 155 475 155 476 154 476 154 477 153 477 153 478 152 478 152 479 151 480 151 481 151 482 151 483 151 484 152 484 152 485 153 485 154 485 154 486 155 486 155 487 156 487 156 488 157 488 157 488 157 489 156 490 156 490 156 491 155 491 155 492 154 492 154 492 153 493 152 493 152 494 151 494 151 494 150 495 149 495 149 495 148 496 147 496 147 497 146 497 146 497 145 498 144 498 144 498 143 499 142 499 142 499 141 500 140 500 140 501 139 501 139 501 138 502 137 503 137 503 137 504 136 504 136 505 135 505 135 506 134 506 134 506 133 506 132 507 131 507 131 507 130 507 129 507 128 508 127 508 127 508 126 508 125 508 124 509 123 509 123 509 122 510 121 510 121 510 120 510 119 511 118 511 118 511 117 512 116 512 116 512 115 512 114 513 113 513 113 513 112 513 111 514 110 514 110 515 109 515 109 516 108 517 108 518 109 518 109 519 110 519 110 520 111 520 111 521 112 521 112 522 113 522 113 523 114 523 114 524 115 524 115 525 116 525 116 526 117 526 117 527 118 527 118 528 119 528 119 529 120 529 120 530 121 530 121 531 122 531 123 531 123 532 124 532 124 533 125 533 125 534 126 534 126 535 127 535 127 536 128 536 128 537 129 537 129 538 130 538 130 539 131 539 131 540 132 540 132 541 133 541 133 542 134 542 134 543 135 543 135 544 136 544 136 545 137 545 138 545 138 546 139 546 139 547 140 547 140 548 141 548 141 549 142 549 142 550 143 550 143 551 144 551 144 552 145 552 145 553 146 553 146 554 147 554 147 555 148 555 149 555 149 556 150 556 150 557 151 557 151 558 152 558 152 559 153 559 153 560 154 560 154 561 155 561 156 561 156 562 157 562 157 563 158 563 158 564 159 564 159 565 160 565 160 566 161 566 161 567 162 567 163 567 163 568 164 568 164 569 165 569 165 570 166 570 166 571 167 571 167 572 168 572 169 572 169 573 170 573 170 574 171 574 172 574 172 575 173 575 173 576 174 576 175 576 175 577 176 577 176 578 177 578 178 578 178 579 179 579 180 579 180 580 181 580 182 580 183 580 184 580 185 580 186 579 187 579 187 579 188 578 189 578 189 578 190 577 191 577 191 577 192 576 193 576 193 576 194 575 195 575 195 575 196 575 197 574 198 574 198 574 199 573 200 573 200 573 201 573 202 572 203 572 203 572 204 571 205 571 205 571 206 571 207 570 208 570 208 570 209 570 210 569 211 569 211 569 212 569 213 568 214 568 214 568 215 568 216 567 217 567 217 567 218 567 219 566 220 566 220 566 221 566 222 565 223 565 223 565 224 565 225 564 226 564 226 564 227 564 228 563 229 563 229 563 230 563 231 562 232 562 232 562 233 562 234 562 235 561 236 561 236 561 237 561 238 560 239 560 239 560 240 560 241 559 242 559 242 559 243 559 244 559 245 558 246 558 246 558 247 558 248 558 249 557 250 557 250 557 251 557 252 557 253 556 254 556 254 556 255 556 256 556 257 556 258 555 259 555 259 555 260 555 261 555 262 554 263 554 263 554 264 554 265 554 266 553 267 553 267 553 268 553 269 553 270 553 271 553 272 552 273 552 273 552 274 552 275 552 276 552 277 551 278 551 278 551 279 551 279 552 280 552 280 552 280 553 279 554 279 554 279 555 278 555 278 556 277 556 277 557 276 557 276 558 275 558 275 559 274 559 274 560 273 560 273 561 272 561 272 562 271 562 271 563 270 563 270 564 269 564 269 565 268 565 268 566 267 566 267 567 266 567 266 568 265 568 265 569 264 569 264 570 263 570 263 571 262 571 262 572 261 572 261 573 260 573 260 574 259 574 259 575 258 575 258 576 257 576 257 577 256 577 256 578 255 578 255 579 254 579 254 580 253 580 253 581 252 581 252 582 251 582 251 583 250 583 250 584 249 584 249 585 248 585 248 586 247 586 247 587 246 587 246 588 245 588 245 589 244 589 244 590 243 590 243 591 242 591 242 592 241 592 241 593 240 593 240 594 239 594 239 595 238 595 238 596 237 596 237 597 236 597 236 598 235 598 235 599 234 599 234 600 233 600 233 601 232 602 232 603 232 604 232 605 232 606 232 607 232 608 232 609 232 610 233 610 233 611 234 611 234 612 234 613 234 614 234 615 234 615 234 616 233 616 233 617 232 617 232 618 231 618 231 619 230 619 230 620 229 620 229 621 228 621 228 622 227 623 228 623 228 624 228 625 229 625 229 626 230 626 230 627 231 627 231 628 232 628 232 629 233 629 233 630 234 630 234 631 234 632 235 632 235 633 236 633 236 634 237 634 237 635 238 635 238 636 239 636 239 637 240 637 240 638 241 638 241 639 241 640 242 640 242 641 243 641 243 642 244 642 244 643 245 643 245 644 246 644 246 645 247 645 247 646 248 646 248 647 249 647 249 648 250 648 250 649 251 649 251 650 252 650 252 651 253 651 253 652 254 652 254 653 255 653 255 654 256 654 256 655 257 655 257 656 258 656 258 657 259 657 259 658 260 658 260 659 261 659 261 660 262 660 262 661 263 661 263 662 264 662 264 663 265 663 265 664 266 664 266 665 267 665 267 666 268 666 269 666 270 665 271 664 271 664 271 663 272 662 272 662 272 661 273 660 273 660 273 659 274 659 274 658 275 657 275 657 275 656 276 655 276 655 276 654 277 654 277 653 278 653 278 652 279 651 279 651 279 650 280 650 280 649 281 648 281 648 281 647 282 647 282 646 283 646 283 645 284 644 284 644 284 643 285 643 285 642 286 642 286 641 287 640 287 640 287 639 288 639 288 638 289 638 289 637 290 637 290 636 291 636 291 635 292 634 292 634 292 633 293 633 293 632 294 632 294 631 295 631 295 630 296 629 296 629 296 628 297 628 297 627 298 627 298 626 299 626 299 625 300 625 300 624 301 623 301 623 301 622 302 622 302 621 303 621 303 620 304 619 304 619 304 618 305 618 305 617 306 617 306 616 307 615 307 615 307 614 308 614 308 613 309 612 309 612 309 611 310 610 310 610 310 609 311 609 311 608 312 607 312 607 312 606 313 605 313 605 313 604 314 603 314 602 314 602 314 601 315 601 315 601 316 600 317 600 317 599 318 599 318 599 319 598 320 598 320 597 321 597 321 597 322 596 323 596 323 596 324 595 325 595 325 594 326 594 326 593 327 593 327 592 328 592 328 591 329 591 329 590 330 589 330 589 330 588 331 588 331 587 332 586 332 586 332 585 333 584 333 584 333 584 334 584 335 583 336 583 336 583 337 583 338 583 339 583 340 583 341 583 342 583 343 583 344 583 345 582 346 582 346 582 346 583 347 583 348 583 349 583 350 583 351 583 352 583 353 582 354 582 354 581 355 581 355 580 356 580 356 579 357 579 357 578 358 578 358 577 359 577 359 576 360 575 360 575 360 574 361 574 361 573 362 573 362 572 363 571 363 571 363 570 364 570 364 569 365 569 365 568 366 568 366 567 367 567 367 567 368 567 369 567 370 567 371 567 372 567 372 568 373 568 373 569 374 569 374 570 374 571 375 570 376 570 376 569 377 568 377 568 377 567 378 566 378 566 378 565 379 565 379 564 380 563 380 563 380 562 381 562 381 562 382 562 383 561 384 561 384 561 385 561 386 561 387 561 388 561 388 562 389 562 390 562 391 562 392 562 392 563 393 563 393 564 394 564 394 565 395 565 395 566 395 567 395 567 395 568 394 568 394 569 393 569 393 570 392 570 392 571 391 571 391 571 390 572 389 573 390 573 391 573 392 573 393 573 394 573 395 573 396 573 397 573 398 573 399 573 400 572 401 572 401 572 402 572 403 572 404 572 405 572 406 572 407 572 408 572 409 572 410 572 411 572 412 572 413 572 414 572 415 572 416 572 417 572 418 572 419 572 420 572 421 571 422 571 422 571 423 571 424 571 425 571 426 571 427 571 428 571 429 571 430 571 431 571 432 571 433 571 434 571 435 571 436 571 437 571 438 571 439 571 440 571 441 571 442 571 443 571 444 571 445 571 446 571 447 570 448 570 448 570 449 570 450 570 451 570 452 570 453 570 454 570 455 570 456 570 457 569 458 569 458 569 459 569 460 569 461 569 462 569 463 569 464 569 465 569 466 569 467 569 468 569 469 569 470 569 471 569 472 569 473 569 474 569 475 569 476 569 477 569 478 569 479 569 480 569 481 569 482 569 482 570 483 570 484 570 484 571 485 571 486 571 486 572 487 572 487 573 488 573 489 573 489 574 490 574 491 574 491 575 492 575 492 576 493 576 494 576 494 577 495 577 496 577 496 578 497 578 497 579 498 579 499 579 499 580 500 580 500 581 501 581 502 581 502 582 503 582 504 582 504 583 505 583 505 584 506 584 507 584 507 585 508 585 509 585 509 586 510 586 511 586 511 587 512 587 512 588 513 588 514 588 514 589 515 589 516 589 516 590 517 590 517 591 518 591 519 591 519 592 520 592 521 592 521 593 522 593 522 594 523 594 524 594 524 595 525 595 525 596 526 596 527 596 527 597 528 597 528 598 529 598 529 599 530 599 530 600 531 600 532 600 532 601 533 601 533 602 534 602 534 603 535 603 535 604 536 604 536 605 537 605 538 605 538 606 539 606 539 607 540 607 540 608 541 608 541 609 542 609 542 610 543 610 543 611 544 611 544 612 545 612 545 613 546 613 546 614 547 614 547 615 548 615 548 616 548 617 549 617 549 618 550 618 550 619 551 619 551 620 551 621 552 621 552 622 552 623 553 623 553 624 553 625 554 625 554 626 555 626 555 627 555 628 555 629 556 629 556 630 556 631 556 632 557 632 557 633 557 634 557 635 557 636 558 636 558 637 558 638 559 638 559 639 559 640 559 641 559 642 560 642 560 643 560 644 561 644 561 645 562 645 562 646 562 647 563 647 563 648 564 648 564 649 564 650 565 650 565 651 566 651 566 652 567 652 567 653 568 653 568 654 568 655 569 655 569 656 570 656 570 657 570 658 570 659 570 660 570 661 570 662 570 663 570 664 570 664 570 665 569 665 569 666 568 667 568 667 568 668 567 669 567 669 567 670 566 671 566 671 566 672 565 672 565 673 564 674 564 674 564 675 563 676 563 677 563 677 563 678 562 679 562 680 562 680 562 681 561 682 561 683 561 684 561 684 561 685 560 686 560 686 560 687 559 688 559 689 559 690 559 691 559 691 559 692 558 693 558 693 558 694 557 695 557 696 557 696 557 697 556 697 556 698 555 699 555 700 555 700 555 701 554 702 554 702 554 703 553 704 553 704 553 705 552 706 552 706 552 707 551 708 551 708 551 709 550 710 550 710 550 711 549 711 549 712 548 713 548 713 548 714 547 715 547 715 547 716 546 716 546 717 545 718 545 718 545 719 544 719 544 720 543 721 543 721 543 722 542 722 542 723 541 724 541 724 541 725 540 725 540 726 539 727 539 727 539 728 538 728 538 729 537 729 537 730 536 730 536 731 535 732 535 732 535 733 534 733 534 734 533 734 533 735 532 735 532 736 531 736 531 737 530 737 530 738 529 739 529 739 529 740 528 740 528 741 527 741 527 742 526 742 526 743 525 743 525 744 524 744 524 745 523 745 523 746 522 746 522 747 521 747 521 748 520 748 520 749 519 749 519 750 518 750 518 751 517 751 517 752 516 752 516 753 515 753 515 754 514 754 514 754 513 755 512 755 512 756 511 756 511 757 510 757 510 757 509 758 508 758 508 759 507 759 507 760 506 760 506 760 505 761 504 761 504 762 503 762 503 763 502 763 502 764 501 764 501 765 500 765 500 766 499 766 499 767 498 767 498 768 497 768 497 769 496 769 496 770 495 771 495 771 495 772 494 773 494 773 494 774 493 774 493 775 492 775 492 776 491 776 491 776 490 777 489 777 489 777 488 778 487 778 487 778 486 778 485 779 484 779 484 779 483 779 482 780 481 780 481 780 480 780 479 781 478 781 478 781 477 782 476 782 476 782 475 783 474 783 474 783 473 783 472 784 471 784 471 784 470 785 469 785 469 785 468 785 467 786 466 786 466 786 465 787 464 787 464 787 463 787 462 788 461 788 461 788 460 788 459 789 458 789 458 789 457 789 456 790 455 790 455 790 454 790 453 791 452 791 452 791 451 791 450 792 449 792 449 792 448 792 447 793 446 793 446 793 445 794 444 794 444 794 443 794 442 794 441 795 440 795 440 795 439 795 438 796 437 796 437 796 436 796 435 796 434 797 433 797 433 797 432 797 431 798 430 798 430 798 429 798 428 798 427 798 426 798 425 799 424 799 424 799 423 799 422 799 421 799 420 800 419 800 419 800 418 800 417 800 416 800 415 800 414 800 413 800 412 800 411 800 410 800 409 800 408 800 407 800 406 800 405 800 404 800 403 800 402 800 401 800 400 800 399 800 398 800 397 800 396 800 395 800 394 800 393 800 392 800 391 800 390 801 389 801 389 801 388 801 387 801 386 801 385 801 384 801 383 801 382 801 381 801 380 801 379 801 378 801 377 801 376 801 375 801 374 801 373 801 372 801 371 801 370 801 369 801 368 801 367 801 366 801 365 801 365 800 364 800 363 800 362 800 361 800 360 800 359 800 358 800 357 800 356 800 355 800 354 800 353 800 352 800 351 800 350 800 349 800 348 800 347 800 346 800 345 800 344 800 343 800 342 800 341 800 340 800 339 800 338 800 337 800 336 800 336 799 335 799 334 799 333 799 332 799 331 799 331 798 330 798 329 798 328 798 327 798 326 798 325 798 324 798 323 798 323 797 322 797 321 797 320 797 319 797 319 796 318 796 317 796 316 796 315 796 315 795 314 795 313 795 312 795 312 794 311 794 310 794 309 794 308 794 308 793 307 793 306 793 305 793 305 792 304 792 303 792 302 792 302 791 301 791 300 791 299 791 298 791 298 790 297 790 296 790 296 789 295 789 294 789 293 789 293 788 292 788 291 788 290 788 290 787 289 787 288 787 287 787 287 786 286 786 285 786 285 785 284 785 283 785 283 784 282 784 281 784 280 784 280 783 279 783 278 783 278 782 277 782 276 782 276 781 275 781 274 781 273 781 273 780 272 780 271 780 271 779 270 779 269 779 269 778 268 778 267 778 266 778 266 777 265 777 265 776 264 776 263 776 262 776 262 775 261 775 260 775 260 774 259 774 258 774 258 773 257 773 256 773 256 772 255 772 254 772 254 771 253 771 252 771 252 770 251 770 250 770 250 769 249 769 249 768 248 768 247 768 247 767 246 767 245 767 245 766 244 766 244 765 243 765 242 765 242 764 241 764 240 764 240 763 239 763 238 763 238 762 237 762 237 761 236 761 235 761 235 760 234 760 233 760 233 759 232 759 232 758 231 758 230 758 230 757 229 757 229 756 228 756 227 756 227 755 226 755 226 754 225 754 224 754 224 753 223 753 223 752 222 752 221 752 221 751 220 751 220 750 219 750 218 750 218 749 217 749 217 748 216 748 216 747 215 747 214 747 214 746 213 746 213 745 212 745 211 745 211 744 210 744 210 743 209 743 208 743 208 742 207 742 207 741 206 741 206 740 205 740 204 740 204 739 203 739 203 738 202 738 201 738 201 737 200 737 200 736 199 736 199 735 198 735 197 735 197 734 196 734 196 733 195 733 195 732 194 732 193 732 193 731 192 731 192 730 191 730 191 729 190 729 190 728 189 728 188 728 188 727 187 727 187 726 186 726 186 725 185 725 184 725 184 724 183 724 183 723 182 723 182 722 181 722 181 721 180 721 179 721 179 720 178 720 177 721 176 722 176 723 177 723 177 724 177 725 178 725 178 726 178 727 179 727 179 728 179 729 180 729 180 730 180 731 181 731 181 732 182 732 182 733 182 734 183 734 183 735 184 735 184 736 185 736 185 737 185 738 186 738 186 739 187 739 187 740 188 740 188 741 189 741 189 742 189 743 190 743 190 744 191 744 191 745 192 745 192 746 192 747 193 747 193 748 194 748 194 749 195 749 195 750 196 750 196 751 197 751 197 752 197 753 198 753 198 754 199 754 199 755 200 755 200 756 201 756 201 757 202 757 202 758 203 758 203 759 203 760 204 760 204 761 205 761 205 762 206 762 206 763 207 763 207 764 208 764 208 765 209 765 209 766 209 767 210 767 210 768 211 768 211 769 212 769 212 770 213 770 213 771 214 771 214 772 215 772 215 773 216 773 216 774 217 774 217 775 217 776 218 776 218 777 219 777 219 778 220 778 220 779 221 779 221 780 222 780 222 781 223 781 223 782 224 782 224 783 225 783 225 784 226 784 226 785 227 785 227 786 227 787 228 787 228 788 229 788 229 789 230 789 230 790 231 790 231 791 232 791 232 792 233 792 233 793 234 793 234 794 235 794 235 795 236 795 236 796 237 796 237 797 238 797 238 798 239 798 239 799 240 799 240 800 241 800 241 801 242 801 242 802 243 802 243 803 244 803 244 804 245 804 245 805 246 805 246 806 247 806 248 806 248 807 249 807 249 808 250 808 250 809 251 809 251 810 252 810 252 811 253 811 253 812 254 812 254 813 255 813 255 814 256 814 256 815 257 815 257 816 258 816 259 816 259 817 260 817 260 818 261 818 261 819 262 819 262 820 263 820 264 820 264 821 265 821 265 822 266 822 267 822 267 823 268 823 268 824 269 824 270 824 270 825 271 825 271 826 272 826 273 826 273 827 274 827 275 827 276 827 276 828 277 828 278 828 278 829 279 829 280 829 281 829 282 829 282 830 283 830 284 830 285 830 285 831 286 831 287 831 288 831 289 831 290 831 291 831 292 831 293 831 294 831 295 831 296 831 297 831 298 831 299 831 299 832 300 832 301 832 302 832 302 833 303 833 303 834 304 834 305 834 305 835 306 835 306 836 306 837 306 838 307 838 307 839 307 840 308 840 308 841 308 842 308 843 309 843 309 844 310 844 310 845 311 845 311 846 312 846 312 847 312 848 313 848 313 849 313 850 314 850 314 851 314 852 315 852 315 853 315 854 315 855 316 855 316 856 317 856 317 857 318 857 318 858 319 858 320 858 320 859 321 859 322 859 322 860 323 860 324 860 324 861 325 861 326 861 326 862 327 862 328 862 328 863 329 863 330 863 330 864 331 864 332 864 332 865 333 865 334 865 334 866 335 866 336 866 336 867 337 867 338 867 338 868 339 868 340 868 340 869 341 869 342 869 343 869 343 870 344 870 345 870 345 871 346 871 347 871 347 872 348 872 349 872 350 872 350 873 351 873 352 873 352 874 353 874 354 874 355 874 355 875 356 875 357 875 357 876 358 876 359 876 360 876 360 877 361 877 362 877 362 878 363 878 364 878 365 878 365 879 366 879 367 879 367 880 368 880 369 880 370 880 370 881 371 881 372 881 373 881 373 882 374 882 375 882 376 882 376 883 377 883 378 883 379 883 379 884 380 884 381 884 382 884 382 885 383 885 384 885 385 885 386 885 386 886 387 886 388 886 388 887 389 887 390 887 391 887 392 887 392 888 393 888 394 888 395 888 395 889 396 889 397 889 398 889 399 889 399 890 400 890 401 890 402 890 402 891 403 891 404 891 405 891 406 891 406 892 407 892 408 892 409 892 410 892 410 893 411 893 412 893 413 893 413 894 414 894 415 894 416 894 417 894 417 895 418 895 419 895 420 895 420 896 421 896 422 896 423 896 424 896 425 896 425 897 426 897 427 897 428 897 428 898 429 898 430 898 431 898 432 898 433 898 434 898 434 899 435 899 436 899 437 899 438 899 439 899 439 900 440 900 441 900 442 900 443 900 444 900 444 901 445 901 446 901 447 901 448 901 449 901 449 902 450 902 451 902 452 902 453 902 454 902 455 902 456 902 456 903 457 903 458 903 459 903 460 903 461 903 461 904 462 904 463 904 464 904 465 904 466 904 467 904 468 904 469 904 470 904 471 904 471 905 472 905 473 905 474 905 475 905 476 905 477 905 478 905 479 905 480 905 481 905 482 905 483 905 483 906 484 906 485 906 486 906 487 906 488 906 489 906 490 906 490 907 491 907 492 907 493 907 494 907 495 907 496 907 497 907 498 907 499 907 500 907 501 907 502 907 503 907 504 907 505 907 506 907 507 907 508 907 509 907 510 907 511 907 512 907 513 907 514 907 515 907 516 907 517 907 518 907 519 907 520 907 521 907 522 907 523 907 524 907 525 907 526 907 527 907 528 907 529 906 530 906 530 906 531 906 532 906 533 906 534 906 535 906 536 906 537 905 538 905 538 905 539 905 540 905 541 905 542 905 543 905 544 905 545 905 546 905 547 905 548 904 549 904 549 904 550 904 551 904 552 904 553 904 554 904 555 903 556 903 556 903 557 903 558 903 559 903 560 903 561 902 562 902 562 902 563 902 564 902 565 902 566 902 567 901 568 901 568 901 569 901 570 901 571 901 572 900 573 900 573 900 574 900 575 900 576 900 577 899 578 899 578 899 579 899 580 899 581 899 582 898 583 898 583 898 584 898 585 898 586 897 587 897 587 897 588 897 589 897 590 896 591 896 591 896 592 896 593 896 594 895 595 895 595 895 596 895 597 894 598 894 598 894 599 894 600 893 601 893 601 893 602 893 603 893 604 892 605 892 605 892 606 892 607 891 608 891 608 891 609 891 610 890 611 890 611 890 612 890 613 890 614 889 615 889 615 889 616 889 617 888 618 888 618 888 619 888 620 887 621 887 621 887 622 887 623 886 624 886 624 886 625 885 626 885 626 885 627 885 628 884 629 884 629 884 630 884 631 883 632 883 632 883 633 883 634 882 635 882 635 882 636 882 637 881 638 881 638 881 639 881 640 880 641 880 641 880 642 879 643 879 643 879 644 879 645 878 646 878 646 878 647 878 648 877 649 877 649 877 650 876 651 876 651 876 652 876 653 875 654 875 654 875 655 874 656 874 656 874 657 873 658 873 658 873 659 872 660 872 660 872 661 872 662 871 663 871 663 871 664 870 665 870 665 869 666 868 666 867 665 867 665 866 664 866 664 865 664 864 663 864 663 863 662 863 662 862 662 861 661 861 661 860 661 859 660 859 660 858 660 857 659 857 659 856 659 855 658 855 658 854 658 853 658 852 657 852 657 851 657 850 657 849 657 848 656 848 656 847 656 846 656 845 656 844 656 843 656 842 656 841 656 840 656 839 656 838 656 837 656 837 656 836 657 835 657 834 657 833 657 833 657 832 658 831 658 831 658 830 659 829 659 828 659 827 659 826 659 825 659 824 659 823 659 822 659 821 659 820 658 820 658 819 658 818 657 818 657 817 657 816 657 815 657 814 656 814 656 813 656 812 656 811 655 811 655 810 655 809 654 809 654 808 654 807 654 806 654 805 654 804 653 804 653 803 653 802 653 801 652 801 652 800 652 799 652 799 652 798 653 798 653 797 654 797 654 797 655 797 656 797 656 798 657 798 658 798 658 799 659 799 659 800 660 800 660 801 660 802 661 802 661 803 661 804 662 804 662 805 663 805 663 806 663 807 664 807 664 808 664 809 665 809 665 810 665 811 666 811 666 812 666 813 666 814 667 814 667 815 667 816 668 816 668 817 668 818 668 819 668 820 669 820 669 821 669 822 670 822 670 823 670 824 670 825 671 825 671 826 671 827 671 828 672 828 672 829 672 830 673 830 673 831 673 832 673 833 673 834 674 834 674 835 674 836 675 836 675 837 675 838 676 838 676 839 676 840 677 840 677 841 678 841 678 842 679 842 679 843 680 843 681 843 682 843 683 843 683 844 684 844 685 844 686 844 686 845 687 845 688 845 689 845 690 845 690 846 691 846 691 847 692 847 693 847 693 848 694 848 694 849 695 849 696 849 697 849 697 850 698 850 699 849 700 849 700 849 701 848 702 848 702 848 703 847 704 847 704 846 705 846 705 845 706 845 706 844 707 843 707 843 707 842 708 842 708 841 709 841 709 840 710 839 710 839 710 838 711 837 711 837 711 836 712 835 712 835 712 834 713 834 713 833 714 832 714 832 714 831 715 830 715 830 715 829 716 829 716 829 717 828 718 828 718 828 719 827 720 827 720 827 721 827 722 827 723 826 724 826 724 826 725 826 726 825 727 825 727 825 728 825 729 825 730 824 731 824 731 824 732 824 733 824 734 823 735 823 735 823 736 823 737 822 738 822 738 822 739 822 740 821 741 821 741 821 742 820 743 820 743 820 744 819 745 819 745 819 746 818 747 818 747 818 748 817 749 817 749 816 750 816 750 816 751 815 752 815 752 814 753 814 753 814 754 813 755 813 755 812 756 812 756 811 757 811 757 810 758 810 758 809 759 809 759 809 760 808 761 808 761 807 762 807 762 806 763 806 763 805 764 805 764 804 765 803 765 803 765 802 766 802 766 801 767 800 767 800 767 799 768 798 768 797 768 796 767 796 767 795 767 794 767 793 766 793 766 792 766 791 765 791 765 790 765 789 765 788 765 787 765 786 765 785 765 784 765 783 765 782 765 781 764 781 764 780 763 780 763 779 762 779 762 778 761 778 761 777 761 776 760 776 759 776 759 775 759 774 758 774 758 773 758 772 758 771 758 771 758 770 759 769 759 769 759 768 760 768 760 768 761 767 762 767 762 767 763 767 764 767 765 767 766 767 767 767 768 766 769 765 769 764 769 763 769 762 769 761 769 760 768 760 768 759 768 758 768 757 767 757 767 756 767 755 767 754 766 754 766 753 766 752 765 752 765 751 765 750 765 749 764 749 764 748 764 747 763 747 763 746 763 745 763 744 762 744 762 743 762 742 762 741 761 741 761 740 761 739 761 738 761 737 760 737 760 736 760 735 759 735 759 734 759 733 759 732 759 731 758 731 758 730 758 729 758 728 757 728 757 727 757 726 757 725 756 725 756 724 756 723 756 722 755 722 755 721 755 720 755 719 754 719 754 718 754 717 754 716 754 715 754 714 754 713 753 713 753 712 753 712 753 711 754 710 754 710 754 710 755 709 756 709 756 709 757 709 758 709 759 709 760 708 761 708 761 708 762 708 762 709 763 708 764 708 764 708 765 707 766 706 766 705 766 704 766 703 766 702 765 702 765 701 765 700 765 699 765 698 764 698 764 697 764 696 764 695 763 695 763 694 763 693 763 692 763 691 762 691 762 690 762 689 762 689 762 688 763 687 763 687 763 687 764 686 765 686 765 686 766 686 767 686 768 686 769 686 770 686 771 686 772 686 773 686 773 687 774 687 775 687 776 687 777 687 778 687 779 687 780 686 781 686 781 686 782 685 783 685 783 684 784 684 784 684 785 684 786 684 787 684 787 685 788 685 788 686 789 686 789 687 790 687 790 688 790 689 790 690 790 691 791 691 791 692 791 693 791 694 791 695 791 696 791 697 791 698 792 698 792 699 792 700 792 701 792 702 792 703 792 704 792 705 792 706 792 707 792 708 792 709 792 710 792 711 792 712 792 713 792 714 792 715 792 716 792 717 792 718 792 719 793 719 793 720 793 721 793 722 793 723 793 724 794 724 794 725 794 726 794 727 794 728 794 729 795 729 795 730 796 730 796 731 797 731 797 732 798 732 799 731 800 731 800 730 801 729 801 729 801 728 802 727 802 726 802 726 802 725 803 724 803 723 803 723 803 722 804 721 804 721 804 720 805 719 805 719 805 718 806 718 806 718 807 718 808 718 809 718 809 719 810 719 810 720 810 721 811 721 811 722 812 722 812 723 813 723 813 724 814 723 815 723 815 722 816 722 816 721 817 720 817 720 817 719 818 718 818 718 818 717 819 716 819 716 819 715 820 714 820 713 820 713 820 712 821 712 821 711 822 711 822 710 823 710 823 709 824 709 824 709 825 708 826 708 826 708 827 708 828 707 829 707 829 707 830 707 831 707 832 707 833 707 834 707 835 707 836 706 837 706 837 706 838 705 839 705 839 704 840 704 840 703 841 703 841 702 842 702 842 701 843 701 843 700 844 699 844 699 844 698 845 698 845 697 846 696 846 696 846 695 847 695 847 694 848 693 848 692 848 692 848 691 849 691 849 690 850 689 850 689 850 688 851 687 851 687 851 686 852 685 852 685 852 684 853 683 853 683 853 682 854 681 854 681 854 680 855 679 855 678 855 678 855 677 856 677 856 676 857 675 857 675 857 674 858 673 858 673 858 672 859 671 859 670 859 670 859 669 860 668 860 668 860 667 861 666 861 666 861 665 862 664 862 663 862 663 862 662 863 661 863 661 863 660 864 659 864 658 864 658 864 657 865 657 865 656 866 655 866 654 866 654 866 653 867 652 867 652 867 651 868 650 868 649 868 649 868 648 869 647 869 646 869 646 869 645 870 644 870 643 870 643 870 642 871 641 871 640 871 639 871 639 871 638 872 637 872 636 872 636 872 635 873 634 873 633 873 633 873 632 874 631 874 630 874 630 874 629 875 628 875 627 875 626 875 626 875 625 876 624 876 624 876 623 877 622 877 621 877 620 877 620 877 619 878 618 878 617 878 617 878 616 879 615 879 614 879 613 879 613 879 612 880 611 880 610 880 609 880 609 880 608 881 607 881 606 881 606 881 605 882 604 882 603 882 602 882 602 882 601 883 600 883 599 883 599 883 598 884 597 884 596 884 595 884 594 884 594 884 593 885 592 885 591 885 590 885 589 885 589 885 588 886 587 886 586 886 585 885 585 885 584 885 583 884 583 884 582 883 582 883 581 882 581 882 580 881 580 881 579 880 579 880 578 880 577 879 577 879 576 879 575 878 575 878 574 878 573 878 572 877 572 877 571 877 570 877 569 877 568 877 567 876 567 876 566 876 565 876 564 876 563 876 562 876 561 876 560 876 559 876 558 876 557 876 556 876 555 876 554 876 554 876 553 877 552 877 551 877 550 877 549 877 548 877 548 877 547 878 546 878 545 878 545 878 544 879 543 879 542 879 542 879 541 880 540 880 539 880 539 880 538 881 537 881 536 881 535 880 535 880 534 880 533 880 532 880 531 879 531 879 530 879 529 878 529 878 528 877 528 877 527 877 526 876 526 876 525 876 524 875 524 875 523 875 522 875 521 874 521 874 520 873 520 873 519 873 518 873 517 872 517 872 516 872 515 872 514 872 513 872 513 872 512 873 512 873 512 874 511 875 511 875 511 876 511 876 512 877 512 878 512 879 512 880 512 881 512 881 513 882 513 883 513 884 513 885 513 886 513 886 514 887 514 888 514 889 514 889 515 890 514 891 514 891"/>
<polygon points="289 171 288 171 287 170 287 170 286 169 286 168 286 167 286 166 286 165 286 164 286 163 286 162 286 161 287 160 287 160 287 159 288 158 288 158 289 157 289 157 290 156 290 156 291 155 291 155 292 154 292 154 293 153 293 153 294 152 294 152 295 151 295 151 296 150 296 150 296 149 297 148 297 148 298 147 298 147 298 146 299 145 299 145 300 144 300 144 301 143 301 143 301 142 302 141 302 141 303 140 303 140 304 139 304 139 305 138 305 138 306 137 306 137 307 136 307 136 307 135 308 134 308 134 309 133 309 133 310 132 310 132 311 131 311 131 312 130 313 130 313 130 314 129 314 129 315 128 316 128 316 128 317 127 318 127 318 127 319 126 320 126 321 126 321 126 322 125 323 125 324 125 324 125 325 124 326 124 327 124 327 124 328 123 329 123 330 123 330 123 331 122 332 122 333 122 333 122 334 121 335 121 336 121 336 121 337 120 338 120 339 120 339 120 340 119 341 119 342 120 342 120 343 121 343 122 343 123 342 124 342 124 342 125 341 126 341 126 341 127 340 128 340 128 340 129 339 130 339 130 338 131 338 131 338 132 337 133 337 133 336 134 336 134 336 135 335 136 335 136 335 137 334 138 334 138 333 139 333 139 333 140 332 141 332 141 332 142 331 143 331 143 331 144 331 145 330 146 330 146 330 147 330 148 330 149 329 150 329 150 329 151 329 152 329 153 329 154 328 155 328 155 327 156 327 156 326 157 326 157 325 158 324 158 323 158 323 158 322 159 321 159 320 159 319 159 318 159 318 159 317 160 316 160 315 160 314 160 314 160 313 161 312 161 311 161 310 161 309 161 309 161 308 162 307 162 306 162 305 162 305 162 304 163 303 163 302 163 302 163 301 164 300 164 300 164 299 165 298 165 298 165 297 166 297 166 296 167 295 167 295 167 294 168 293 168 293 168 292 169 292 169 291 170 290 170 290 170"/>
<polygon points="269 291 268 291 267 290 267 289 267 288 267 287 267 286 267 285 267 284 267 283 267 282 267 281 267 280 267 279 267 278 267 277 267 276 267 275 267 274 267 273 267 272 267 271 267 270 267 269 267 268 267 267 267 266 267 265 267 264 267 263 267 262 267 261 267 260 267 259 268 258 268 258 268 257 269 256 269 256 270 255 270 255 270 254 271 253 271 253 272 252 272 252 273 251 273 251 273 250 274 249 274 249 275 248 275 248 275 247 276 246 276 246 277 245 277 245 277 244 278 243 278 243 279 242 279 242 279 241 280 240 280 240 280 239 280 238 281 237 281 237 281 236 281 235 282 234 282 234 282 233 282 232 283 231 283 231 283 230 284 229 284 229 284 228 284 227 285 226 285 226 285 225 285 224 286 223 286 223 286 222 286 221 287 220 287 220 287 219 288 218 288 218 288 217 289 216 289 216 290 215 290 215 291 214 292 214 292 214 293 213 294 213 295 213 295 213 296 212 297 212 298 212 298 212 299 211 300 211 301 211 301 211 302 210 303 210 304 210 304 210 305 209 306 209 307 209 307 209 308 208 309 208 310 208 310 208 311 207 312 207 312 207 313 206 314 206 315 206 315 206 316 205 317 205 318 205 318 205 319 204 320 204 321 204 321 204 322 203 323 203 323 203 324 202 325 202 325 202 326 201 327 201 327 201 328 200 328 200 329 199 329 199 330 198 330 198 331 197 332 197 332 197 333 196 333 196 334 195 334 195 335 194 335 194 336 193 337 193 338 193 338 193 339 192 340 192 341 192 341 192 342 191 343 191 344 191 345 191 345 191 346 190 347 190 348 190 349 190 349 190 350 189 351 189 352 189 352 189 353 188 354 188 355 188 356 188 356 188 357 187 358 187 359 187 360 187 360 187 361 186 362 186 363 186 363 186 364 185 365 185 366 185 367 185 367 185 368 184 369 184 370 185 370 186 369 187 369 187 369 188 368 189 368 189 367 190 367 190 366 191 366 191 366 192 365 193 365 193 364 194 364 194 363 195 363 195 362 196 362 196 362 197 361 198 361 198 360 199 360 199 359 200 359 200 358 201 358 201 358 202 357 203 357 203 356 204 356 204 356 205 355 206 355 206 354 207 354 207 354 208 353 209 353 209 352 210 352 210 352 211 351 212 351 212 351 213 350 214 350 214 349 215 349 215 349 216 348 217 348 217 347 218 347 218 347 219 346 220 346 220 345 221 345 221 345 222 344 223 344 223 343 224 343 224 343 225 342 226 342 226 342 227 341 228 341 228 340 229 340 229 340 230 339 231 339 231 338 232 338 232 338 233 337 234 337 234 337 235 336 236 336 236 336 237 335 238 335 238 334 239 334 239 334 240 333 241 333 241 333 242 332 243 332 243 331 244 331 244 330 245 330 245 329 246 329 246 328 247 328 247 327 248 327 248 326 249 326 249 325 250 325 250 324 251 324 251 323 252 323 252 322 253 322 253 321 254 320 254 320 254 319 255 319 255 318 256 317 256 316 256 316 256 315 257 314 257 314 257 313 258 312 258 311 258 311 258 310 259 309 259 309 259 308 260 307 260 306 260 306 260 305 261 304 261 303 261 302 261 302 261 301 262 300 262 300 262 299 263 298 263 298 263 297 264 296 264 296 264 295 265 295 265 294 266 294 266 293 267 293 267 292 268 292 268 291 269 291 269 290 270 290 270 289 271 289 271 288 272 288 272 287 273 287 273 286 274 286 274 285 275 285 275 284 276 284 276 283 277 283 277 282 278 282 278 281 279 281 279 280 280 280 280 279 281 279 281 279 282 278 283 278 283 277 284 277 284 276 285 276 285 275 286 275 286 274 287 274 287 273 288 273 288 272 289 272 289 271 290 270 290 270 290"/>
<polygon points="205 263 204 263 203 262 203 262 202 261 202 260 202 260 201 259 201 258 201 258 200 257 200 257 199 256 199 255 199 254 199 254 198 253 198 252 198 252 197 251 197 250 197 250 196 249 196 248 196 248 195 247 195 246 195 246 194 245 194 244 194 243 194 243 193 242 193 241 193 241 192 240 192 239 192 239 191 238 192 237 192 237 192 236 193 235 193 235 193 234 194 233 194 233 195 232 195 232 195 231 196 230 196 230 197 229 197 229 197 228 198 227 198 227 199 226 199 226 199 225 200 224 200 224 201 223 201 223 201 222 202 221 202 221 203 220 203 220 204 219 204 219 205 218 206 218 206 218 207 217 207 217 208 216 209 216 209 216 210 215 211 215 211 215 212 214 213 214 213 214 214 213 215 213 215 213 216 212 217 212 217 212 218 211 219 211 219 211 220 210 221 210 221 210 222 209 223 209 223 209 224 208 225 208 225 208 226 207 227 207 227 207 228 206 229 206 229 206 230 205 231 205 231 205 232 204 232 204 233 203 233 203 234 202 234 202 235 201 235 201 236 200 236 200 237 199 237 199 238 198 238 198 238 197 239 196 239 196 240 195 240 195 241 194 241 194 242 193 242 193 243 192 244 192 244 192 245 191 246 191 247 192 247 192 248 193 248 194 248 195 248 196 247 197 247 197 247 198 247 199 247 200 247 201 247 202 247 203 246 204 246 204 246 205 246 206 246 207 246 208 246 209 246 210 246 211 246 212 246 213 246 214 246 215 246 216 246 217 246 218 246 219 246 220 246 221 246 222 245 223 245 223 245 224 244 225 243 225 243 225 242 226 242 226 241 227 241 227 240 228 239 228 239 228 238 229 238 229 237 230 237 230 236 231 236 231 235 232 234 232 234 232 233 233 233 233 232 234 232 234 231 235 231 235 230 236 230 236 229 237 229 237 228 238 228 238 227 239 227 239 226 240 226 240 225 241 225 241 224 242 224 242 223 243 223 243 222 244 222 244 221 245 221 245 220 246 220 246 220 247 219 248 219 248 218 249 218 249 217 250 217 250 216 251 216 251 215 252 215 252 214 253 214 253 214 254 213 255 213 255 212 256 212 256 211 257 211 257 210 258 210 258 210 259 209 260 209 260 208 261 208 261 207 262 206 262 206 262"/>
<polygon points="158 369 157 369 156 368 156 368 155 367 155 367 154 366 154 366 153 365 153 364 153 364 152 363 152 363 151 362 151 362 150 361 150 361 149 360 149 359 149 359 148 358 148 358 147 357 147 357 146 356 146 355 146 355 145 354 145 354 144 353 144 353 143 352 143 351 143 351 142 350 142 350 141 349 141 349 140 348 140 347 140 347 139 346 139 346 138 345 138 344 138 344 137 343 137 343 136 342 136 342 135 341 135 340 135 340 134 339 134 339 133 338 133 338 132 337 132 336 132 336 131 335 131 334 131 334 130 333 131 332 131 332 131 331 132 330 132 330 132 329 132 328 133 327 133 327 133 326 134 325 134 325 134 324 135 323 135 323 135 322 136 321 136 321 136 320 137 319 137 319 137 318 138 317 138 317 138 316 139 315 139 315 139 314 140 313 140 313 140 312 141 311 141 311 141 310 142 309 142 309 142 308 143 307 143 307 143 306 143 305 144 304 144 304 144 303 145 302 145 302 145 301 146 300 146 300 146 299 147 298 147 298 147 297 148 296 148 296 148 295 149 294 149 294 149 293 150 292 150 292 150 291 150 290 151 289 151 289 152 288 153 288 154 289 154 290 154 291 154 291 155 292 155 293 155 294 155 295 155 295 156 296 156 297 156 298 156 299 156 300 156 300 157 301 157 302 157 303 157 303 158 304 158 305 158 306 158 307 158 308 158 308 159 309 159 310 159 311 159 312 159 312 160 313 160 314 160 315 160 315 161 316 161 317 161 318 161 319 161 319 162 320 162 321 162 322 162 323 162 323 163 324 163 325 163 326 163 327 163 328 163 329 163 330 163 331 163 332 163 333 163 334 163 335 163 336 163 337 163 338 162 339 162 339 162 340 162 341 162 342 161 343 161 343 161 344 161 345 161 346 161 347 160 348 160 348 160 349 160 350 160 351 160 352 160 353 160 354 160 355 160 356 160 357 160 358 159 359 159 359 159 360 159 361 159 362 159 363 159 364 159 365 159 366 159 367 159 368"/>
<polygon points="849 347 850 346 851 346 851 346 852 345 852 345 852 344 852 343 852 342 852 341 852 341 851 340 851 339 851 339 850 338 850 337 850 336 850 336 849 335 849 334 849 334 848 333 848 333 847 332 847 331 847 331 846 330 846 330 845 329 845 329 844 328 844 328 843 327 843 327 842 327 841 326 841 326 840 326 839 326 838 326 837 326 836 326 835 326 834 326 833 326 832 326 831 326 830 326 829 326 828 326 828 326 827 327 826 327 825 327 825 327 824 328 823 328 823 328 822 329 822 329 821 330 821 330 821 331 821 332 821 332 822 333 822 333 823 333 824 333 825 334 825 334 826 335 826 335 827 335 828 336 828 336 829 337 829 337 830 338 830 338 831 339 831 339 832 339 833 340 833 340 834 341 834 341 835 342 835 342 836 343 836 343 837 344 837 344 838 345 838 345 839 346 839 346 840 346 841 347 841 347 842 347 843 347 844 347 845 347 846 347 847 347 848 347 849 347"/>
<polygon points="126 445 125 444 125 444 124 444 123 443 123 443 122 442 122 442 121 441 121 441 120 440 120 440 119 439 119 439 118 438 118 438 117 437 117 437 116 436 116 436 115 435 115 435 114 435 113 434 113 434 112 433 112 433 111 432 111 432 110 431 110 431 109 430 109 430 108 429 108 429 107 429 106 428 106 428 105 427 105 427 104 426 104 425 104 425 103 424 103 423 103 422 103 421 104 420 104 420 104 419 104 418 104 417 104 416 105 415 105 415 105 414 105 413 105 412 106 411 106 411 106 410 106 409 106 408 107 407 107 407 107 406 107 405 107 404 107 403 108 402 108 402 108 401 108 400 108 399 108 398 109 397 109 397 109 396 109 395 109 394 110 393 110 393 110 392 110 391 111 390 111 390 112 389 113 389 114 390 114 391 114 391 115 392 115 392 116 393 116 394 116 394 117 395 117 395 118 396 118 397 118 397 119 398 119 398 120 399 120 400 120 400 121 401 121 402 121 402 122 403 122 403 123 404 123 404 124 405 124 406 124 406 125 407 125 407 126 408 126 409 126 409 127 410 127 411 127 411 128 412 128 413 128 414 128 415 128 416 128 417 128 418 128 419 128 420 127 421 127 421 127 422 127 423 127 424 127 425 127 426 127 427 127 428 127 429 127 430 127 431 127 432 127 433 127 434 127 435 127 436 127 437 127 438 127 439 127 440 127 441 127 442 127 443 127 444"/>
<polygon points="656 643 657 642 657 642 658 641 658 641 659 640 659 640 660 639 660 639 661 638 661 638 662 637 662 637 663 636 663 636 663 635 664 634 664 634 665 633 665 633 665 632 666 631 666 631 666 630 666 629 666 628 666 628 665 627 665 626 665 626 664 625 664 625 663 624 663 624 662 623 662 623 661 622 661 622 660 621 660 621 659 620 659 620 658 620 657 619 657 619 656 619 655 619 654 618 654 618 653 618 652 618 651 618 651 618 650 619 649 619 648 619 648 619 647 620 646 620 645 620 645 620 644 621 643 621 643 621 642 622 642 622 641 623 641 623 641 624 641 625 641 626 641 626 642 627 642 628 642 629 642 629 643 630 643 631 643 632 643 632 644 633 644 634 644 634 645 635 645 636 645 636 646 637 646 638 646 638 647 639 647 639 648 640 648 640 649 641 649 641 650 642 650 642 651 642 652 643 652 643 653 643 654 643 655 643 656 643"/>
<polygon points="740 787 739 787 738 786 738 786 737 786 736 786 735 785 735 785 734 784 734 784 733 783 733 783 732 782 732 782 731 781 731 780 731 780 730 779 730 779 729 778 729 777 729 777 728 776 728 775 728 774 728 773 729 772 730 772 731 772 732 772 733 772 734 772 735 772 736 772 737 772 738 773 738 773 739 773 740 773 741 773 742 774 742 774 743 774 744 774 745 774 746 774 747 775 747 775 748 775 749 775 750 775 751 776 751 776 752 776 753 777 753 777 754 777 755 778 755 778 756 779 755 780 755 780 754 781 754 781 753 782 752 782 751 782 751 782 750 783 749 783 749 783 748 784 747 784 747 784 746 785 745 785 744 785 744 785 743 786 742 786 741 786 741 786"/>
<polygon points="521 859 521 858 521 857 521 856 521 855 521 854 521 853 521 853 520 852 520 852 519 851 519 850 519 849 519 849 518 848 518 848 517 847 517 846 517 846 516 845 516 845 515 844 515 843 515 843 514 842 514 842 513 841 513 841 512 840 512 839 512 839 511 838 511 837 511 837 510 836 510 835 510 834 511 833 512 833 513 833 514 833 515 834 515 834 516 835 516 835 517 835 518 836 518 836 519 837 519 837 520 838 520 838 521 838 522 839 522 839 522 839 523 838 523 838 524 837 524 837 525 836 525 836 525 835 525 835 524 834 524 833 524 832 524 831 524 831 523 830 523 830 522 829 522 828 522 828 521 827 521 826 521 825 521 825 520 824 520 824 519 823 519 822 519 822 518 821 518 821 517 820 517 820 516 819 516 819 515 818 515 818 514 817 514 817 513 816 513 816 512 816 511 815 511 815 510 814 510 814 509 814 508 813 508 813 507 812 507 812 506 812 505 812 504 811 504 811 503 811 502 811 501 810 501 810 500 810 499 810 498 809 498 809 497 808 497 808 496 808 495 807 495 807 494 806 494 806 493 805 493 805 492 804 492 804 491 803 491 803 490 802 490 802 489 801 489 801 488 800 488 800 487 799 487 799 486 798 486 798 485 797 485 797 484 796 484 796 483 795 483 795 482 795 481 794 481 794 480 793 480 793 479 793 478 792 478 792 477 792 476 791 476 791 475 791 474 791 473 791 472 791 471 791 470 791 469 791 469 791 468 792 468 792 467 793 467 793 467 794 467 795 466 796 466 796 465 797 465 797 465 798 464 799 464 799 463 800 463 800 463 801 462 802 462 802 461 803 461 803 460 804 460 804 460 805 459 806 459 806 459 807 458 808 458 808 458 808 459 809 459 810 459 810 460 811 460 812 460 813 460 813 461 814 461 814 462 815 462 816 462 816 463 817 463 818 463 818 464 819 464 820 464 820 465 821 465 822 465 822 466 823 466 823 467 824 467 825 467 826 467 826 468 827 468 827 469 828 469 829 469 830 469 830 470 831 470 832 470 832 471 833 471 834 471 835 470 836 469 836 468 836 468 836 467 837 466 837 465 837 464 837 463 837 462 837 462 837 461 838 461 838 461 839 461 840 461 841 461 842 461 842 462 843 462 844 462 845 462 845 463 846 463 847 463 847 464 848 464 848 465 849 465 850 465 850 466 851 466 851 467 852 467 852 468 853 468 853 469 853 470 854 470 854 471 855 471 855 472 855 473 855 474 856 474 856 475 856 476 857 476 857 477 857 478 857 479 857 480 858 480 858 481 858 482 858 483 858 484 859 484 859 485 859 486 859 487 859 488 859 489 859 490 859 491 859 492 859 493 859 493 859 494 858 495 858 495 858 496 857 496 857 497 856 497 856 498 855 498 855 498 854 499 853 499 853 499 852 499 851 499 850 500 849 501 849 502 850 502 850 503 850 504 851 504 851 505 851 506 852 506 852 507 853 507 853 508 853 509 854 509 854 510 855 510 855 511 855 512 856 512 856 513 857 513 857 514 857 515 858 515 858 516 858 517 859 517 859 518 859 519 859 520 859 521 859"/>
<polygon points="488 831 487 831 486 831 485 831 484 830 484 830 483 829 483 829 482 828 482 828 481 827 481 826 481 825 481 825 480 824 480 823 480 822 480 822 479 821 479 820 479 819 479 818 479 817 479 816 479 815 479 814 479 813 479 812 479 811 479 810 479 809 479 808 480 807 481 808 481 808 482 808 483 809 483 809 484 810 484 810 485 811 485 811 486 812 486 812 487 813 487 813 488 814 488 814 489 815 489 815 490 816 490 816 491 817 491 817 492 818 492 818 493 819 493 820 493 820 494 821 494 821 495 822 495 823 495 824 495 825 494 826 494 826 493 827 493 827 493 828 492 829 491 829 491 829 490 830 489 830 489 830"/>
</svg>
