<?xml version="1.0" encoding="UTF-8" standalone="no"?>
<svg
   version="1.0"
   width="960"
   height="1240"
   id="s1"
   sodipodi:docname="JaingHead.svg"
   inkscape:version="1.3.2 (091e20e, 2023-11-25, custom)"
   xmlns:inkscape="http://www.inkscape.org/namespaces/inkscape"
   xmlns:sodipodi="http://sodipodi.sourceforge.net/DTD/sodipodi-0.dtd"
   xmlns="http://www.w3.org/2000/svg"
   xmlns:svg="http://www.w3.org/2000/svg"
   xmlns:rdf="http://www.w3.org/1999/02/22-rdf-syntax-ns#"
   xmlns:cc="http://creativecommons.org/ns#"
   xmlns:dc="http://purl.org/dc/elements/1.1/">
  <metadata
     id="metadata9">
    <rdf:RDF>
      <cc:Work
         rdf:about="">
        <dc:format>image/svg+xml</dc:format>
        <dc:type
           rdf:resource="http://purl.org/dc/dcmitype/StillImage" />
      </cc:Work>
    </rdf:RDF>
  </metadata>
  <defs
     id="defs7" />
  <sodipodi:namedview
     pagecolor="#444444"
     bordercolor="#515151"
     borderopacity="1"
     objecttolerance="10"
     gridtolerance="10"
     guidetolerance="10"
     inkscape:pageopacity="0"
     inkscape:pageshadow="2"
     inkscape:window-width="1920"
     inkscape:window-height="1017"
     id="namedview5"
     showgrid="false"
     inkscape:zoom="0.55625734"
     inkscape:cx="-123.14444"
     inkscape:cy="694.8223"
     inkscape:window-x="-8"
     inkscape:window-y="-8"
     inkscape:window-maximized="1"
     inkscape:current-layer="l1"
     inkscape:showpageshadow="2"
     inkscape:pagecheckerboard="0"
     inkscape:deskcolor="#d1d1d1" />
  <g
     transform="matrix(4.000003,0,0,4.0000001,-105.42112,-1786.1483)"
     id="l1">
    <path
       d="m 150.41352,752.02256 c -0.57402,-1.91027 -0.98905,-9.27599 -0.81156,-14.40413 0.32214,-9.30877 0.57389,-14.48638 0.81954,-16.85384 0.37679,-3.63174 1.68066,-12.14288 1.9195,-12.5293 0.34903,-0.5647 0.2355,-16.33278 -0.13976,-19.4146 -0.18372,-1.50902 -0.36641,-6.97399 -0.40599,-12.14442 -0.0739,-9.65061 -0.30965,-11.79055 -1.59853,-14.50817 -0.64444,-1.35888 -0.7214,-2.25106 -0.57746,-6.69544 0.0914,-2.82022 0.001,-6.17139 -0.20016,-7.44705 -1.19993,-7.59918 -2.02758,-16.23001 -1.90458,-19.86146 0.12148,-3.58524 0.25086,-4.19211 1.20808,-5.66774 1.78972,-2.759 3.81448,-8.22366 5.05145,-13.63347 1.32141,-5.77918 2.27135,-10.06854 2.69081,-12.15043 0.52198,-2.59067 1.42123,-5.69303 2.55618,-8.81887 1.32912,-3.66057 1.45819,-9.01485 0.21734,-9.01485 -0.1735,0 -0.80995,0.71348 -1.41426,1.5855 -0.60431,0.87201 -2.78891,2.81357 -4.8547,4.31456 -4.9039,3.56319 -6.85738,5.50447 -7.41628,7.37006 -0.54563,1.82102 -0.59535,4.23468 -0.0937,4.54473 0.19875,0.12285 0.75597,1.409 1.23818,2.85811 0.95151,2.85932 1.09518,5.93199 0.42064,8.99763 -0.22768,1.03475 -0.61289,3.20419 -0.85591,4.82099 -0.24307,1.61681 -0.57378,3.7845 -0.73487,4.81712 -0.16113,1.03263 -0.57084,2.15537 -0.91044,2.49497 -0.562,0.562 -0.66996,0.53417 -1.20162,-0.30971 -0.32132,-0.50994 -0.7019,-1.76255 -0.84581,-2.78359 -0.1439,-1.02104 -0.95671,-4.16707 -1.80624,-6.9912 -1.92141,-6.38745 -2.06285,-9.46246 -0.56474,-12.28002 0.53894,-1.01359 0.97919,-2.23041 0.97844,-2.70403 -0.002,-1.39782 -1.29106,-3.11607 -4.34445,-5.79261 -4.13052,-3.6208 -5.05415,-4.64103 -5.99419,-6.62097 -1.00079,-2.108 -1.79332,-2.37687 -2.66207,-0.90317 -1.04045,1.76471 -1.52306,5.34002 -1.74154,12.90062 l -0.20532,7.10818 1.14497,1.31874 c 1.88031,2.16565 7.07265,9.63681 8.07693,11.62173 1.99869,3.95045 2.5404,6.84689 2.58123,13.80192 0.0408,6.93787 0.55828,13.32889 1.17202,14.4758 0.20819,0.38895 0.29678,0.78886 0.19695,0.88872 -0.0998,0.0998 0.2395,1.22539 0.75409,2.50122 0.51459,1.27582 1.05771,3.64251 1.20694,5.25931 0.14919,1.61678 0.60036,4.35064 1.00259,6.07521 1.30712,5.60423 1.62163,8.25157 1.4017,11.8 -0.11873,1.91731 -0.30992,6.48446 -0.42482,10.14919 -0.76693,24.47087 -1.08328,33.97552 -1.19351,35.86339 -0.0693,1.18565 -0.22835,6.74154 -0.35354,12.34642 -0.21335,9.54948 -0.76028,16.03619 -1.41548,16.78782 -0.37287,0.4278 -4.72751,-2.87408 -7.33403,-5.56101 -2.19955,-2.26747 -2.35321,-2.8083 -1.65584,-5.83015 0.40744,-1.76565 1.32141,-10.71524 1.95206,-19.1149 0.2105,-2.80244 0.47658,-6.15361 0.59136,-7.44705 0.48726,-5.48987 0.97065,-11.9256 1.53065,-20.38138 0.32844,-4.95816 0.78145,-9.63217 1.00662,-10.38667 0.22529,-0.75451 0.52226,-5.79329 0.66006,-11.19729 l 0.2505,-9.82546 -1.32199,-2.52096 c -1.00651,-1.91938 -2.85488,-4.06416 -7.74594,-8.98811 -3.53317,-3.55695 -6.93748,-7.20924 -7.56512,-8.11622 l -1.14125,-1.64905 0.44185,-6.38591 c 0.63688,-9.20459 0.64272,-28.45798 0.0105,-34.60629 l -0.52394,-5.09537 -1.92396,-2.64972 c -3.43628,-4.73254 -3.40101,-4.54367 -3.64243,-19.49543 -0.0574,-3.55694 -0.22345,-6.73553 -0.36904,-7.06352 -0.48664,-1.09648 -1.78585,-1.56003 -5.0035,-1.78533 -5.19378,-0.36369 -6.42394,-1.11431 -13.974074,-8.52717 -3.60402,-3.53849 -7.22876,-7.01617 -8.05504,-7.72823 -1.64715,-1.41945 -1.63215,-1.16457 -0.33083,-5.64389 l 0.79132,-2.72368 -0.98788,-1.78374 c -0.54332,-0.98101 -1.22737,-2.05385 -1.52011,-2.38403 -0.78212,-0.88216 -3.22337,-6.38184 -3.50922,-7.90574 -0.18262,-0.97341 -0.05069,-1.56482 0.50922,-2.28307 1.30795,-1.67769 1.99227,-3.32691 2.61009,-6.28989 1.36698,-6.55591 4.53381,-15.28654 6.20938,-17.11855 1.86097,-2.03469 4.51283,-0.61591 5.51331,2.9497 0.78803,2.80859 0.80439,5.73422 0.06087,10.86652 -0.31239,2.15572 -0.57354,5.08468 -0.58035,6.50879 -0.01128,2.34947 0.11078,2.75059 1.31733,4.33081 1.95344,2.55837 4.530924,4.34331 8.903364,6.16576 0.99344,0.41406 2.23772,1.16668 2.76515,1.67249 6.54784,6.27943 10.90878,9.47997 13.44915,9.87043 3.03232,0.46607 4.67779,2.66126 5.88082,7.84546 0.76861,3.31217 2.3449,6.52474 3.20156,6.52474 0.34817,0 1.22706,-0.36713 1.95316,-0.81586 1.15843,-0.71599 1.31968,-1.01591 1.31686,-2.4497 -0.004,-2.1754 -0.68444,-8.25074 -1.17026,-10.45267 -0.21398,-0.97008 -0.45845,-2.38108 -0.54305,-3.1356 -0.0847,-0.75448 -0.35557,-2.25371 -0.60188,-3.33157 -1.49424,-6.53808 -2.13891,-9.0598 -2.40488,-9.40679 -0.90692,-1.1833 -2.39055,-5.97704 -2.88654,-9.32671 -0.96376,-6.50853 -2.32107,-8.33772 -7.56258,-10.1918 -2.71887,-0.96177 -5.21085,-2.41628 -7.80579,-4.55613 -0.67372,-0.55558 -2.34933,-1.88935 -3.72355,-2.96393 -1.37417,-1.07456 -2.58671,-2.06639 -2.69448,-2.20399 -0.10781,-0.13759 -0.81598,-0.66943 -1.57371,-1.18183 -3.657394,-2.473 -5.178214,-4.0883 -6.596984,-7.0068 l -1.42902,-2.93962 -0.13024,-7.60399 -0.13024,-7.60392 4.04823,-3.83888 c 2.315704,-2.19598 4.970774,-4.30945 6.203904,-4.93845 1.93985,-0.98944 2.60715,-1.10961 6.66313,-1.19988 4.99974,-0.11131 5.93214,0.0133 6.83178,0.9128 0.89576,0.89585 0.79918,3.74737 -0.16861,4.97777 -0.43116,0.54811 -0.78392,1.15896 -0.78392,1.35748 0,0.33763 -1.53088,2.87511 -3.17858,5.26843 -0.39742,0.57731 -1.25027,3.13697 -1.38776,3.99652 11.9744,7.84728 12.62632,2.21012 8.2451,16.98033 l 6.68255,1.49052 c 1.82374,-5.07248 3.79006,-10.11542 5.04781,-15.36609 0.17021,-4.47057 -7.01839,-2.45709 -9.02334,-5.08454 -1.36709,-3.47657 1.83364,-8.30927 3.55126,-11.24872 0.93608,-1.37155 3.87911,-2.75501 5.17089,-2.43079 0.51517,0.1293 2.43729,-0.20444 4.32045,-0.75016 1.86583,-0.54069 3.8577,-0.98446 4.42647,-0.9861 0.56865,-0.002 2.14627,-0.34123 3.50573,-0.75466 2.14072,-0.65095 2.63949,-0.68262 3.72359,-0.23647 0.68844,0.28339 2.22178,0.64147 3.40743,0.79574 1.18565,0.15426 2.7673,0.65891 3.51485,1.12133 0.74751,0.46246 2.07037,1.03443 2.93959,1.27102 1.47224,0.40072 1.75512,0.33378 4.12821,-0.97655 l 2.54768,-1.40674 6.2712,-0.24105 c 6.12008,-0.23529 6.33551,-0.27307 8.94011,-1.56875 l 2.66885,-1.32761 1.44132,0.83584 c 1.02835,0.59643 1.8421,1.59994 2.84054,3.50293 1.38537,2.64045 1.3934,2.68352 0.80447,4.32129 -0.51509,1.43245 -0.5232,1.93466 -0.0607,3.74574 0.29392,1.15033 0.84773,2.70885 1.23083,3.46335 0.38309,0.7545 0.7286,1.81276 0.76779,2.35169 0.18422,2.5351 -0.015,3.10696 -1.41372,4.05739 -1.27106,0.8637 -4.08914,4.63544 -4.08914,5.47292 0,0.19028 -0.28194,0.98991 -0.62651,1.77701 -2.95223,6.74353 -3.96124,7.94525 -8.35643,9.95197 -5.38784,2.4599 -7.2045,3.04159 -9.49926,3.04159 -1.81795,0 -2.34158,0.14573 -2.65976,0.74024 -0.21793,0.40717 -1.29502,1.38605 -2.39368,2.17536 -1.19579,0.85908 -2.22665,1.98334 -2.56832,2.80119 -0.31396,0.75135 -0.96991,1.51785 -1.45776,1.70332 -0.48777,0.18547 -1.1344,0.63543 -1.43689,0.9999 -0.30249,0.36453 -2.14721,1.78337 -4.09935,3.15308 -1.95219,1.36967 -4.02674,2.94183 -4.61011,3.49362 -0.58345,0.55173 -1.21411,1.00322 -1.4015,1.00322 -0.1874,0 -0.74908,0.43463 -1.24817,0.96588 -0.76653,0.81592 -0.87055,1.23488 -0.66996,2.69822 0.13056,0.95275 0.50566,2.50237 0.83336,3.44352 0.77594,2.22797 0.76541,4.60556 -0.0273,6.19464 -0.8352,1.67423 -0.52269,3.89818 0.78967,5.61873 1.17508,1.54055 1.26539,2.67263 0.41335,5.18212 -0.35866,1.05649 -0.61417,3.1952 -0.6238,5.22179 -0.0136,2.8613 0.12863,3.67801 0.85469,4.90853 0.70379,1.19294 1.06793,1.45331 1.89762,1.35709 1.16153,-0.1347 1.34834,-0.61539 2.76017,-7.10236 1.27937,-5.87839 2.17203,-6.9863 8.06526,-10.00969 1.72458,-0.88475 4.37026,-2.31893 5.87926,-3.1871 1.50899,-0.86813 3.97827,-2.16294 5.48735,-2.8773 3.91004,-1.85106 6.4746,-3.81756 8.9205,-6.84047 4.16767,-5.15073 5.84782,-9.50641 7.52703,-19.51312 0.32214,-1.92016 0.8354,-3.3079 1.67412,-4.52694 0.75589,-1.09863 1.39129,-2.70618 1.69409,-4.28612 0.5955,-3.10656 1.66782,-5.31881 3.2683,-6.7426 2.7538,-2.44988 3.51811,-0.64084 2.69112,6.37016 -0.2669,2.26351 -0.6458,6.05562 -0.84193,8.42692 l -0.35647,4.31144 2.6057,2.39849 2.6057,2.39851 0.0624,4.93471 c 0.0343,2.71414 0.2774,5.5863 0.54019,6.38267 l 0.47783,1.4479 -3.76954,3.6788 c -5.00197,4.88161 -7.5486,8.16483 -9.82101,12.66186 -1.03465,2.04754 -2.18992,4.16408 -2.56726,4.7034 -1.27631,1.82421 -3.78336,7.62127 -5.13518,11.87388 l -1.3447,4.2302 -4.0828,3.80476 c -2.24555,2.09267 -4.66385,4.24575 -5.3741,4.78468 -1.78941,1.35791 -2.49758,3.01759 -2.49758,5.85354 0,1.74748 0.25364,2.90808 0.92912,4.25219 0.51106,1.01679 1.06104,2.28969 1.22225,2.82861 0.16116,0.53894 0.57479,1.30028 0.91905,1.69189 0.81837,0.93094 1.1245,9.44523 0.48922,13.60542 -0.40094,2.62538 -2.12928,7.04383 -2.75532,7.04383 -1.05102,0 -2.38061,5.434 -2.97286,12.15043 -0.10457,1.18564 -0.36239,3.47856 -0.57292,5.09534 -0.21053,1.6168 -0.56521,5.84986 -0.78819,9.4068 -0.4487,7.1586 -0.10957,10.99682 1.19825,13.56208 1.99936,3.92171 0.30269,7.43663 -6.46144,13.3856 l -2.32565,2.04539 0.0433,3.04321 c 0.0239,1.67378 0.32355,4.0133 0.66597,5.19894 2.7038,9.36172 2.76898,9.91469 2.56416,21.75321 -0.26764,15.46912 -0.15243,23.59523 0.36677,25.86868 0.2462,1.07786 0.5308,2.92983 0.63242,4.11547 0.10167,1.18565 0.3876,3.1258 0.63552,4.31145 0.27712,1.3254 0.45449,6.45833 0.46044,13.32628 l 0.01,11.17058 -1.06249,1.54369 c -1.56052,2.26739 -8.82663,7.91114 -9.04718,7.17717 z m 17.30324,-26.43106 c -0.10565,-0.17572 -0.19276,-4.02341 -0.19358,-8.55043 -0.001,-8.24022 -0.51995,-16.13954 -1.32481,-20.18542 -0.23586,-1.18564 -0.47345,-5.68327 -0.52798,-9.99471 -0.0883,-6.98896 -0.81856,-14.27783 -1.54869,-15.4592 -0.38767,-0.62725 -1.76945,-10.35037 -1.77371,-12.48101 -0.005,-2.47659 0.59472,-3.51341 3.09281,-5.34718 2.42809,-1.78234 2.85037,-1.83757 3.21326,-0.42028 0.16559,0.64671 0.85086,3.29237 1.52266,5.87925 2.30024,8.85649 2.42676,9.53595 2.37215,12.73836 -0.0579,3.38873 -0.0776,3.5895 -1.01911,10.38667 -0.57366,4.14079 -0.68734,7.26145 -0.60709,16.65786 0.0971,11.36442 -0.37722,20.93715 -1.19825,24.18327 -0.41199,1.62875 -1.63635,3.21008 -2.00766,2.59282 z m -41.59501,-22.01887 c -0.13819,-0.22353 -0.5941,-3.06979 -1.01317,-6.32502 -0.41907,-3.25523 -0.87411,-6.10012 -1.01124,-6.32197 -0.13713,-0.22184 -0.39899,-1.93266 -0.58204,-3.80182 -0.18297,-1.86916 -0.53303,-4.36855 -0.77781,-5.55421 -0.57942,-2.8066 -1.96252,-11.33745 -2.00171,-12.3464 -0.0167,-0.43115 -0.20184,-2.3713 -0.41139,-4.31146 -0.39323,-3.64054 -0.49267,-16.21505 -0.13107,-16.57665 0.56184,-0.56182 3.8828,1.61731 6.63675,4.3548 l 3.09328,3.0749 -0.26338,3.78958 c -0.14484,2.08427 -0.35178,5.9943 -0.45974,8.68894 -0.10801,2.69466 -0.28507,5.78126 -0.39347,6.85912 -0.10836,1.07786 -0.35722,5.48731 -0.55299,9.79874 -0.46346,10.2039 -1.13585,18.33285 -1.55069,18.74771 -0.1816,0.1816 -0.44322,0.14728 -0.58133,-0.0763 z M 75.032596,547.36582 c 12.34732,7.49241 10.45397,8.29037 16.6935,10.34742 7.62047,2.51233 11.059384,4.17503 13.562164,9.88384 -25.584364,21.17725 -40.433724,33.92726 -44.950114,41.49879 -18.17744,30.4735 -3.50702,59.52527 36.76475,51.09923 -8.30981,17.12726 -45.68839,16.77503 -57.82035,-2.87058 -14.45523,-23.40768 -12.9348,-69.31515 35.75005,-109.9587 z M 198.54291,652.26306 c 33.19697,4.03343 48.23541,-22.11086 27.27195,-52.2847 0,0 -15.74633,-17.19208 -37.66168,-39.82207 1.74678,-9.05533 5.55974,-18.82312 17.91496,-31.53653 52.26704,37.2122 53.90342,82.97626 54.17671,87.51365 2.49127,41.36347 -46.09716,53.39749 -61.70194,36.12965 z"
       style="opacity:1;fill:#000000;stroke:#ffffff;stroke-opacity:1"
       id="p1"
       inkscape:connector-curvature="0" />
  </g>
</svg>
