<?xml version="1.0" encoding="UTF-8"?>
<svg width="60px" height="60px" viewBox="0 0 60 60" version="1.1" xmlns="http://www.w3.org/2000/svg" xmlns:xlink="http://www.w3.org/1999/xlink">
    <title>Artboard</title>
    <g id="Artboard" stroke="none" stroke-width="1" fill="none" fill-rule="evenodd">
        <g id="CIS_roundel" transform="translate(0.000000, 4.000000)" fill="#000000" fill-rule="nonzero">
            <path d="M45.006766,5.68434189e-15 L60,25.981057 L45.006766,51.962109 L14.993236,51.962109 L2.99999769e-08,25.981057 L14.993236,5.68434189e-15 L45.006766,5.68434189e-15 Z M34.073076,34.641407 L26.062248,34.641407 L17.564276,49.364003 L42.571044,49.364003 L34.073076,34.641407 Z M20.487146,26.847091 L3.49120803,26.847091 L16.02165,48.552097 L24.546684,33.829499 L20.487146,26.847091 Z M56.508798,26.847091 L39.485792,26.847091 L35.534506,33.721243 L44.03248,48.416779 L56.508798,26.847091 Z M16.048716,3.410011 L3.49120803,25.115021 L20.487146,25.115021 L24.546684,18.132607 L16.048716,3.410011 Z M44.03248,3.518265 L35.534506,18.240863 L39.485792,25.115021 L56.508798,25.115021 L44.03248,3.518265 Z M42.543982,2.598103 L17.591342,2.598103 L26.08931,17.320701 L34.04601,17.320701 L42.543982,2.598103 Z" id="Combined-Shape"/>
        </g>
    </g>
</svg>