<?xml version="1.0" encoding="utf-8"?>
<!-- Generator: Adobe Illustrator 21.0.0, SVG Export Plug-In . SVG Version: 6.00 Build 0)  -->
<svg version="1.1" id="Layer_1" xmlns="http://www.w3.org/2000/svg" xmlns:xlink="http://www.w3.org/1999/xlink" x="0px" y="0px"
	 viewBox="0 0 72 72" style="enable-background:new 0 0 72 72;" xml:space="preserve" width="100%" height="100%">
<style type="text/css">
	.st0{fill:black;}
</style>
<g>
	<path class="st0" d="M57.4,14.6C51.7,8.9,44.1,5.7,36,5.7s-15.7,3.1-21.4,8.9C8.9,20.3,5.7,27.9,5.7,36s3.1,15.7,8.9,21.4
		c5.7,5.7,13.3,8.9,21.4,8.9s15.7-3.1,21.4-8.9c5.7-5.7,8.9-13.3,8.9-21.4S63.1,20.3,57.4,14.6z M53.6,25.4c1.2,1.6,2.2,3.3,3,5.1
		c0.6,1.5,1.1,3,1.4,4.4c0,0.1,0,0.2,0,0.3L57,35.3c-0.6-2-1.2-4-1.9-5.9l-1.1,0.4c0.7,1.9,1.3,3.8,1.8,5.7l-2.7,0.4l-1.3-7.2
		c0,0-0.6,4.8-1.9,7.7l-9.3,1.4c-2.5-2-5.2-5.8-5.2-5.8l1,6.4l-20.4,3.1c-0.4-2.8-0.4-5.6-0.2-8.2c6.2-1.6,13.1-2.9,19.2-3.7
		l-0.2-1.2c-6,0.8-12.7,2-18.9,3.6C16,31,16.2,30,16.4,29c5.8-1.9,12.3-3.4,18-4.3l-0.2-1.2c-5.6,0.8-11.8,2.3-17.6,4.1
		c0.7-3.2,1.6-5.8,2.2-7.4c0.3-0.3,0.6-0.5,0.9-0.7c5.5-1.7,11.5-2.8,17.4-3.3c0.9,1.1,1.9,2.3,2.9,3.7l1-0.7
		c-0.8-1.1-1.6-2.2-2.4-3.1c0.3,0,0.7,0,1,0c1.1,1.2,2.2,2.5,3.5,4l0.9-0.8c-1-1.2-1.9-2.3-2.8-3.3c0.2,0,0.3,0,0.5,0
		c0.3,0.1,0.6,0.2,0.9,0.4c3,1.3,5.9,3.3,8.2,5.7l0,0c0.6,0.6,1.2,1.2,1.7,1.9c-0.8-0.1-1.7-0.1-2.5-0.2L50,25.1
		C51.2,25.2,52.4,25.3,53.6,25.4z M58.4,38.7c0,0.2,0,0.4,0,0.5l0,0l0,0c0,0.2,0,0.4,0,0.5c0,0.2,0,0.4,0,0.5c0,0.4,0,0.7-0.1,1.1
		c-0.1,0.7-0.2,1.5-0.3,2.2c-0.1,0.4-0.2,0.9-0.3,1.3c-5.5,1.9-12.6,3.8-19.2,5c-6.7,1.2-13.5,1.9-19.1,1.9c-1.1-2-2-4.3-2.7-6.7
		l10.2-1.6c0.3,1.9,0.6,3.9,1,5.9L28,50l0.5,0c3.7-0.3,7.6-0.8,11.5-1.4l-0.2-1.2c-3.7,0.6-7.4,1-10.9,1.3c-0.3-1.8-0.6-3.6-0.9-5.3
		L58.4,38.7C58.4,38.7,58.4,38.7,58.4,38.7z M39.5,63.2c-1.1,0.1-2.3,0.2-3.5,0.2c-3.5,0-6.8-0.7-9.9-1.8c-0.1-0.1-0.3-0.3-0.4-0.5
		c8.1-0.2,17.3-2,25.3-4.8c0,0-0.1,0.1-0.1,0.1l0,0c-2.4,2.4-5.2,4.4-8.2,5.7C41.6,62.5,40.5,62.9,39.5,63.2z M52.5,50.7
		c-1.3,0.5-2.7,0.9-4.2,1.3l0.3,1.1c1.1-0.3,2.2-0.6,3.2-1c-0.4,1-0.9,2-1.3,2.9c-7.4,2.7-15.9,4.4-23.6,4.7
		c-1.2-2.1-2.6-4.4-3.8-6.9c4.8-0.2,10.2-0.9,15.5-1.8c5-0.9,10.3-2.2,15-3.6C53.4,48.6,52.9,49.7,52.5,50.7z M21.8,53
		c1.3,2.5,2.6,4.8,3.8,6.9c-0.3,0-0.6,0-0.9,0c-1.4-1.7-3.1-4.1-4.7-6.9C20.6,53,21.2,53,21.8,53z M52.8,54.3
		c-0.2,0.1-0.4,0.2-0.6,0.2c0.4-0.9,0.8-1.9,1.2-2.8c0.1,0,0.1,0,0.2-0.1l-0.1-0.2c0.6-1.5,1.1-2.9,1.6-4.3c0.7-0.2,1.4-0.5,2.1-0.7
		c-0.2,0.6-0.4,1.1-0.7,1.7C55.6,50.3,54.3,52.4,52.8,54.3z M23.2,17.3c0.6-0.3,1.1-0.6,1.7-0.8c1.5-0.6,3-1.1,4.4-1.4
		c0.7-0.1,1.5-0.3,2.2-0.3c0.4,0,0.7-0.1,1.1-0.1c0.2,0,0.4,0,0.5,0c0.2,0,0.4,0,0.5,0l0,0l0,0c0.2,0,0.4,0,0.5,0c0.2,0,0.4,0,0.5,0
		c0.4,0,0.7,0,1.1,0.1c0.7,0.1,1.4,0.2,2.1,0.3C33.1,15.3,28,16.1,23.2,17.3z M46.8,61.2c1.8-1.1,3.5-2.5,4.9-4
		c2.5-2.5,4.6-5.4,6-8.6c0.7-1.5,1.2-3.1,1.5-4.7c0.2-0.8,0.3-1.6,0.3-2.3c0-0.4,0.1-0.8,0.1-1.2c0-0.2,0-0.4,0-0.6
		c0-0.2,0-0.4,0-0.6c0-0.2,0-0.4,0-0.6c0-0.2,0-0.4,0-0.6c0-0.4,0-0.8-0.1-1.2c-0.1-0.8-0.2-1.6-0.3-2.3c-0.3-1.6-0.8-3.1-1.5-4.7
		c-1.4-3.2-3.5-6.2-6-8.6c-2.5-2.5-5.4-4.6-8.6-6c-1.5-0.7-3.1-1.2-4.7-1.5c-0.8-0.2-1.6-0.3-2.3-0.3c-0.4,0-0.8-0.1-1.2-0.1
		c-0.2,0-0.4,0-0.6,0c-0.2,0-0.4,0-0.6,0c-0.2,0-0.4,0-0.6,0c-0.2,0-0.4,0-0.6,0c-0.4,0-0.8,0-1.2,0.1c-0.8,0.1-1.6,0.2-2.3,0.3
		c-1.6,0.3-3.1,0.8-4.7,1.5c-3.2,1.4-6.2,3.5-8.6,6c-2.5,2.5-4.6,5.4-6,8.6c-0.5,1.1-0.9,2.2-1.2,3.4C10.1,19.5,21.8,8.6,36,8.6
		c15.1,0,27.4,12.3,27.4,27.4C63.4,47.3,56.5,57,46.8,61.2z"/>
	<path class="st0" d="M40.4,22.8c-3.1,1.2-4.5,5.1-3.1,8.6c1.1,2.7,3.6,4.4,6.1,4.4c0.7,0,1.4-0.1,2-0.4c3.1-1.2,4.5-5.1,3.1-8.6
		S43.5,21.5,40.4,22.8z M42.4,27.9c0.1,0,0.2-0.1,0.3-0.1c0.2,0,0.3,0,0.5,0.1c0.3,0.1,0.5,0.4,0.7,0.7c0.3,0.7,0,1.4-0.5,1.6
		c-0.3,0.1-0.5,0.1-0.8-0.1c-0.3-0.1-0.5-0.4-0.7-0.7C41.7,28.8,41.9,28.1,42.4,27.9z M43.4,34.6c-2.1,0-4.1-1.4-5-3.7
		c-1.1-2.9,0-6,2.5-7c0.5-0.2,1.1-0.3,1.6-0.3c1,0,2.1,0.4,2.9,1c-0.4,0.5-1.2,1.4-2,2.1c-0.5-0.1-0.9-0.1-1.4,0.1
		c-1.2,0.5-1.7,1.9-1.2,3.1c0.2,0.6,0.7,1.1,1.2,1.4c0.1,0.1,0.3,0.1,0.4,0.2c0.6,0.5,2.1,1.8,2.6,2.8c0,0,0,0,0,0
		C44.5,34.5,43.9,34.6,43.4,34.6z"/>
</g>
</svg>
