<?xml version="1.0" encoding="utf-8"?>
<!-- Generator: Adobe Illustrator 16.0.0, SVG Export Plug-In . SVG Version: 6.00 Build 0)  -->
<!DOCTYPE svg PUBLIC "-//W3C//DTD SVG 1.1//EN" "http://www.w3.org/Graphics/SVG/1.1/DTD/svg11.dtd">
<svg version="1.1" xmlns="http://www.w3.org/2000/svg" xmlns:xlink="http://www.w3.org/1999/xlink" x="0px" y="0px"
	 width="100%" height="100%" viewBox="0 0 72 72" enable-background="new 0 0 72 72" xml:space="preserve">
<g id="spt">
	<path fill="black" d="M36,5.699c4.187,0,8.117,0.803,11.792,2.41c3.675,1.606,6.875,3.784,9.602,6.535
		c2.726,2.75,4.892,5.951,6.498,9.601c1.606,3.651,2.409,7.569,2.409,11.755c0,4.187-0.803,8.129-2.409,11.828
		s-3.772,6.9-6.498,9.602c-2.727,2.701-5.927,4.855-9.602,6.462S40.187,66.301,36,66.301c-4.186,0-8.117-0.803-11.792-2.409
		c-3.675-1.606-6.887-3.761-9.638-6.462c-2.75-2.701-4.916-5.902-6.498-9.602S5.699,40.187,5.699,36
		c0-4.186,0.791-8.104,2.373-11.755c1.582-3.65,3.748-6.851,6.498-9.601c2.75-2.75,5.963-4.929,9.638-6.535
		C27.883,6.502,31.814,5.699,36,5.699z M47.463,61.044c2.337-1.12,4.49-2.52,6.462-4.198c1.972-1.68,3.663-3.603,5.074-5.769
		c1.412-2.166,2.507-4.526,3.286-7.082c0.778-2.556,1.168-5.221,1.168-7.995c0-3.797-0.718-7.35-2.153-10.66
		c-1.437-3.31-3.408-6.206-5.915-8.688s-5.415-4.454-8.725-5.914c-3.311-1.46-6.863-2.19-10.66-2.19c-3.845,0-7.435,0.73-10.77,2.19
		c-3.334,1.46-6.243,3.432-8.725,5.914s-4.454,5.378-5.914,8.688c-1.46,3.31-2.19,6.863-2.19,10.66
		c0,3.602,0.645,6.973,1.935,10.112c1.29,3.14,3.055,5.951,5.293,8.434c0-0.146-0.048-0.365-0.146-0.657
		c-0.048-0.146-0.073-0.268-0.073-0.365c0.049-0.682,0.207-1.266,0.475-1.752c0.268-0.487,0.547-0.901,0.839-1.242
		c0.341-0.389,0.706-0.754,1.095-1.095c0.244-0.098,0.426-0.219,0.548-0.365c0.122-0.146,0.207-0.304,0.255-0.475
		c0.049-0.17,0.11-0.353,0.183-0.548c0.073-0.194,0.207-0.389,0.402-0.584c-0.39-1.995-0.511-3.614-0.365-4.855
		s0.45-2.202,0.913-2.884s1.034-1.119,1.716-1.314c0.682-0.194,1.363-0.268,2.044-0.219c0-0.098-0.012-0.158-0.037-0.183
		s-0.037-0.085-0.037-0.183c-0.779-1.168-1.387-2.349-1.825-3.541s-0.779-2.373-1.022-3.541c-0.146-0.536-0.329-1.266-0.548-2.19
		c-0.219-0.925-0.389-1.911-0.511-2.957c-0.122-1.047-0.134-2.069-0.036-3.067c0.097-0.998,0.365-1.813,0.803-2.446
		c0-0.049,0.536-0.377,1.606-0.986s2.397-1.314,3.979-2.117s3.322-1.643,5.22-2.519s3.663-1.594,5.293-2.154
		c1.631-0.56,3.042-0.876,4.235-0.949c1.192-0.073,1.886,0.304,2.08,1.132c0.293,0.681,0.609,1.314,0.949,1.898
		c0.244,0.536,0.523,1.071,0.84,1.606c0.316,0.536,0.646,0.974,0.986,1.314c1.168,0.243,2.215,0.511,3.14,0.803
		c0.827,0.243,1.654,0.535,2.482,0.876c0.827,0.341,1.509,0.633,2.044,0.876c0.779,0.438,1.047,0.889,0.803,1.351
		c-0.243,0.462-0.729,0.9-1.46,1.314c-0.729,0.414-1.582,0.815-2.556,1.205c-0.974,0.389-1.776,0.754-2.409,1.095v0.146
		c0.146,0.097,0.268,0.243,0.365,0.438c0.049,0.097,0.073,0.17,0.073,0.219c-0.098,0.244-0.134,0.511-0.109,0.803
		c0.023,0.292,0.061,0.56,0.109,0.803c0.389,0.633,0.839,1.266,1.351,1.898c0.511,0.633,1.107,1.192,1.789,1.679
		c0.292,0.292,0.438,0.584,0.438,0.876c0,0.243-0.134,0.486-0.401,0.73c-0.268,0.243-0.84,0.462-1.716,0.657v0.146l-0.365,0.219
		c-0.194,0.244-0.316,0.56-0.365,0.949c-0.049,0.292-0.036,0.645,0.037,1.059c0.072,0.414,0.304,0.864,0.693,1.351
		c0,0.049-0.024,0.122-0.073,0.219c-0.049,0.097-0.316,0.413-0.803,0.949c0.486,0.146,0.669,0.426,0.548,0.839
		c-0.122,0.414-0.378,0.743-0.767,0.986L48.193,40.6c-0.098,0.536-0.024,0.949,0.219,1.241c0.292,0.73,0.365,1.388,0.22,1.972
		c-0.098,0.486-0.427,0.913-0.986,1.277c-0.56,0.365-1.569,0.548-3.03,0.548h-0.511c-0.194,0-0.426,0-0.693,0
		s-0.572-0.024-0.913-0.073c-0.243,0.536-0.413,1.12-0.511,1.753s-0.195,1.192-0.292,1.679c0.729,1.12,1.351,2.094,1.861,2.921
		c0.512,0.827,0.694,1.339,0.548,1.533c0.779,0.682,1.266,1.302,1.46,1.862c0.195,0.56,0.269,1.034,0.22,1.424
		c-0.098,0.486-0.292,0.9-0.584,1.241c0.438,0.389,0.852,0.863,1.241,1.424C46.83,59.961,47.171,60.509,47.463,61.044z
		 M18.039,56.882c0.097-0.584,0.219-1.156,0.365-1.716s0.268-1.034,0.365-1.424c-0.827,0.438-1.582,1.022-2.263,1.753
		c0.243,0.243,0.487,0.475,0.73,0.693C17.479,56.407,17.747,56.639,18.039,56.882z M25.34,51.698
		c-0.389,0.097-1.059,0.231-2.008,0.401s-1.959,0.475-3.03,0.913c-0.097,0.389-0.243,0.852-0.438,1.387
		c-0.194,0.535-0.34,1.192-0.438,1.972c0-0.098,0.073-0.22,0.219-0.365c0.292-0.292,0.535-0.535,0.73-0.73
		c0.243-0.146,0.45-0.279,0.621-0.401s0.402-0.28,0.694-0.475c0.097-0.049,0.219-0.098,0.365-0.146
		c0.146-0.049,0.268-0.098,0.365-0.146c0.097-0.098,0.231-0.158,0.401-0.183s0.304-0.085,0.402-0.183
		c0.243-0.097,0.511-0.17,0.803-0.219s0.584-0.122,0.876-0.219c0.097-0.341,0.183-0.633,0.255-0.877
		C25.23,52.185,25.292,51.941,25.34,51.698z M36.73,63.526c-0.34-0.535-0.961-1.302-1.862-2.3s-2.057-1.887-3.468-2.665
		c-1.412-0.779-3.115-1.29-5.111-1.533c-1.996-0.244-4.283,0.072-6.863,0.949c0.244,0.243,0.536,0.438,0.876,0.584
		c2.19-0.633,4.15-0.853,5.878-0.657c1.728,0.194,3.225,0.608,4.49,1.241s2.312,1.375,3.14,2.227
		c0.828,0.853,1.436,1.57,1.825,2.154H36H36.73z M24.683,54.618c-0.146,0-0.316,0.024-0.511,0.073
		c-0.195,0.049-0.365,0.098-0.511,0.146c-0.195,0.097-0.353,0.146-0.475,0.146s-0.231,0.024-0.329,0.073
		c-0.292,0.146-0.535,0.219-0.73,0.219c-0.244,0.098-0.475,0.195-0.694,0.292c-0.219,0.098-0.426,0.22-0.621,0.365
		c-0.146,0.049-0.28,0.098-0.401,0.146s-0.231,0.097-0.329,0.146c0.828-0.243,1.619-0.389,2.373-0.438s1.399-0.073,1.935-0.073
		c0.098-0.243,0.158-0.438,0.183-0.584C24.598,54.983,24.634,54.813,24.683,54.618z M20.74,41.403
		c-0.049,0.535,0.048,1.07,0.292,1.606c0.243,0.486,0.633,1.021,1.168,1.605c0.536,0.585,1.339,1.145,2.41,1.68
		c-0.974,0.292-1.923,0.535-2.848,0.73c-0.487,0.097-0.949,0.146-1.387,0.146c0.292,0.292,0.815,0.499,1.57,0.621
		c0.754,0.121,1.497,0.207,2.227,0.255c0.876,0.049,1.825,0.073,2.848,0.073c-0.438,0-1.035,0.158-1.789,0.475
		s-1.473,0.693-2.154,1.132c-0.828,0.438-1.679,0.925-2.556,1.46c1.655-0.535,3.444-0.888,5.367-1.059
		c1.922-0.17,3.772-0.219,5.549-0.146c1.777,0.072,3.334,0.219,4.673,0.438c1.339,0.22,2.228,0.426,2.665,0.621
		c0.487,0.194,0.949,0.353,1.388,0.475c0.438,0.121,0.827,0.231,1.168,0.328c0.39,0.146,0.73,0.244,1.022,0.292
		c0.049,0.049,0.036-0.012-0.037-0.183c-0.072-0.17-0.486-0.498-1.241-0.985c-0.754-0.486-1.971-1.205-3.65-2.154
		c-1.679-0.948-4.101-2.178-7.265-3.687c-1.363-0.535-2.507-1.096-3.432-1.68c-0.827-0.535-1.521-1.119-2.081-1.752
		c-0.56-0.633-0.669-1.29-0.329-1.972c-0.584-0.098-1.12-0.122-1.606-0.073c-0.389,0.049-0.791,0.207-1.205,0.475
		C21.093,40.393,20.837,40.819,20.74,41.403z M22.127,26.727c0.681-0.292,1.363-0.754,2.044-1.387
		c0.584-0.535,1.217-1.278,1.898-2.227c0.681-0.949,1.314-2.179,1.898-3.688c-0.779,0.341-1.533,0.828-2.263,1.46
		c-0.633,0.535-1.278,1.278-1.935,2.227C23.113,24.062,22.565,25.267,22.127,26.727z M24.172,27.896
		c0.827-0.098,1.655-0.244,2.482-0.438c0.828-0.195,1.582-0.39,2.263-0.584c0.779-0.194,1.534-0.389,2.264-0.584
		c-0.244,0.487-0.828,1.022-1.752,1.606s-1.923,1.144-2.994,1.679c-1.266,0.584-2.604,1.241-4.016,1.971
		c2.288-0.486,4.381-0.973,6.279-1.46s3.48-0.925,4.746-1.314c1.558-0.438,2.945-0.876,4.162-1.314
		c-1.266-0.682-2.251-1.631-2.957-2.848c-0.706-1.217-1.253-2.434-1.643-3.651c-0.438-1.412-0.754-2.896-0.949-4.454
		c-0.389,1.509-1.01,2.945-1.862,4.308c-0.852,1.363-1.74,2.556-2.665,3.578C26.508,25.656,25.389,26.825,24.172,27.896z
		 M31.984,53.523c-0.438,0.098-0.889,0.146-1.351,0.146s-0.913,0.024-1.351,0.073c-0.341,0.098-0.669,0.158-0.986,0.183
		s-0.669,0.085-1.059,0.183c-0.438,0-0.876,0.073-1.314,0.219c0,0.244-0.024,0.475-0.073,0.694c-0.049,0.219-0.097,0.45-0.146,0.693
		h0.219c2.044,0.341,3.797,0.803,5.257,1.387c0.195-0.584,0.353-1.192,0.475-1.825S31.887,54.059,31.984,53.523z M32.203,52.793
		c0-0.097,0.012-0.243,0.037-0.438c0.024-0.195,0.037-0.341,0.037-0.438c-0.925-0.146-1.862-0.268-2.811-0.365
		c-0.949-0.097-1.911-0.121-2.884-0.073c-0.097,0.244-0.158,0.487-0.183,0.73c-0.024,0.243-0.085,0.511-0.182,0.804h0.876
		c0.341-0.098,0.682-0.146,1.022-0.146c0.341,0,0.682-0.024,1.022-0.073H32.203z M36.657,53.669
		c-0.536-0.097-1.071-0.146-1.606-0.146c-0.535,0-1.168,0-1.898,0c-0.048,0.535-0.146,1.132-0.292,1.789s-0.341,1.326-0.584,2.008
		c0.097,0,0.231-0.013,0.401-0.037s0.329-0.036,0.475-0.036c0.098,0,0.231-0.024,0.402-0.073s0.401-0.073,0.693-0.073h1.168
		c0.243,0,0.462,0.024,0.657,0.073c0.194,0.049,0.414,0.098,0.657,0.146c0.195,0,0.377,0.024,0.547,0.073
		c0.171,0.048,0.354,0.097,0.548,0.146c0.292-1.119,0.438-2.385,0.438-3.797c-0.243-0.049-0.512-0.073-0.804-0.073
		S36.9,53.669,36.657,53.669z M32.86,57.904c0.828,0.39,1.533,0.827,2.118,1.314c0.584,0.486,1.095,0.974,1.533,1.46
		c0.097-0.243,0.243-0.523,0.438-0.84c0.194-0.316,0.365-0.718,0.511-1.204c-0.146,0-0.316-0.013-0.511-0.037
		c-0.195-0.024-0.341-0.036-0.438-0.036c-0.438-0.146-0.876-0.22-1.314-0.22c-0.049-0.097-0.219-0.146-0.511-0.146
		c-0.146-0.049-0.34-0.073-0.584-0.073c-0.146-0.098-0.316-0.146-0.511-0.146c-0.194,0-0.365-0.024-0.511-0.073H32.86z
		 M36.73,24.756c0.487-0.682,1.12-1.387,1.899-2.117c0.633-0.536,1.411-1.132,2.336-1.789s2.045-1.205,3.358-1.643
		c-0.827,0.535-1.582,1.131-2.263,1.789c-0.682,0.657-1.266,1.253-1.753,1.789c-0.535,0.633-1.046,1.29-1.533,1.971
		c-0.39,0.682-0.56,1.156-0.511,1.424s0.194,0.426,0.438,0.475c0.244,0.097,0.633,0.049,1.169-0.146
		c2.142-1.071,4.027-1.947,5.658-2.628c1.631-0.682,3.006-1.241,4.125-1.68c1.314-0.487,2.41-0.9,3.286-1.241
		c-0.049-0.341-0.45-0.669-1.205-0.985c-0.754-0.316-1.582-0.584-2.482-0.803c-0.9-0.219-1.74-0.39-2.519-0.511
		c-0.779-0.122-1.217-0.183-1.314-0.183c-0.39-0.195-0.913-0.73-1.57-1.606c-0.657-0.876-1.302-2.458-1.935-4.746
		c-0.535-0.097-1.241-0.024-2.117,0.219c-0.682,0.146-1.582,0.462-2.701,0.949c-1.12,0.487-2.434,1.266-3.943,2.336
		c0.146,1.168,0.365,2.313,0.657,3.432c0.243,0.974,0.608,1.996,1.095,3.067S36,24.074,36.73,24.756z M33.372,52.866
		c0.633,0,1.229,0.036,1.789,0.109c0.56,0.073,1.083,0.158,1.57,0.256c0.244,0.049,0.5,0.073,0.767,0.073s0.475,0.048,0.62,0.146
		c-0.535-0.243-1.205-0.475-2.008-0.693s-1.667-0.426-2.592-0.621C33.42,52.331,33.372,52.574,33.372,52.866z M38.337,63.38
		c0.632-0.048,1.277-0.121,1.935-0.219s1.277-0.194,1.861-0.292c0.487-0.682,0.828-1.558,1.022-2.629
		c-0.194-0.048-0.365-0.097-0.511-0.146c-0.146-0.049-0.341-0.098-0.584-0.146c-0.244-0.097-0.463-0.183-0.657-0.255
		c-0.195-0.073-0.414-0.134-0.657-0.183c-0.243-0.098-0.475-0.158-0.693-0.183c-0.22-0.024-0.451-0.085-0.694-0.183
		c-0.097-0.049-0.207-0.073-0.328-0.073c-0.122,0-0.231-0.073-0.329-0.219c-0.243,0.682-0.486,1.253-0.729,1.716
		c-0.244,0.462-0.438,0.84-0.584,1.132C37.776,62.334,38.093,62.894,38.337,63.38z M43.302,59.729
		c0.097-0.39,0.146-0.791,0.146-1.205c0-0.413,0-0.839,0-1.277c-0.438-0.535-0.925-1.071-1.46-1.606s-1.096-1.047-1.68-1.533
		c-0.049,0-0.121-0.024-0.219-0.073c-0.049-0.049-0.109-0.073-0.183-0.073s-0.158-0.023-0.256-0.072h-0.219
		c0,0.682-0.049,1.387-0.146,2.117c-0.097,0.73-0.219,1.363-0.364,1.898c0.097,0.049,0.206,0.098,0.328,0.146
		c0.122,0.049,0.231,0.073,0.329,0.073c0.243,0.098,0.486,0.183,0.729,0.256s0.487,0.158,0.73,0.256
		c0.243,0.097,0.462,0.206,0.657,0.328c0.194,0.122,0.413,0.231,0.657,0.328c0.194,0.049,0.364,0.11,0.511,0.183
		C43.01,59.547,43.155,59.632,43.302,59.729z M44.396,60.752l-0.073-0.073c-0.146,0.633-0.341,1.217-0.584,1.752
		c0.438-0.097,0.853-0.243,1.241-0.438c0.39-0.195,0.779-0.341,1.169-0.438c0-0.049-0.024-0.073-0.073-0.073
		c-0.195-0.097-0.426-0.206-0.694-0.328c-0.268-0.122-0.596-0.231-0.985-0.328V60.752z M44.396,60.24
		c0.098,0.098,0.171,0.146,0.219,0.146c0.292,0.146,0.561,0.304,0.804,0.475c0.243,0.17,0.462,0.304,0.657,0.401
		c-0.341-0.584-0.828-1.387-1.461-2.409c-0.048,0.243-0.072,0.475-0.072,0.693S44.494,59.997,44.396,60.24z"/>
</g>
</svg>
