<?xml version="1.0" encoding="utf-8"?>
<!-- Generator: Adobe Illustrator 16.0.0, SVG Export Plug-In . SVG Version: 6.00 Build 0)  -->
<!DOCTYPE svg PUBLIC "-//W3C//DTD SVG 1.1//EN" "http://www.w3.org/Graphics/SVG/1.1/DTD/svg11.dtd">
<svg version="1.1" xmlns="http://www.w3.org/2000/svg" xmlns:xlink="http://www.w3.org/1999/xlink" x="0px" y="0px"
	 width="100%" height="100%" viewBox="0 0 72 72" enable-background="new 0 0 72 72" xml:space="preserve">
<g id="ttl">
	<path fill="black" d="M35.963,5.736c4.186,0,8.117,0.779,11.792,2.336c3.676,1.558,6.876,3.711,9.602,6.461
		c2.726,2.75,4.892,5.963,6.498,9.638c1.606,3.675,2.41,7.605,2.41,11.792s-0.804,8.129-2.41,11.829s-3.772,6.912-6.498,9.638
		s-5.926,4.88-9.602,6.462c-3.675,1.582-7.605,2.373-11.792,2.373s-8.117-0.791-11.792-2.373c-3.675-1.582-6.875-3.736-9.602-6.462
		c-2.726-2.726-4.88-5.938-6.461-9.638c-1.582-3.699-2.373-7.643-2.373-11.829s0.791-8.117,2.373-11.792
		c1.582-3.675,3.736-6.888,6.461-9.638c2.726-2.75,5.926-4.904,9.602-6.461C27.847,6.515,31.777,5.736,35.963,5.736z M8.364,35.963
		c0,2.434,0.316,4.77,0.949,7.009s1.46,4.381,2.482,6.426v-0.657l0.511-0.657l0.219-0.292l-1.168-20.298l-0.219-0.292l-0.511-0.73
		l-0.146-1.022v-0.073C9.07,28.687,8.364,32.215,8.364,35.963z M12.672,21.361c-0.097,0.146-0.194,0.304-0.292,0.475
		c-0.097,0.17-0.195,0.304-0.292,0.401l0.219,3.14l0.803,0.949v1.314l0.657-0.146l1.606-0.219v0.146l1.095,1.095
		c0,0.049,0.024,0.073,0.073,0.073c0.097,0.098,0.146,0.17,0.146,0.219c0.048,0,0.073,0.024,0.073,0.073
		c0,0.048,0.049,0.073,0.146,0.073l0.073,0.073c0,0.097,0.048,0.146,0.146,0.146c0,0.048,0.024,0.122,0.073,0.219l0.146,0.073v0.146
		l32.418-1.095c0-0.097,0.024-0.146,0.073-0.146s0.073-0.024,0.073-0.073c0.049,0,0.073-0.048,0.073-0.146
		c0.097,0,0.146-0.012,0.146-0.037c0-0.024,0.024-0.036,0.073-0.036c0-0.098,0.049-0.17,0.146-0.219l0.072-0.146
		c0.146-0.049,0.22-0.122,0.22-0.219c0.097,0,0.146-0.012,0.146-0.036s0.024-0.037,0.073-0.037c0-0.049,0.024-0.097,0.073-0.146
		l0.072-0.073l1.606-1.533l0.22-0.073h2.044c0.098,0.048,0.219,0.073,0.365,0.073h0.292h0.219h0.22l0.072-1.387l1.241-1.387
		l0.073-4.016c-0.049-0.244-0.219-0.511-0.511-0.803l-3.797,0.219l-2.701-2.92l-33.587,2.92l-1.752,2.921L12.672,21.361z
		 M13.11,24.281c-0.146-0.146-0.219-0.292-0.219-0.438c-0.097-0.098-0.146-0.268-0.146-0.511v-0.584
		c0.097-0.049,0.146-0.109,0.146-0.183s0.024-0.158,0.073-0.255c0.098-0.049,0.158-0.098,0.183-0.146
		c0.024-0.049,0.085-0.073,0.183-0.073c0.049-0.049,0.146-0.073,0.292-0.073c0.098-0.098,0.158-0.122,0.183-0.073
		s0.085,0.073,0.183,0.073l0.292,0.292c0.049,0.048,0.122,0.17,0.219,0.365c0,0.098,0.024,0.183,0.073,0.256
		c0.049,0.073,0.073,0.158,0.073,0.255c0,0.243-0.049,0.39-0.146,0.438c0,0.098-0.012,0.195-0.037,0.292
		c-0.024,0.098-0.037,0.17-0.037,0.219L14.059,24.5c-0.048,0-0.097,0.012-0.146,0.036c-0.048,0.024-0.097,0.037-0.146,0.037
		c-0.146,0-0.268-0.024-0.365-0.073c-0.098,0-0.158-0.024-0.183-0.073S13.159,24.33,13.11,24.281z M55.75,25.888h-0.219
		l-0.219,0.146h-0.073h-0.365l-1.972,0.219l-1.241,1.606c0,0.049-0.024,0.073-0.072,0.073c-0.049,0-0.073,0.048-0.073,0.146
		l-0.219,0.219l-0.073,0.073l-0.22,0.219c0,0.098-0.023,0.146-0.072,0.146s-0.073,0.024-0.073,0.073
		c-0.049,0-0.073,0.024-0.073,0.073c0,0.048-0.049,0.097-0.146,0.146c-0.049,0-0.073,0.024-0.073,0.073
		c0,0.049-0.049,0.073-0.146,0.073c0,0.048-0.012,0.073-0.036,0.073s-0.036,0.049-0.036,0.146l-0.22,0.073h-0.146l-32.784,1.095
		h-0.073l-0.146-0.146l-0.073-0.073c0-0.097-0.024-0.146-0.073-0.146c-0.049,0-0.073-0.024-0.073-0.073
		c-0.049,0-0.073-0.024-0.073-0.073v-0.146h-0.146V29.83c-0.049-0.097-0.122-0.17-0.219-0.219v-0.073l-0.073-0.073
		c0-0.049-0.048-0.122-0.146-0.219l-0.073-0.073l-0.876-1.241l-1.387-0.073H13.11l0.73,14.165h0.657l1.314-0.073l0.73-1.095
		c0-0.098,0.048-0.17,0.146-0.219v-0.073l0.073-0.073c0-0.049,0.049-0.121,0.146-0.219l0.073-0.073v-0.073l0.146-0.072
		c0-0.049,0.024-0.073,0.073-0.073c0-0.098,0.049-0.171,0.146-0.22v-0.072l0.073-0.073v-0.073h0.219l32.053,0.292h0.219l0.073,0.146
		c0.097,0.049,0.17,0.121,0.219,0.219l0.146,0.073c0.048,0.098,0.121,0.17,0.219,0.219l0.073,0.146
		c0.097,0.049,0.146,0.121,0.146,0.219c0.049,0,0.073,0.012,0.073,0.036s0.049,0.037,0.146,0.037c0,0.097,0.013,0.146,0.037,0.146
		s0.036,0.024,0.036,0.073c0.049,0,0.098,0.024,0.146,0.073v0.073l1.241,1.46l1.898,0.146h0.219
		c0.049,0.049,0.122,0.073,0.219,0.073h0.22h0.219l0.73-17.085H55.75z M55.97,54.801l0.072-2.848l-1.168-1.168l0.365-7.594h-0.219
		h-0.22h-0.219h-0.219L52.1,43.338l-0.146-0.146L50.64,41.95c-0.049,0-0.073-0.023-0.073-0.072s-0.049-0.073-0.146-0.073
		c0-0.049-0.012-0.073-0.036-0.073s-0.036-0.049-0.036-0.146c-0.098,0-0.146-0.013-0.146-0.037s-0.024-0.036-0.073-0.036
		c-0.097-0.098-0.146-0.171-0.146-0.219c-0.049,0-0.122-0.049-0.22-0.146l-0.072-0.073v-0.073l-0.146-0.072
		c0-0.049-0.024-0.073-0.073-0.073l-31.688-0.438v0.073c-0.098,0-0.146,0.049-0.146,0.146l-0.073,0.072l-0.146,0.146l-0.073,0.073
		v0.072c0,0.049-0.048,0.073-0.146,0.073c0,0.049-0.024,0.073-0.073,0.073c0,0.098-0.024,0.146-0.073,0.146
		c-0.048,0-0.073,0.023-0.073,0.072l-0.876,1.022l-0.219,0.146l-1.387-0.292L13.84,42.17l0.365,6.644l-0.657,0.804l0.073,2.556
		c0.098,0.097,0.195,0.207,0.292,0.328c0.098,0.122,0.195,0.231,0.292,0.329l2.263,0.146l1.898,2.264l30.812,2.409l2.556-2.19
		l3.358,0.22L55.97,54.801z M15.666,50.493c0.098,0.049,0.146,0.098,0.146,0.146c0,0.048,0.024,0.097,0.073,0.146
		c0,0.098,0.024,0.183,0.073,0.256c0.049,0.073,0.073,0.134,0.073,0.183c0,0.243-0.049,0.39-0.146,0.438
		c0,0.098-0.012,0.171-0.037,0.22s-0.037,0.121-0.037,0.219c-0.097,0-0.158,0.012-0.183,0.036c-0.024,0.024-0.085,0.037-0.182,0.037
		c-0.049,0.097-0.146,0.146-0.292,0.146c-0.146,0-0.292-0.049-0.438-0.146c-0.048-0.049-0.097-0.073-0.146-0.073
		s-0.097-0.049-0.146-0.146c0-0.048-0.024-0.109-0.073-0.182c-0.049-0.073-0.073-0.135-0.073-0.183
		c-0.049-0.098-0.073-0.244-0.073-0.438v-0.365c0.048-0.194,0.122-0.292,0.219-0.292c0-0.146,0.073-0.219,0.219-0.219
		c0.048-0.098,0.17-0.146,0.365-0.146c0.098,0,0.158,0.024,0.183,0.073s0.085,0.073,0.183,0.073
		c0.049,0.049,0.097,0.073,0.146,0.073S15.617,50.396,15.666,50.493z M14.498,35.306l2.19,1.826l-0.146,1.095l-2.118-1.752
		L14.498,35.306z M18.002,31.656l0.365,6.571h-0.803l-2.556-6.498h0.657l2.118,5.111l-0.219-5.111L18.002,31.656z M16.323,26.106
		v-1.387l2.482-0.146l1.095-1.825l26.285-1.606l1.533,1.752l3.358-0.219v1.68l-2.556,2.847L18.294,28.37L16.323,26.106z
		 M35.963,8.437c-3.748,0-7.24,0.669-10.478,2.008c-3.237,1.338-6.097,3.2-8.579,5.585h0.073l33.002-3.651
		c-2.094-1.266-4.32-2.239-6.681-2.92C40.94,8.778,38.495,8.437,35.963,8.437z M16.907,25.376v0.292l1.606,2.044l29.644-1.387
		l2.19-2.264v-0.511l-2.629,0.073h-0.292l-0.219-0.219l-1.388-1.387L20.12,23.551l-0.949,1.46l-0.146,0.219h-0.219L16.907,25.376z
		 M17.345,22.091l-0.219-0.292l0.292-0.657c0-0.097,0.049-0.17,0.146-0.219c0-0.098,0.024-0.17,0.073-0.219v-0.219
		c0.097-0.048,0.146-0.122,0.146-0.219l0.073-0.073h0.146l1.387-0.365v1.314l-1.241-0.146v0.146l-0.146,0.073l-0.146,0.146
		c0,0.048-0.024,0.073-0.073,0.073L17.345,22.091z M48.157,41.805l2.409,2.482L50.348,52.1l-3.14-0.146l-1.606,1.314l-24.606-1.387
		l-1.168-1.533l-2.41-0.073l-0.292-6.863l1.679-2.045L48.157,41.805z M49.763,44.652l-1.897-1.972l-28.841-0.657l-1.387,1.753
		l0.219,5.914h1.825l0.219,0.146l0.219,0.073l1.022,1.241l24.095,1.46l1.387-1.241l0.22-0.146h0.365l2.336,0.146L49.763,44.652z
		 M18.732,26.764l-0.438-0.657h0.511h0.219h0.365l0.219-0.292l0.073-0.219l0.803-1.095l24.897-1.534l1.169,1.314L46.77,24.5
		l0.292,0.292l0.365-0.073h0.292h0.657l-0.511,0.657L18.732,26.764z M20.558,53.049v0.876l-1.168-0.219h-0.146l-0.073-0.073V53.56
		l-0.146-0.072v-0.073c-0.049-0.098-0.073-0.171-0.073-0.22c-0.097,0-0.146-0.023-0.146-0.072v-0.073l-0.438-0.511l0.219-0.22
		l0.584,0.438v0.073c0.048,0,0.073,0.048,0.073,0.146c0.098,0,0.146,0.024,0.146,0.073h0.073H20.558z M35.963,63.49
		c2.483,0,4.88-0.316,7.192-0.949c2.313-0.633,4.49-1.558,6.535-2.775h-0.657l-30.52-2.701h-0.146
		c2.434,2.045,5.123,3.626,8.068,4.746C29.38,62.93,32.556,63.49,35.963,63.49z M23.259,32.824l-4.673,0.146l-0.073-1.314
		l4.746-0.146V32.824z M47.28,43.776l1.241,1.313l-0.146,5.185l-1.168-0.146h-0.365h-0.438l-0.365,0.365l-0.219,0.073l-1.022,0.876
		l-23.145-1.168l-0.949-0.876l-0.146-0.22l-0.292-0.365H19.9h-0.219l-0.876-0.072l-0.219-4.527l0.876-1.095L47.28,43.776z
		 M23.405,37.132l0.073,1.241l-4.673-0.146l-0.073-1.095H23.405z M19.389,34.43l3.14-0.073l0.073,1.314h-3.14L19.389,34.43z
		 M19.9,21.142v-1.387h0.146h0.073h0.219h0.073l0.146-0.146h0.219h0.219h0.146l0.146-0.073h0.584
		c0.049-0.097,0.195-0.146,0.438-0.146c0.146,0,0.243-0.024,0.292-0.073h0.146v1.825h-0.146H22.31h-0.438h-0.438h-0.438h-0.219
		h-0.219h-0.219h-0.073h-0.219H19.9z M23.697,53.049l0.146,1.314h-0.219h-0.219c-0.098,0-0.183-0.013-0.256-0.037
		c-0.073-0.024-0.134-0.036-0.183-0.036h-0.438c-0.097,0-0.146-0.024-0.146-0.073c-0.049,0-0.073-0.024-0.073-0.073h-0.365h-0.073
		c-0.146,0-0.219-0.024-0.219-0.072h-0.219h-0.146h-0.146v-1.022h0.146h0.146h0.073h0.219h0.219h0.219h0.219h0.584h0.292h0.365
		H23.697z M23.405,21.142l-0.146-1.971h0.219h0.365c0.049,0,0.109-0.012,0.183-0.037c0.073-0.024,0.182-0.037,0.329-0.037h0.438
		c0.146-0.097,0.316-0.146,0.511-0.146h0.438c0.097-0.049,0.219-0.073,0.365-0.073h0.073l0.146,2.117h-0.219h-0.219
		c-0.098,0-0.195,0.024-0.292,0.073c-0.098,0.048-0.195,0.073-0.292,0.073h-0.438h-0.511h-0.511h-0.365H23.405z M25.084,31.51
		l0.219,6.863h-0.657l-0.073-5.549l-0.657,1.606l-0.438-0.876l0.876-2.044H25.084z M27.056,53.194v1.606h-0.073
		c-0.098-0.049-0.219-0.072-0.365-0.072H26.18c-0.195,0-0.341-0.049-0.438-0.146H25.23c-0.097,0-0.158-0.012-0.183-0.036
		s-0.085-0.037-0.183-0.037h-0.292h-0.146l-0.073-1.46h0.073h0.365h0.438h0.438c0.098,0,0.183,0.024,0.255,0.073
		c0.073,0.049,0.158,0.072,0.256,0.072h0.438h0.219H27.056z M29.027,31.437l0.073,6.937h-2.482
		c-0.049-0.098-0.097-0.207-0.146-0.329c-0.049-0.121-0.073-0.279-0.073-0.475c-0.048-0.097-0.073-0.219-0.073-0.364
		c0-0.146-0.049-0.268-0.146-0.365c0-0.195-0.012-0.365-0.037-0.511s-0.037-0.292-0.037-0.438c0-0.195-0.024-0.353-0.073-0.475
		c-0.049-0.122-0.073-0.256-0.073-0.402v-1.022c0.098-0.195,0.146-0.511,0.146-0.949c0.049-0.146,0.073-0.28,0.073-0.401
		c0-0.122,0.049-0.28,0.146-0.475c0-0.195,0.073-0.438,0.219-0.73h0.949v0.073h0.073v0.146v0.073l0.146,0.146v0.949l-0.73,0.146
		v-0.584h-0.146c0,0.098-0.012,0.207-0.037,0.329s-0.037,0.231-0.037,0.329s-0.024,0.207-0.073,0.329
		c-0.049,0.122-0.073,0.231-0.073,0.329v0.657v0.657v0.511v0.438c0.097,0.146,0.146,0.365,0.146,0.657
		c0,0.049,0.012,0.122,0.037,0.219c0.024,0.097,0.037,0.194,0.037,0.292h1.606l-0.073-5.695H29.027z M26.837,20.996v-2.263h0.146
		h0.073h0.219h0.292h0.146l0.073-0.073h0.365h0.219c0.097,0,0.195-0.024,0.292-0.073c0.097-0.048,0.17-0.073,0.219-0.073h0.584
		h0.292l0.073-0.073h0.073v2.483h-0.146h-0.292h-0.438c-0.292,0-0.487,0.024-0.584,0.073h-0.292h-0.219h-0.219h-0.219h-0.292h-0.146
		h-0.073H26.837z M30.415,53.268v1.972l-0.073-0.146h-0.365h-0.438c-0.194,0-0.34-0.024-0.438-0.072h-0.292h-0.219H28.37h-0.219
		c-0.097,0-0.17-0.073-0.219-0.22h-0.146h-0.073v-1.606h0.073h0.146h0.219h0.219h0.219h0.219c0.049,0,0.073,0.013,0.073,0.037
		s0.048,0.036,0.146,0.036h0.511h0.438h0.365H30.415z M30.633,20.776V18.44h0.073h0.365c0.146-0.097,0.316-0.146,0.511-0.146h0.584
		c0.097,0,0.182-0.012,0.255-0.036c0.073-0.024,0.158-0.037,0.255-0.037h0.438h0.438h0.219v2.263l-0.219,0.219h-0.292h-0.584
		c-0.194,0-0.365,0.024-0.511,0.073h-0.584h-0.438h-0.292H30.633z M33.992,53.487l0.073,1.971h-0.219h-0.365
		c-0.097,0-0.17-0.024-0.219-0.073c-0.049-0.048-0.122-0.072-0.219-0.072h-0.438h-0.584c-0.097,0-0.17-0.013-0.219-0.037
		s-0.122-0.036-0.219-0.036h-0.292h-0.146l-0.073-1.825h0.219h0.292h0.438h0.438c0.097,0,0.194,0.012,0.292,0.036
		c0.097,0.024,0.195,0.037,0.292,0.037h0.438h0.365H33.992z M35.306,31.291l1.826,7.083h-0.876l-1.314-5.403l-1.168,5.403h-0.949
		c-0.097-0.098-0.219-0.365-0.365-0.804c-0.049-0.097-0.073-0.219-0.073-0.364c0-0.146-0.049-0.268-0.146-0.365
		c0-0.195-0.012-0.365-0.037-0.511s-0.036-0.292-0.036-0.438v-1.022v-0.949c0-0.194,0.012-0.353,0.036-0.475
		c0.024-0.122,0.037-0.28,0.037-0.475c0-0.194,0.024-0.353,0.073-0.475c0.048-0.122,0.097-0.255,0.146-0.401
		c0-0.097,0.024-0.231,0.073-0.401c0.049-0.17,0.098-0.304,0.146-0.402h0.803c-0.097,0.098-0.158,0.231-0.183,0.402
		c-0.024,0.17-0.085,0.304-0.183,0.401c-0.048,0.146-0.097,0.28-0.146,0.401c-0.048,0.122-0.073,0.28-0.073,0.475
		c-0.049,0.195-0.073,0.511-0.073,0.949c-0.097,0.146-0.146,0.304-0.146,0.475s0,0.329,0,0.475c0,0.292,0.049,0.511,0.146,0.657
		v0.73c0.049,0.146,0.073,0.365,0.073,0.657c0.097,0.097,0.146,0.195,0.146,0.292c0,0.097,0.024,0.194,0.073,0.292l1.388-6.207
		H35.306z M34.43,20.484v-2.409h0.219h0.292h0.438c0.146-0.049,0.365-0.073,0.657-0.073h0.584h0.584
		c0.146,0,0.268-0.048,0.364-0.146h0.073v2.336h-0.073c-0.097,0-0.158,0.012-0.182,0.037c-0.024,0.024-0.086,0.037-0.183,0.037
		h-0.584c-0.292,0-0.487,0.048-0.584,0.146h-0.657c-0.195,0-0.341,0.024-0.438,0.073h-0.292H34.43z M37.643,53.852v1.826h-0.073
		h-0.364c-0.049-0.098-0.219-0.146-0.511-0.146h-0.511h-0.584H35.16c-0.097,0-0.146-0.012-0.146-0.036s-0.024-0.037-0.073-0.037
		h-0.073h-0.219v-1.825h0.073h0.365h0.511c0.097,0.049,0.292,0.073,0.584,0.073h0.511c0.243,0,0.414,0.049,0.511,0.146h0.364H37.643
		z M41.001,35.452l2.702,2.994h-1.46l-1.461-1.534H38.3v1.46h-0.657v-2.848L41.001,35.452z M42.315,31.072h1.533l-2.848,3.066
		h-3.212v-2.92H38.3v1.533h2.482L42.315,31.072z M41.366,54.144h0.073v1.606h-0.073h-0.365H40.49h-0.657
		c-0.146-0.049-0.316-0.072-0.511-0.072h-0.438h-0.438H38.3v-1.753h0.146h0.438h0.438c0.146,0.098,0.316,0.146,0.511,0.146h0.657
		c0.146,0.048,0.316,0.072,0.511,0.072H41.366z M38.519,20.046c-0.048,0-0.072,0.024-0.072,0.073v0.073v-2.336h0.072h0.438h0.438
		h0.729c0.146-0.049,0.341-0.073,0.584-0.073h0.512h0.438h0.146v1.971h-0.219h-0.146c-0.049,0-0.085,0.012-0.109,0.037
		s-0.061,0.037-0.109,0.037h-0.512c-0.097,0-0.194,0.024-0.292,0.073c-0.097,0.049-0.194,0.073-0.292,0.073h-0.729
		c-0.146,0.048-0.316,0.073-0.512,0.073H38.519z M44.944,54.582c0.049,0,0.098,0.024,0.146,0.073
		c0.049,0.049,0.098,0.073,0.146,0.073h0.146v1.021h-0.146h-0.438H44.36h-0.512h-0.657h-0.511h-0.365h-0.219v-1.46h0.219
		c0.049,0.049,0.098,0.073,0.146,0.073h0.219h0.511c0.098,0,0.207,0.024,0.329,0.072c0.122,0.049,0.231,0.073,0.328,0.073
		c0.195,0,0.365,0.024,0.512,0.073H44.944z M43.191,19.535c-0.146,0.049-0.316,0.073-0.511,0.073h-0.146v-1.825h0.146h0.511h0.512
		h0.584h0.657h0.511h0.438h0.146v1.387h-0.146h-0.438c-0.049,0.097-0.219,0.146-0.511,0.146c-0.098,0-0.207,0.012-0.329,0.037
		c-0.121,0.024-0.23,0.036-0.328,0.036c-0.292,0-0.486,0.049-0.584,0.146H43.191z M45.382,37.059h2.337l-0.657,1.388h-2.774
		l1.898-7.448h1.241H47.5v0.073v0.146h0.146v0.073v0.146L47.5,32.97h-0.657v-0.584H46.77L45.382,37.059z M48.376,54.363
		c0.194-0.098,0.316-0.171,0.365-0.22l0.292,0.365c-0.146,0.146-0.243,0.22-0.292,0.22c0,0.048-0.073,0.17-0.22,0.364
		c-0.048,0.049-0.121,0.171-0.219,0.365c-0.146,0.098-0.219,0.171-0.219,0.22l-0.146,0.072h-0.219h-1.533v-0.949l1.46,0.292
		l0.22-0.292c0.048-0.049,0.097-0.072,0.146-0.072s0.098-0.049,0.146-0.146C48.303,54.533,48.376,54.46,48.376,54.363z
		 M48.741,18.951c-0.146,0-0.22-0.073-0.22-0.219l-1.679,0.219v-1.168h1.752h0.219l0.146,0.073c0.098,0.244,0.17,0.39,0.219,0.438
		c0.049,0.098,0.109,0.158,0.183,0.183s0.109,0.085,0.109,0.183c0.049,0.097,0.098,0.17,0.146,0.219
		c0.049,0.048,0.098,0.122,0.146,0.219c0,0.049,0.073,0.146,0.22,0.292l-0.292,0.438c-0.098-0.049-0.158-0.098-0.183-0.146
		c-0.024-0.048-0.085-0.097-0.183-0.146c-0.049,0-0.085-0.024-0.109-0.073s-0.086-0.097-0.183-0.146
		c-0.049-0.098-0.098-0.158-0.146-0.183S48.79,19.049,48.741,18.951z M52.392,30.853l2.044-0.073v1.534h-0.438l-0.219,6.133h-0.73
		l0.219-6.133H52.83l-1.826,6.133h-0.876l-1.752-7.448l0.949-0.146l1.314,5.841L52.392,30.853z M54.655,52.83
		c0.097,0.097,0.146,0.158,0.146,0.183c0,0.023,0.024,0.085,0.073,0.182c0.098,0.146,0.146,0.316,0.146,0.512
		c0,0.098-0.024,0.17-0.073,0.219s-0.073,0.122-0.073,0.219c-0.049,0.098-0.098,0.158-0.146,0.183
		c-0.049,0.024-0.098,0.086-0.146,0.183c-0.098,0.049-0.17,0.098-0.219,0.146s-0.122,0.073-0.22,0.073
		c-0.097,0.048-0.292,0.072-0.584,0.072c-0.146,0-0.292-0.072-0.438-0.219c-0.146,0-0.292-0.073-0.438-0.219
		c-0.146-0.146-0.219-0.292-0.219-0.438c-0.049-0.049-0.073-0.194-0.073-0.438c0-0.049,0.012-0.11,0.036-0.183
		c0.024-0.073,0.037-0.158,0.037-0.256c0.097-0.049,0.158-0.098,0.183-0.146c0.024-0.048,0.085-0.097,0.183-0.146
		c0.048-0.146,0.194-0.219,0.438-0.219c0.049-0.098,0.195-0.146,0.438-0.146c0.292,0,0.462,0.049,0.511,0.146
		C54.412,52.635,54.558,52.732,54.655,52.83z M53.925,21.799c-0.098-0.097-0.158-0.195-0.183-0.292
		c-0.024-0.098-0.085-0.195-0.183-0.292c-0.049-0.049-0.072-0.219-0.072-0.511c0-0.097,0.012-0.219,0.036-0.365
		s0.036-0.268,0.036-0.365c0.098-0.098,0.158-0.183,0.183-0.256c0.024-0.073,0.085-0.134,0.183-0.183
		c0.049-0.194,0.194-0.34,0.438-0.438c0.097,0,0.194-0.024,0.292-0.073c0.097-0.049,0.17-0.073,0.219-0.073h0.146
		c0.194,0,0.364,0.049,0.511,0.146c0.146,0,0.292,0.098,0.438,0.292c0.048,0.098,0.097,0.17,0.146,0.219s0.098,0.122,0.146,0.219
		c0.097,0.146,0.146,0.34,0.146,0.584c0,0.097-0.024,0.219-0.073,0.365c-0.048,0.146-0.072,0.268-0.072,0.365
		c-0.049,0.098-0.098,0.17-0.146,0.219c-0.049,0.048-0.098,0.122-0.146,0.219c-0.098,0.098-0.195,0.17-0.292,0.219
		c-0.098,0.049-0.22,0.122-0.365,0.219c-0.049,0.048-0.22,0.073-0.512,0.073c-0.243,0-0.438-0.024-0.584-0.073
		C54.168,22.018,54.071,21.945,53.925,21.799z M58.671,51.004v0.438c1.509-2.19,2.677-4.588,3.505-7.191
		c0.827-2.604,1.241-5.367,1.241-8.288c0-2.385-0.28-4.685-0.84-6.9c-0.56-2.214-1.399-4.32-2.52-6.315l-0.072,1.168l-0.804,0.876
		l-0.438,0.438l-1.169,24.824l0.365,0.293L58.671,51.004z"/>
</g>
</svg>
