<?xml version="1.0" encoding="utf-8"?>
<!-- Generator: Adobe Illustrator 16.0.0, SVG Export Plug-In . SVG Version: 6.00 Build 0)  -->
<!DOCTYPE svg PUBLIC "-//W3C//DTD SVG 1.1//EN" "http://www.w3.org/Graphics/SVG/1.1/DTD/svg11.dtd">
<svg version="1.1" xmlns="http://www.w3.org/2000/svg" xmlns:xlink="http://www.w3.org/1999/xlink" x="0px" y="0px"
	 width="100%" height="100%" viewBox="0 0 72 72" enable-background="new 0 0 72 72" xml:space="preserve">
<g id="trb">
	<path fill="black" d="M36,5.736c4.187,0,8.117,0.791,11.792,2.373c3.675,1.582,6.875,3.748,9.602,6.498
		c2.726,2.75,4.892,5.951,6.498,9.601c1.606,3.651,2.409,7.569,2.409,11.755s-0.803,8.129-2.409,11.829s-3.772,6.912-6.498,9.638
		c-2.727,2.726-5.927,4.88-9.602,6.462S40.187,66.265,36,66.265c-4.186,0-8.117-0.791-11.792-2.373
		c-3.675-1.582-6.875-3.736-9.601-6.462s-4.892-5.938-6.498-9.638c-1.606-3.699-2.41-7.643-2.41-11.829s0.803-8.104,2.41-11.755
		c1.606-3.65,3.772-6.851,6.498-9.601s5.926-4.917,9.601-6.498C27.883,6.527,31.814,5.736,36,5.736z M8.62,35.963
		c0,0.244,0,0.475,0,0.694c0,0.219,0.024,0.426,0.073,0.62l5.622-1.314l0.803-8.104l-5.549,1.387
		C8.936,31.437,8.62,33.676,8.62,35.963z M8.693,38.154c0.097,0.925,0.231,1.837,0.401,2.737s0.402,1.789,0.694,2.665l11.171-2.044
		l0.803-15.479l-2.336,0.657l-0.657,6.644l-3.286,0.803l-0.292,2.556L8.693,38.154z M12.782,21.653
		c-1.168,1.85-2.093,3.87-2.775,6.06l11.901-3.14l0.292-6.498L12.782,21.653z M17.673,56.334c0.244,0.244,0.523,0.475,0.84,0.694
		c0.316,0.219,0.621,0.45,0.913,0.693V44.434l-9.2,0.729c0.146,0.438,0.316,0.889,0.511,1.351c0.194,0.463,0.389,0.913,0.584,1.352
		l3.87-0.293l2.628,3.797L17.673,56.334z M11.613,48.449c0.682,1.411,1.497,2.726,2.446,3.942c0.949,1.217,1.984,2.337,3.104,3.358
		l0.073-4.308l-2.263-3.213L11.613,48.449z M42.937,62.468c2.92-0.73,5.634-1.936,8.141-3.614c2.507-1.68,4.673-3.675,6.498-5.987
		c1.826-2.313,3.25-4.904,4.271-7.776c1.022-2.871,1.533-5.914,1.533-9.126c0-3.748-0.718-7.289-2.153-10.624
		c-1.437-3.334-3.396-6.23-5.878-8.688s-5.379-4.405-8.688-5.841C43.35,9.374,39.797,8.656,36,8.656
		c-4.527,0-8.713,1.022-12.559,3.066c-3.845,2.044-7.034,4.746-9.564,8.105l8.98-3.359l2.482,1.606l0.146,3.943l4.527-1.534
		l3.724,2.19c0.292,0.098,0.463,0.098,0.511,0h0.073c0.097,0,0.207,0.024,0.329,0.073c0.122,0.049,0.499,0.268,1.131,0.657
		l0.073,0.146v0.219l0.438,0.073v0.292l0.949,0.438l1.68-0.73l0.219,0.511l1.095-0.292l0.293,0.438l5.841-1.826l0.511,0.219
		l3.286-1.095l1.313-1.314h0.073c0.098,0,0.365,0.061,0.804,0.183c0.438,0.122,0.827,0.377,1.168,0.767h0.219
		c0.438,0,0.73,0.268,0.876,0.803v0.438c0.049,0.292-0.072,0.584-0.364,0.876v0.292c-0.049,0.535-0.22,0.937-0.512,1.205
		s-0.486,0.402-0.584,0.402l-2.264-0.073l-2.993,0.876l-0.365,0.511l-2.701,0.73l-0.22,0.219l-0.292,0.219l1.753-0.511l0.292,0.219
		l0.511,0.073l0.146,0.219l2.993-0.73l0.438,0.073l2.19-0.73h0.438l3.359-0.876l1.387-1.095l0.584,0.365
		c0.049,0,0.146,0.024,0.292,0.073c0.146,0.049,0.292,0.122,0.438,0.219c0.049,0.097,0.098,0.158,0.146,0.183
		c0.049,0.024,0.073,0.085,0.073,0.183c0.146,0.048,0.292,0.109,0.438,0.182c0.146,0.073,0.243,0.231,0.292,0.475
		c0,0.049,0.024,0.098,0.073,0.146c0.048,0.049,0.072,0.098,0.072,0.146c0,0.243-0.048,0.438-0.146,0.584s-0.195,0.268-0.292,0.365
		v0.584c-0.098,0.146-0.219,0.304-0.365,0.475s-0.243,0.304-0.292,0.401h-0.219h-2.19l-0.438,0.073l-0.073,0.365l-1.606,0.292
		l-0.364-0.219l-0.073,0.146l-0.146,0.292l-2.774,0.876l-0.219,0.292l-3.14,0.803l-0.365,0.876l-2.701,0.803v2.117l-1.096,0.73
		l0.146,0.438l-0.22,0.073l-1.387,0.438v0.219l-0.219,0.146l-0.804,0.219h-0.073c-0.389,0-0.656-0.049-0.803-0.146l1.314,8.47
		l-1.168,0.876l0.219,0.073L42.937,62.468z M16.067,27.64l-0.584,5.914l2.629-0.803l0.657-5.987L16.067,27.64z M20.521,44.287v5.403
		l6.937-0.438c-0.098-1.314-0.158-2.458-0.183-3.432s-0.037-1.655-0.037-2.044L20.521,44.287z M20.521,58.598
		c1.168,0.779,2.373,1.473,3.614,2.081s2.543,1.132,3.906,1.569l-0.365-6.717h0.073c-0.049-0.876-0.098-1.789-0.146-2.738
		c-0.049-0.949-0.098-1.861-0.146-2.738l-6.937,0.512V58.598z M30.159,23.405v-0.073l-0.146-2.117H29.94l-4.673,1.46l-0.146,0.073
		l0.146,2.044h0.219c0.049,0,0.146-0.073,0.292-0.219c0.049-0.049,0.098-0.122,0.146-0.219l0.949,1.095v3.796l-0.292,0.219v1.533
		l0.292,0.073L26.8,31.437l-0.219,0.219l0.292,1.387h0.365v-7.886l0.219-0.146l0.73,0.219l-0.146,2.263
		c0.146,0,0.365-0.048,0.657-0.146c0.146-0.048,0.268-0.097,0.365-0.146l0.073-3.87L30.159,23.405z M27.968,30.049
		c-0.243,0-0.389,0.122-0.438,0.365c-0.048,0.097-0.061,0.158-0.037,0.183c0.024,0.024,0.037,0.085,0.037,0.182
		c0.098,0,0.146,0.012,0.146,0.037s0.024,0.037,0.073,0.037c0.243,0,0.389-0.097,0.438-0.292c0-0.146-0.049-0.268-0.146-0.365
		L27.968,30.049z M28.042,29.246l-0.073-0.073c-0.243,0-0.389,0.097-0.438,0.292v0.365c0.098,0,0.146,0.012,0.146,0.037
		s0.024,0.037,0.073,0.037c0.097,0,0.243-0.073,0.438-0.219v1.534l1.387-0.438l0.365-0.219l0.073-0.876l-0.073-3.358l-0.146,1.095
		v0.73l-0.073,0.146v1.314l-0.438,0.073l-0.146-0.219l0.438-0.073l-0.073-1.314l-0.365,0.073l-1.095-0.511v0.511v0.219l-0.073-0.073
		c-0.243,0-0.389,0.098-0.438,0.292c0,0.146,0.049,0.268,0.146,0.365c0,0.049,0.024,0.073,0.073,0.073
		c0.146,0,0.243-0.024,0.292-0.073V29.246z M30.451,29.83v-6.06l-0.073-0.219l-0.146,6.352L30.451,29.83z M30.816,29.684v-5.622
		l-0.219-0.219v5.987L30.816,29.684z M32.203,22.894v-0.365l-0.876,0.219l-0.146,0.438l-0.292,0.219v0.219l1.825,0.876v-1.752
		L32.203,22.894z M32.934,24.354l0.219-0.073v-0.438l0.365-0.073l0.219-0.219v-0.219H33.59l-0.073-0.146h-0.365v-0.219H33.08h-0.146
		V24.354z M33.81,26.91v0.146v0.219l4.089-1.241l-0.073-0.365L33.81,26.91z M38.337,25.157l-0.073-0.365l-4.308,1.314l0.146,0.365
		L38.337,25.157z M34.248,27.713v0.146c0.049,0,0.268-0.061,0.657-0.183c0.39-0.122,1.436-0.426,3.139-0.913l-0.146-0.292
		c-0.341,0.097-0.718,0.219-1.132,0.365c-0.414,0.146-0.791,0.268-1.132,0.365c-0.34,0.098-0.645,0.17-0.913,0.219
		s-0.426,0.073-0.475,0.073V27.713z M38.482,27.932l-0.146-0.219l-3.797,1.095l0.146,0.219L38.482,27.932z M38.774,30.049
		l-1.314,0.511v1.314h0.584l0.22,0.511l0.511-0.219V30.049z M42.863,25.814c-0.049-0.097-0.073-0.316-0.073-0.657
		c0-0.194,0.024-0.353,0.073-0.475c0.049-0.122,0.073-0.231,0.073-0.328l-2.702,0.803l-0.146-0.219l-0.73,0.219
		c-0.049,0.049-0.097,0.122-0.146,0.219s-0.073,0.316-0.073,0.657c-0.049,0.195-0.024,0.438,0.073,0.73l0.146,0.511l3.651-1.168
		L42.863,25.814z M41.038,29.392c-0.049,0-0.073,0.073-0.073,0.219l0.073,0.073h0.146l3.797-0.949v0.073v0.146l-4.016,0.949
		c-0.098,0.097-0.146,0.195-0.146,0.292c0,0.098,0.024,0.146,0.072,0.146h0.073h0.073l3.942-1.168v0.292l-3.285,0.949l0.146,0.146
		l-0.876,0.219c-0.098,0.049-0.146,0.122-0.146,0.219c0,0.049,0.048,0.073,0.146,0.073l0.876-0.219v0.146l2.774-0.803l0.146,0.438
		l0.949-0.219c-0.049-0.049-0.073-0.122-0.073-0.219v-0.949c-0.049-0.341,0-0.633,0.146-0.876c0.097-0.146,0.194-0.244,0.292-0.292
		l-0.804,0.219H45.2L41.038,29.392z M45.93,25.23c-0.049-0.097-0.073-0.219-0.073-0.365v-0.73c0-0.292,0.024-0.536,0.073-0.73
		l-2.482,0.73c0,0.097-0.036,0.207-0.109,0.329s-0.109,0.28-0.109,0.475c0,0.389,0.024,0.657,0.073,0.803
		c0.048,0.146,0.121,0.243,0.219,0.292L45.93,25.23z M45.638,31.875c0.049,0,0.073-0.073,0.073-0.219l-0.073-0.146
		c-0.194,0.097-0.39,0.158-0.584,0.183c-0.194,0.024-0.39,0.085-0.584,0.182c-0.194,0.098-0.438,0.17-0.73,0.219
		c-0.049,0-0.073,0.024-0.073,0.073c0,0.097,0.073,0.146,0.22,0.146c0.243-0.049,0.462-0.098,0.657-0.146
		C45.029,32.069,45.395,31.972,45.638,31.875z M49.727,29.246c-0.049-0.097-0.098-0.194-0.146-0.292
		c-0.049-0.097-0.073-0.292-0.073-0.584s0.073-0.462,0.219-0.511l-2.921,0.73L46.66,28.37c-0.243,0-0.438,0.122-0.584,0.365
		c-0.098,0.243-0.146,0.462-0.146,0.657c0,0.195,0,0.365,0,0.511l0.146,0.438v0.073L49.727,29.246z M51.552,23.624
		c-0.097-0.097-0.17-0.243-0.219-0.438c-0.098-0.389-0.122-0.754-0.073-1.095c0-0.292,0.024-0.511,0.073-0.657l-0.876,0.803
		l-3.578,1.168l-0.292-0.073c-0.146,0.097-0.243,0.365-0.292,0.803c0,0.292,0.049,0.536,0.146,0.73
		c0.048,0.146,0.121,0.244,0.219,0.292l3.724-1.314L51.552,23.624z M50.019,30.049c-0.049,0-0.073-0.024-0.073-0.073
		c-0.048,0-0.072-0.012-0.072-0.037s-0.024-0.037-0.073-0.037l-3.14,0.949c-0.049,0-0.073,0.073-0.073,0.219l0.073,0.146
		l3.285-0.876C49.994,30.293,50.019,30.195,50.019,30.049z M52.428,28.589c-0.048-0.097-0.072-0.219-0.072-0.365V27.64
		c0-0.146,0.024-0.268,0.072-0.365l-1.971,0.584h-0.22c-0.048,0.049-0.109,0.109-0.183,0.183c-0.072,0.073-0.109,0.183-0.109,0.329
		v0.657c0,0.097,0.024,0.146,0.073,0.146L52.428,28.589z M51.99,22.894c-0.049-0.097-0.073-0.195-0.073-0.292v-0.511v-0.438
		c0-0.098,0.024-0.17,0.073-0.219c0-0.048-0.024-0.122-0.073-0.219l-0.146,0.146c-0.049,0.048-0.073,0.122-0.073,0.219v0.511v0.584
		c0,0.098,0.024,0.195,0.073,0.292l0.146,0.146c0.049,0,0.098-0.024,0.146-0.073C52.111,22.991,52.088,22.943,51.99,22.894z"/>
</g>
</svg>
