<?xml version="1.0" encoding="utf-8"?>
<!-- Generator: Adobe Illustrator 16.0.0, SVG Export Plug-In . SVG Version: 6.00 Build 0)  -->
<!DOCTYPE svg PUBLIC "-//W3C//DTD SVG 1.1//EN" "http://www.w3.org/Graphics/SVG/1.1/DTD/svg11.dtd">
<svg version="1.1" xmlns="http://www.w3.org/2000/svg" xmlns:xlink="http://www.w3.org/1999/xlink" x="0px" y="0px"
	 width="100%" height="100%" viewBox="0 0 72 72" enable-background="new 0 0 72 72" xml:space="preserve">
<g id="wpn">
	<path fill="black" d="M36,5.699c4.187,0,8.117,0.791,11.792,2.373s6.875,3.748,9.602,6.498c2.726,2.75,4.892,5.963,6.498,9.638
		c1.606,3.675,2.409,7.606,2.409,11.792c0,4.187-0.803,8.129-2.409,11.828s-3.772,6.9-6.498,9.602
		c-2.727,2.701-5.927,4.855-9.602,6.462S40.187,66.301,36,66.301c-4.186,0-8.117-0.803-11.792-2.409
		c-3.675-1.606-6.875-3.761-9.601-6.462s-4.892-5.902-6.498-9.602C6.502,44.129,5.699,40.187,5.699,36
		c0-4.186,0.803-8.117,2.41-11.792c1.606-3.675,3.772-6.887,6.498-9.638c2.726-2.75,5.926-4.916,9.601-6.498
		C27.883,6.49,31.814,5.699,36,5.699z M8.401,36c0,2.774,0.414,5.464,1.241,8.068c0.827,2.604,1.983,5.001,3.468,7.191
		c1.484,2.19,3.225,4.149,5.22,5.878c1.996,1.728,4.235,3.103,6.717,4.125c0.244-0.341,0.584-0.754,1.022-1.241
		c0.438-0.486,1.046-1.047,1.825-1.68c0-0.243,0.024-0.486,0.073-0.729c0-0.243,0.012-0.463,0.037-0.657s-0.012-0.39-0.109-0.584
		l2.482-1.388c0.049-0.535-0.024-1.144-0.219-1.825c-0.194-0.584-0.511-1.302-0.949-2.154c-0.438-0.852-1.119-1.837-2.044-2.957
		c-0.292,0.195-0.462,0.341-0.511,0.438c-0.098,0.098-0.146,0.17-0.146,0.219l-0.438,0.292l-0.438-0.072
		c-3.066-0.974-5.524-1.911-7.374-2.812c-1.85-0.9-3.286-1.691-4.308-2.373c-1.022-0.682-1.716-1.229-2.081-1.643
		c-0.365-0.414-0.572-0.669-0.621-0.767l-0.146-0.438l0.146-0.364c0.244-0.585,0.779-1.06,1.606-1.424
		c0.828-0.365,1.509-0.597,2.044-0.694l-0.073-0.584c-0.292-0.292-0.438-0.535-0.438-0.729l-0.146-0.22v-0.073
		c0-4.381,0.499-8.202,1.497-11.463c0.998-3.261,2.519-5.914,4.563-7.958c0.974-1.071,2.044-1.911,3.213-2.519
		c1.168-0.608,2.324-1.095,3.468-1.46c1.144-0.365,2.275-0.608,3.395-0.73c1.12-0.122,2.142-0.182,3.066-0.182h1.387l-0.438-3.943
		c-3.65,0.195-7.046,1.046-10.186,2.555c-3.139,1.509-5.877,3.493-8.214,5.951c-2.336,2.458-4.186,5.318-5.549,8.579
		C9.082,28.894,8.401,32.349,8.401,36z M33.152,36.365c-1.655,0.389-3.517,0.778-5.585,1.168s-3.979,0.706-5.731,0.949
		c-2.093,0.292-4.21,0.584-6.353,0.876c-0.438,0.098-0.827,0.256-1.168,0.475c-0.341,0.22-0.633,0.426-0.876,0.621
		c-0.243,0.194-0.462,0.438-0.657,0.729c0.292-0.048,0.827-0.134,1.606-0.255c0.779-0.122,1.704-0.268,2.775-0.438
		c1.071-0.17,2.227-0.377,3.468-0.62c1.241-0.244,2.495-0.487,3.76-0.73c2.969-0.535,6.279-1.144,9.93-1.825
		c-0.049-0.536-0.122-1.071-0.219-1.606c-0.097-0.39-0.183-0.754-0.255-1.095c-0.073-0.341-0.158-0.56-0.256-0.657
		c-0.048-0.049-0.085,0.061-0.109,0.329s-0.061,0.547-0.109,0.84C33.323,35.513,33.25,35.927,33.152,36.365z M25.997,36.365
		c0.633-0.098,0.937-0.219,0.913-0.365s-0.438-0.243-1.241-0.292s-2.008-0.024-3.614,0.073c-1.606,0.098-3.675,0.292-6.206,0.584
		l0.219,1.825c1.363-0.292,2.677-0.535,3.942-0.73c1.12-0.194,2.227-0.401,3.322-0.62C24.427,36.621,25.315,36.462,25.997,36.365z
		 M17.819,33.298c0.195-2.92,0.511-5.342,0.949-7.265c0.438-1.923,0.876-3.444,1.314-4.563c0.535-1.363,1.095-2.41,1.679-3.14
		c-1.509,1.46-2.653,3.14-3.432,5.038s-1.363,3.724-1.752,5.476c-0.438,1.996-0.657,4.064-0.657,6.206
		c1.46-0.243,2.945-0.511,4.454-0.803s2.92-0.535,4.235-0.73c1.509-0.195,2.945-0.414,4.308-0.657c0.195-0.146,0.195-0.243,0-0.292
		c-0.194-0.049-0.535-0.073-1.022-0.073s-1.059,0.012-1.716,0.037s-1.375,0.061-2.154,0.11
		C22.273,32.788,20.205,33.006,17.819,33.298z M33.518,15.629c-0.049,0-0.596,0.012-1.643,0.037
		c-1.046,0.024-2.275,0.329-3.687,0.913c-1.412,0.584-2.811,1.606-4.198,3.067c-1.387,1.46-2.446,3.602-3.176,6.425
		c-0.146,0.535-0.219,1.022-0.219,1.46c0,0.39,0.085,0.754,0.255,1.095s0.523,0.56,1.059,0.657c0.049,0.049,0.122,0.073,0.219,0.073
		c0.097,0.048,0.268,0.073,0.511,0.073l1.533-5.622l0.657,4.162c0.048-0.146,0.097-0.292,0.146-0.438
		c0.048-0.146,0.097-0.316,0.146-0.511c0.146-0.487,0.34-0.974,0.584-1.46c0.243-0.39,0.572-0.828,0.986-1.314
		c0.414-0.487,0.985-0.925,1.716-1.314l-0.219-4.454l3.651-0.876L31.4,18.55l-2.263,0.584l0.365,3.578l0.511,5.184l1.387-0.219
		c-0.73-0.389-1.119-1.071-1.168-2.044c0-0.876,0.389-1.533,1.168-1.971c-0.34,0.438-0.511,0.9-0.511,1.387
		c0,0.536,0.194,0.998,0.584,1.387c0.389,0.39,0.852,0.584,1.387,0.584c0.536,0,1.01-0.195,1.424-0.584
		c0.414-0.389,0.621-0.852,0.621-1.387v-0.073c0.39,0.146,0.584,0.462,0.584,0.949c0,0.487-0.097,0.852-0.292,1.096l3.359-0.438
		c-0.049-0.389-0.073-0.73-0.073-1.022s-0.049-0.608-0.146-0.949c0.194,0.097,0.328,0.122,0.401,0.073
		c0.072-0.048,0.207-0.024,0.401,0.073c0.049,0.487,0.098,0.913,0.146,1.278c0.049,0.365,0.098,0.669,0.146,0.913
		c0.146,0.73,0.414,1.46,0.803,2.19l0.512,1.022c0.243,0.682,0.548,1.278,0.912,1.789c0.365,0.511,0.719,0.937,1.059,1.278
		c0.146-0.925,0.293-2.032,0.438-3.322c0.146-1.29,0.183-2.641,0.109-4.052s-0.255-2.799-0.548-4.162
		c-0.292-1.363-0.729-2.604-1.313-3.724c-0.682-0.389-1.351-0.718-2.008-0.985c-0.657-0.268-1.327-0.523-2.008-0.767l0.219,1.387
		l-2.044,0.365l-0.219-2.19c-0.341-0.098-0.669-0.146-0.985-0.146S33.761,15.629,33.518,15.629z M34.978,13.366
		c-1.12,0-2.142,0.073-3.067,0.219c-0.925,0.146-1.728,0.292-2.409,0.438c-0.828,0.194-1.582,0.389-2.264,0.584
		c-1.12,0.487-1.704,0.791-1.752,0.913c-0.048,0.122,0.098,0.134,0.438,0.037c0.39-0.097,1.022-0.268,1.898-0.511
		c1.752-0.389,3.225-0.657,4.417-0.803s2.154-0.17,2.884-0.073L34.978,13.366z M36,39.942c-1.266,0.098-2.41,0.438-3.432,1.022
		c-0.876,0.438-1.765,1.12-2.665,2.045s-1.545,2.19-1.935,3.796c0.536-0.681,1.193-1.436,1.972-2.263
		c0.681-0.682,1.521-1.437,2.519-2.264C33.457,41.452,34.637,40.673,36,39.942z M28.699,24.975l-0.511,0.219l0.219,2.044
		l0.657,0.146L28.699,24.975z M53.158,50.968c0.438-0.146,0.597-0.231,0.475-0.256s-0.328-0.012-0.62,0.037
		c-0.39,0.049-0.901,0.121-1.534,0.219c-0.778,0.098-1.545,0.158-2.3,0.183c-0.754,0.024-1.399,0.012-1.935-0.036
		c-0.682-0.049-1.339-0.098-1.972-0.146c-1.168-0.146-2.166-0.231-2.993-0.256s-1.558-0.012-2.19,0.037
		c-0.682,0.049-1.266,0.121-1.752,0.219c-1.314,0.292-2.361,0.682-3.14,1.168c-0.779,0.487-1.412,0.949-1.898,1.388
		c-0.535,0.535-0.9,1.095-1.095,1.68c0.584-0.828,1.399-1.437,2.446-1.826c1.046-0.389,2.081-0.705,3.103-0.949
		c1.217-0.194,2.435-0.292,3.651-0.292c1.606,0.146,3.103,0.171,4.49,0.073c1.387-0.098,2.604-0.243,3.65-0.438
		c1.047-0.195,1.898-0.378,2.556-0.548C52.757,51.053,53.109,50.968,53.158,50.968z M63.234,32.13
		c-0.438-3.359-1.461-6.474-3.066-9.346c-1.606-2.872-3.614-5.367-6.024-7.484c-2.409-2.118-5.159-3.797-8.25-5.038
		S39.505,8.401,36,8.401l0.657,4.308c1.46,0.146,2.507,0.341,3.14,0.584l0.584-0.438l0.438-0.219l0.438,0.219
		c2.288,1.314,4.466,2.75,6.535,4.308c2.068,1.558,4.027,3.164,5.877,4.819c1.851,1.655,3.566,3.346,5.147,5.074
		C60.398,28.784,61.871,30.475,63.234,32.13z M36.949,14.461c0.535,0.195,1.083,0.401,1.643,0.621s1.132,0.45,1.716,0.694
		c-0.243-0.39-0.462-0.73-0.657-1.022c-0.194-0.292-0.365-0.56-0.511-0.803c-0.827-0.195-1.582-0.341-2.264-0.438L36.949,14.461z
		 M47.901,46.076c-0.876,0.049-1.825,0.194-2.848,0.438c-0.827,0.195-1.813,0.463-2.957,0.804s-2.349,0.827-3.614,1.46
		c1.119-0.146,2.239-0.316,3.358-0.511c0.974-0.195,2.008-0.475,3.104-0.84C46.039,47.062,47.025,46.611,47.901,46.076z
		 M41.914,16.651c2.239,1.217,4.417,2.653,6.535,4.308c2.117,1.655,4.125,3.383,6.023,5.184c1.898,1.801,3.639,3.578,5.221,5.33
		s2.884,3.237,3.906,4.454c0-0.243,0-0.475,0-0.693c0-0.219-0.049-0.475-0.146-0.767c-3.164-3.797-5.926-6.875-8.287-9.236
		c-2.36-2.361-4.393-4.247-6.097-5.659c-1.995-1.606-3.699-2.799-5.11-3.578c-0.536-0.341-1.096-0.657-1.68-0.949
		s-1.144-0.511-1.68-0.657c0.292,0.39,0.548,0.779,0.767,1.168C41.586,15.945,41.769,16.311,41.914,16.651z M45.638,35.489
		c0.925,0.244,2.081,0.596,3.469,1.059c1.387,0.462,2.871,0.974,4.453,1.533s3.177,1.156,4.782,1.789
		c1.606,0.633,3.14,1.217,4.601,1.752c0.049-0.243,0.097-0.463,0.146-0.657s0.098-0.414,0.146-0.657
		c-0.341-0.146-0.682-0.316-1.022-0.511c-0.341-0.195-0.633-0.365-0.876-0.512c-0.292-0.194-0.56-0.34-0.804-0.438
		c-1.119-0.487-2.385-1.071-3.796-1.752c-1.412-0.682-2.787-1.363-4.126-2.045c-1.338-0.682-2.531-1.363-3.577-2.044
		c-1.047-0.681-1.74-1.278-2.081-1.789c-0.341-0.511-0.243-0.925,0.292-1.241s1.752-0.475,3.65-0.475l-5.038-6.571
		c1.071,0.876,2.045,1.776,2.921,2.701c0.779,0.73,1.582,1.485,2.409,2.264c0.828,0.779,1.485,1.363,1.972,1.752
		c0.194,0,0.39,0.012,0.584,0.036c0.195,0.024,0.414,0.037,0.657,0.037c-0.974-1.314-2.093-2.604-3.358-3.87
		c-1.071-1.12-2.288-2.3-3.65-3.541c-1.363-1.241-2.848-2.373-4.454-3.396c0.438,1.168,0.754,2.385,0.949,3.651
		c0.194,1.266,0.304,2.531,0.328,3.797s-0.012,2.446-0.109,3.541s-0.17,2.008-0.219,2.738c-0.098,0.292-0.146,0.547-0.146,0.767
		c0,0.219-0.024,0.475-0.073,0.767c0.487,0.438,0.949,0.779,1.388,1.022C45.248,35.343,45.443,35.44,45.638,35.489z M54.618,56.225
		c1.704-1.509,3.177-3.225,4.418-5.147s2.251-3.979,3.03-6.17c-1.412-0.243-2.836-0.522-4.271-0.839
		c-1.437-0.316-2.763-0.621-3.979-0.913s-2.288-0.535-3.213-0.73c-0.925-0.194-1.582-0.34-1.971-0.438
		c0,0.486,0.061,1.034,0.182,1.643c0.122,0.608,0.378,1.205,0.768,1.789l0.876-0.438c0.292,0.73,0.657,1.437,1.095,2.117
		c0.39,0.536,0.828,1.096,1.314,1.68s1.071,1.047,1.752,1.388c0.195,0.194,0.316,0.511,0.365,0.949c0.049,0.389,0,0.9-0.146,1.533
		c-0.146,0.633-0.438,1.411-0.877,2.336c0,0.049,0.024,0.098,0.073,0.146c0.146,0.146,0.292,0.243,0.438,0.292v0.292
		C54.473,55.763,54.521,55.933,54.618,56.225z"/>
</g>
</svg>
