<?xml version="1.0" encoding="UTF-8" standalone="no"?>
<!-- Generator: Adobe Illustrator 16.0.0, SVG Export Plug-In . SVG Version: 6.00 Build 0)  -->

<svg
   version="1.1"
   x="0px"
   y="0px"
   width="124.6025"
   height="60.602001"
   viewBox="0 0 124.6025 60.602001"
   enable-background="new 0 0 72 72"
   xml:space="preserve"
   id="svg1"
   sodipodi:docname="weapons-team-offensive-retro.svg"
   inkscape:version="1.3.2 (091e20e, 2023-11-25, custom)"
   xmlns:inkscape="http://www.inkscape.org/namespaces/inkscape"
   xmlns:sodipodi="http://sodipodi.sourceforge.net/DTD/sodipodi-0.dtd"
   xmlns="http://www.w3.org/2000/svg"
   xmlns:svg="http://www.w3.org/2000/svg"><defs
   id="defs1" /><sodipodi:namedview
   id="namedview1"
   pagecolor="#ffffff"
   bordercolor="#000000"
   borderopacity="0.25"
   inkscape:showpageshadow="2"
   inkscape:pageopacity="0.0"
   inkscape:pagecheckerboard="0"
   inkscape:deskcolor="#d1d1d1"
   inkscape:zoom="11.347222"
   inkscape:cx="30.271726"
   inkscape:cy="30.271726"
   inkscape:window-width="1728"
   inkscape:window-height="1055"
   inkscape:window-x="1721"
   inkscape:window-y="-7"
   inkscape:window-maximized="1"
   inkscape:current-layer="svg1" />
<g
   id="wpn"
   transform="translate(-5.699,-5.699)">
	<path
   fill="#000000"
   d="m 36,5.699 c 4.187,0 8.117,0.791 11.792,2.373 3.675,1.582 6.875,3.748 9.602,6.498 2.726,2.75 4.892,5.963 6.498,9.638 1.606,3.675 2.409,7.606 2.409,11.792 0,4.187 -0.803,8.129 -2.409,11.828 -1.606,3.699 -3.772,6.9 -6.498,9.602 -2.727,2.701 -5.927,4.855 -9.602,6.462 -3.675,1.607 -7.605,2.409 -11.792,2.409 -4.186,0 -8.117,-0.803 -11.792,-2.409 C 20.533,62.286 17.333,60.131 14.607,57.43 11.881,54.729 9.715,51.528 8.109,47.828 6.502,44.129 5.699,40.187 5.699,36 c 0,-4.186 0.803,-8.117 2.41,-11.792 1.606,-3.675 3.772,-6.887 6.498,-9.638 2.726,-2.75 5.926,-4.916 9.601,-6.498 C 27.883,6.49 31.814,5.699 36,5.699 Z M 8.401,36 c 0,2.774 0.414,5.464 1.241,8.068 0.827,2.604 1.983,5.001 3.468,7.191 1.484,2.19 3.225,4.149 5.22,5.878 1.996,1.728 4.235,3.103 6.717,4.125 0.244,-0.341 0.584,-0.754 1.022,-1.241 0.438,-0.486 1.046,-1.047 1.825,-1.68 0,-0.243 0.024,-0.486 0.073,-0.729 0,-0.243 0.012,-0.463 0.037,-0.657 0.025,-0.194 -0.012,-0.39 -0.109,-0.584 l 2.482,-1.388 c 0.049,-0.535 -0.024,-1.144 -0.219,-1.825 -0.194,-0.584 -0.511,-1.302 -0.949,-2.154 -0.438,-0.852 -1.119,-1.837 -2.044,-2.957 -0.292,0.195 -0.462,0.341 -0.511,0.438 -0.098,0.098 -0.146,0.17 -0.146,0.219 l -0.438,0.292 -0.438,-0.072 c -3.066,-0.974 -5.524,-1.911 -7.374,-2.812 -1.85,-0.9 -3.286,-1.691 -4.308,-2.373 -1.022,-0.682 -1.716,-1.229 -2.081,-1.643 -0.365,-0.414 -0.572,-0.669 -0.621,-0.767 l -0.146,-0.438 0.146,-0.364 c 0.244,-0.585 0.779,-1.06 1.606,-1.424 0.828,-0.365 1.509,-0.597 2.044,-0.694 L 14.825,37.825 C 14.533,37.533 14.387,37.29 14.387,37.096 l -0.146,-0.22 v -0.073 c 0,-4.381 0.499,-8.202 1.497,-11.463 0.998,-3.261 2.519,-5.914 4.563,-7.958 0.974,-1.071 2.044,-1.911 3.213,-2.519 1.168,-0.608 2.324,-1.095 3.468,-1.46 1.144,-0.365 2.275,-0.608 3.395,-0.73 1.12,-0.122 2.142,-0.182 3.066,-0.182 H 34.83 L 34.392,8.548 c -3.65,0.195 -7.046,1.046 -10.186,2.555 -3.139,1.509 -5.877,3.493 -8.214,5.951 -2.336,2.458 -4.186,5.318 -5.549,8.579 C 9.082,28.894 8.401,32.349 8.401,36 Z m 24.751,0.365 c -1.655,0.389 -3.517,0.778 -5.585,1.168 -2.068,0.39 -3.979,0.706 -5.731,0.949 -2.093,0.292 -4.21,0.584 -6.353,0.876 -0.438,0.098 -0.827,0.256 -1.168,0.475 -0.341,0.22 -0.633,0.426 -0.876,0.621 -0.243,0.194 -0.462,0.438 -0.657,0.729 0.292,-0.048 0.827,-0.134 1.606,-0.255 0.779,-0.122 1.704,-0.268 2.775,-0.438 1.071,-0.17 2.227,-0.377 3.468,-0.62 1.241,-0.244 2.495,-0.487 3.76,-0.73 2.969,-0.535 6.279,-1.144 9.93,-1.825 -0.049,-0.536 -0.122,-1.071 -0.219,-1.606 -0.097,-0.39 -0.183,-0.754 -0.255,-1.095 -0.073,-0.341 -0.158,-0.56 -0.256,-0.657 -0.048,-0.049 -0.085,0.061 -0.109,0.329 -0.024,0.268 -0.061,0.547 -0.109,0.84 -0.05,0.387 -0.123,0.801 -0.221,1.239 z m -7.155,0 C 26.63,36.267 26.934,36.146 26.91,36 c -0.024,-0.146 -0.438,-0.243 -1.241,-0.292 -0.803,-0.049 -2.008,-0.024 -3.614,0.073 -1.606,0.098 -3.675,0.292 -6.206,0.584 l 0.219,1.825 c 1.363,-0.292 2.677,-0.535 3.942,-0.73 1.12,-0.194 2.227,-0.401 3.322,-0.62 1.095,-0.219 1.983,-0.378 2.665,-0.475 z m -8.178,-3.067 c 0.195,-2.92 0.511,-5.342 0.949,-7.265 0.438,-1.923 0.876,-3.444 1.314,-4.563 0.535,-1.363 1.095,-2.41 1.679,-3.14 -1.509,1.46 -2.653,3.14 -3.432,5.038 -0.779,1.898 -1.363,3.724 -1.752,5.476 -0.438,1.996 -0.657,4.064 -0.657,6.206 1.46,-0.243 2.945,-0.511 4.454,-0.803 1.509,-0.292 2.92,-0.535 4.235,-0.73 1.509,-0.195 2.945,-0.414 4.308,-0.657 0.195,-0.146 0.195,-0.243 0,-0.292 -0.194,-0.049 -0.535,-0.073 -1.022,-0.073 -0.487,0 -1.059,0.012 -1.716,0.037 -0.657,0.025 -1.375,0.061 -2.154,0.11 -1.752,0.146 -3.82,0.364 -6.206,0.656 z M 33.518,15.629 c -0.049,0 -0.596,0.012 -1.643,0.037 -1.046,0.024 -2.275,0.329 -3.687,0.913 -1.412,0.584 -2.811,1.606 -4.198,3.067 -1.387,1.46 -2.446,3.602 -3.176,6.425 -0.146,0.535 -0.219,1.022 -0.219,1.46 0,0.39 0.085,0.754 0.255,1.095 0.17,0.341 0.523,0.56 1.059,0.657 0.049,0.049 0.122,0.073 0.219,0.073 0.097,0.048 0.268,0.073 0.511,0.073 l 1.533,-5.622 0.657,4.162 c 0.048,-0.146 0.097,-0.292 0.146,-0.438 0.048,-0.146 0.097,-0.316 0.146,-0.511 0.146,-0.487 0.34,-0.974 0.584,-1.46 0.243,-0.39 0.572,-0.828 0.986,-1.314 0.414,-0.487 0.985,-0.925 1.716,-1.314 l -0.219,-4.454 3.651,-0.876 -0.439,0.948 -2.263,0.584 0.365,3.578 0.511,5.184 1.387,-0.219 c -0.73,-0.389 -1.119,-1.071 -1.168,-2.044 0,-0.876 0.389,-1.533 1.168,-1.971 -0.34,0.438 -0.511,0.9 -0.511,1.387 0,0.536 0.194,0.998 0.584,1.387 0.389,0.39 0.852,0.584 1.387,0.584 0.536,0 1.01,-0.195 1.424,-0.584 0.414,-0.389 0.621,-0.852 0.621,-1.387 v -0.073 c 0.39,0.146 0.584,0.462 0.584,0.949 0,0.487 -0.097,0.852 -0.292,1.096 l 3.359,-0.438 c -0.049,-0.389 -0.073,-0.73 -0.073,-1.022 0,-0.292 -0.049,-0.608 -0.146,-0.949 0.194,0.097 0.328,0.122 0.401,0.073 0.072,-0.048 0.207,-0.024 0.401,0.073 0.049,0.487 0.098,0.913 0.146,1.278 0.049,0.365 0.098,0.669 0.146,0.913 0.146,0.73 0.414,1.46 0.803,2.19 l 0.512,1.022 c 0.243,0.682 0.548,1.278 0.912,1.789 0.365,0.511 0.719,0.937 1.059,1.278 0.146,-0.925 0.293,-2.032 0.438,-3.322 0.146,-1.29 0.183,-2.641 0.109,-4.052 C 43.19,24.443 43.009,23.055 42.716,21.692 42.424,20.329 41.987,19.088 41.403,17.968 40.721,17.579 40.052,17.25 39.395,16.983 38.738,16.715 38.068,16.46 37.387,16.216 l 0.219,1.387 -2.044,0.365 -0.219,-2.19 c -0.341,-0.098 -0.669,-0.146 -0.985,-0.146 -0.316,0 -0.597,-0.003 -0.84,-0.003 z m 1.46,-2.263 c -1.12,0 -2.142,0.073 -3.067,0.219 -0.925,0.146 -1.728,0.292 -2.409,0.438 -0.828,0.194 -1.582,0.389 -2.264,0.584 -1.12,0.487 -1.704,0.791 -1.752,0.913 -0.048,0.122 0.098,0.134 0.438,0.037 0.39,-0.097 1.022,-0.268 1.898,-0.511 1.752,-0.389 3.225,-0.657 4.417,-0.803 1.192,-0.146 2.154,-0.17 2.884,-0.073 z M 36,39.942 c -1.266,0.098 -2.41,0.438 -3.432,1.022 -0.876,0.438 -1.765,1.12 -2.665,2.045 -0.9,0.925 -1.545,2.19 -1.935,3.796 0.536,-0.681 1.193,-1.436 1.972,-2.263 0.681,-0.682 1.521,-1.437 2.519,-2.264 0.998,-0.826 2.178,-1.605 3.541,-2.336 z m -7.301,-14.967 -0.511,0.219 0.219,2.044 0.657,0.146 z m 24.459,25.993 c 0.438,-0.146 0.597,-0.231 0.475,-0.256 -0.122,-0.025 -0.328,-0.012 -0.62,0.037 -0.39,0.049 -0.901,0.121 -1.534,0.219 -0.778,0.098 -1.545,0.158 -2.3,0.183 -0.754,0.024 -1.399,0.012 -1.935,-0.036 -0.682,-0.049 -1.339,-0.098 -1.972,-0.146 -1.168,-0.146 -2.166,-0.231 -2.993,-0.256 -0.827,-0.025 -1.558,-0.012 -2.19,0.037 -0.682,0.049 -1.266,0.121 -1.752,0.219 -1.314,0.292 -2.361,0.682 -3.14,1.168 -0.779,0.487 -1.412,0.949 -1.898,1.388 -0.535,0.535 -0.9,1.095 -1.095,1.68 0.584,-0.828 1.399,-1.437 2.446,-1.826 1.046,-0.389 2.081,-0.705 3.103,-0.949 1.217,-0.194 2.435,-0.292 3.651,-0.292 1.606,0.146 3.103,0.171 4.49,0.073 1.387,-0.098 2.604,-0.243 3.65,-0.438 1.047,-0.195 1.898,-0.378 2.556,-0.548 0.657,-0.172 1.009,-0.257 1.058,-0.257 z M 63.234,32.13 C 62.796,28.771 61.773,25.656 60.168,22.784 58.562,19.912 56.554,17.417 54.144,15.3 51.735,13.182 48.985,11.503 45.894,10.262 42.803,9.021 39.505,8.401 36,8.401 l 0.657,4.308 c 1.46,0.146 2.507,0.341 3.14,0.584 l 0.584,-0.438 0.438,-0.219 0.438,0.219 c 2.288,1.314 4.466,2.75 6.535,4.308 2.068,1.558 4.027,3.164 5.877,4.819 1.851,1.655 3.566,3.346 5.147,5.074 1.582,1.728 3.055,3.419 4.418,5.074 z M 36.949,14.461 c 0.535,0.195 1.083,0.401 1.643,0.621 0.56,0.22 1.132,0.45 1.716,0.694 -0.243,-0.39 -0.462,-0.73 -0.657,-1.022 -0.194,-0.292 -0.365,-0.56 -0.511,-0.803 -0.827,-0.195 -1.582,-0.341 -2.264,-0.438 z m 10.952,31.615 c -0.876,0.049 -1.825,0.194 -2.848,0.438 -0.827,0.195 -1.813,0.463 -2.957,0.804 -1.144,0.341 -2.349,0.827 -3.614,1.46 1.119,-0.146 2.239,-0.316 3.358,-0.511 0.974,-0.195 2.008,-0.475 3.104,-0.84 1.095,-0.365 2.081,-0.816 2.957,-1.351 z M 41.914,16.651 c 2.239,1.217 4.417,2.653 6.535,4.308 2.117,1.655 4.125,3.383 6.023,5.184 1.898,1.801 3.639,3.578 5.221,5.33 1.582,1.752 2.884,3.237 3.906,4.454 0,-0.243 0,-0.475 0,-0.693 0,-0.219 -0.049,-0.475 -0.146,-0.767 -3.164,-3.797 -5.926,-6.875 -8.287,-9.236 -2.36,-2.361 -4.393,-4.247 -6.097,-5.659 -1.995,-1.606 -3.699,-2.799 -5.11,-3.578 -0.536,-0.341 -1.096,-0.657 -1.68,-0.949 -0.584,-0.292 -1.144,-0.511 -1.68,-0.657 0.292,0.39 0.548,0.779 0.767,1.168 0.22,0.389 0.403,0.755 0.548,1.095 z m 3.724,18.838 c 0.925,0.244 2.081,0.596 3.469,1.059 1.387,0.462 2.871,0.974 4.453,1.533 1.582,0.559 3.177,1.156 4.782,1.789 1.606,0.633 3.14,1.217 4.601,1.752 0.049,-0.243 0.097,-0.463 0.146,-0.657 0.049,-0.194 0.098,-0.414 0.146,-0.657 -0.341,-0.146 -0.682,-0.316 -1.022,-0.511 -0.341,-0.195 -0.633,-0.365 -0.876,-0.512 -0.292,-0.194 -0.56,-0.34 -0.804,-0.438 -1.119,-0.487 -2.385,-1.071 -3.796,-1.752 -1.412,-0.682 -2.787,-1.363 -4.126,-2.045 -1.338,-0.682 -2.531,-1.363 -3.577,-2.044 -1.047,-0.681 -1.74,-1.278 -2.081,-1.789 -0.341,-0.511 -0.243,-0.925 0.292,-1.241 0.535,-0.316 1.752,-0.475 3.65,-0.475 L 45.857,22.93 c 1.071,0.876 2.045,1.776 2.921,2.701 0.779,0.73 1.582,1.485 2.409,2.264 0.828,0.779 1.485,1.363 1.972,1.752 0.194,0 0.39,0.012 0.584,0.036 0.195,0.024 0.414,0.037 0.657,0.037 -0.974,-1.314 -2.093,-2.604 -3.358,-3.87 -1.071,-1.12 -2.288,-2.3 -3.65,-3.541 -1.363,-1.241 -2.848,-2.373 -4.454,-3.396 0.438,1.168 0.754,2.385 0.949,3.651 0.194,1.266 0.304,2.531 0.328,3.797 0.024,1.266 -0.012,2.446 -0.109,3.541 -0.097,1.095 -0.17,2.008 -0.219,2.738 -0.098,0.292 -0.146,0.547 -0.146,0.767 0,0.219 -0.024,0.475 -0.073,0.767 0.487,0.438 0.949,0.779 1.388,1.022 0.192,0.147 0.387,0.244 0.582,0.293 z m 8.98,20.736 c 1.704,-1.509 3.177,-3.225 4.418,-5.147 1.241,-1.922 2.251,-3.979 3.03,-6.17 -1.412,-0.243 -2.836,-0.522 -4.271,-0.839 -1.437,-0.316 -2.763,-0.621 -3.979,-0.913 -1.216,-0.292 -2.288,-0.535 -3.213,-0.73 -0.925,-0.194 -1.582,-0.34 -1.971,-0.438 0,0.486 0.061,1.034 0.182,1.643 0.122,0.608 0.378,1.205 0.768,1.789 l 0.876,-0.438 c 0.292,0.73 0.657,1.437 1.095,2.117 0.39,0.536 0.828,1.096 1.314,1.68 0.486,0.584 1.071,1.047 1.752,1.388 0.195,0.194 0.316,0.511 0.365,0.949 0.049,0.389 0,0.9 -0.146,1.533 -0.146,0.633 -0.438,1.411 -0.877,2.336 0,0.049 0.024,0.098 0.073,0.146 0.146,0.146 0.292,0.243 0.438,0.292 v 0.292 c 10e-4,0.048 0.049,0.218 0.146,0.51 z"
   id="path1" />
</g>
<g
   id="off"
   transform="translate(58.3015,-5.699)">
	<path
   fill="#000000"
   d="m 36,5.736 c 4.187,0 8.117,0.791 11.792,2.373 3.675,1.582 6.875,3.748 9.602,6.498 2.726,2.75 4.892,5.951 6.498,9.601 1.606,3.651 2.409,7.569 2.409,11.755 0,4.137 -0.803,8.056 -2.409,11.755 -1.606,3.699 -3.772,6.912 -6.498,9.638 -2.727,2.726 -5.927,4.892 -9.602,6.498 -3.675,1.606 -7.605,2.41 -11.792,2.41 -4.138,0 -8.044,-0.804 -11.719,-2.41 C 20.606,62.248 17.393,60.082 14.643,57.356 11.893,54.63 9.714,51.418 8.108,47.718 6.502,44.019 5.698,40.1 5.698,35.963 c 0,-4.186 0.803,-8.104 2.41,-11.755 1.606,-3.65 3.784,-6.851 6.535,-9.601 2.75,-2.75 5.963,-4.917 9.638,-6.498 C 27.956,6.527 31.862,5.736 36,5.736 Z M 8.62,35.963 c 0,1.12 0.073,2.227 0.219,3.322 0.146,1.096 0.341,2.13 0.584,3.104 0.438,0.292 0.852,0.56 1.241,0.803 0.049,-0.243 0.073,-0.45 0.073,-0.62 0,-0.17 0.048,-0.377 0.146,-0.621 0.243,-1.168 0.475,-2.287 0.693,-3.358 0.219,-1.07 0.475,-2.117 0.767,-3.14 -0.681,-0.194 -1.314,-0.426 -1.898,-0.693 -0.584,-0.268 -1.168,-0.621 -1.752,-1.059 0,0.389 -0.012,0.767 -0.037,1.131 -0.024,0.365 -0.036,0.742 -0.036,1.131 z m 53.665,-1.314 c 0,0.097 0.098,0.17 0.292,0.219 0.194,0.049 0.462,0.195 0.803,0.438 -0.048,-2.482 -0.426,-4.867 -1.132,-7.155 -0.705,-2.288 -1.679,-4.441 -2.92,-6.461 -1.241,-2.02 -2.714,-3.858 -4.418,-5.513 -1.703,-1.655 -3.602,-3.042 -5.694,-4.162 -0.292,0.097 -0.572,0.182 -0.84,0.255 -0.268,0.073 -0.548,0.134 -0.84,0.183 0.876,1.46 1.46,3.006 1.752,4.636 0.293,1.631 0.22,3.298 -0.219,5.001 0.925,0.146 1.813,0.292 2.665,0.438 0.852,0.146 1.57,0.268 2.154,0.365 0.682,0.146 1.314,0.243 1.898,0.292 h -1.972 c -0.584,0 -1.302,-0.012 -2.154,-0.037 -0.852,-0.024 -1.788,-0.085 -2.811,-0.183 -0.049,0.098 -0.098,0.231 -0.146,0.402 -0.048,0.171 -0.097,0.329 -0.146,0.475 -0.438,1.12 -1.01,2.117 -1.716,2.994 -0.706,0.876 -1.473,1.655 -2.3,2.336 l -2.264,-1.46 c 1.509,-1.12 2.726,-2.726 3.65,-4.819 v -0.146 c -1.606,-0.049 -3.164,-0.195 -4.673,-0.438 -1.606,-0.146 -3.151,-0.316 -4.636,-0.511 -1.484,-0.195 -2.811,-0.438 -3.979,-0.73 -0.536,0.681 -1.168,1.29 -1.898,1.825 -0.73,0.535 -1.704,0.925 -2.921,1.168 1.46,-0.633 2.653,-1.704 3.578,-3.212 -0.389,-0.097 -0.767,-0.183 -1.131,-0.255 -0.365,-0.073 -0.669,-0.134 -0.913,-0.183 -0.292,-0.049 -0.536,-0.098 -0.73,-0.146 h 0.803 c 0.243,0 0.572,0.012 0.986,0.036 0.414,0.024 0.864,0.061 1.351,0.11 0.779,-1.704 1.095,-3.334 0.949,-4.892 -0.876,0.146 -1.691,0.256 -2.446,0.329 -0.754,0.073 -1.399,0.158 -1.935,0.255 -0.584,0.098 -1.144,0.146 -1.679,0.146 0.487,-0.194 1.046,-0.389 1.679,-0.584 0.536,-0.195 1.144,-0.426 1.825,-0.693 0.682,-0.268 1.436,-0.548 2.264,-0.84 -0.487,-1.898 -1.533,-3.456 -3.14,-4.673 -2.628,0.682 -5.086,1.716 -7.375,3.103 -2.288,1.387 -4.32,3.055 -6.097,5.001 -1.776,1.947 -3.249,4.138 -4.417,6.571 -1.168,2.434 -1.972,5.014 -2.41,7.739 1.217,0.974 2.482,1.582 3.797,1.826 0.243,-0.779 0.462,-1.485 0.657,-2.118 0.195,-0.633 0.365,-1.217 0.511,-1.752 0.195,-0.535 0.365,-1.022 0.511,-1.46 v 1.533 c 0,0.487 -0.024,1.059 -0.073,1.716 -0.048,0.657 -0.097,1.424 -0.146,2.3 1.071,0 2.118,-0.17 3.14,-0.511 V 30.34 c 0.049,0.195 0.098,0.462 0.146,0.803 0.049,0.244 0.085,0.548 0.11,0.913 0.024,0.365 0.085,0.743 0.182,1.132 0.584,-0.243 1.071,-0.511 1.46,-0.803 0.876,-0.584 1.606,-1.29 2.19,-2.117 0.584,-0.828 1.022,-1.704 1.314,-2.628 -0.098,1.314 -0.475,2.531 -1.132,3.65 -0.657,1.119 -1.545,2.093 -2.665,2.92 -0.195,0.195 -0.487,0.341 -0.876,0.438 0.194,1.168 0.401,2.397 0.621,3.688 0.219,1.289 0.377,2.641 0.475,4.052 0.048,0.243 0.073,0.523 0.073,0.84 0,0.317 0.049,0.645 0.146,0.985 3.018,-0.925 5.33,-2.774 6.937,-5.549 l 1.46,1.095 c -0.681,1.753 -1.752,3.273 -3.212,4.563 -1.46,1.29 -3.115,2.179 -4.965,2.665 0.097,1.266 0.146,2.41 0.146,3.432 0,1.022 0.024,1.947 0.073,2.774 0,0.877 0.024,1.729 0.073,2.556 -0.098,-0.729 -0.244,-1.558 -0.438,-2.482 -0.146,-0.778 -0.304,-1.691 -0.475,-2.738 -0.17,-1.046 -0.329,-2.153 -0.475,-3.321 -0.682,0.146 -1.412,0.219 -2.19,0.219 -1.314,0 -2.58,-0.219 -3.797,-0.657 -0.049,0.39 -0.122,0.779 -0.219,1.168 -0.097,0.39 -0.219,0.779 -0.365,1.169 1.217,2.093 2.665,4.016 4.344,5.768 1.679,1.752 3.553,3.249 5.622,4.49 2.069,1.241 4.284,2.215 6.644,2.921 2.361,0.706 4.832,1.059 7.411,1.059 1.119,0 2.313,-0.073 3.578,-0.219 0.633,-1.12 1.313,-1.972 2.044,-2.556 -0.098,0.049 -0.231,0.073 -0.401,0.073 -0.171,0 -0.329,0 -0.475,0 H 40.6 40.528 40.382 40.309 L 40.236,60.57 H 40.164 40.018 L 39.872,60.424 H 39.799 V 60.352 H 39.65 l -0.072,-0.146 h -0.073 c -0.049,0 -0.073,-0.024 -0.073,-0.073 -0.049,0 -0.073,-0.024 -0.073,-0.073 v -0.072 -0.073 h -0.146 v -0.146 c -0.049,0 -0.073,-0.023 -0.073,-0.072 v -0.146 h -0.073 c -0.049,0 -0.073,-0.024 -0.073,-0.073 0,-0.097 -0.024,-0.146 -0.072,-0.146 V 59.259 59.113 59.04 l -0.146,-0.146 v -0.073 -0.219 c 0,-0.876 0.134,-1.473 0.401,-1.789 0.267,-0.316 0.597,-0.522 0.986,-0.62 l 1.241,-0.292 0.219,-3.14 C 41.525,52.518 41.307,52.092 40.966,51.483 40.625,50.875 40.309,50.084 40.017,49.111 39.774,48.624 39.652,48.186 39.652,47.797 L 37.681,46.336 V 45.972 L 29.722,40.495 29.503,39.984 26.8,38.008 26.654,37.57 22.419,34.358 21.981,33.92 c 0,-0.146 0.073,-0.316 0.219,-0.511 V 33.19 c 0.098,0 0.146,-0.049 0.146,-0.146 h 0.073 V 32.97 h 0.146 v -0.146 h 0.073 0.146 l 0.511,0.219 4.454,3.066 h 0.292 l 2.556,1.68 h 0.584 l 8.177,5.11 0.438,-0.072 0.511,0.292 c 0.049,-0.098 0.098,-0.244 0.146,-0.438 0.048,-0.194 0.097,-0.341 0.146,-0.438 0.098,-0.244 0.231,-0.438 0.401,-0.585 0.171,-0.146 0.329,-0.316 0.475,-0.511 L 40.6,40.637 V 40.199 L 32.642,34.796 32.496,34.212 29.722,32.168 29.576,31.73 25.341,28.59 25.049,28.152 c 0,-0.195 0.024,-0.365 0.073,-0.511 l 0.146,-0.146 c 0,-0.048 0.024,-0.073 0.073,-0.073 v -0.219 h 0.146 V 27.13 h 0.073 0.146 l 0.511,0.292 3.286,2.044 h 0.073 0.146 l 0.511,0.219 3.358,2.264 h 0.657 l 3.651,2.41 h 0.365 l 4.308,2.774 h 0.146 l 2.702,1.533 c 0.243,-0.194 0.462,-0.292 0.657,-0.292 l 0.292,-0.146 0.292,-0.219 1.241,-0.219 0.876,-0.292 -1.022,-0.657 V 36.403 L 39.798,31 39.652,30.343 36.878,28.372 36.732,27.934 32.497,24.794 32.205,24.356 c -0.048,-0.049 -0.024,-0.244 0.073,-0.584 v -0.073 l 0.146,-0.073 v -0.073 h 0.073 v -0.146 h 0.146 v -0.073 h 0.073 0.146 l 0.511,0.219 4.454,2.92 0.438,0.073 2.556,1.606 h 0.438 l 8.324,5.111 h 0.364 l 3.651,2.044 0.876,-0.292 c 0,-0.097 0.121,-0.219 0.365,-0.365 h 0.072 0.146 0.073 0.146 l 0.73,-0.292 c 0.049,0 0.122,-0.024 0.219,-0.073 0.098,-0.049 0.195,-0.097 0.292,-0.146 h 0.146 0.073 0.146 0.073 0.584 c 0.292,0 0.463,0.024 0.511,0.073 0.244,0.098 0.536,0.268 0.877,0.511 0.341,0.244 0.584,0.438 0.729,0.584 l 0.22,-0.073 h 0.438 l 1.825,-0.584 h 0.146 z m -49.139,9.565 c 0.487,0.098 0.998,0.195 1.533,0.292 0.536,0.098 1.071,0.146 1.606,0.146 0.244,0 0.523,-0.024 0.84,-0.073 0.317,-0.049 0.645,-0.098 0.986,-0.146 -0.049,-0.341 -0.098,-0.682 -0.146,-1.022 -0.048,-0.341 -0.073,-0.682 -0.073,-1.022 -0.097,-1.363 -0.195,-2.677 -0.292,-3.942 -0.098,-1.266 -0.17,-2.41 -0.219,-3.432 -1.071,0.438 -2.166,0.657 -3.286,0.657 -0.048,1.071 -0.122,2.191 -0.219,3.359 -0.098,1.168 -0.268,2.312 -0.511,3.432 0,0.292 -0.024,0.584 -0.073,0.876 -0.048,0.291 -0.097,0.583 -0.146,0.875 z M 36,8.583 c -0.779,0 -1.582,0.048 -2.41,0.146 -0.827,0.097 -1.63,0.194 -2.409,0.292 0.73,0.584 1.363,1.266 1.898,2.044 0.535,0.779 0.925,1.606 1.168,2.482 1.363,-0.438 2.824,-0.901 4.381,-1.387 1.558,-0.487 3.163,-0.925 4.818,-1.314 0.195,0 0.341,-0.024 0.438,-0.073 C 43.641,10.481 43.372,10.226 43.08,10.006 42.788,9.787 42.472,9.556 42.131,9.313 40.234,8.827 38.19,8.583 36,8.583 Z m -1.533,6.718 c 0.097,1.704 -0.268,3.212 -1.095,4.527 -0.049,0.097 -0.098,0.207 -0.146,0.328 -0.049,0.122 -0.098,0.231 -0.146,0.329 1.168,0 2.482,0.049 3.943,0.146 1.46,0.098 2.993,0.244 4.6,0.438 0.779,0.048 1.558,0.134 2.337,0.255 0.778,0.122 1.581,0.231 2.409,0.329 0.438,-1.46 0.571,-2.933 0.401,-4.417 -0.17,-1.484 -0.62,-2.884 -1.351,-4.198 -0.292,0.097 -0.572,0.17 -0.84,0.219 -0.268,0.048 -0.548,0.122 -0.84,0.219 -1.606,0.39 -3.2,0.73 -4.782,1.022 -1.582,0.292 -3.079,0.559 -4.49,0.803 z"
   id="path1-2" />
</g></svg>
