<svg width="1620" height="478" viewBox="0 0 1620 478" fill="none" xmlns="http://www.w3.org/2000/svg">
<path d="M71.28 274.262V331.286C71.28 372.758 71.28 395.114 78.084 400.946C83.592 405.806 92.016 408.074 117.288 408.074C134.46 408.074 147.096 407.75 155.196 399.002C159.084 394.79 162.972 385.718 163.62 379.562C163.944 376.646 164.592 374.702 167.184 374.702C169.452 374.702 169.776 376.322 169.776 380.21C169.776 383.774 167.508 408.074 164.916 417.47C162.972 424.598 161.352 426.218 144.504 426.218C121.176 426.218 104.328 425.57 89.748 425.246C75.168 424.598 63.504 424.274 50.22 424.274C46.656 424.274 39.528 424.274 31.752 424.598C24.3 424.598 15.876 425.246 9.396 425.246C5.184 425.246 2.916 424.274 2.916 422.006C2.916 420.386 4.212 419.414 8.1 419.414C12.96 419.414 16.848 418.766 19.764 418.118C26.244 416.822 27.864 409.694 29.16 400.298C30.78 386.69 30.78 361.094 30.78 331.286V274.262C30.78 225.014 30.78 215.942 30.132 205.574C29.484 194.558 26.892 189.374 16.2 187.106C13.608 186.458 9.72 186.134 5.508 186.134C1.944 186.134 0 185.486 0 183.218C0 180.95 2.268 180.302 7.128 180.302C22.356 180.302 42.768 181.274 51.516 181.274C59.292 181.274 82.944 180.302 95.58 180.302C100.116 180.302 102.384 180.95 102.384 183.218C102.384 185.486 100.44 186.134 96.552 186.134C92.988 186.134 87.804 186.458 83.916 187.106C75.168 188.726 72.576 194.234 71.928 205.574C71.28 215.942 71.28 225.014 71.28 274.262Z" fill="white"/>
<path d="M272.312 331.286V274.262C272.312 225.014 272.312 215.942 271.664 205.574C271.016 194.558 268.424 189.374 257.732 187.106C255.14 186.458 249.632 186.134 245.096 186.134C241.532 186.134 239.588 185.486 239.588 183.218C239.588 180.95 241.856 180.302 246.716 180.302C255.464 180.302 264.86 180.626 272.96 180.626C281.384 180.95 288.836 181.274 293.372 181.274C303.74 181.274 368.216 181.274 374.372 180.95C380.528 180.302 385.712 179.654 388.304 179.006C389.924 178.682 391.868 177.71 393.488 177.71C395.108 177.71 395.432 179.006 395.432 180.626C395.432 182.894 393.812 186.782 392.84 201.686C392.516 204.926 391.868 219.182 391.22 223.07C390.896 224.69 390.248 226.634 387.98 226.634C385.712 226.634 385.064 225.014 385.064 222.098C385.064 219.83 384.74 214.322 383.12 210.434C380.852 204.602 377.612 200.714 361.412 198.77C355.904 198.122 321.884 197.474 315.404 197.474C313.784 197.474 313.136 198.446 313.136 200.714V282.686C313.136 284.954 313.46 286.25 315.404 286.25C322.532 286.25 359.792 286.25 367.244 285.602C375.02 284.954 379.88 283.982 382.796 280.742C385.064 278.15 386.36 276.53 387.98 276.53C389.276 276.53 390.248 277.178 390.248 279.122C390.248 281.066 388.952 286.25 387.656 302.774C387.332 309.254 386.36 322.214 386.36 324.482C386.36 327.074 386.36 330.638 383.444 330.638C381.176 330.638 380.528 329.342 380.528 327.722C380.204 324.482 380.204 320.27 379.232 316.058C377.612 309.578 373.076 304.718 361.088 303.422C354.932 302.774 322.856 302.45 315.08 302.45C313.46 302.45 313.136 303.746 313.136 305.69V331.286C313.136 342.302 312.812 372.11 313.136 381.506C313.784 403.862 318.968 408.722 352.016 408.722C360.44 408.722 374.048 408.722 382.472 404.834C390.896 400.946 394.784 394.142 397.052 380.858C397.7 377.294 398.348 375.998 400.616 375.998C403.208 375.998 403.208 378.59 403.208 381.83C403.208 389.282 400.616 411.314 398.996 417.794C396.728 426.218 393.812 426.218 381.5 426.218C357.2 426.218 339.38 425.57 325.448 425.246C311.516 424.598 301.472 424.274 291.752 424.274C288.188 424.274 281.06 424.274 273.284 424.598C265.832 424.598 257.408 425.246 250.928 425.246C246.716 425.246 244.448 424.274 244.448 422.006C244.448 420.386 245.744 419.414 249.632 419.414C254.492 419.414 258.38 418.766 261.296 418.118C267.776 416.822 269.396 409.694 270.692 400.298C272.312 386.69 272.312 361.094 272.312 331.286Z" fill="white"/>
<path d="M719.055 367.898V403.538C719.055 412.286 718.731 412.934 714.843 415.202C693.783 426.218 662.031 429.782 636.759 429.782C557.379 429.782 487.071 392.198 487.071 302.774C487.071 250.934 513.963 214.646 543.447 196.826C574.551 178.034 603.387 175.766 630.603 175.766C652.959 175.766 681.471 179.654 687.951 180.95C694.755 182.246 706.095 184.19 713.547 184.514C717.435 184.838 718.083 186.134 718.083 188.402C718.083 191.966 715.815 201.038 715.815 241.538C715.815 246.722 714.843 248.342 712.251 248.342C709.983 248.342 709.335 246.722 709.011 244.13C708.039 236.678 706.419 226.31 697.995 217.238C688.275 206.87 662.355 191.966 625.743 191.966C607.923 191.966 584.271 193.262 561.591 212.054C543.447 227.282 531.783 251.582 531.783 291.434C531.783 361.094 576.171 413.258 644.535 413.258C652.959 413.258 664.299 413.258 672.075 409.694C676.935 407.426 678.231 403.214 678.231 397.706V367.25C678.231 351.05 678.231 338.738 677.907 329.018C677.583 318.002 674.667 312.818 663.975 310.55C661.383 309.902 655.875 309.578 651.339 309.578C648.423 309.578 646.479 308.93 646.479 306.986C646.479 304.394 648.747 303.746 653.283 303.746C670.131 303.746 690.543 304.718 700.263 304.718C710.307 304.718 727.479 303.746 738.171 303.746C742.383 303.746 744.651 304.394 744.651 306.986C744.651 308.93 742.707 309.578 740.439 309.578C737.847 309.578 735.579 309.902 731.691 310.55C722.943 312.17 719.703 317.678 719.379 329.018C719.055 338.738 719.055 351.698 719.055 367.898Z" fill="white"/>
<path d="M939.939 340.682H867.687C866.067 340.682 865.419 341.33 864.771 343.274L847.275 389.606C844.035 397.706 842.415 405.482 842.415 409.37C842.415 415.202 845.331 419.414 855.375 419.414H860.235C864.123 419.414 865.095 420.062 865.095 422.006C865.095 424.598 863.151 425.246 859.587 425.246C849.219 425.246 835.287 424.274 825.243 424.274C821.679 424.274 803.859 425.246 787.011 425.246C782.799 425.246 780.855 424.598 780.855 422.006C780.855 420.062 782.151 419.414 784.743 419.414C787.659 419.414 792.195 419.09 794.787 418.766C809.691 416.822 815.847 405.806 822.327 389.606L903.651 186.134C907.539 176.738 909.483 173.174 912.723 173.174C915.639 173.174 917.583 176.09 920.823 183.542C928.599 201.362 980.439 333.554 1001.18 382.802C1013.49 411.962 1022.88 416.498 1029.69 418.118C1034.55 419.09 1039.41 419.414 1043.3 419.414C1045.89 419.414 1047.51 419.738 1047.51 422.006C1047.51 424.598 1044.59 425.246 1032.6 425.246C1020.94 425.246 997.287 425.246 971.367 424.598C965.535 424.274 961.647 424.274 961.647 422.006C961.647 420.062 962.943 419.414 966.183 419.09C968.451 418.442 970.719 415.526 969.099 411.638L943.179 342.95C942.531 341.33 941.559 340.682 939.939 340.682ZM874.167 324.482H933.783C935.403 324.482 935.727 323.51 935.403 322.538L906.243 242.51C905.919 241.214 905.595 239.594 904.623 239.594C903.651 239.594 903.003 241.214 902.679 242.51L872.871 322.214C872.547 323.51 872.871 324.482 874.167 324.482Z" fill="white"/>
<path d="M1242.94 429.782C1198.55 429.782 1161.29 420.062 1131.81 394.466C1100.06 366.602 1091.63 330.314 1091.63 298.886C1091.63 276.854 1098.44 238.622 1129.54 210.11C1152.87 188.726 1183.65 175.766 1231.93 175.766C1252.01 175.766 1264 177.062 1278.91 179.006C1291.22 180.626 1301.59 183.542 1311.31 184.514C1314.87 184.838 1316.17 186.458 1316.17 188.402C1316.17 190.994 1315.19 194.882 1314.55 206.222C1313.9 216.914 1314.22 234.734 1313.57 241.214C1313.25 246.074 1312.6 248.666 1309.69 248.666C1307.09 248.666 1306.45 246.074 1306.45 241.538C1306.12 231.494 1301.91 220.154 1293.81 211.73C1283.12 200.39 1257.85 191.642 1228.04 191.642C1199.85 191.642 1181.38 198.77 1167.13 211.73C1143.47 233.438 1137.32 264.218 1137.32 295.646C1137.32 372.758 1195.96 410.99 1239.38 410.99C1268.21 410.99 1285.71 407.75 1298.67 392.846C1304.18 386.69 1308.39 377.294 1309.69 371.462C1310.66 366.278 1311.31 364.982 1313.9 364.982C1316.17 364.982 1316.81 367.25 1316.81 369.842C1316.81 373.73 1312.93 401.918 1309.69 412.934C1308.07 418.442 1306.77 420.062 1301.26 422.33C1288.3 427.514 1263.68 429.782 1242.94 429.782Z" fill="white"/>
<path d="M1474.06 367.898V341.33C1474.06 323.834 1470.82 316.706 1466.61 307.31C1464.34 302.126 1420.93 230.846 1409.59 213.998C1401.49 202.01 1393.39 193.91 1387.23 190.346C1383.02 188.078 1377.51 186.134 1373.62 186.134C1371.03 186.134 1368.76 185.486 1368.76 183.218C1368.76 181.274 1371.03 180.302 1374.92 180.302C1380.75 180.302 1405.05 181.274 1415.74 181.274C1422.55 181.274 1435.83 180.302 1450.41 180.302C1453.65 180.302 1455.27 181.274 1455.27 183.218C1455.27 185.162 1453 185.486 1448.14 186.782C1445.23 187.43 1443.61 190.022 1443.61 192.614C1443.61 195.206 1445.23 199.094 1447.5 203.63C1452.03 213.35 1497.39 291.434 1502.58 300.506C1505.82 292.73 1546.64 221.45 1551.18 211.406C1554.42 204.278 1555.71 198.77 1555.71 194.558C1555.71 191.318 1554.42 187.754 1548.91 186.458C1545.99 185.81 1543.08 185.162 1543.08 183.218C1543.08 180.95 1544.7 180.302 1548.58 180.302C1559.28 180.302 1569.64 181.274 1579.04 181.274C1586.17 181.274 1607.55 180.302 1613.71 180.302C1617.27 180.302 1619.54 180.95 1619.54 182.894C1619.54 185.162 1616.95 186.134 1613.38 186.134C1610.14 186.134 1603.99 187.43 1599.13 190.022C1592.32 193.262 1588.76 197.15 1581.63 205.898C1570.94 218.858 1525.58 294.998 1519.75 308.93C1514.89 320.594 1514.89 330.638 1514.89 341.33V367.898C1514.89 373.082 1514.89 386.69 1515.86 400.298C1516.51 409.694 1519.42 416.822 1529.14 418.118C1533.68 418.766 1540.81 419.414 1545.34 419.414C1548.91 419.414 1550.53 420.386 1550.53 422.006C1550.53 424.274 1547.94 425.246 1543.72 425.246C1523.31 425.246 1502.9 424.274 1494.15 424.274C1486.05 424.274 1465.64 425.246 1453.65 425.246C1449.12 425.246 1446.52 424.598 1446.52 422.006C1446.52 420.386 1448.14 419.414 1451.71 419.414C1456.24 419.414 1460.13 418.766 1463.05 418.118C1469.53 416.822 1472.44 409.694 1473.09 400.298C1474.06 386.69 1474.06 373.082 1474.06 367.898Z" fill="white"/>
<path d="M1617.05 463.996L2.49168 463.996C22.8833 471.001 16.0802 477.84 152.395 477.84H1467.14C1603.46 477.84 1596.66 471.001 1617.05 463.996Z" fill="white"/>
<path d="M1617.05 138.96L2.49168 138.96C22.8833 131.954 16.0802 125.116 152.395 125.116H1467.14C1603.46 125.116 1596.66 131.954 1617.05 138.96Z" fill="white"/>
<path d="M501.925 63.1709H475.089C474.487 63.1709 474.247 63.4116 474.006 64.1336L467.508 81.3422C466.304 84.3507 465.702 87.2389 465.702 88.683C465.702 90.8491 466.786 92.4135 470.516 92.4135H472.321C473.765 92.4135 474.126 92.6542 474.126 93.3762C474.126 94.339 473.404 94.5796 472.081 94.5796C468.23 94.5796 463.055 94.2186 459.324 94.2186C458.001 94.2186 451.382 94.5796 445.124 94.5796C443.56 94.5796 442.838 94.339 442.838 93.3762C442.838 92.6542 443.319 92.4135 444.282 92.4135C445.365 92.4135 447.05 92.2932 448.013 92.1728C453.548 91.4508 455.835 87.3592 458.241 81.3422L488.447 5.76868C489.891 2.27882 490.613 0.955078 491.816 0.955078C492.899 0.955078 493.621 2.03814 494.825 4.80596C497.713 11.4247 516.967 60.5234 524.669 78.8151C529.242 89.6457 532.732 91.3305 535.259 91.9322C537.064 92.2932 538.869 92.4135 540.313 92.4135C541.276 92.4135 541.878 92.5339 541.878 93.3762C541.878 94.339 540.795 94.5796 536.342 94.5796C532.01 94.5796 523.225 94.5796 513.598 94.339C511.432 94.2186 509.988 94.2186 509.988 93.3762C509.988 92.6542 510.469 92.4135 511.672 92.2932C512.515 92.0525 513.357 90.9694 512.755 89.5254L503.128 64.0133C502.888 63.4116 502.527 63.1709 501.925 63.1709ZM477.496 57.1539H499.638C500.24 57.1539 500.36 56.7929 500.24 56.4318L489.409 26.7078C489.289 26.2265 489.169 25.6248 488.808 25.6248C488.447 25.6248 488.206 26.2265 488.086 26.7078L477.014 56.3115C476.894 56.7929 477.014 57.1539 477.496 57.1539Z" fill="white"/>
<path d="M571.385 59.681V38.5012C571.385 20.2095 571.385 16.84 571.144 12.9891C570.903 8.89752 569.94 6.97208 565.969 6.1297C565.007 5.88902 562.961 5.76868 561.276 5.76868C559.952 5.76868 559.23 5.528 559.23 4.68562C559.23 3.84324 560.073 3.60256 561.878 3.60256C568.256 3.60256 575.837 3.96358 578.364 3.96358C582.456 3.96358 591.602 3.60256 595.332 3.60256C602.914 3.60256 610.976 4.3246 617.475 8.77718C620.844 11.0636 625.658 17.201 625.658 25.2638C625.658 34.1689 621.927 42.3521 609.773 52.2199C620.483 65.698 628.787 76.4083 635.887 83.8694C642.626 90.8491 647.56 91.6915 649.365 92.0525C650.689 92.2932 651.772 92.4135 652.734 92.4135C653.697 92.4135 654.179 92.7745 654.179 93.3762C654.179 94.339 653.336 94.5796 651.892 94.5796H640.46C633.721 94.5796 630.712 93.9779 627.583 92.2932C622.409 89.5254 617.836 83.8694 611.097 74.6032C606.283 67.9845 600.748 59.8014 599.183 57.9963C598.581 57.2742 597.859 57.1539 597.017 57.1539L586.547 56.9132C585.946 56.9132 585.585 57.1539 585.585 57.8759V59.5607C585.585 70.7523 585.585 80.2592 586.186 85.3134C586.547 88.8033 587.269 91.4508 590.88 91.9322C592.685 92.1728 595.332 92.4135 596.776 92.4135C597.739 92.4135 598.22 92.7745 598.22 93.3762C598.22 94.2186 597.378 94.5796 595.814 94.5796C588.834 94.5796 579.929 94.2186 578.124 94.2186C575.837 94.2186 568.256 94.5796 563.442 94.5796C561.878 94.5796 561.035 94.2186 561.035 93.3762C561.035 92.7745 561.517 92.4135 562.961 92.4135C564.766 92.4135 566.21 92.1728 567.293 91.9322C569.7 91.4508 570.301 88.8033 570.783 85.3134C571.385 80.2592 571.385 70.7523 571.385 59.681ZM585.585 11.4247V48.008C585.585 49.3318 585.825 49.8131 586.668 50.1742C589.195 51.0165 592.805 51.3776 595.814 51.3776C600.627 51.3776 602.192 50.8962 604.358 49.3318C607.968 46.6843 611.458 41.1487 611.458 31.2808C611.458 14.1925 600.146 9.25854 593.046 9.25854C590.037 9.25854 587.871 9.37888 586.668 9.7399C585.825 9.98058 585.585 10.4619 585.585 11.4247Z" fill="white"/>
<path d="M671.614 82.5456L683.527 4.08392C683.888 2.03814 684.61 0.955078 685.573 0.955078C686.536 0.955078 687.258 1.55678 688.822 4.68562L721.675 72.5574L754.408 3.84324C755.37 1.9178 755.972 0.955078 757.055 0.955078C758.138 0.955078 758.86 2.15848 759.221 4.68562L770.172 79.0558C771.255 86.6372 772.459 90.1271 776.069 91.2101C779.559 92.2932 781.965 92.4135 783.53 92.4135C784.613 92.4135 785.455 92.5338 785.455 93.2559C785.455 94.2186 784.011 94.5796 782.327 94.5796C779.318 94.5796 762.711 94.2186 757.898 93.8576C755.13 93.6169 754.408 93.2559 754.408 92.5339C754.408 91.9322 754.889 91.5711 755.731 91.2101C756.453 90.9694 756.814 89.405 756.333 86.0355L749.113 33.0859H748.631L722.397 87.7202C719.629 93.3762 719.028 94.4593 717.945 94.4593C716.862 94.4593 715.658 92.0525 713.733 88.4423C710.845 82.9066 701.338 64.4946 699.894 61.1251C698.811 58.598 691.59 43.4351 687.378 34.4096H686.897L680.639 82.3049C680.399 84.4711 680.278 86.0355 680.278 87.9609C680.278 90.2474 681.843 91.3305 683.888 91.8118C686.054 92.2932 687.739 92.4135 688.943 92.4135C689.905 92.4135 690.748 92.6542 690.748 93.2559C690.748 94.339 689.665 94.5796 687.86 94.5796C682.805 94.5796 677.39 94.2186 675.224 94.2186C672.937 94.2186 667.161 94.5796 663.31 94.5796C662.107 94.5796 661.144 94.339 661.144 93.2559C661.144 92.6542 661.866 92.4135 663.07 92.4135C664.032 92.4135 664.875 92.4135 666.68 92.0525C670.049 91.3305 671.012 86.6372 671.614 82.5456Z" fill="white"/>
<path d="M854.258 63.1709H827.422C826.82 63.1709 826.58 63.4116 826.339 64.1336L819.841 81.3422C818.637 84.3507 818.036 87.2389 818.036 88.683C818.036 90.8491 819.119 92.4135 822.849 92.4135H824.654C826.098 92.4135 826.459 92.6542 826.459 93.3762C826.459 94.339 825.737 94.5796 824.414 94.5796C820.563 94.5796 815.388 94.2186 811.658 94.2186C810.334 94.2186 803.715 94.5796 797.457 94.5796C795.893 94.5796 795.171 94.339 795.171 93.3762C795.171 92.6542 795.652 92.4135 796.615 92.4135C797.698 92.4135 799.383 92.2932 800.346 92.1728C805.881 91.4508 808.168 87.3592 810.574 81.3422L840.78 5.76868C842.224 2.27882 842.946 0.955078 844.149 0.955078C845.232 0.955078 845.954 2.03814 847.158 4.80596C850.046 11.4247 869.3 60.5234 877.002 78.8151C881.575 89.6457 885.065 91.3305 887.592 91.9322C889.397 92.2932 891.202 92.4135 892.646 92.4135C893.609 92.4135 894.211 92.5339 894.211 93.3762C894.211 94.339 893.128 94.5796 888.675 94.5796C884.343 94.5796 875.558 94.5796 865.931 94.339C863.765 94.2186 862.321 94.2186 862.321 93.3762C862.321 92.6542 862.802 92.4135 864.005 92.2932C864.848 92.0525 865.69 90.9694 865.089 89.5254L855.461 64.0133C855.221 63.4116 854.86 63.1709 854.258 63.1709ZM829.829 57.1539H851.971C852.573 57.1539 852.694 56.7929 852.573 56.4318L841.743 26.7078C841.622 26.2265 841.502 25.6248 841.141 25.6248C840.78 25.6248 840.539 26.2265 840.419 26.7078L829.348 56.3115C829.227 56.7929 829.347 57.1539 829.829 57.1539Z" fill="white"/>
<path d="M923.718 59.681V38.5012C923.718 20.2095 923.718 16.84 923.477 12.9891C923.236 8.89752 922.274 6.97208 918.302 6.1297C917.34 5.88902 915.294 5.76868 913.609 5.76868C912.285 5.76868 911.563 5.528 911.563 4.68562C911.563 3.84324 912.406 3.60256 914.211 3.60256C920.589 3.60256 928.17 3.96358 931.54 3.96358C935.27 3.96358 942.852 3.60256 950.072 3.60256C965.115 3.60256 985.211 3.60256 998.328 17.3213C1004.35 23.579 1010 33.5672 1010 47.8877C1010 63.0505 1003.62 74.6032 996.884 81.4626C991.349 87.1186 978.833 95.6627 956.57 95.6627C952.238 95.6627 947.304 95.3017 942.731 94.9407C938.158 94.5796 933.946 94.2186 930.938 94.2186C929.614 94.2186 926.967 94.2186 924.079 94.339C921.311 94.339 918.182 94.5796 915.775 94.5796C914.211 94.5796 913.368 94.2186 913.368 93.3762C913.368 92.7745 913.85 92.4135 915.294 92.4135C917.099 92.4135 918.543 92.1728 919.626 91.9322C922.033 91.4508 922.635 88.8033 923.116 85.3134C923.718 80.2592 923.718 70.7523 923.718 59.681ZM938.76 36.5757V51.7386C938.76 64.4946 938.88 73.7608 939.001 76.0473C939.121 79.0558 939.362 83.8694 940.325 85.1931C941.889 87.4796 946.582 90.0067 956.089 90.0067C968.364 90.0067 976.547 87.5999 983.767 81.3422C991.469 74.7235 993.876 63.7726 993.876 51.3776C993.876 36.0944 987.498 26.2265 982.323 21.2925C971.252 10.7026 957.533 9.25854 948.147 9.25854C945.74 9.25854 941.287 9.61956 940.325 10.1009C939.241 10.5823 938.88 11.184 938.88 12.5077C938.76 16.5993 938.76 27.0689 938.76 36.5757Z" fill="white"/>
<path d="M1084.8 63.1709H1057.96C1057.36 63.1709 1057.12 63.4116 1056.88 64.1336L1050.38 81.3422C1049.18 84.3507 1048.58 87.2389 1048.58 88.683C1048.58 90.8491 1049.66 92.4135 1053.39 92.4135H1055.19C1056.64 92.4135 1057 92.6542 1057 93.3762C1057 94.339 1056.28 94.5796 1054.95 94.5796C1051.1 94.5796 1045.93 94.2186 1042.2 94.2186C1040.87 94.2186 1034.26 94.5796 1028 94.5796C1026.43 94.5796 1025.71 94.339 1025.71 93.3762C1025.71 92.6542 1026.19 92.4135 1027.16 92.4135C1028.24 92.4135 1029.92 92.2932 1030.89 92.1728C1036.42 91.4508 1038.71 87.3592 1041.11 81.3422L1071.32 5.76868C1072.76 2.27882 1073.49 0.955078 1074.69 0.955078C1075.77 0.955078 1076.49 2.03814 1077.7 4.80596C1080.59 11.4247 1099.84 60.5234 1107.54 78.8151C1112.12 89.6457 1115.61 91.3305 1118.13 91.9322C1119.94 92.2932 1121.74 92.4135 1123.19 92.4135C1124.15 92.4135 1124.75 92.5339 1124.75 93.3762C1124.75 94.339 1123.67 94.5796 1119.22 94.5796C1114.88 94.5796 1106.1 94.5796 1096.47 94.339C1094.31 94.2186 1092.86 94.2186 1092.86 93.3762C1092.86 92.6542 1093.34 92.4135 1094.55 92.2932C1095.39 92.0525 1096.23 90.9694 1095.63 89.5254L1086 64.0133C1085.76 63.4116 1085.4 63.1709 1084.8 63.1709ZM1060.37 57.1539H1082.51C1083.11 57.1539 1083.23 56.7929 1083.11 56.4318L1072.28 26.7078C1072.16 26.2265 1072.04 25.6248 1071.68 25.6248C1071.32 25.6248 1071.08 26.2265 1070.96 26.7078L1059.89 56.3115C1059.77 56.7929 1059.89 57.1539 1060.37 57.1539Z" fill="white"/>
</svg>
