<?xml version="1.0" standalone="no"?>
<!DOCTYPE svg PUBLIC "-//W3C//DTD SVG 20010904//EN"
 "http://www.w3.org/TR/2001/REC-SVG-20010904/DTD/svg10.dtd">
<svg version="1.0" xmlns="http://www.w3.org/2000/svg"
 width="4325.000000pt" height="1714.000000pt" viewBox="0 0 4325.000000 1714.000000"
 preserveAspectRatio="xMidYMid meet">

<g transform="translate(0.000000,1714.000000) scale(0.100000,-0.100000)"
fill="#000000" stroke="none">
<path d="M13092 17112 c-11 -15 -214 -513 -451 -1105 -237 -592 -442 -1100
-456 -1127 -33 -66 -89 -126 -139 -152 -26 -13 -70 -23 -123 -27 -45 -4 -87
-11 -93 -17 -16 -16 -1 -44 24 -45 111 -4 788 1 796 6 16 10 12 42 -6 49 -9 3
-43 6 -75 6 -93 0 -128 26 -129 95 0 59 29 152 133 425 l93 245 381 3 381 2
20 -52 c11 -29 72 -192 136 -362 67 -178 114 -316 111 -327 -3 -10 -21 -23
-40 -29 -49 -16 -48 -46 3 -54 60 -9 765 -12 790 -3 12 5 22 17 22 27 0 23
-14 27 -118 34 -90 6 -145 35 -201 105 -83 106 -129 212 -636 1486 -158 396
-301 747 -319 780 -24 47 -37 61 -57 63 -20 2 -32 -4 -47 -26z m118 -1050 c82
-227 150 -415 150 -418 0 -2 -139 -4 -310 -4 -197 0 -310 4 -310 10 0 10 297
808 307 823 3 5 7 7 9 5 2 -2 71 -189 154 -416z"/>
<path d="M18276 17118 c-8 -13 -16 -32 -20 -43 -3 -11 -75 -483 -161 -1050
-85 -566 -162 -1068 -171 -1115 -29 -156 -77 -210 -186 -210 -31 0 -62 -6 -74
-14 -17 -14 -18 -16 -3 -31 15 -15 57 -17 389 -17 336 0 373 1 388 16 16 16
16 18 0 30 -10 7 -53 16 -96 19 -127 8 -172 43 -172 132 -1 62 172 1405 181
1405 3 0 27 -44 52 -97 299 -641 387 -824 530 -1101 185 -357 211 -402 238
-402 9 0 29 14 42 32 14 17 195 386 403 820 208 433 381 785 384 780 9 -10
201 -1436 200 -1486 0 -32 -6 -45 -31 -66 -29 -24 -30 -27 -16 -42 23 -22 87
-28 437 -37 327 -9 362 -7 382 16 20 25 -13 40 -104 46 -49 3 -107 14 -141 27
-48 18 -64 30 -88 67 -15 25 -35 78 -44 117 -9 39 -85 542 -170 1118 -84 576
-160 1060 -167 1075 -20 43 -62 43 -88 1 -11 -18 -216 -446 -457 -951 -240
-505 -440 -914 -445 -909 -4 4 -189 383 -411 842 -495 1024 -484 1000 -509
1028 -12 12 -30 22 -40 22 -9 0 -24 -10 -32 -22z"/>
<path d="M22503 17116 c-11 -14 -213 -508 -448 -1098 -235 -590 -441 -1099
-457 -1131 -62 -124 -134 -175 -257 -184 -73 -6 -111 -16 -111 -31 1 -34 12
-35 419 -34 220 0 405 3 411 7 16 10 12 42 -6 49 -9 3 -42 6 -75 6 -71 0 -116
20 -125 56 -17 67 1 128 143 504 l78 205 381 3 381 2 132 -352 c73 -194 134
-358 136 -364 6 -19 -22 -51 -50 -58 -41 -10 -33 -43 13 -50 60 -9 765 -12
790 -3 12 5 22 17 22 27 0 23 -14 27 -118 34 -136 9 -203 72 -308 291 -34 72
-234 560 -444 1085 -210 525 -394 978 -408 1005 -33 61 -68 72 -99 31z m116
-1055 c83 -227 151 -415 151 -417 0 -2 -139 -4 -310 -4 -200 0 -310 4 -310 10
0 10 262 718 294 794 9 22 18 37 20 35 2 -2 72 -190 155 -418z"/>
<path d="M28668 17123 c-27 -31 -37 -56 -468 -1133 -232 -580 -438 -1086 -457
-1123 -60 -114 -145 -167 -269 -167 -29 0 -59 -3 -68 -6 -18 -7 -21 -39 -5
-50 14 -8 805 -8 819 1 5 3 10 15 10 25 0 23 -17 28 -113 33 -86 4 -109 23
-109 90 0 71 7 92 119 395 l105 282 379 0 c350 0 379 -1 387 -17 31 -61 263
-696 260 -714 -2 -12 -11 -26 -20 -30 -10 -5 -26 -13 -35 -17 -27 -13 -27 -31
0 -41 14 -6 201 -11 416 -13 356 -3 392 -2 407 14 30 30 3 45 -89 50 -101 7
-147 28 -210 97 -86 96 -104 138 -625 1441 -363 907 -335 838 -362 873 -25 31
-50 35 -72 10z m105 -1051 c81 -224 147 -413 147 -420 0 -9 -69 -12 -305 -12
-259 0 -305 2 -305 14 0 21 301 826 309 826 3 0 72 -184 154 -408z"/>
<path d="M14939 17054 c-22 -27 7 -41 94 -46 105 -7 169 -33 193 -80 27 -52
33 -225 33 -978 0 -704 -9 -1035 -29 -1129 -7 -31 -23 -66 -39 -83 -24 -27
-34 -31 -102 -35 -40 -3 -82 -10 -91 -15 -20 -10 -24 -33 -8 -43 6 -4 224 -7
486 -7 435 -1 477 1 492 16 16 16 16 18 0 30 -10 7 -60 16 -113 19 -169 11
-188 37 -205 273 -5 82 -10 265 -10 407 l0 257 148 -1 c81 -1 160 -4 176 -8
24 -5 62 -52 230 -287 246 -343 313 -430 409 -525 155 -154 228 -178 562 -186
241 -6 297 0 303 31 5 25 -15 36 -63 36 -158 0 -316 101 -516 327 -115 131
-600 733 -598 743 0 3 37 37 82 76 217 188 337 416 337 641 0 185 -107 382
-254 468 -60 35 -157 71 -250 92 -99 23 -1249 29 -1267 7z m1049 -165 c108
-37 216 -128 264 -223 62 -122 87 -278 68 -436 -24 -208 -100 -344 -227 -406
-50 -25 -66 -27 -171 -27 -127 -1 -245 17 -268 40 -12 12 -14 94 -14 533 0
404 3 521 13 527 41 27 248 22 335 -8z"/>
<path d="M24349 17054 c-22 -27 7 -41 94 -46 105 -7 169 -33 193 -80 25 -46
32 -281 33 -978 0 -623 -11 -1046 -29 -1129 -7 -30 -23 -66 -39 -83 -24 -27
-34 -31 -102 -35 -40 -3 -82 -10 -91 -15 -20 -10 -24 -33 -6 -44 6 -4 142 -6
302 -5 189 1 354 -4 471 -14 99 -8 263 -15 365 -15 261 0 424 26 637 101 396
140 654 434 764 873 27 104 37 380 20 494 -38 240 -137 451 -291 615 -177 190
-403 296 -750 353 -92 15 -198 18 -832 20 -611 1 -729 0 -739 -12z m1106 -144
c153 -11 259 -32 375 -72 375 -131 619 -419 691 -818 20 -108 17 -419 -5 -539
-47 -264 -150 -432 -340 -559 -167 -112 -335 -155 -611 -156 -119 0 -200 4
-240 13 -128 29 -215 87 -229 153 -17 77 -25 459 -25 1138 -1 399 2 742 6 763
10 62 32 70 233 85 8 1 73 -3 145 -8z"/>
<path d="M2565 13809 c-1116 -25 -1739 -83 -2083 -195 -63 -21 -307 -117 -387
-154 -12 -5 8726 -9 21530 -9 12804 0 21542 4 21530 9 -80 37 -324 133 -387
154 -353 115 -945 169 -2148 196 -517 12 -37532 11 -38055 -1z"/>
<path d="M24334 12531 c-37 -16 -87 -84 -135 -186 -26 -55 -552 -1363 -1168
-2907 -616 -1545 -1145 -2859 -1174 -2922 -151 -316 -304 -465 -543 -526 -43
-11 -147 -24 -246 -30 -95 -7 -180 -16 -190 -21 -43 -23 -34 -100 15 -126 28
-16 59 -18 282 -16 138 1 398 7 578 14 257 9 399 9 650 -1 177 -7 393 -13 479
-14 145 -1 159 1 185 20 21 16 29 31 31 62 5 63 -12 69 -208 75 -178 6 -237
19 -299 61 -105 73 -117 228 -40 502 31 110 540 1473 565 1512 l14 22 1009 0
c953 0 1009 -1 1024 -18 9 -10 176 -442 372 -961 275 -731 355 -953 355 -988
0 -39 -5 -51 -39 -84 -25 -26 -48 -39 -65 -39 -47 0 -95 -26 -102 -56 -9 -36
5 -56 52 -72 60 -20 519 -32 1359 -34 821 -3 826 -2 868 54 18 24 18 30 7 57
-15 38 -16 38 -210 50 -273 18 -384 52 -515 159 -157 128 -343 427 -508 817
-190 450 -557 1360 -1307 3240 -870 2184 -898 2252 -972 2323 -37 35 -88 48
-124 33z m-154 -1793 c5 -13 188 -515 406 -1116 309 -850 395 -1098 387 -1110
-9 -16 -80 -17 -823 -20 -592 -1 -816 1 -826 9 -8 6 -14 19 -14 28 0 9 176
487 390 1061 215 575 398 1065 406 1090 16 45 40 80 56 80 5 0 13 -10 18 -22z"/>
<path d="M16413 12459 c-734 -38 -1338 -214 -1895 -551 -612 -371 -1081 -963
-1322 -1666 -145 -425 -206 -868 -185 -1360 30 -715 232 -1318 613 -1827 108
-144 389 -429 526 -535 617 -473 1364 -738 2330 -826 226 -21 790 -24 1020 -5
633 51 1098 151 1480 320 109 49 165 84 194 124 21 28 21 35 28 995 9 1405 10
1428 71 1549 31 60 102 127 162 153 55 23 186 47 315 56 79 6 98 11 117 30 51
51 6 116 -89 128 -31 4 -281 0 -555 -10 -421 -14 -562 -15 -913 -5 -870 23
-884 24 -945 12 -91 -17 -129 -69 -86 -122 17 -21 30 -23 212 -35 215 -14 302
-30 395 -74 77 -37 145 -110 173 -186 44 -117 46 -148 46 -1209 l0 -1010 -23
-50 c-44 -96 -101 -137 -244 -179 -152 -43 -240 -51 -588 -51 -348 1 -455 10
-699 60 -263 53 -450 118 -706 245 -574 284 -1010 734 -1300 1344 -230 482
-337 993 -338 1601 0 471 49 822 164 1168 161 484 430 838 841 1108 431 281
897 393 1573 376 242 -6 382 -20 575 -58 449 -86 873 -271 1163 -506 227 -185
350 -419 401 -765 9 -58 21 -118 27 -131 22 -48 97 -58 133 -18 28 31 36 106
36 366 0 316 15 720 36 950 8 94 17 199 21 235 5 60 3 69 -18 93 -26 31 -55
37 -269 57 -63 6 -259 35 -435 65 -760 128 -1437 176 -2042 144z"/>
<path d="M32535 12460 c-854 -53 -1526 -269 -2071 -666 -293 -214 -571 -497
-754 -769 -282 -421 -462 -908 -537 -1460 -21 -158 -24 -626 -5 -805 87 -809
372 -1451 871 -1964 610 -625 1425 -985 2466 -1090 846 -86 1931 6 2306 194
109 55 148 127 203 375 48 210 131 737 151 951 11 120 -19 184 -88 184 -48 0
-72 -36 -97 -146 -29 -125 -57 -200 -127 -337 -182 -357 -476 -580 -888 -675
-277 -64 -813 -92 -1109 -57 -620 73 -1256 408 -1688 890 -431 481 -687 1056
-768 1730 -32 259 -29 724 5 1020 47 407 127 697 274 1000 122 251 265 451
447 626 398 382 866 555 1559 576 665 19 1293 -126 1699 -394 150 -99 299
-279 385 -464 73 -157 104 -283 119 -485 10 -129 22 -161 62 -171 38 -11 63
-4 87 22 43 48 46 89 64 800 5 220 16 459 24 530 31 282 31 278 -1 314 -28 31
-35 34 -164 52 -74 11 -251 42 -392 69 -352 68 -675 111 -1063 140 -188 14
-796 21 -970 10z"/>
<path d="M10412 12395 c-45 -13 -155 -34 -245 -46 -159 -21 -183 -22 -1337
-23 -721 -1 -1388 4 -1726 12 -573 14 -646 11 -686 -25 -24 -22 -23 -75 2 -98
13 -12 40 -20 73 -22 444 -27 525 -46 631 -143 77 -71 108 -160 128 -365 19
-191 19 -4597 0 -4905 -22 -361 -55 -551 -114 -663 -59 -110 -133 -140 -397
-158 -83 -6 -160 -16 -178 -24 -28 -13 -33 -20 -33 -50 0 -66 49 -90 190 -90
41 0 275 6 520 14 448 14 900 11 1310 -9 343 -16 1224 -32 1580 -28 305 3 350
5 385 21 113 51 146 144 200 557 70 548 71 758 3 761 -74 4 -91 -14 -113 -119
-57 -268 -111 -408 -197 -506 -165 -191 -464 -256 -1108 -243 -157 4 -321 11
-365 17 -343 46 -482 149 -539 398 -31 139 -37 375 -34 1395 3 979 3 999 23
1013 36 26 1208 0 1360 -31 156 -31 282 -111 338 -213 38 -70 54 -143 67 -304
13 -156 22 -183 70 -193 42 -9 77 15 89 62 5 21 19 202 30 403 22 371 39 573
66 758 18 124 19 194 3 210 -7 7 -28 12 -47 12 -30 0 -45 -10 -110 -76 -157
-158 -184 -162 -1136 -174 -587 -7 -704 -6 -722 6 -16 10 -23 27 -28 66 -3 29
-5 548 -3 1154 2 915 5 1104 17 1117 12 15 40 17 215 17 284 0 900 -18 1031
-31 237 -22 413 -75 498 -149 54 -48 111 -153 132 -243 8 -37 19 -120 23 -186
6 -77 13 -126 22 -136 38 -45 108 -36 133 18 20 44 24 79 47 427 21 318 42
523 66 650 21 111 19 156 -8 174 -27 19 -24 20 -126 -9z"/>
<path d="M81 12340 c-56 -12 -81 -35 -81 -75 0 -48 29 -68 103 -72 352 -20
470 -50 571 -143 79 -73 109 -162 128 -375 19 -204 19 -4591 0 -4885 -24 -381
-54 -560 -114 -672 -59 -112 -132 -141 -397 -159 -83 -6 -160 -16 -178 -24
-28 -13 -33 -20 -33 -50 0 -66 49 -90 190 -90 41 0 278 6 525 14 463 14 982
11 1465 -9 698 -29 1739 -39 1887 -19 104 14 175 47 207 96 52 79 103 328 145
708 54 481 48 565 -37 565 -60 0 -78 -28 -97 -149 -8 -49 -29 -128 -46 -177
-120 -342 -285 -482 -636 -541 -93 -15 -169 -18 -548 -18 -543 0 -704 16 -885
86 -183 71 -255 175 -294 429 -39 245 -39 275 -43 2460 -5 2538 -4 2581 77
2747 69 140 180 182 525 198 166 8 187 13 210 48 22 34 10 74 -29 95 -27 15
-62 17 -276 16 -135 -1 -429 -7 -655 -14 -303 -9 -499 -9 -750 -1 -546 17
-887 21 -934 11z"/>
<path d="M36634 12339 c-126 -30 -105 -149 26 -149 117 0 312 -67 435 -148
149 -99 375 -346 541 -592 213 -314 1100 -1758 1426 -2320 150 -259 232 -465
274 -695 18 -92 19 -163 19 -925 0 -1119 -12 -1250 -125 -1415 -60 -88 -142
-116 -406 -138 -166 -15 -194 -25 -194 -74 0 -38 17 -60 57 -75 46 -16 270
-15 825 3 292 9 475 9 805 0 236 -7 556 -13 713 -14 250 -2 290 0 322 15 47
21 66 57 50 93 -16 36 -42 42 -188 50 -163 8 -385 32 -438 46 -191 51 -270
186 -297 506 -16 193 -24 1767 -9 1912 19 193 64 369 133 524 107 238 703
1267 1143 1975 343 550 511 786 691 969 175 178 391 278 651 301 136 12 175
39 158 107 -6 22 -32 37 -90 50 -16 3 -247 -1 -515 -11 -456 -15 -511 -15
-885 1 -403 17 -483 16 -523 -11 -28 -18 -31 -74 -5 -96 17 -15 90 -41 148
-53 57 -11 119 -59 144 -110 45 -93 13 -296 -81 -511 -54 -122 -198 -389 -676
-1249 -319 -574 -555 -1005 -632 -1152 -7 -13 -111 163 -749 1277 -779 1358
-850 1500 -822 1625 15 64 56 96 171 130 78 23 107 36 122 56 17 24 18 30 6
55 -29 60 -75 62 -792 33 -255 -11 -413 -9 -1237 16 -85 2 -173 0 -196 -6z"/>
<path d="M95 4750 c109 -48 329 -134 407 -159 313 -99 771 -147 1773 -183 515
-19 38185 -19 38700 0 1002 36 1460 84 1773 183 78 25 298 111 407 159 12 5
-9067 9 -21530 9 -12463 0 -21542 -4 -21530 -9z"/>
<path d="M6000 2015 l0 -1945 300 0 300 0 0 915 0 915 565 0 565 0 0 250 0
250 -565 0 -565 0 0 480 0 480 780 0 780 0 0 300 0 300 -1080 0 -1080 0 0
-1945z"/>
<path d="M21082 2018 l3 -1943 805 3 c443 1 921 5 1064 9 l258 6 60 80 c77
104 94 139 118 239 46 195 54 317 55 788 0 371 -3 462 -17 545 -35 206 -87
318 -164 350 -62 26 -56 58 35 172 90 113 132 296 151 649 18 343 12 486 -26
644 -38 156 -131 287 -236 335 -113 51 -403 65 -1386 65 l-722 0 2 -1942z
m1173 1332 c193 -5 401 -12 463 -16 l112 -6 0 -479 0 -479 -590 0 -590 0 0 78
c0 108 -18 653 -26 795 l-7 117 144 0 c79 0 302 -4 494 -10z m368 -1469 c109
-5 201 -11 204 -15 13 -12 34 -566 31 -806 -5 -403 21 -390 -765 -390 l-463 0
0 463 c1 433 9 690 25 729 4 9 21 19 38 21 60 7 732 6 930 -2z"/>
<path d="M8410 2010 l0 -1910 1073 2 1072 3 3 298 2 297 -750 0 -750 0 0 1610
0 1610 -325 0 -325 0 0 -1910z"/>
<path d="M15670 3625 l0 -295 485 0 485 0 0 -1615 0 -1615 323 2 322 3 3 1613
2 1612 475 0 475 0 0 295 0 295 -1285 0 -1285 0 0 -295z"/>
<path d="M26410 2010 l0 -1910 298 2 297 3 3 1908 2 1907 -300 0 -300 0 0
-1910z"/>
<path d="M27332 2013 l3 -1908 1073 -3 1072 -2 0 300 0 300 -750 0 -750 0 0
1610 0 1610 -325 0 -325 0 2 -1907z"/>
<path d="M34740 1985 l0 -1935 300 0 300 0 0 780 0 780 338 0 339 0 15 -37 c9
-21 66 -150 128 -288 145 -324 225 -511 381 -890 l128 -310 148 -12 c81 -6
200 -13 264 -15 103 -3 119 -1 138 16 13 12 21 31 21 52 0 57 -82 270 -318
824 -140 329 -282 676 -282 690 0 26 37 78 110 156 169 179 280 390 327 621
26 126 25 697 -1 888 -47 343 -138 529 -284 580 -84 29 -265 35 -1164 35
l-888 0 0 -1935z m1335 1395 c217 -10 310 -22 357 -46 37 -19 54 -82 69 -247
16 -175 6 -615 -15 -711 -21 -93 -36 -112 -99 -131 -101 -29 -206 -36 -624
-42 l-423 -6 0 597 0 596 263 0 c144 0 357 -5 472 -10z"/>
<path d="M10690 1990 l0 -1920 1080 0 1080 0 0 300 0 300 -810 0 -810 0 0 590
0 590 595 0 595 0 0 245 0 245 -595 0 -595 0 0 510 0 510 810 0 810 0 0 275 0
275 -1080 0 -1080 0 0 -1920z"/>
<path d="M13250 1990 l0 -1920 1080 0 1080 0 0 300 0 300 -805 0 -805 0 0 590
0 590 590 0 590 0 0 245 0 245 -590 0 -590 0 0 510 0 510 805 0 805 0 0 275 0
275 -1080 0 -1080 0 0 -1920z"/>
<path d="M29540 1991 l0 -1922 883 3 c867 4 883 4 959 25 147 41 291 123 344
194 46 62 96 260 126 499 18 146 18 1997 0 2315 -14 237 -33 409 -53 476 -17
55 -115 154 -195 195 -203 107 -378 124 -1346 131 l-718 5 0 -1921z m1500
1295 c103 -20 188 -60 216 -102 24 -37 40 -105 54 -229 20 -180 8 -1151 -20
-1690 -19 -351 -36 -470 -73 -527 -29 -43 -132 -94 -217 -108 -36 -5 -242 -10
-462 -10 l-398 0 0 1346 0 1346 408 -5 c314 -4 426 -9 492 -21z"/>
<path d="M32210 1990 l0 -1920 1080 0 1080 0 0 300 0 300 -810 0 -810 0 0 590
0 590 595 0 595 0 0 245 0 245 -595 0 -595 0 0 510 0 510 810 0 810 0 0 275 0
275 -1080 0 -1080 0 0 -1920z"/>
<path d="M23760 2164 l0 -1715 79 -98 c165 -203 275 -269 545 -323 103 -21
135 -23 431 -21 428 2 629 21 793 77 87 30 142 67 213 143 104 113 152 240
169 453 15 195 31 1554 28 2415 l-3 780 -292 3 -293 2 0 -972 c-1 -1350 -17
-2082 -51 -2209 -5 -20 -16 -42 -24 -49 -38 -31 -130 -42 -398 -47 -389 -7
-524 13 -546 80 -37 113 -51 681 -51 2055 l0 1142 -300 0 -300 0 0 -1716z"/>
</g>
</svg>
