<svg width="1001" height="373" viewBox="0 0 1001 373" fill="none" xmlns="http://www.w3.org/2000/svg">
<path d="M44.8465 169.354V204.564C44.8465 230.171 44.8465 243.975 49.0477 247.576C52.4487 250.577 57.6501 251.977 73.2546 251.977C83.8576 251.977 91.6598 251.777 96.6612 246.375C99.0619 243.775 101.463 238.173 101.863 234.372C102.063 232.571 102.463 231.371 104.063 231.371C105.464 231.371 105.664 232.371 105.664 234.772C105.664 236.973 104.263 251.977 102.663 257.779C101.463 262.18 100.462 263.18 90.0594 263.18C75.6553 263.18 65.2523 262.78 56.2497 262.58C47.2472 262.18 40.0451 261.98 31.8428 261.98C29.6422 261.98 25.2409 261.98 20.4396 262.18C15.8383 262.18 10.6368 262.58 6.63563 262.58C4.03489 262.58 2.6345 261.98 2.6345 260.579C2.6345 259.579 3.43472 258.979 5.83541 258.979C8.83626 258.979 11.2369 258.579 13.0375 258.179C17.0386 257.379 18.0389 252.977 18.8391 247.176C19.8394 238.773 19.8394 222.969 19.8394 204.564V169.354C19.8394 138.945 19.8394 133.343 19.4393 126.941C19.0392 120.14 17.4387 116.939 10.8368 115.538C9.23637 115.138 6.83569 114.938 4.23495 114.938C2.03433 114.938 0.833984 114.538 0.833984 113.138C0.833984 111.737 2.23438 111.337 5.23524 111.337C14.6379 111.337 27.2415 111.937 32.643 111.937C37.4444 111.937 52.0485 111.337 59.8508 111.337C62.6516 111.337 64.052 111.737 64.052 113.138C64.052 114.538 62.8516 114.938 60.4509 114.938C58.2503 114.938 55.0494 115.138 52.6487 115.538C47.2472 116.538 45.6467 119.939 45.2466 126.941C44.8465 133.343 44.8465 138.945 44.8465 169.354Z" fill="black"/>
<path d="M168.976 204.564V169.354C168.976 138.945 168.976 133.343 168.575 126.941C168.175 120.14 166.575 116.939 159.973 115.538C158.373 115.138 154.972 114.938 152.171 114.938C149.97 114.938 148.77 114.538 148.77 113.138C148.77 111.737 150.17 111.337 153.171 111.337C158.573 111.337 164.374 111.537 169.376 111.537C174.577 111.737 179.178 111.937 181.979 111.937C188.381 111.937 228.192 111.937 231.993 111.737C235.795 111.337 238.995 110.937 240.596 110.537C241.596 110.337 242.797 109.737 243.797 109.737C244.797 109.737 244.997 110.537 244.997 111.537C244.997 112.937 243.997 115.338 243.397 124.541C243.197 126.541 242.797 135.344 242.396 137.745C242.196 138.745 241.796 139.945 240.396 139.945C238.995 139.945 238.595 138.945 238.595 137.144C238.595 135.744 238.395 132.343 237.395 129.942C235.995 126.341 233.994 123.941 223.991 122.74C220.59 122.34 199.584 121.94 195.583 121.94C194.583 121.94 194.183 122.54 194.183 123.941V174.555C194.183 175.955 194.383 176.756 195.583 176.756C199.984 176.756 222.991 176.756 227.592 176.355C232.394 175.955 235.394 175.355 237.195 173.355C238.595 171.754 239.396 170.754 240.396 170.754C241.196 170.754 241.796 171.154 241.796 172.354C241.796 173.555 240.996 176.756 240.196 186.959C239.996 190.96 239.396 198.962 239.396 200.362C239.396 201.963 239.396 204.163 237.595 204.163C236.195 204.163 235.795 203.363 235.795 202.363C235.595 200.362 235.594 197.762 234.994 195.161C233.994 191.16 231.193 188.159 223.791 187.359C219.99 186.959 200.184 186.758 195.383 186.758C194.383 186.758 194.183 187.559 194.183 188.759V204.564C194.183 211.365 193.983 229.771 194.183 235.572C194.583 249.376 197.784 252.377 218.19 252.377C223.391 252.377 231.793 252.377 236.995 249.976C242.196 247.576 244.597 243.375 245.997 235.172C246.398 232.972 246.798 232.171 248.198 232.171C249.799 232.171 249.799 233.772 249.799 235.772C249.799 240.374 248.198 253.978 247.198 257.979C245.797 263.18 243.997 263.18 236.395 263.18C221.39 263.18 210.387 262.78 201.785 262.58C193.182 262.18 186.981 261.98 180.979 261.98C178.778 261.98 174.377 261.98 169.576 262.18C164.974 262.18 159.773 262.58 155.772 262.58C153.171 262.58 151.771 261.98 151.771 260.579C151.771 259.579 152.571 258.979 154.972 258.979C157.972 258.979 160.373 258.579 162.174 258.179C166.175 257.379 167.175 252.977 167.975 247.176C168.976 238.773 168.976 222.969 168.976 204.564Z" fill="black"/>
<path d="M444.821 227.17V249.176C444.821 254.578 444.621 254.978 442.22 256.378C429.217 263.18 409.611 265.381 394.007 265.381C344.993 265.381 301.58 242.174 301.58 186.959C301.58 154.949 318.185 132.543 336.39 121.54C355.596 109.937 373.401 108.536 390.206 108.536C404.01 108.536 421.615 110.937 425.616 111.737C429.817 112.537 436.819 113.738 441.42 113.938C443.821 114.138 444.221 114.938 444.221 116.338C444.221 118.539 442.821 124.141 442.821 149.148C442.821 152.349 442.22 153.349 440.62 153.349C439.22 153.349 438.819 152.349 438.619 150.748C438.019 146.147 437.019 139.745 431.817 134.143C425.816 127.742 409.811 118.539 387.205 118.539C376.202 118.539 361.598 119.339 347.594 130.943C336.39 140.345 329.188 155.35 329.188 179.957C329.188 222.969 356.596 255.178 398.808 255.178C404.01 255.178 411.012 255.178 415.813 252.977C418.814 251.577 419.614 248.976 419.614 245.575V226.77C419.614 216.767 419.614 209.165 419.414 203.163C419.214 196.361 417.413 193.16 410.812 191.76C409.211 191.36 405.81 191.16 403.009 191.16C401.209 191.16 400.008 190.76 400.008 189.559C400.008 187.959 401.409 187.559 404.21 187.559C414.613 187.559 427.216 188.159 433.218 188.159C439.42 188.159 450.023 187.559 456.625 187.559C459.225 187.559 460.626 187.959 460.626 189.559C460.626 190.76 459.425 191.16 458.025 191.16C456.424 191.16 455.024 191.36 452.623 191.76C447.222 192.76 445.221 196.161 445.021 203.163C444.821 209.165 444.821 217.167 444.821 227.17Z" fill="black"/>
<path d="M581.208 210.365H536.596C535.595 210.365 535.195 210.765 534.795 211.966L523.992 240.574C521.992 245.575 520.991 250.377 520.991 252.777C520.991 256.378 522.792 258.979 528.994 258.979H531.994C534.395 258.979 534.995 259.379 534.995 260.579C534.995 262.18 533.795 262.58 531.594 262.58C525.193 262.58 516.59 261.98 510.388 261.98C508.188 261.98 497.185 262.58 486.782 262.58C484.181 262.58 482.98 262.18 482.98 260.579C482.98 259.379 483.781 258.979 485.381 258.979C487.182 258.979 489.982 258.779 491.583 258.579C500.786 257.379 504.587 250.577 508.588 240.574L558.802 114.938C561.203 109.136 562.403 106.936 564.404 106.936C566.204 106.936 567.405 108.736 569.405 113.338C574.206 124.341 606.216 205.964 619.019 236.373C626.621 254.378 632.423 257.178 636.624 258.179C639.625 258.779 642.626 258.979 645.027 258.979C646.627 258.979 647.627 259.179 647.627 260.579C647.627 262.18 645.827 262.58 638.425 262.58C631.223 262.58 616.619 262.58 600.614 262.18C597.013 261.98 594.612 261.98 594.612 260.579C594.612 259.379 595.412 258.979 597.413 258.779C598.813 258.379 600.214 256.578 599.213 254.178L583.209 211.766C582.809 210.765 582.209 210.365 581.208 210.365ZM540.597 200.362H577.407C578.408 200.362 578.608 199.762 578.408 199.162L560.403 149.748C560.202 148.948 560.002 147.947 559.402 147.947C558.802 147.947 558.402 148.948 558.202 149.748L539.797 198.962C539.597 199.762 539.797 200.362 540.597 200.362Z" fill="black"/>
<path d="M768.301 265.381C740.893 265.381 717.886 259.379 699.681 243.575C680.076 226.37 674.874 203.963 674.874 184.558C674.874 170.954 679.075 147.347 698.281 129.742C712.685 116.538 731.69 108.536 761.499 108.536C773.902 108.536 781.304 109.336 790.507 110.537C798.109 111.537 804.511 113.338 810.513 113.938C812.713 114.138 813.513 115.138 813.513 116.338C813.513 117.939 812.913 120.34 812.513 127.342C812.113 133.943 812.313 144.947 811.913 148.948C811.713 151.949 811.313 153.549 809.512 153.549C807.912 153.549 807.512 151.949 807.512 149.148C807.312 142.946 804.711 135.944 799.71 130.743C793.108 123.741 777.503 118.339 759.098 118.339C741.693 118.339 730.29 122.74 721.487 130.743C706.883 144.146 703.082 163.152 703.082 182.557C703.082 230.171 739.292 253.778 766.1 253.778C783.905 253.778 794.708 251.777 802.71 242.574C806.111 238.773 808.712 232.972 809.512 229.371C810.112 226.17 810.513 225.369 812.113 225.369C813.513 225.369 813.914 226.77 813.914 228.37C813.914 230.771 811.513 248.176 809.512 254.978C808.512 258.379 807.712 259.379 804.311 260.78C796.309 263.98 781.104 265.381 768.301 265.381Z" fill="black"/>
<path d="M911.008 227.17V210.765C911.008 199.962 909.008 195.561 906.407 189.759C905.007 186.558 878.199 142.546 871.197 132.143C866.196 124.741 861.194 119.739 857.393 117.539C854.792 116.138 851.392 114.938 848.991 114.938C847.39 114.938 845.99 114.538 845.99 113.138C845.99 111.937 847.39 111.337 849.791 111.337C853.392 111.337 868.396 111.937 874.998 111.937C879.199 111.937 887.402 111.337 896.404 111.337C898.405 111.337 899.405 111.937 899.405 113.138C899.405 114.338 898.005 114.538 895.004 115.338C893.203 115.738 892.203 117.339 892.203 118.939C892.203 120.54 893.203 122.94 894.604 125.741C897.405 131.743 925.413 179.957 928.613 185.558C930.614 180.757 955.821 136.744 958.622 130.542C960.623 126.141 961.423 122.74 961.423 120.14C961.423 118.139 960.623 115.938 957.222 115.138C955.421 114.738 953.621 114.338 953.621 113.138C953.621 111.737 954.621 111.337 957.022 111.337C963.623 111.337 970.025 111.937 975.827 111.937C980.228 111.937 993.432 111.337 997.233 111.337C999.434 111.337 1000.83 111.737 1000.83 112.937C1000.83 114.338 999.234 114.938 997.033 114.938C995.032 114.938 991.231 115.738 988.23 117.339C984.029 119.339 981.829 121.74 977.427 127.141C970.825 135.144 942.817 182.157 939.216 190.76C936.216 197.962 936.216 204.163 936.216 210.765V227.17C936.216 230.371 936.216 238.773 936.816 247.176C937.216 252.977 939.016 257.379 945.018 258.179C947.819 258.579 952.22 258.979 955.021 258.979C957.222 258.979 958.222 259.579 958.222 260.579C958.222 261.98 956.621 262.58 954.021 262.58C941.417 262.58 928.814 261.98 923.412 261.98C918.411 261.98 905.807 262.58 898.405 262.58C895.604 262.58 894.004 262.18 894.004 260.579C894.004 259.579 895.004 258.979 897.205 258.979C900.005 258.979 902.406 258.579 904.207 258.179C908.208 257.379 910.008 252.977 910.408 247.176C911.008 238.773 911.008 230.371 911.008 227.17Z" fill="black"/>
<path d="M999.295 286.507L2.37249 286.507C14.9635 290.832 10.7629 295.055 94.9314 295.055H906.736C990.905 295.055 986.704 290.832 999.295 286.507Z" fill="black"/>
<path d="M999.295 85.8099L2.37249 85.8098C14.9635 81.4844 10.7629 77.2621 94.9314 77.2621H906.736C990.905 77.2621 986.704 81.4845 999.295 85.8099Z" fill="black"/>
<path d="M310.752 39.0134H294.182C293.811 39.0134 293.662 39.162 293.513 39.6078L289.501 50.2335C288.758 52.0911 288.386 53.8744 288.386 54.7661C288.386 56.1036 289.055 57.0695 291.359 57.0695H292.473C293.365 57.0695 293.588 57.2181 293.588 57.664C293.588 58.2584 293.142 58.407 292.325 58.407C289.947 58.407 286.752 58.1841 284.448 58.1841C283.631 58.1841 279.544 58.407 275.68 58.407C274.714 58.407 274.268 58.2584 274.268 57.664C274.268 57.2181 274.566 57.0695 275.16 57.0695C275.829 57.0695 276.869 56.9952 277.464 56.9209C280.882 56.4751 282.293 53.9487 283.78 50.2335L302.43 3.56986C303.322 1.41501 303.768 0.597656 304.511 0.597656C305.179 0.597656 305.625 1.2664 306.368 2.97542C308.152 7.0622 320.04 37.3787 324.796 48.6731C327.62 55.3605 329.774 56.4008 331.335 56.7723C332.449 56.9952 333.564 57.0695 334.456 57.0695C335.05 57.0695 335.422 57.1438 335.422 57.664C335.422 58.2584 334.753 58.407 332.004 58.407C329.329 58.407 323.904 58.407 317.96 58.2584C316.622 58.1841 315.731 58.1841 315.731 57.664C315.731 57.2181 316.028 57.0695 316.771 56.9952C317.291 56.8466 317.811 56.1779 317.44 55.2862L311.495 39.5335C311.347 39.162 311.124 39.0134 310.752 39.0134ZM295.668 35.2981H309.34C309.712 35.2981 309.786 35.0752 309.712 34.8523L303.025 16.4989C302.95 16.2017 302.876 15.8302 302.653 15.8302C302.43 15.8302 302.282 16.2017 302.207 16.4989L295.371 34.778C295.297 35.0752 295.371 35.2981 295.668 35.2981Z" fill="black"/>
<path d="M353.641 36.8586V23.7808C353.641 12.4865 353.641 10.4059 353.492 8.02817C353.344 5.50179 352.749 4.31291 350.297 3.79277C349.703 3.64417 348.439 3.56986 347.399 3.56986C346.582 3.56986 346.136 3.42125 346.136 2.90112C346.136 2.38098 346.656 2.23237 347.771 2.23237C351.709 2.23237 356.39 2.45528 357.951 2.45528C360.477 2.45528 366.124 2.23237 368.428 2.23237C373.109 2.23237 378.087 2.6782 382.1 5.42749C384.18 6.83928 387.152 10.6288 387.152 15.6073C387.152 21.1059 384.849 26.1586 377.344 32.2516C383.957 40.5738 389.084 47.187 393.468 51.7939C397.629 56.1036 400.676 56.6237 401.791 56.8466C402.608 56.9952 403.277 57.0695 403.871 57.0695C404.466 57.0695 404.763 57.2925 404.763 57.664C404.763 58.2584 404.243 58.407 403.351 58.407H396.292C392.131 58.407 390.273 58.0355 388.341 56.9952C385.146 55.2862 382.323 51.7939 378.161 46.0724C375.189 41.9856 371.771 36.9329 370.805 35.8183C370.434 35.3724 369.988 35.2981 369.468 35.2981L363.003 35.1495C362.632 35.1495 362.409 35.2981 362.409 35.744V36.7842C362.409 43.6946 362.409 49.5647 362.78 52.6855C363.003 54.8404 363.449 56.4751 365.678 56.7723C366.793 56.9209 368.428 57.0695 369.319 57.0695C369.914 57.0695 370.211 57.2925 370.211 57.664C370.211 58.1841 369.691 58.407 368.725 58.407C364.415 58.407 358.917 58.1841 357.802 58.1841C356.39 58.1841 351.709 58.407 348.737 58.407C347.771 58.407 347.251 58.1841 347.251 57.664C347.251 57.2925 347.548 57.0695 348.439 57.0695C349.554 57.0695 350.446 56.9209 351.114 56.7723C352.601 56.4751 352.972 54.8404 353.269 52.6855C353.641 49.5647 353.641 43.6946 353.641 36.8586ZM362.409 7.0622V29.651C362.409 30.4683 362.557 30.7655 363.078 30.9884C364.638 31.5086 366.867 31.7315 368.725 31.7315C371.697 31.7315 372.663 31.4343 374 30.4683C376.23 28.8336 378.384 25.4156 378.384 19.3225C378.384 8.77122 371.4 5.72471 367.016 5.72471C365.158 5.72471 363.821 5.79901 363.078 6.02193C362.557 6.17054 362.409 6.46776 362.409 7.0622Z" fill="black"/>
<path d="M415.528 50.9765L422.884 2.52959C423.107 1.2664 423.553 0.597656 424.148 0.597656C424.742 0.597656 425.188 0.969182 426.154 2.90112L446.439 44.8092L466.65 2.38098C467.245 1.1921 467.616 0.597656 468.285 0.597656C468.954 0.597656 469.399 1.34071 469.622 2.90112L476.384 48.8217C477.053 53.5029 477.796 55.6577 480.025 56.3265C482.18 56.9952 483.666 57.0695 484.632 57.0695C485.301 57.0695 485.821 57.1438 485.821 57.5897C485.821 58.1841 484.929 58.407 483.889 58.407C482.031 58.407 471.777 58.1841 468.805 57.9612C467.096 57.8126 466.65 57.5897 466.65 57.1438C466.65 56.7723 466.947 56.5494 467.468 56.3265C467.913 56.1779 468.136 55.2119 467.839 53.1314L463.381 20.4371H463.084L446.885 54.1716C445.176 57.664 444.804 58.3327 444.136 58.3327C443.467 58.3327 442.724 56.8466 441.535 54.6175C439.752 51.1994 433.882 39.8308 432.99 37.7502C432.321 36.1898 427.863 26.8274 425.262 21.2545H424.965L421.101 50.8279C420.953 52.1654 420.878 53.1314 420.878 54.3202C420.878 55.732 421.844 56.4008 423.107 56.698C424.445 56.9952 425.485 57.0695 426.228 57.0695C426.823 57.0695 427.343 57.2181 427.343 57.5897C427.343 58.2584 426.674 58.407 425.559 58.407C422.439 58.407 419.095 58.1841 417.757 58.1841C416.346 58.1841 412.779 58.407 410.401 58.407C409.658 58.407 409.064 58.2584 409.064 57.5897C409.064 57.2181 409.51 57.0695 410.253 57.0695C410.847 57.0695 411.367 57.0695 412.482 56.8466C414.562 56.4008 415.157 53.5029 415.528 50.9765Z" fill="black"/>
<path d="M528.304 39.0134H511.734C511.362 39.0134 511.214 39.162 511.065 39.6078L507.052 50.2335C506.309 52.0911 505.938 53.8744 505.938 54.7661C505.938 56.1036 506.607 57.0695 508.91 57.0695H510.025C510.916 57.0695 511.139 57.2181 511.139 57.664C511.139 58.2584 510.693 58.407 509.876 58.407C507.498 58.407 504.303 58.1841 502 58.1841C501.182 58.1841 497.096 58.407 493.232 58.407C492.266 58.407 491.82 58.2584 491.82 57.664C491.82 57.2181 492.117 57.0695 492.712 57.0695C493.38 57.0695 494.421 56.9952 495.015 56.9209C498.433 56.4751 499.845 53.9487 501.331 50.2335L519.982 3.56986C520.873 1.41501 521.319 0.597656 522.062 0.597656C522.731 0.597656 523.177 1.2664 523.92 2.97542C525.703 7.0622 537.592 37.3787 542.347 48.6731C545.171 55.3605 547.326 56.4008 548.886 56.7723C550.001 56.9952 551.115 57.0695 552.007 57.0695C552.601 57.0695 552.973 57.1438 552.973 57.664C552.973 58.2584 552.304 58.407 549.555 58.407C546.88 58.407 541.456 58.407 535.511 58.2584C534.174 58.1841 533.282 58.1841 533.282 57.664C533.282 57.2181 533.579 57.0695 534.322 56.9952C534.843 56.8466 535.363 56.1779 534.991 55.2862L529.047 39.5335C528.898 39.162 528.675 39.0134 528.304 39.0134ZM513.22 35.2981H526.892C527.263 35.2981 527.338 35.0752 527.263 34.8523L520.576 16.4989C520.502 16.2017 520.427 15.8302 520.204 15.8302C519.982 15.8302 519.833 16.2017 519.759 16.4989L512.923 34.778C512.848 35.0752 512.923 35.2981 513.22 35.2981Z" fill="black"/>
<path d="M571.192 36.8586V23.7808C571.192 12.4865 571.192 10.4059 571.044 8.02817C570.895 5.50179 570.301 4.31291 567.849 3.79277C567.254 3.64417 565.991 3.56986 564.951 3.56986C564.133 3.56986 563.687 3.42125 563.687 2.90112C563.687 2.38098 564.208 2.23237 565.322 2.23237C569.26 2.23237 573.942 2.45528 576.022 2.45528C578.326 2.45528 583.007 2.23237 587.465 2.23237C596.753 2.23237 609.162 2.23237 617.261 10.7031C620.977 14.567 624.469 20.7343 624.469 29.5766C624.469 38.9391 620.531 46.0724 616.37 50.3078C612.952 53.8001 605.224 59.0758 591.478 59.0758C588.803 59.0758 585.756 58.8529 582.932 58.6299C580.109 58.407 577.508 58.1841 575.651 58.1841C574.833 58.1841 573.198 58.1841 571.415 58.2584C569.706 58.2584 567.774 58.407 566.288 58.407C565.322 58.407 564.802 58.1841 564.802 57.664C564.802 57.2925 565.099 57.0695 565.991 57.0695C567.105 57.0695 567.997 56.9209 568.666 56.7723C570.152 56.4751 570.523 54.8404 570.821 52.6855C571.192 49.5647 571.192 43.6946 571.192 36.8586ZM580.48 22.592V31.9544C580.48 39.8308 580.555 45.5522 580.629 46.964C580.703 48.8217 580.852 51.7939 581.446 52.6112C582.412 54.023 585.31 55.5834 591.18 55.5834C598.759 55.5834 603.812 54.0973 608.27 50.2335C613.026 46.1467 614.512 39.3849 614.512 31.7315C614.512 22.2947 610.574 16.2017 607.379 13.1552C600.543 6.61637 592.072 5.72471 586.276 5.72471C584.79 5.72471 582.041 5.94763 581.446 6.24484C580.778 6.54206 580.555 6.91359 580.555 7.73095C580.48 10.2573 580.48 16.7219 580.48 22.592Z" fill="black"/>
<path d="M670.653 39.0134H654.083C653.712 39.0134 653.563 39.162 653.414 39.6078L649.402 50.2335C648.659 52.0911 648.287 53.8744 648.287 54.7661C648.287 56.1036 648.956 57.0695 651.259 57.0695H652.374C653.266 57.0695 653.489 57.2181 653.489 57.664C653.489 58.2584 653.043 58.407 652.225 58.407C649.848 58.407 646.653 58.1841 644.349 58.1841C643.532 58.1841 639.445 58.407 635.581 58.407C634.615 58.407 634.169 58.2584 634.169 57.664C634.169 57.2181 634.467 57.0695 635.061 57.0695C635.73 57.0695 636.77 56.9952 637.364 56.9209C640.782 56.4751 642.194 53.9487 643.68 50.2335L662.331 3.56986C663.223 1.41501 663.668 0.597656 664.412 0.597656C665.08 0.597656 665.526 1.2664 666.269 2.97542C668.052 7.0622 679.941 37.3787 684.697 48.6731C687.52 55.3605 689.675 56.4008 691.236 56.7723C692.35 56.9952 693.465 57.0695 694.356 57.0695C694.951 57.0695 695.322 57.1438 695.322 57.664C695.322 58.2584 694.654 58.407 691.904 58.407C689.229 58.407 683.805 58.407 677.861 58.2584C676.523 58.1841 675.632 58.1841 675.632 57.664C675.632 57.2181 675.929 57.0695 676.672 56.9952C677.192 56.8466 677.712 56.1779 677.341 55.2862L671.396 39.5335C671.248 39.162 671.025 39.0134 670.653 39.0134ZM655.569 35.2981H669.241C669.613 35.2981 669.687 35.0752 669.613 34.8523L662.925 16.4989C662.851 16.2017 662.777 15.8302 662.554 15.8302C662.331 15.8302 662.182 16.2017 662.108 16.4989L655.272 34.778C655.198 35.0752 655.272 35.2981 655.569 35.2981Z" fill="black"/>
<path d="M140.442 343.765V349.9C140.442 357.171 140.442 362.852 140.821 366.033C141.048 368.229 141.502 369.896 143.774 370.199C144.835 370.35 146.501 370.501 147.561 370.501C148.546 370.501 148.849 370.729 148.849 371.107C148.849 371.638 148.319 371.865 147.183 371.865C142.411 371.865 137.64 371.638 135.67 371.638C133.701 371.638 128.929 371.865 126.051 371.865C124.991 371.865 124.461 371.713 124.461 371.107C124.461 370.729 124.764 370.501 125.597 370.501C126.733 370.501 127.642 370.35 128.323 370.199C129.838 369.896 130.217 368.229 130.52 366.033C130.899 362.852 130.899 357.171 130.899 349.9V336.57C130.899 325.057 130.899 322.937 130.747 320.513C130.596 317.938 129.99 316.726 127.49 316.196C126.884 316.044 125.597 315.969 124.536 315.969C123.779 315.969 123.249 315.817 123.249 315.363C123.249 314.757 123.855 314.605 124.991 314.605C126.96 314.605 129.157 314.681 131.126 314.681C133.095 314.757 134.837 314.832 135.897 314.832C138.776 314.832 154.151 314.832 155.893 314.757C157.332 314.681 158.241 314.681 158.998 314.454C159.453 314.302 159.831 313.999 160.21 313.999C160.513 313.999 160.74 314.302 160.74 314.681C160.74 315.211 160.362 316.12 160.134 318.089C160.059 318.847 159.907 323.315 159.756 324.224C159.68 324.83 159.528 325.285 158.998 325.285C158.468 325.285 158.317 324.906 158.241 324.073C158.241 323.467 158.241 322.255 157.786 321.195C157.256 320.134 155.666 318.998 152.788 318.922L141.124 318.695C140.669 318.695 140.442 318.922 140.442 319.756V338.691C140.442 339.145 140.518 339.372 140.972 339.372L150.667 339.297C151.954 339.297 153.015 339.297 154.075 339.221C155.514 339.145 156.575 338.842 157.332 337.857C157.711 337.403 157.862 337.1 158.317 337.1C158.62 337.1 158.771 337.327 158.771 337.782C158.771 338.236 158.392 340.13 158.165 342.478C158.014 343.992 157.862 347.476 157.862 348.007C157.862 348.688 157.862 349.446 157.105 349.446C156.65 349.446 156.499 348.916 156.499 348.385C156.499 347.855 156.347 346.946 156.044 346.037C155.666 344.977 154.53 343.614 152.182 343.311C150.288 343.084 142.26 343.084 140.972 343.084C140.593 343.084 140.442 343.235 140.442 343.765Z" fill="black"/>
<path d="M198.086 336.57V349.9C198.086 359.595 198.086 364.821 199.676 366.184C200.964 367.32 202.933 367.851 208.841 367.851C212.855 367.851 215.809 367.775 217.702 365.73C218.611 364.745 219.52 362.625 219.671 361.185C219.747 360.504 219.899 360.049 220.505 360.049C221.035 360.049 221.111 360.428 221.111 361.337C221.111 362.17 220.58 367.851 219.974 370.047C219.52 371.713 219.141 372.092 215.203 372.092C209.75 372.092 205.811 371.941 202.403 371.865C198.994 371.713 196.268 371.638 193.162 371.638C192.329 371.638 190.663 371.638 188.845 371.713C187.103 371.713 185.134 371.865 183.619 371.865C182.635 371.865 182.104 371.638 182.104 371.107C182.104 370.729 182.407 370.501 183.316 370.501C184.452 370.501 185.361 370.35 186.043 370.199C187.558 369.896 187.936 368.229 188.239 366.033C188.618 362.852 188.618 356.868 188.618 349.9V336.57C188.618 325.057 188.618 322.937 188.467 320.513C188.315 317.938 187.709 316.726 185.21 316.196C184.604 316.044 183.695 315.969 182.71 315.969C181.877 315.969 181.423 315.817 181.423 315.287C181.423 314.757 181.953 314.605 183.089 314.605C186.649 314.605 191.42 314.832 193.465 314.832C195.283 314.832 200.812 314.605 203.766 314.605C204.826 314.605 205.357 314.757 205.357 315.287C205.357 315.817 204.902 315.969 203.993 315.969C203.16 315.969 201.948 316.044 201.039 316.196C198.994 316.574 198.388 317.862 198.237 320.513C198.086 322.937 198.086 325.057 198.086 336.57Z" fill="black"/>
<path d="M245.08 349.9V336.57C245.08 325.057 245.08 322.937 244.929 320.513C244.777 317.938 244.171 316.726 241.672 316.196C241.066 316.044 239.778 315.969 238.718 315.969C237.885 315.969 237.43 315.817 237.43 315.287C237.43 314.757 237.96 314.605 239.097 314.605C241.142 314.605 243.338 314.681 245.231 314.681C247.201 314.757 248.943 314.832 250.003 314.832C252.427 314.832 267.499 314.832 268.938 314.757C270.377 314.605 271.589 314.454 272.195 314.302C272.574 314.226 273.028 313.999 273.407 313.999C273.786 313.999 273.861 314.302 273.861 314.681C273.861 315.211 273.483 316.12 273.255 319.604C273.18 320.361 273.028 323.694 272.877 324.603C272.801 324.982 272.649 325.436 272.119 325.436C271.589 325.436 271.438 325.057 271.438 324.376C271.438 323.846 271.362 322.558 270.983 321.649C270.453 320.286 269.696 319.377 265.909 318.922C264.621 318.771 256.668 318.619 255.153 318.619C254.775 318.619 254.623 318.847 254.623 319.377V338.539C254.623 339.069 254.699 339.372 255.153 339.372C256.82 339.372 265.53 339.372 267.272 339.221C269.09 339.069 270.226 338.842 270.907 338.085C271.438 337.479 271.741 337.1 272.119 337.1C272.422 337.1 272.649 337.252 272.649 337.706C272.649 338.16 272.346 339.372 272.043 343.235C271.968 344.75 271.741 347.779 271.741 348.31C271.741 348.916 271.741 349.749 271.059 349.749C270.529 349.749 270.377 349.446 270.377 349.067C270.301 348.31 270.301 347.325 270.074 346.34C269.696 344.826 268.635 343.689 265.833 343.387C264.394 343.235 256.895 343.159 255.078 343.159C254.699 343.159 254.623 343.462 254.623 343.917V349.9C254.623 352.475 254.548 359.443 254.623 361.64C254.775 366.866 255.987 368.002 263.712 368.002C265.681 368.002 268.862 368.002 270.832 367.093C272.801 366.184 273.71 364.594 274.24 361.488C274.391 360.655 274.543 360.352 275.073 360.352C275.679 360.352 275.679 360.958 275.679 361.716C275.679 363.458 275.073 368.608 274.694 370.123C274.164 372.092 273.483 372.092 270.604 372.092C264.924 372.092 260.758 371.941 257.501 371.865C254.245 371.713 251.897 371.638 249.624 371.638C248.791 371.638 247.125 371.638 245.307 371.713C243.565 371.713 241.596 371.865 240.081 371.865C239.097 371.865 238.566 371.638 238.566 371.107C238.566 370.729 238.869 370.501 239.778 370.501C240.914 370.501 241.823 370.35 242.505 370.199C244.02 369.896 244.398 368.229 244.701 366.033C245.08 362.852 245.08 356.868 245.08 349.9Z" fill="black"/>
<path d="M303.539 349.9V336.57C303.539 325.057 303.539 322.937 303.388 320.513C303.236 317.938 302.63 316.726 300.131 316.196C299.525 316.044 298.237 315.969 297.177 315.969C296.344 315.969 295.889 315.817 295.889 315.287C295.889 314.757 296.419 314.605 297.556 314.605C299.601 314.605 301.797 314.681 303.691 314.681C305.66 314.757 307.402 314.832 308.462 314.832C310.886 314.832 325.958 314.832 327.397 314.757C328.836 314.605 330.048 314.454 330.654 314.302C331.033 314.226 331.487 313.999 331.866 313.999C332.245 313.999 332.32 314.302 332.32 314.681C332.32 315.211 331.942 316.12 331.714 319.604C331.639 320.361 331.487 323.694 331.336 324.603C331.26 324.982 331.108 325.436 330.578 325.436C330.048 325.436 329.897 325.057 329.897 324.376C329.897 323.846 329.821 322.558 329.442 321.649C328.912 320.286 328.155 319.377 324.368 318.922C323.08 318.771 315.127 318.619 313.612 318.619C313.234 318.619 313.082 318.847 313.082 319.377V338.539C313.082 339.069 313.158 339.372 313.612 339.372C315.279 339.372 323.989 339.372 325.731 339.221C327.549 339.069 328.685 338.842 329.366 338.085C329.897 337.479 330.2 337.1 330.578 337.1C330.881 337.1 331.108 337.252 331.108 337.706C331.108 338.16 330.806 339.372 330.503 343.235C330.427 344.75 330.2 347.779 330.2 348.31C330.2 348.916 330.2 349.749 329.518 349.749C328.988 349.749 328.836 349.446 328.836 349.067C328.761 348.31 328.761 347.325 328.533 346.34C328.155 344.826 327.094 343.689 324.292 343.387C322.853 343.235 315.354 343.159 313.537 343.159C313.158 343.159 313.082 343.462 313.082 343.917V349.9C313.082 352.475 313.007 359.443 313.082 361.64C313.234 366.866 314.446 368.002 322.171 368.002C324.14 368.002 327.321 368.002 329.291 367.093C331.26 366.184 332.169 364.594 332.699 361.488C332.851 360.655 333.002 360.352 333.532 360.352C334.138 360.352 334.138 360.958 334.138 361.716C334.138 363.458 333.532 368.608 333.153 370.123C332.623 372.092 331.942 372.092 329.063 372.092C323.383 372.092 319.217 371.941 315.96 371.865C312.704 371.713 310.356 371.638 308.083 371.638C307.25 371.638 305.584 371.638 303.766 371.713C302.024 371.713 300.055 371.865 298.54 371.865C297.556 371.865 297.025 371.638 297.025 371.107C297.025 370.729 297.328 370.501 298.237 370.501C299.373 370.501 300.282 370.35 300.964 370.199C302.479 369.896 302.857 368.229 303.16 366.033C303.539 362.852 303.539 356.868 303.539 349.9Z" fill="black"/>
<path d="M372.071 349.9V318.847L360.786 319.15C356.393 319.301 354.576 319.68 353.439 321.346C352.682 322.482 352.303 323.391 352.152 323.997C352 324.603 351.773 324.906 351.319 324.906C350.788 324.906 350.637 324.527 350.637 323.694C350.637 322.482 352.076 315.59 352.228 314.984C352.455 313.999 352.682 313.545 353.136 313.545C353.742 313.545 354.5 314.302 356.393 314.454C358.59 314.681 361.468 314.832 363.967 314.832H393.96C396.384 314.832 398.05 314.605 399.187 314.454C400.323 314.227 400.929 314.075 401.231 314.075C401.762 314.075 401.837 314.529 401.837 315.666C401.837 317.256 401.61 322.482 401.61 324.451C401.534 325.209 401.383 325.663 400.929 325.663C400.323 325.663 400.171 325.285 400.095 324.148L400.02 323.315C399.868 321.346 397.823 319.225 391.082 319.074L381.539 318.847V349.9C381.539 356.868 381.539 362.852 381.918 366.109C382.145 368.229 382.599 369.896 384.872 370.199C385.932 370.35 387.598 370.501 388.734 370.501C389.567 370.501 389.946 370.729 389.946 371.107C389.946 371.638 389.34 371.865 388.507 371.865C383.508 371.865 378.737 371.638 376.616 371.638C374.874 371.638 370.102 371.865 367.073 371.865C366.088 371.865 365.558 371.638 365.558 371.107C365.558 370.729 365.861 370.501 366.77 370.501C367.906 370.501 368.815 370.35 369.496 370.199C371.011 369.896 371.466 368.229 371.693 366.033C372.072 362.852 372.071 356.868 372.071 349.9Z" fill="black"/>
<path d="M459.685 349.9V336.57C459.685 325.057 459.685 322.937 459.534 320.513C459.382 317.938 458.776 316.726 456.277 316.196C455.671 316.044 454.383 315.969 453.323 315.969C452.49 315.969 452.035 315.817 452.035 315.287C452.035 314.757 452.566 314.605 453.702 314.605C457.716 314.605 462.488 314.832 464.002 314.832C467.714 314.832 470.668 314.605 473.243 314.605C486.952 314.605 489.375 321.952 489.375 325.966C489.375 332.177 485.816 335.888 481.65 339.221C487.861 341.341 495.435 346.719 495.435 355.581C495.435 363.685 489.148 372.092 475.212 372.092C474.303 372.092 472.107 371.941 469.91 371.865C467.638 371.713 465.366 371.638 464.23 371.638C463.396 371.638 461.73 371.638 459.912 371.713C458.17 371.713 456.201 371.865 454.686 371.865C453.702 371.865 453.172 371.638 453.172 371.107C453.172 370.729 453.475 370.501 454.383 370.501C455.52 370.501 456.428 370.35 457.11 370.199C458.625 369.896 459.004 368.229 459.307 366.033C459.685 362.852 459.685 356.868 459.685 349.9ZM468.774 319.15V337.857C468.774 338.463 469.001 338.615 469.304 338.691C469.986 338.842 471.122 338.918 472.864 338.918C475.363 338.918 477.03 338.615 478.317 337.479C480.287 335.888 481.423 333.162 481.423 329.45C481.423 324.376 478.469 317.711 471.955 317.711C470.895 317.711 470.213 317.711 469.456 317.862C468.926 318.014 468.774 318.316 468.774 319.15ZM486.119 358.989C486.119 354.293 484.528 347.931 478.772 343.917C477.181 342.781 475.439 342.25 472.485 342.099C471.122 342.023 470.365 342.023 469.228 342.023C468.926 342.023 468.774 342.175 468.774 342.553V360.504C468.774 365.503 469.001 366.79 471.425 367.775C473.47 368.608 475.212 368.684 476.954 368.684C480.362 368.684 486.119 366.866 486.119 358.989Z" fill="black"/>
<path d="M520.583 347.628V336.57C520.583 325.057 520.583 322.937 520.431 320.513C520.28 317.938 519.674 316.726 517.174 316.196C516.569 316.044 515.281 315.969 514.221 315.969C513.387 315.969 512.933 315.817 512.933 315.287C512.933 314.757 513.463 314.605 514.599 314.605C518.614 314.605 523.385 314.832 525.657 314.832C527.475 314.832 532.247 314.605 534.973 314.605C536.109 314.605 536.64 314.757 536.64 315.287C536.64 315.817 536.185 315.969 535.428 315.969C534.595 315.969 534.14 316.044 533.231 316.196C531.186 316.574 530.58 317.862 530.429 320.513C530.277 322.937 530.277 325.057 530.277 336.57V347.174C530.277 358.156 532.474 362.776 536.185 365.806C539.594 368.608 543.078 368.911 545.653 368.911C548.985 368.911 553.075 367.851 556.105 364.821C560.271 360.655 560.498 353.839 560.498 346.037V336.57C560.498 325.057 560.498 322.937 560.346 320.513C560.195 317.938 559.589 316.726 557.09 316.196C556.484 316.044 555.196 315.969 554.363 315.969C553.53 315.969 553.075 315.817 553.075 315.287C553.075 314.757 553.605 314.605 554.666 314.605C558.529 314.605 563.3 314.832 563.376 314.832C564.285 314.832 569.056 314.605 572.01 314.605C573.071 314.605 573.601 314.757 573.601 315.287C573.601 315.817 573.146 315.969 572.238 315.969C571.404 315.969 570.95 316.044 570.041 316.196C567.996 316.574 567.39 317.862 567.239 320.513C567.087 322.937 567.087 325.057 567.087 336.57V344.674C567.087 353.081 566.254 362.019 559.892 367.472C554.514 372.092 549.061 372.925 544.138 372.925C540.124 372.925 532.853 372.698 527.324 367.699C523.461 364.215 520.583 358.61 520.583 347.628Z" fill="black"/>
<path d="M598.941 349.9V336.57C598.941 325.057 598.941 322.937 598.789 320.513C598.638 317.938 597.88 316.65 596.214 316.271C595.381 316.044 594.396 315.969 593.487 315.969C592.73 315.969 592.276 315.817 592.276 315.211C592.276 314.757 592.882 314.605 594.093 314.605C596.971 314.605 601.743 314.832 603.94 314.832C605.833 314.832 610.302 314.605 613.18 314.605C614.164 314.605 614.77 314.757 614.77 315.211C614.77 315.817 614.316 315.969 613.559 315.969C612.801 315.969 612.195 316.044 611.286 316.196C609.241 316.574 608.635 317.862 608.484 320.513C608.333 322.937 608.333 325.057 608.333 336.57V349.9C608.333 357.247 608.332 363.23 608.635 366.487C608.863 368.532 609.393 369.896 611.665 370.199C612.725 370.35 614.392 370.501 615.528 370.501C616.361 370.501 616.74 370.729 616.74 371.107C616.74 371.638 616.134 371.865 615.301 371.865C610.302 371.865 605.53 371.638 603.485 371.638C601.743 371.638 596.972 371.865 593.942 371.865C592.957 371.865 592.427 371.638 592.427 371.107C592.427 370.729 592.73 370.501 593.639 370.501C594.775 370.501 595.684 370.35 596.366 370.199C597.88 369.896 598.335 368.608 598.562 366.412C598.941 363.23 598.941 357.247 598.941 349.9Z" fill="black"/>
<path d="M653.258 336.57V349.9C653.258 359.595 653.258 364.821 654.848 366.184C656.136 367.32 658.105 367.851 664.013 367.851C668.027 367.851 670.981 367.775 672.874 365.73C673.783 364.745 674.692 362.625 674.844 361.185C674.919 360.504 675.071 360.049 675.677 360.049C676.207 360.049 676.283 360.428 676.283 361.337C676.283 362.17 675.753 367.851 675.147 370.047C674.692 371.713 674.314 372.092 670.375 372.092C664.922 372.092 660.983 371.941 657.575 371.865C654.167 371.713 651.44 371.638 648.335 371.638C647.501 371.638 645.835 371.638 644.017 371.713C642.275 371.713 640.306 371.865 638.791 371.865C637.807 371.865 637.277 371.638 637.277 371.107C637.277 370.729 637.58 370.501 638.488 370.501C639.624 370.501 640.533 370.35 641.215 370.199C642.73 369.896 643.109 368.229 643.412 366.033C643.79 362.852 643.79 356.868 643.79 349.9V336.57C643.79 325.057 643.79 322.937 643.639 320.513C643.487 317.938 642.881 316.726 640.382 316.196C639.776 316.044 638.867 315.969 637.883 315.969C637.049 315.969 636.595 315.817 636.595 315.287C636.595 314.757 637.125 314.605 638.261 314.605C641.821 314.605 646.593 314.832 648.638 314.832C650.455 314.832 655.984 314.605 658.938 314.605C659.999 314.605 660.529 314.757 660.529 315.287C660.529 315.817 660.074 315.969 659.166 315.969C658.332 315.969 657.12 316.044 656.212 316.196C654.167 316.574 653.561 317.862 653.409 320.513C653.258 322.937 653.258 325.057 653.258 336.57Z" fill="black"/>
<path d="M700.252 349.9V336.57C700.252 325.057 700.252 322.937 700.101 320.513C699.949 317.938 699.343 316.726 696.844 316.196C696.238 316.044 694.95 315.969 693.89 315.969C693.057 315.969 692.602 315.817 692.602 315.287C692.602 314.757 693.133 314.605 694.269 314.605C698.283 314.605 703.055 314.832 705.175 314.832C707.523 314.832 712.295 314.605 716.839 314.605C726.307 314.605 738.955 314.605 747.211 323.24C750.998 327.178 754.558 333.465 754.558 342.478C754.558 352.021 750.544 359.292 746.302 363.609C742.818 367.169 734.941 372.546 720.929 372.546C718.203 372.546 715.097 372.319 712.219 372.092C709.341 371.865 706.69 371.638 704.797 371.638C703.963 371.638 702.297 371.638 700.479 371.713C698.737 371.713 696.768 371.865 695.253 371.865C694.269 371.865 693.739 371.638 693.739 371.107C693.739 370.729 694.042 370.501 694.95 370.501C696.086 370.501 696.995 370.35 697.677 370.199C699.192 369.896 699.571 368.229 699.874 366.033C700.252 362.852 700.252 356.868 700.252 349.9ZM709.72 335.358V344.901C709.72 352.93 709.796 358.762 709.871 360.201C709.947 362.094 710.098 365.124 710.704 365.957C711.689 367.396 714.643 368.987 720.626 368.987C728.352 368.987 733.502 367.472 738.047 363.533C742.894 359.368 744.409 352.475 744.409 344.674C744.409 335.055 740.395 328.844 737.138 325.739C730.17 319.074 721.535 318.165 715.628 318.165C714.113 318.165 711.31 318.392 710.704 318.695C710.023 318.998 709.795 319.377 709.795 320.21C709.72 322.785 709.72 329.375 709.72 335.358Z" fill="black"/>
<path d="M780.975 349.9V336.57C780.975 325.057 780.975 322.937 780.823 320.513C780.672 317.938 780.066 316.726 777.566 316.196C776.96 316.044 775.673 315.969 774.612 315.969C773.779 315.969 773.325 315.817 773.325 315.287C773.325 314.757 773.855 314.605 774.991 314.605C777.036 314.605 779.233 314.681 781.126 314.681C783.095 314.757 784.837 314.832 785.898 314.832C788.321 314.832 803.394 314.832 804.833 314.757C806.272 314.605 807.484 314.454 808.09 314.302C808.468 314.226 808.923 313.999 809.301 313.999C809.68 313.999 809.756 314.302 809.756 314.681C809.756 315.211 809.377 316.12 809.15 319.604C809.074 320.361 808.923 323.694 808.771 324.603C808.696 324.982 808.544 325.436 808.014 325.436C807.484 325.436 807.332 325.057 807.332 324.376C807.332 323.846 807.256 322.558 806.878 321.649C806.348 320.286 805.59 319.377 801.803 318.922C800.516 318.771 792.563 318.619 791.048 318.619C790.669 318.619 790.518 318.847 790.518 319.377V338.539C790.518 339.069 790.594 339.372 791.048 339.372C792.714 339.372 801.424 339.372 803.167 339.221C804.984 339.069 806.12 338.842 806.802 338.085C807.332 337.479 807.635 337.1 808.014 337.1C808.317 337.1 808.544 337.252 808.544 337.706C808.544 338.16 808.241 339.372 807.938 343.235C807.862 344.75 807.635 347.779 807.635 348.31C807.635 348.916 807.635 349.749 806.954 349.749C806.423 349.749 806.272 349.446 806.272 349.067C806.196 348.31 806.196 347.325 805.969 346.34C805.59 344.826 804.53 343.689 801.727 343.387C800.288 343.235 792.79 343.159 790.972 343.159C790.594 343.159 790.518 343.462 790.518 343.917V349.9C790.518 352.475 790.442 359.443 790.518 361.64C790.669 366.866 791.881 368.002 799.607 368.002C801.576 368.002 804.757 368.002 806.726 367.093C808.696 366.184 809.604 364.594 810.135 361.488C810.286 360.655 810.438 360.352 810.968 360.352C811.574 360.352 811.574 360.958 811.574 361.716C811.574 363.458 810.968 368.608 810.589 370.123C810.059 372.092 809.377 372.092 806.499 372.092C800.819 372.092 796.653 371.941 793.396 371.865C790.139 371.713 787.791 371.638 785.519 371.638C784.686 371.638 783.02 371.638 781.202 371.713C779.46 371.713 777.491 371.865 775.976 371.865C774.991 371.865 774.461 371.638 774.461 371.107C774.461 370.729 774.764 370.501 775.673 370.501C776.809 370.501 777.718 370.35 778.399 370.199C779.914 369.896 780.293 368.229 780.596 366.033C780.975 362.852 780.975 356.868 780.975 349.9Z" fill="black"/>
<path d="M839.434 349.9V336.57C839.434 325.057 839.434 322.937 839.282 320.513C839.131 317.938 838.525 316.726 836.025 316.196C835.419 316.044 834.132 315.969 833.072 315.969C832.238 315.969 831.784 315.817 831.784 315.287C831.784 314.757 832.314 314.605 833.45 314.605C837.464 314.605 842.236 314.832 843.827 314.832C846.402 314.832 852.158 314.605 854.506 314.605C859.278 314.605 864.352 315.06 868.442 317.862C870.563 319.301 873.593 323.164 873.593 328.238C873.593 333.843 871.245 338.994 863.595 345.204C870.336 353.687 875.562 360.428 880.03 365.124C884.272 369.517 887.377 370.047 888.513 370.274C889.346 370.426 890.028 370.501 890.634 370.501C891.24 370.501 891.543 370.729 891.543 371.107C891.543 371.713 891.013 371.865 890.104 371.865H882.909C878.667 371.865 876.774 371.486 874.804 370.426C871.548 368.684 868.669 365.124 864.428 359.292C861.398 355.126 857.914 349.976 856.93 348.84C856.551 348.385 856.097 348.31 855.566 348.31L848.977 348.158C848.598 348.158 848.371 348.31 848.371 348.764V349.824C848.371 356.868 848.371 362.852 848.75 366.033C848.977 368.229 849.431 369.896 851.704 370.199C852.84 370.35 854.506 370.501 855.415 370.501C856.021 370.501 856.324 370.729 856.324 371.107C856.324 371.638 855.794 371.865 854.809 371.865C850.416 371.865 844.811 371.638 843.675 371.638C842.236 371.638 837.464 371.865 834.435 371.865C833.45 371.865 832.92 371.638 832.92 371.107C832.92 370.729 833.223 370.501 834.132 370.501C835.268 370.501 836.177 370.35 836.859 370.199C838.373 369.896 838.752 368.229 839.055 366.033C839.434 362.852 839.434 356.868 839.434 349.9ZM848.371 319.528V342.553C848.371 343.387 848.523 343.689 849.053 343.917C850.643 344.447 852.915 344.674 854.809 344.674C857.839 344.674 858.823 344.371 860.187 343.387C862.459 341.72 864.655 338.236 864.655 332.025C864.655 321.27 857.536 318.165 853.067 318.165C851.173 318.165 849.81 318.241 849.053 318.468C848.523 318.619 848.371 318.922 848.371 319.528Z" fill="black"/>
</svg>
