<svg width="906" height="966" viewBox="0 0 906 966" fill="none" xmlns="http://www.w3.org/2000/svg">
<path fill-rule="evenodd" clip-rule="evenodd" d="M461.273 0L468.331 221.218C463.722 220.484 458.996 220.103 454.182 220.103C448.537 220.103 443.014 220.627 437.658 221.629L444.727 0H461.273ZM418.727 510.4V393.626C386.753 379.783 364.364 347.785 364.364 310.523C364.364 273.261 386.753 241.263 418.727 227.42V1.18974L379.727 24.9846L354.909 173.703L337.182 130.872L298.182 154.667L271 328.369L379.727 680.533L396.273 696L418.727 673.395V596.062L412.818 588.923V513.969L418.727 510.4ZM454.182 400.944C458.024 400.944 461.81 400.701 465.526 400.229L462.455 667.446L453 679.344L443.545 667.446L440.469 399.896C444.94 400.586 449.519 400.944 454.182 400.944ZM544 310.523C544 348.51 520.732 381.025 487.761 394.413L487.273 510.4L493.182 513.969V588.923L487.273 596.062V673.395L509.727 696L526.273 680.533L635 328.369L605.455 154.667L568.818 130.872L551.091 173.703L526.273 24.9846L489.636 1.18974L488.466 226.923C521.063 240.486 544 272.808 544 310.523ZM4.28055 751.102C2.97991 751.655 1.64827 752.22 0 752.788L906 752.788C904.352 752.22 903.02 751.655 901.719 751.102C893.991 747.819 887.356 745 821.883 745H84.1172C18.6436 745 12.0092 747.819 4.28055 751.102ZM4.27857 885.843C2.97866 885.29 1.64729 884.725 0 884.157L906 884.157C904.352 884.725 903.02 885.291 901.719 885.843C893.991 889.127 887.356 891.945 821.883 891.945H84.1172C18.6436 891.945 12.0092 889.127 4.28055 885.843L4.27911 885.843L4.2787 885.843H4.27857ZM11.2331 860.13C16.0815 862.272 21.1555 863.061 27.6952 863.061C33.6711 863.061 39.9854 862.046 45.6231 858.439C53.7413 853.141 56.2219 845.363 56.2219 838.825C56.2219 828.116 51.3735 820.338 37.7303 810.081L34.5732 807.713C25.2146 800.612 22.6213 796.667 22.6213 791.481C22.6213 784.718 27.6952 779.871 36.039 779.871C43.368 779.871 46.6378 783.252 48.3291 785.394C50.697 788.325 51.2607 791.819 51.2607 792.834C51.2607 794.187 51.599 794.863 52.3883 794.863C53.2903 794.863 53.6286 793.961 53.6286 791.481C53.6286 785.238 53.856 781.779 53.9879 779.774C54.0417 778.956 54.0796 778.379 54.0796 777.954C54.0796 777.165 53.5158 776.827 52.501 776.602C49.5694 775.813 44.8338 774.685 37.5048 774.685C21.832 774.685 11.4586 783.591 11.4586 795.99C11.4586 805.121 15.7433 813.011 28.1462 822.706L33.3329 826.764C42.6915 834.091 44.3828 839.276 44.3828 844.799C44.3828 850.774 39.4216 857.65 29.2737 857.65C22.283 857.65 15.6305 854.606 13.1499 846.265C12.5862 844.349 12.1351 841.981 12.1351 840.516C12.1351 839.614 12.0224 838.6 11.0076 838.6C10.1056 838.6 9.76731 839.84 9.65455 841.531L9.63275 841.876C9.49305 844.084 9.09078 850.442 9.09078 856.297C9.09078 858.777 9.42905 859.341 11.2331 860.13ZM113.843 828.793V782.576L97.0424 783.027C90.5026 783.252 87.7965 783.816 86.1052 786.296C84.9777 787.987 84.4139 789.339 84.1884 790.241C83.9629 791.143 83.6246 791.594 82.9481 791.594C82.1588 791.594 81.9333 791.03 81.9333 789.79C81.9333 787.987 84.0757 777.729 84.3012 776.827C84.6394 775.362 84.9777 774.685 85.6542 774.685C86.0013 774.685 86.3819 774.852 86.8793 775.071C87.6745 775.419 88.7686 775.899 90.5026 776.038C93.7725 776.376 98.0571 776.602 101.778 776.602H146.429C149.981 776.602 152.44 776.274 154.13 776.049H154.13L154.131 776.048L154.132 776.048L154.209 776.038C154.46 775.988 154.694 775.94 154.912 775.895C155.107 775.855 155.288 775.817 155.458 775.782L155.462 775.781L155.465 775.78C156.375 775.59 156.93 775.474 157.253 775.474C158.042 775.474 158.155 776.151 158.155 777.842C158.155 778.962 158.079 781.295 157.999 783.752L157.999 783.755L157.999 783.759L157.999 783.76V783.761C157.91 786.492 157.817 789.376 157.817 790.918C157.704 792.045 157.478 792.721 156.802 792.721C155.9 792.721 155.674 792.158 155.562 790.467L155.449 789.227C155.223 786.296 152.179 783.14 142.144 782.914L127.937 782.576V828.793C127.937 839.163 127.937 848.068 128.501 852.916C128.839 856.072 129.515 858.552 132.898 859.003C134.477 859.228 136.957 859.454 138.649 859.454C139.889 859.454 140.453 859.792 140.453 860.355C140.453 861.144 139.551 861.483 138.31 861.483C133.804 861.483 129.421 861.359 125.964 861.261L125.962 861.261L125.952 861.26C123.706 861.197 121.851 861.144 120.608 861.144C119.49 861.144 117.533 861.207 115.308 861.279L115.306 861.279L115.304 861.279L115.298 861.279L115.293 861.279L115.29 861.279C112.358 861.374 108.961 861.483 106.401 861.483C104.935 861.483 104.146 861.144 104.146 860.355C104.146 859.792 104.597 859.454 105.95 859.454C107.641 859.454 108.994 859.228 110.009 859.003C112.264 858.552 112.941 856.072 113.279 852.803C113.843 848.068 113.843 839.163 113.843 828.793ZM192.476 832.062H217.62C218.184 832.062 218.522 832.287 218.748 832.851L227.768 856.748C228.332 858.101 227.543 859.115 226.753 859.341C225.626 859.454 225.175 859.679 225.175 860.355C225.175 861.079 226.314 861.139 228.069 861.231H228.07L228.072 861.231C228.229 861.239 228.391 861.248 228.557 861.257C237.578 861.483 245.809 861.483 249.868 861.483C254.04 861.483 255.055 861.257 255.055 860.355C255.055 859.566 254.491 859.454 253.589 859.454C252.236 859.454 250.544 859.341 248.853 859.003C246.485 858.439 243.215 856.861 238.931 846.716C234.88 837.097 227.418 818.385 221.172 802.724L221.166 802.708L221.165 802.704L221.164 802.703L221.161 802.695C216.286 790.47 212.154 780.108 210.968 777.391C209.84 774.798 209.164 773.784 208.149 773.784C207.021 773.784 206.345 775.023 204.992 778.293L176.691 849.083C174.436 854.719 172.293 858.552 167.107 859.228C166.205 859.341 164.626 859.454 163.611 859.454C162.709 859.454 162.258 859.679 162.258 860.355C162.258 861.257 162.935 861.483 164.4 861.483C168.417 861.483 172.591 861.324 175.222 861.224C176.432 861.178 177.315 861.144 177.705 861.144C179.439 861.144 181.505 861.228 183.587 861.311L183.59 861.312C185.706 861.397 187.839 861.483 189.657 861.483C190.898 861.483 191.574 861.257 191.574 860.355C191.574 859.679 191.236 859.454 189.883 859.454H188.192C184.696 859.454 183.681 857.988 183.681 855.959C183.681 854.606 184.245 851.901 185.373 849.083L191.461 832.964C191.687 832.287 191.912 832.062 192.476 832.062ZM215.478 826.426H194.731C194.28 826.426 194.167 826.087 194.28 825.636L204.654 797.906C204.766 797.456 204.992 796.892 205.33 796.892C205.644 796.892 205.764 797.379 205.87 797.809L205.894 797.906L216.042 825.749C216.155 826.087 216.042 826.426 215.478 826.426ZM282.701 828.793V808.953C282.701 791.819 282.701 788.663 282.476 785.056C282.25 781.223 281.348 779.42 277.627 778.631C276.725 778.405 274.809 778.293 273.23 778.293C271.99 778.293 271.313 778.067 271.313 777.278C271.313 776.489 272.102 776.263 273.794 776.263C277.46 776.263 281.551 776.391 284.712 776.489H284.715C286.705 776.551 288.326 776.602 289.241 776.602C291.202 776.602 294.402 776.513 297.529 776.427H297.531L297.534 776.427C300.518 776.344 303.433 776.263 305.139 776.263C312.243 776.263 319.797 776.94 325.886 781.111C329.043 783.252 333.553 789.001 333.553 796.554C333.553 804.895 330.058 812.56 318.67 821.804L319.231 822.51L319.641 823.027C320.053 823.546 320.462 824.06 320.866 824.57C321.404 825.249 321.936 825.919 322.461 826.581L322.591 826.745L322.602 826.759L322.602 826.76C330.779 837.074 337.38 845.402 343.137 851.45C349.304 857.835 353.857 858.737 355.642 859.091L355.766 859.115C357.006 859.341 358.021 859.454 358.923 859.454C359.825 859.454 360.276 859.792 360.276 860.355C360.276 861.257 359.487 861.483 358.134 861.483H347.422C341.108 861.483 338.289 860.919 335.357 859.341C330.509 856.748 326.224 851.45 319.91 842.77C317.997 840.141 315.962 837.247 314.141 834.658L314.14 834.656L314.139 834.654C311.668 831.141 309.591 828.188 308.747 827.215C308.184 826.538 307.507 826.426 306.718 826.426L296.908 826.2C296.345 826.2 296.006 826.426 296.006 827.102V828.68C296.006 839.163 296.006 848.068 296.57 852.803C296.908 856.072 297.585 858.552 300.967 859.003C302.659 859.228 305.139 859.454 306.492 859.454C307.394 859.454 307.845 859.792 307.845 860.355C307.845 861.144 307.056 861.483 305.59 861.483C301.255 861.483 296.127 861.334 292.67 861.234C290.912 861.183 289.586 861.144 289.016 861.144C288.149 861.144 286.471 861.2 284.481 861.266L284.468 861.266L284.439 861.267L284.429 861.267L284.426 861.268H284.425H284.424L284.42 861.268H284.419L284.416 861.268H284.414L284.411 861.268H284.409L284.406 861.268H284.405L284.402 861.268H284.4L284.397 861.269H284.395H284.393C281.479 861.365 277.918 861.483 275.26 861.483C273.794 861.483 273.005 861.144 273.005 860.355C273.005 859.792 273.456 859.454 274.809 859.454C276.5 859.454 277.853 859.228 278.868 859.003C281.123 858.552 281.687 856.072 282.138 852.803C282.701 848.068 282.701 839.163 282.701 828.793ZM296.006 783.591V817.859C296.006 819.099 296.232 819.549 297.021 819.888C299.389 820.677 302.772 821.015 305.59 821.015C310.101 821.015 311.566 820.564 313.596 819.099C316.979 816.619 320.248 811.433 320.248 802.19C320.248 786.183 309.65 781.562 302.997 781.562C300.178 781.562 298.149 781.674 297.021 782.012C296.232 782.238 296.006 782.689 296.006 783.591ZM447.4 828.793V819.662C447.4 818.873 447.625 818.648 448.189 818.648C450.106 818.648 462.058 818.648 464.876 818.986C468.372 819.437 470.063 821.466 470.627 823.044C471.078 824.396 471.303 825.749 471.303 826.538C471.303 827.327 471.529 828.116 472.205 828.116C473.333 828.116 473.333 826.989 473.333 825.975C473.333 825.186 473.558 820 473.784 817.746C473.979 815.732 474.249 813.943 474.442 812.659L474.443 812.656C474.585 811.713 474.686 811.043 474.686 810.757C474.686 810.081 474.461 809.742 474.009 809.742C473.444 809.742 473.194 810.057 472.798 810.556L472.796 810.557C472.719 810.655 472.636 810.759 472.544 810.87C471.416 812.335 469.838 812.786 467.695 812.899C466.117 813.011 464.538 813.011 462.621 813.011L448.189 813.124C447.512 813.124 447.4 812.786 447.4 812.11V783.929C447.4 782.689 447.738 782.351 448.414 782.351L465.778 782.689C470.063 782.801 472.431 784.492 473.22 786.07C473.897 787.649 473.897 789.452 473.897 790.354C474.009 791.594 474.235 792.158 475.024 792.158C475.814 792.158 476.039 791.481 476.152 790.579C476.292 789.736 476.433 786.831 476.546 784.491L476.546 784.49C476.615 783.078 476.673 781.873 476.716 781.449C476.911 779.757 477.181 778.591 477.375 777.755C477.517 777.144 477.618 776.71 477.618 776.376C477.618 775.813 477.279 775.362 476.828 775.362C476.481 775.362 476.134 775.533 475.76 775.717C475.527 775.832 475.284 775.951 475.024 776.038C474.099 776.316 473.022 776.365 471.482 776.437C471.145 776.452 470.786 776.469 470.401 776.489C467.808 776.602 444.919 776.602 440.634 776.602C439.299 776.602 437.238 776.521 434.86 776.428L434.855 776.428L434.79 776.425C434.379 776.409 433.958 776.393 433.531 776.376C432.072 776.376 430.529 776.348 428.985 776.32H428.985H428.984H428.984H428.983H428.983H428.982H428.981H428.981H428.98H428.98H428.979H428.979H428.978H428.978H428.977H428.977L428.966 776.32H428.964C427.414 776.292 425.864 776.263 424.398 776.263C422.706 776.263 421.804 776.489 421.804 777.391C421.804 778.067 422.594 778.293 423.721 778.293C425.3 778.293 427.217 778.405 428.119 778.631C431.84 779.42 432.742 781.223 432.967 785.056C433.193 788.663 433.193 791.819 433.193 808.953V828.793C433.193 839.614 433.193 848.068 432.629 852.803C432.178 856.072 431.614 858.552 429.359 859.003C428.344 859.228 426.991 859.454 425.3 859.454C424.059 859.454 423.608 859.792 423.608 860.355C423.608 861.257 424.398 861.483 425.976 861.483C428.312 861.483 431.484 861.382 434.363 861.291L434.366 861.29H434.368H434.37H434.371H434.371L434.376 861.29H434.378H434.38L434.384 861.29L434.391 861.29L434.398 861.29L434.401 861.289L434.406 861.289C436.791 861.214 438.97 861.144 440.296 861.144C441.442 861.144 443.224 861.196 445.395 861.259L445.401 861.259L445.403 861.259C448.786 861.357 453.11 861.483 457.435 861.483C459.126 861.483 459.915 861.144 459.915 860.355C459.915 859.792 459.464 859.454 457.998 859.454C456.42 859.454 453.939 859.228 452.361 859.003C448.978 858.552 448.302 856.072 447.963 852.803C447.4 848.068 447.4 839.614 447.4 828.793ZM552.269 863.061C519.908 863.061 506.829 838.825 506.829 818.873C506.829 799.597 519.57 774.685 553.396 774.685C581.472 774.685 598.949 791.03 598.949 816.844C598.949 842.658 580.908 863.061 552.269 863.061ZM557.004 857.425C564.897 857.425 583.163 853.592 583.163 821.015C583.163 795.765 568.618 780.096 550.126 780.096C537.16 780.096 522.389 787.31 522.389 815.379C522.389 838.825 535.356 857.425 557.004 857.425ZM638.073 785.056C638.299 788.663 638.299 791.819 638.299 808.953V828.793C638.299 839.163 638.299 848.068 637.735 852.803C637.284 856.072 636.72 858.552 634.465 859.003C633.451 859.228 632.098 859.454 630.406 859.454C629.053 859.454 628.602 859.792 628.602 860.355C628.602 861.144 629.391 861.483 630.857 861.483C633.515 861.483 637.074 861.365 639.987 861.269H639.989L639.992 861.269H639.994L639.997 861.268H639.998L640.002 861.268H640.004L640.007 861.268L640.011 861.268H640.013L640.017 861.268H640.019H640.02L640.023 861.268H640.024L640.027 861.267L640.037 861.267C642.045 861.201 643.741 861.144 644.613 861.144C644.936 861.144 645.501 861.157 646.249 861.177C646.808 861.192 647.468 861.211 648.207 861.232L648.268 861.234C651.725 861.334 656.853 861.483 661.188 861.483C662.654 861.483 663.443 861.144 663.443 860.355C663.443 859.792 662.992 859.454 662.09 859.454C660.737 859.454 658.256 859.228 656.565 859.003C653.182 858.552 652.506 856.072 652.168 852.803C651.604 848.068 651.604 839.163 651.604 828.68V827.102C651.604 826.426 651.942 826.2 652.506 826.2L662.316 826.426C663.105 826.426 663.781 826.538 664.345 827.215C665.187 828.186 667.258 831.131 669.723 834.636L669.725 834.637L669.729 834.643L669.737 834.655L669.739 834.658L669.744 834.665C671.564 837.253 673.597 840.143 675.508 842.77C681.822 851.45 686.107 856.748 690.955 859.341C693.887 860.919 696.706 861.483 703.02 861.483H713.731C715.084 861.483 715.874 861.257 715.874 860.355C715.874 859.792 715.423 859.454 714.521 859.454C713.619 859.454 712.604 859.341 711.364 859.115L711.24 859.091C709.454 858.737 704.901 857.835 698.735 851.45C692.979 845.403 686.378 837.077 678.204 826.765L678.203 826.763L678.2 826.76L678.158 826.707C676.899 825.119 675.603 823.485 674.267 821.804C685.656 812.56 689.151 804.895 689.151 796.554C689.151 789.001 684.641 783.252 681.484 781.111C675.395 776.94 667.84 776.263 660.737 776.263C659.031 776.263 656.117 776.344 653.134 776.427L653.128 776.427H653.126C650 776.513 646.8 776.602 644.839 776.602C643.924 776.602 642.302 776.551 640.312 776.489H640.31C637.149 776.391 633.058 776.263 629.391 776.263C627.7 776.263 626.911 776.489 626.911 777.278C626.911 778.067 627.587 778.293 628.828 778.293C630.406 778.293 632.323 778.405 633.225 778.631C636.946 779.42 637.848 781.223 638.073 785.056ZM651.604 817.859V783.591C651.604 782.689 651.829 782.238 652.619 782.012C653.746 781.674 655.776 781.562 658.595 781.562C665.247 781.562 675.846 786.183 675.846 802.19C675.846 811.433 672.576 816.619 669.194 819.099C667.164 820.564 665.698 821.015 661.188 821.015C658.369 821.015 654.987 820.677 652.619 819.888C651.829 819.549 651.604 819.099 651.604 817.859ZM807.092 841.531V853.93C807.092 856.974 806.979 857.199 805.626 857.988C798.297 861.821 787.247 863.061 778.452 863.061C750.827 863.061 726.36 849.985 726.36 818.873C726.36 800.837 735.718 788.212 745.979 782.012C756.803 775.474 766.838 774.685 776.31 774.685C784.09 774.685 794.012 776.038 796.267 776.489C798.635 776.94 802.581 777.616 805.175 777.729C806.528 777.842 806.753 778.293 806.753 779.082C806.753 779.365 806.712 779.749 806.648 780.341C806.433 782.338 805.964 786.701 805.964 797.568C805.964 799.372 805.626 799.935 804.724 799.935C803.934 799.935 803.709 799.372 803.596 798.47C803.258 795.877 802.694 792.27 799.763 789.114C796.38 785.507 787.36 780.322 774.618 780.322C768.417 780.322 760.186 780.772 752.293 787.31C745.979 792.608 741.92 801.063 741.92 814.928C741.92 839.163 757.367 857.312 781.158 857.312C784.09 857.312 788.036 857.312 790.742 856.072C792.434 855.283 792.885 853.817 792.885 851.901V841.305C792.885 835.669 792.885 831.385 792.772 828.004C792.659 824.171 791.644 822.367 787.923 821.578C787.021 821.353 785.105 821.24 783.526 821.24C782.511 821.24 781.835 821.015 781.835 820.338C781.835 819.437 782.624 819.211 784.203 819.211C787.535 819.211 791.268 819.32 794.49 819.415L794.492 819.415H794.493H794.494C796.94 819.486 799.092 819.549 800.552 819.549C802.272 819.549 804.593 819.467 806.95 819.384L806.952 819.384C809.384 819.298 811.855 819.211 813.744 819.211C815.21 819.211 815.999 819.437 815.999 820.338C815.999 821.015 815.323 821.24 814.533 821.24C813.631 821.24 812.842 821.353 811.489 821.578C808.445 822.142 807.317 824.058 807.204 828.004C807.092 831.385 807.092 835.894 807.092 841.531ZM854.081 785.056C854.306 788.663 854.306 791.819 854.306 808.953V828.793C854.306 839.163 854.306 848.068 853.743 852.803C853.292 856.072 852.728 858.552 850.473 859.003C849.458 859.228 848.105 859.454 846.414 859.454C845.061 859.454 844.61 859.792 844.61 860.355C844.61 861.144 845.399 861.483 846.865 861.483C847.953 861.483 849.198 861.43 850.488 861.376C851.87 861.318 853.303 861.257 854.645 861.257C857.351 861.144 859.831 861.144 861.072 861.144C864.454 861.144 867.95 861.257 872.798 861.483C873.133 861.49 873.475 861.499 873.823 861.508L874.597 861.527C874.908 861.535 875.223 861.544 875.544 861.552L875.878 861.561L876.055 861.566L876.068 861.566L876.071 861.566C880.376 861.681 885.64 861.821 892.304 861.821C896.589 861.821 897.604 861.821 898.393 858.89C898.957 856.635 899.859 848.97 899.859 846.378C899.859 845.25 899.859 844.349 898.957 844.349C898.168 844.349 897.942 844.799 897.717 846.039C896.927 850.661 895.574 853.028 892.643 854.381C889.711 855.734 884.975 855.734 882.044 855.734C870.543 855.734 868.739 854.043 868.513 846.265C868.433 843.943 868.467 838.038 868.493 833.439L868.494 833.382L868.494 833.28C868.504 831.469 868.513 829.872 868.513 828.793V819.888C868.513 819.211 868.626 818.76 869.19 818.76C871.896 818.76 883.059 818.873 885.201 819.099C889.373 819.549 890.951 821.24 891.515 823.495C891.757 824.542 891.826 825.589 891.887 826.513L891.887 826.518C891.911 826.885 891.934 827.233 891.966 827.553C891.966 828.116 892.192 828.567 892.981 828.567C893.996 828.567 893.996 827.327 893.996 826.426C893.996 825.993 894.097 824.443 894.208 822.76L894.208 822.757L894.209 822.745L894.21 822.731C894.3 821.351 894.396 819.885 894.447 818.873C894.746 815.062 895.045 812.985 895.212 811.821L895.213 811.819C895.298 811.228 895.349 810.872 895.349 810.644C895.349 809.968 895.011 809.742 894.56 809.742C894.034 809.742 893.606 810.233 892.91 811.031L892.755 811.208C891.741 812.335 890.049 812.673 887.343 812.899C884.75 813.124 871.783 813.124 869.303 813.124C868.626 813.124 868.513 812.673 868.513 811.884V783.365C868.513 782.576 868.739 782.238 869.303 782.238C871.558 782.238 883.397 782.463 885.314 782.689C890.951 783.365 892.079 784.718 892.868 786.747C893.432 788.099 893.545 790.016 893.545 790.805C893.545 791.819 893.77 792.383 894.56 792.383C895.349 792.383 895.574 791.707 895.687 791.143C895.832 790.272 895.977 787.908 896.092 786.032L896.093 786.029L896.093 786.027L896.094 786.014L896.095 785.993C896.158 784.971 896.211 784.1 896.251 783.703C896.479 780.205 896.81 778.451 897.001 777.438C897.093 776.949 897.153 776.633 897.153 776.376C897.153 775.813 897.04 775.362 896.476 775.362C896.13 775.362 895.741 775.489 895.361 775.614L895.36 775.614C895.2 775.667 895.04 775.72 894.887 775.761C894.852 775.771 894.817 775.78 894.783 775.788C894.765 775.792 894.748 775.796 894.731 775.8C894.711 775.805 894.692 775.809 894.672 775.813C893.77 776.038 891.966 776.263 889.824 776.489C887.682 776.602 865.243 776.602 861.635 776.602C860.301 776.602 858.242 776.521 855.866 776.428L855.856 776.428C855.424 776.411 854.982 776.394 854.532 776.376C853.15 776.376 851.659 776.349 850.139 776.321L850.131 776.321C848.555 776.293 846.948 776.263 845.399 776.263C843.708 776.263 842.918 776.489 842.918 777.278C842.918 778.067 843.595 778.293 844.835 778.293C846.414 778.293 848.33 778.405 849.232 778.631C852.953 779.42 853.855 781.223 854.081 785.056ZM175.298 939.961V945.439C175.298 951.932 175.298 957.005 175.636 959.845C175.839 961.807 176.245 963.295 178.274 963.565C179.221 963.7 180.71 963.836 181.657 963.836C182.536 963.836 182.807 964.039 182.807 964.377C182.807 964.85 182.333 965.053 181.319 965.053C178.724 965.053 176.129 964.978 174.099 964.919L174.091 964.919C172.79 964.881 171.722 964.85 171.035 964.85C170.24 964.85 168.934 964.892 167.503 964.937L167.499 964.937L167.497 964.937L167.493 964.937C165.761 964.992 163.85 965.053 162.444 965.053C161.496 965.053 161.023 964.918 161.023 964.377C161.023 964.039 161.294 963.836 162.038 963.836C163.052 963.836 163.864 963.7 164.473 963.565C165.826 963.295 166.164 961.807 166.435 959.845C166.773 957.005 166.773 951.932 166.773 945.439V933.536C166.773 923.255 166.773 921.361 166.638 919.197C166.503 916.898 165.962 915.815 163.729 915.342C163.188 915.207 162.038 915.139 161.091 915.139C160.414 915.139 159.94 915.004 159.94 914.598C159.94 914.057 160.482 913.922 161.496 913.922C162.376 913.922 163.306 913.939 164.236 913.956C165.167 913.972 166.097 913.989 166.976 913.989L167.349 914.004L167.771 914.02C169.199 914.076 170.437 914.125 171.238 914.125C173.809 914.125 187.543 914.125 189.099 914.057C189.329 914.045 189.544 914.035 189.746 914.026H189.747C190.671 913.983 191.317 913.953 191.872 913.786C192.028 913.735 192.174 913.663 192.313 913.594L192.314 913.594C192.538 913.483 192.746 913.381 192.955 913.381C193.225 913.381 193.428 913.651 193.428 913.989C193.428 914.189 193.368 914.45 193.283 914.817C193.167 915.318 193.004 916.018 192.887 917.033C192.862 917.287 192.827 918.01 192.786 918.857L192.786 918.858C192.718 920.262 192.633 922.005 192.549 922.511C192.481 923.052 192.346 923.458 191.872 923.458C191.399 923.458 191.263 923.12 191.196 922.376C191.196 921.835 191.196 920.753 190.79 919.806C190.316 918.859 188.896 917.844 186.325 917.777L175.906 917.574C175.501 917.574 175.298 917.777 175.298 918.521V935.429C175.298 935.835 175.365 936.038 175.771 936.038L184.431 935.97C185.581 935.97 186.528 935.97 187.475 935.903C188.76 935.835 189.708 935.565 190.384 934.685C190.439 934.619 190.489 934.556 190.536 934.498L190.536 934.497C190.774 934.198 190.924 934.009 191.263 934.009C191.534 934.009 191.669 934.212 191.669 934.618C191.669 934.79 191.609 935.192 191.523 935.759C191.407 936.529 191.245 937.603 191.128 938.811C190.993 940.164 190.858 943.275 190.858 943.748C190.858 944.357 190.858 945.033 190.181 945.033C189.775 945.033 189.64 944.56 189.64 944.087C189.64 943.613 189.505 942.801 189.234 941.99C188.896 941.043 187.881 939.826 185.784 939.555C184.092 939.352 176.921 939.352 175.771 939.352C175.433 939.352 175.298 939.487 175.298 939.961ZM219.344 945.439V933.536C219.344 923.255 219.344 921.361 219.479 919.197C219.615 916.83 220.156 915.68 221.982 915.342C222.794 915.207 223.877 915.139 224.621 915.139C225.433 915.139 225.839 915.004 225.839 914.53C225.839 914.057 225.365 913.922 224.418 913.922C222.941 913.922 220.744 913.985 218.811 914.041H218.808H218.806H218.805H218.805L218.802 914.041C217.285 914.085 215.931 914.125 215.217 914.125C214.439 914.125 213.218 914.087 211.827 914.045L211.795 914.044L211.792 914.044H211.789H211.787H211.785H211.783H211.782H211.78H211.779H211.778L211.776 914.044C209.915 913.987 207.757 913.922 205.949 913.922C204.934 913.922 204.46 914.057 204.46 914.53C204.46 915.004 204.866 915.139 205.611 915.139C206.49 915.139 207.302 915.207 207.843 915.342C210.076 915.815 210.617 916.898 210.752 919.197C210.887 921.361 210.887 923.255 210.887 933.536V945.439C210.887 951.662 210.887 957.005 210.549 959.845C210.279 961.807 209.94 963.295 208.587 963.565C207.978 963.7 207.167 963.836 206.152 963.836C205.34 963.836 205.069 964.039 205.069 964.377C205.069 964.85 205.543 965.053 206.422 965.053C207.075 965.053 207.823 965.022 208.597 964.989L208.603 964.989L208.605 964.989C209.432 964.954 210.288 964.918 211.09 964.918C212.714 964.85 214.202 964.85 214.947 964.85C217.72 964.85 220.156 964.918 223.2 965.053C223.455 965.059 223.714 965.065 223.976 965.071C224.154 965.076 224.334 965.08 224.516 965.085L224.95 965.096L225.518 965.112H225.519H225.52H225.522H225.523H225.525H225.527H225.528H225.53H225.532H225.534H225.536H225.538H225.54C228.052 965.179 230.958 965.256 234.633 965.256C238.151 965.256 238.49 964.918 238.895 963.43C239.437 961.469 239.91 956.396 239.91 955.652C239.91 954.84 239.843 954.502 239.369 954.502C238.828 954.502 238.693 954.908 238.625 955.517C238.49 956.802 237.678 958.695 236.866 959.575C235.175 961.401 232.536 961.469 228.951 961.469C223.674 961.469 221.915 960.995 220.765 959.981C219.344 958.763 219.344 954.096 219.344 945.439ZM253.878 945.439V933.536C253.878 923.255 253.878 921.361 253.743 919.197C253.608 916.898 253.067 915.815 250.834 915.342C250.293 915.207 249.143 915.139 248.196 915.139C247.451 915.139 247.046 915.004 247.046 914.53C247.046 914.057 247.519 913.922 248.534 913.922C249.465 913.922 250.431 913.939 251.378 913.956L251.388 913.957C252.296 913.973 253.188 913.989 254.014 913.989L254.653 914.014L254.755 914.018L254.808 914.02C256.236 914.076 257.474 914.125 258.276 914.125C260.441 914.125 273.903 914.125 275.189 914.057C276.474 913.922 277.557 913.786 278.098 913.651C278.121 913.646 278.145 913.641 278.169 913.635L278.199 913.628C278.235 913.618 278.272 913.608 278.31 913.596C278.328 913.591 278.346 913.586 278.364 913.58C278.412 913.565 278.461 913.548 278.511 913.532C278.739 913.457 278.972 913.381 279.18 913.381C279.519 913.381 279.586 913.651 279.586 913.989C279.586 914.143 279.55 914.333 279.495 914.626C279.38 915.234 279.182 916.287 279.045 918.385C279.021 918.626 278.988 919.159 278.95 919.781C278.881 920.907 278.794 922.327 278.707 922.849C278.639 923.188 278.504 923.593 278.03 923.593C277.557 923.593 277.421 923.255 277.421 922.646C277.421 922.173 277.354 921.023 277.015 920.212C276.542 918.994 275.865 918.183 272.483 917.777C271.333 917.642 264.229 917.506 262.876 917.506C262.538 917.506 262.403 917.709 262.403 918.183V935.294C262.403 935.768 262.47 936.038 262.876 936.038C264.365 936.038 272.145 936.038 273.701 935.903C275.324 935.768 276.339 935.565 276.948 934.888L277.04 934.782C277.458 934.303 277.715 934.009 278.03 934.009C278.301 934.009 278.504 934.144 278.504 934.55C278.504 934.687 278.473 934.901 278.422 935.256C278.321 935.955 278.142 937.201 277.963 939.487C277.932 940.098 277.874 940.985 277.819 941.817L277.819 941.822L277.818 941.835L277.818 941.84C277.752 942.842 277.692 943.761 277.692 944.019C277.692 944.56 277.692 945.304 277.083 945.304C276.61 945.304 276.474 945.033 276.474 944.695C276.455 944.502 276.441 944.293 276.427 944.072C276.39 943.517 276.349 942.889 276.204 942.26C275.865 940.908 274.918 939.893 272.415 939.623C271.13 939.487 264.432 939.42 262.809 939.42C262.47 939.42 262.403 939.69 262.403 940.096V945.439C262.403 945.692 262.402 945.993 262.4 946.331L262.399 946.703C262.397 947.165 262.394 947.681 262.39 948.227V948.228C262.375 950.988 262.355 954.53 262.403 955.923C262.538 960.589 263.62 961.604 270.521 961.604C272.28 961.604 275.121 961.604 276.88 960.792C278.639 959.981 279.451 958.56 279.925 955.787C280.06 955.043 280.195 954.773 280.669 954.773C281.21 954.773 281.21 955.314 281.21 955.99C281.21 957.546 280.669 962.145 280.33 963.498C279.857 965.256 279.248 965.256 276.677 965.256C272.689 965.256 269.537 965.172 266.958 965.104H266.956H266.954H266.953H266.952H266.951H266.95H266.949H266.948H266.947H266.946L266.943 965.104L266.937 965.103L266.931 965.103H266.929L266.88 965.102C266.607 965.095 266.339 965.087 266.078 965.081C265.697 965.071 265.329 965.061 264.973 965.053C262.064 964.918 259.967 964.85 257.938 964.85C257.193 964.85 255.705 964.85 254.081 964.918C253.279 964.918 252.423 964.954 251.596 964.989L251.594 964.989L251.588 964.989C250.814 965.022 250.066 965.053 249.413 965.053C248.534 965.053 248.06 964.85 248.06 964.377C248.06 964.039 248.331 963.836 249.143 963.836C250.158 963.836 250.969 963.7 251.578 963.565C252.931 963.295 253.27 961.807 253.54 959.845C253.878 957.005 253.878 951.662 253.878 945.439ZM298.518 919.197C298.653 921.361 298.653 923.255 298.653 933.536V945.439C298.653 951.662 298.653 957.005 298.315 959.845C298.044 961.807 297.706 963.295 296.353 963.565C295.744 963.7 294.932 963.836 293.917 963.836C293.106 963.836 292.835 964.039 292.835 964.377C292.835 964.85 293.309 965.053 294.188 965.053C294.841 965.053 295.589 965.022 296.362 964.989L296.368 964.989L296.37 964.989C297.197 964.954 298.054 964.918 298.856 964.918C300.48 964.85 301.968 964.85 302.712 964.85C304.742 964.85 306.839 964.918 309.748 965.053C310.173 965.063 310.615 965.074 311.077 965.086L311.706 965.103L311.712 965.103L311.717 965.104H311.721C314.302 965.172 317.458 965.256 321.452 965.256C324.023 965.256 324.632 965.256 325.105 963.498C325.443 962.145 325.985 957.546 325.985 955.99C325.985 955.314 325.985 954.773 325.443 954.773C324.97 954.773 324.835 955.043 324.699 955.787C324.226 958.56 323.414 959.981 321.655 960.792C319.896 961.604 317.055 961.604 315.296 961.604C308.395 961.604 307.313 960.589 307.177 955.923C307.129 954.531 307.149 950.997 307.165 948.239V948.236V948.233V948.229V948.227C307.172 947.101 307.177 946.105 307.177 945.439V940.096C307.177 939.69 307.245 939.42 307.583 939.42C309.207 939.42 315.904 939.487 317.19 939.623C319.693 939.893 320.64 940.908 320.978 942.26C321.123 942.889 321.165 943.517 321.201 944.072C321.216 944.293 321.23 944.502 321.249 944.695C321.249 945.033 321.384 945.304 321.858 945.304C322.467 945.304 322.467 944.56 322.467 944.019C322.467 943.79 322.514 943.039 322.571 942.172L322.594 941.817L322.594 941.814C322.615 941.499 322.636 941.176 322.656 940.864C322.673 940.603 322.689 940.349 322.703 940.112C322.716 939.885 322.728 939.673 322.737 939.487C322.917 937.201 323.096 935.954 323.197 935.255C323.248 934.9 323.279 934.687 323.279 934.55C323.279 934.144 323.076 934.009 322.805 934.009C322.489 934.009 322.233 934.303 321.815 934.782L321.723 934.888C321.114 935.565 320.099 935.768 318.475 935.903C316.919 936.038 309.139 936.038 307.651 936.038C307.245 936.038 307.177 935.768 307.177 935.294V918.183C307.177 917.709 307.313 917.506 307.651 917.506C309.004 917.506 316.107 917.642 317.258 917.777C320.64 918.183 321.317 918.994 321.79 920.212C322.128 921.023 322.196 922.173 322.196 922.646C322.196 923.255 322.331 923.593 322.805 923.593C323.279 923.593 323.414 923.188 323.482 922.849C323.569 922.327 323.656 920.907 323.725 919.781L323.725 919.776L323.726 919.767C323.764 919.151 323.796 918.625 323.82 918.385C323.957 916.287 324.155 915.234 324.27 914.626L324.27 914.625C324.325 914.333 324.361 914.143 324.361 913.989C324.361 913.651 324.293 913.381 323.955 913.381C323.747 913.381 323.513 913.457 323.286 913.532L323.285 913.532C323.143 913.579 323.003 913.625 322.873 913.651C322.331 913.786 321.249 913.922 319.964 914.057C318.678 914.125 305.215 914.125 303.051 914.125C302.249 914.125 301.011 914.076 299.583 914.02L299.532 914.018L299.105 914.002L298.788 913.989C297.959 913.989 297.065 913.973 296.153 913.956C295.206 913.939 294.239 913.922 293.309 913.922C292.294 913.922 291.82 914.057 291.82 914.53C291.82 915.004 292.226 915.139 292.97 915.139C293.917 915.139 295.068 915.207 295.609 915.342C297.841 915.815 298.383 916.898 298.518 919.197ZM352.426 945.439V917.709L342.345 917.98C338.422 918.115 336.798 918.453 335.783 919.941C335.107 920.956 334.768 921.767 334.633 922.308C334.498 922.849 334.295 923.12 333.889 923.12C333.415 923.12 333.28 922.782 333.28 922.038C333.28 920.956 334.565 914.801 334.701 914.26C334.904 913.381 335.107 912.975 335.513 912.975C335.721 912.975 335.949 913.075 336.248 913.206C336.725 913.415 337.381 913.703 338.422 913.786C340.384 913.989 342.954 914.125 345.187 914.125H371.977C374.109 914.125 375.585 913.928 376.599 913.793L376.645 913.786C376.932 913.729 377.18 913.677 377.396 913.632L377.398 913.632L377.399 913.632C377.945 913.518 378.278 913.448 378.472 913.448C378.945 913.448 379.013 913.854 379.013 914.869C379.013 915.539 378.968 916.935 378.92 918.406L378.92 918.411L378.92 918.415L378.92 918.419L378.919 918.427L378.919 918.43C378.866 920.066 378.81 921.791 378.81 922.714C378.742 923.39 378.607 923.796 378.201 923.796C377.66 923.796 377.525 923.458 377.457 922.444L377.389 921.7C377.254 919.941 375.427 918.047 369.406 917.912L360.882 917.709V945.439C360.882 951.662 360.882 957.005 361.22 959.913C361.423 961.807 361.829 963.295 363.859 963.565C364.806 963.7 366.294 963.836 367.309 963.836C368.053 963.836 368.392 964.039 368.392 964.377C368.392 964.85 367.85 965.053 367.106 965.053C364.406 965.053 361.78 964.979 359.707 964.92H359.704L359.7 964.92C358.348 964.882 357.232 964.85 356.485 964.85C355.816 964.85 354.646 964.888 353.314 964.931L353.304 964.931L353.301 964.931C351.54 964.988 349.499 965.053 347.961 965.053C347.081 965.053 346.608 964.85 346.608 964.377C346.608 964.039 346.878 963.836 347.69 963.836C348.705 963.836 349.517 963.7 350.125 963.565C351.479 963.295 351.884 961.807 352.087 959.845C352.426 957.005 352.426 951.662 352.426 945.439ZM415.665 919.197C415.8 921.361 415.8 923.255 415.8 933.536V945.439C415.8 951.662 415.8 957.005 415.462 959.845C415.191 961.807 414.853 963.295 413.5 963.565C412.891 963.7 412.079 963.836 411.064 963.836C410.253 963.836 409.982 964.039 409.982 964.377C409.982 964.85 410.455 965.053 411.335 965.053C411.988 965.053 412.736 965.022 413.509 964.989L413.515 964.989H413.517L413.52 964.989C414.346 964.954 415.201 964.918 416.003 964.918C417.627 964.85 419.115 964.85 419.859 964.85C420.874 964.85 422.904 964.918 424.933 965.053C425.389 965.069 425.845 965.088 426.286 965.109C426.44 965.116 426.593 965.123 426.743 965.13C427.022 965.144 427.292 965.158 427.551 965.171L427.566 965.172L427.569 965.172C428.479 965.218 429.237 965.256 429.669 965.256C442.117 965.256 447.732 957.749 447.732 950.512C447.732 942.599 440.967 937.797 435.419 935.903C439.14 932.927 442.32 929.613 442.32 924.067C442.32 920.482 440.155 913.922 427.91 913.922C426.865 913.922 425.751 913.963 424.536 914.009L424.533 914.009C423.072 914.064 421.465 914.125 419.656 914.125C419.141 914.125 418.205 914.095 417.045 914.059H417.043H417.041C415.154 913.999 412.675 913.922 410.455 913.922C409.441 913.922 408.967 914.057 408.967 914.53C408.967 915.004 409.373 915.139 410.117 915.139C411.064 915.139 412.214 915.207 412.756 915.342C414.988 915.815 415.529 916.898 415.665 919.197ZM423.918 934.685V917.98C423.918 917.236 424.054 916.965 424.527 916.83C425.204 916.695 425.813 916.695 426.76 916.695C432.578 916.695 435.216 922.646 435.216 927.178C435.216 930.492 434.201 932.927 432.443 934.347C431.292 935.362 429.804 935.632 427.572 935.632C426.016 935.632 425.001 935.565 424.392 935.429C424.121 935.362 423.918 935.226 423.918 934.685ZM432.848 940.096C437.99 943.681 439.411 949.362 439.411 953.555C439.411 960.589 434.269 962.213 431.225 962.213C429.669 962.213 428.113 962.145 426.286 961.401C424.121 960.522 423.918 959.372 423.918 954.908V938.879C423.918 938.541 424.054 938.405 424.324 938.405C425.339 938.405 426.016 938.405 427.233 938.473C429.872 938.608 431.428 939.082 432.848 940.096ZM462.753 933.536C462.753 923.255 462.753 921.361 462.618 919.197C462.482 916.898 461.941 915.815 459.709 915.342C459.167 915.207 458.017 915.139 457.07 915.139C456.326 915.139 455.92 915.004 455.92 914.53C455.92 914.057 456.394 913.922 457.408 913.922C459.446 913.922 461.703 913.987 463.643 914.044H463.645H463.646H463.647H463.648L463.652 914.044L463.658 914.044L463.665 914.044L463.667 914.044L463.687 914.045C465.142 914.087 466.418 914.125 467.286 914.125C468.015 914.125 469.277 914.084 470.666 914.039L470.669 914.038H470.67H470.673C472.375 913.983 474.267 913.922 475.607 913.922C476.622 913.922 477.095 914.057 477.095 914.53C477.095 915.004 476.689 915.139 476.013 915.139C475.269 915.139 474.863 915.207 474.051 915.342C472.224 915.68 471.683 916.83 471.548 919.197C471.412 921.361 471.412 923.255 471.412 933.536V943.004C471.412 952.811 473.374 956.937 476.689 959.642C479.734 962.145 482.846 962.415 485.146 962.415C488.123 962.415 491.776 961.469 494.482 958.763C498.203 955.043 498.406 948.956 498.406 941.99V933.536C498.406 923.255 498.406 921.361 498.27 919.197C498.135 916.898 497.594 915.815 495.361 915.342C494.82 915.207 493.67 915.139 492.926 915.139C492.182 915.139 491.776 915.004 491.776 914.53C491.776 914.057 492.249 913.922 493.196 913.922C496.223 913.922 499.874 914.078 500.771 914.116L500.929 914.123L500.958 914.124L500.976 914.125C501.266 914.125 501.995 914.099 502.932 914.066L502.934 914.065L502.938 914.065L502.944 914.065C504.634 914.005 506.996 913.922 508.689 913.922C509.636 913.922 510.11 914.057 510.11 914.53C510.11 915.004 509.704 915.139 508.892 915.139C508.148 915.139 507.742 915.207 506.93 915.342C505.103 915.68 504.562 916.83 504.427 919.197C504.291 921.361 504.291 923.255 504.291 933.536V940.772C504.291 948.28 503.547 956.261 497.864 961.13C493.061 965.256 488.19 966 483.793 966C480.207 966 473.713 965.797 468.774 961.333C465.324 958.222 462.753 953.217 462.753 943.41V933.536ZM525.166 919.197C525.302 921.361 525.302 923.255 525.302 933.536V945.439C525.302 952 525.302 957.343 524.963 960.183C524.76 962.145 524.355 963.295 523.001 963.565C522.393 963.7 521.581 963.836 520.566 963.836C519.754 963.836 519.484 964.039 519.484 964.377C519.484 964.85 519.957 965.053 520.837 965.053C522.372 965.053 524.409 964.988 526.168 964.931L526.172 964.931L526.177 964.931L526.18 964.931L526.19 964.931C527.522 964.888 528.692 964.85 529.361 964.85C530.073 964.85 531.155 964.881 532.476 964.919L532.478 964.919L532.48 964.919C534.546 964.978 537.192 965.053 539.915 965.053C540.659 965.053 541.2 964.85 541.2 964.377C541.2 964.039 540.862 963.836 540.118 963.836C539.103 963.836 537.614 963.7 536.667 963.565C534.638 963.295 534.164 962.077 533.961 960.251C533.691 957.343 533.691 952 533.691 945.439V933.536C533.691 923.255 533.691 921.361 533.826 919.197C533.961 916.83 534.502 915.68 536.329 915.342C537.141 915.207 537.682 915.139 538.359 915.139C539.035 915.139 539.441 915.004 539.441 914.463C539.441 914.057 538.9 913.922 538.02 913.922C536.607 913.922 534.763 913.983 533.109 914.038H533.106L533.101 914.039L533.091 914.039L533.089 914.039C531.743 914.084 530.524 914.125 529.767 914.125C528.852 914.125 527.437 914.08 525.927 914.033C524.198 913.979 522.344 913.922 520.972 913.922C519.89 913.922 519.348 914.057 519.348 914.463C519.348 915.004 519.754 915.139 520.431 915.139C521.243 915.139 522.122 915.207 522.866 915.41C524.355 915.748 525.031 916.898 525.166 919.197ZM566.377 945.439C566.377 954.096 566.377 958.763 567.797 959.981C568.948 960.995 570.706 961.469 575.983 961.469C579.569 961.469 582.207 961.401 583.899 959.575C584.71 958.695 585.522 956.802 585.658 955.517C585.725 954.908 585.861 954.502 586.402 954.502C586.875 954.502 586.943 954.84 586.943 955.652C586.943 956.396 586.469 961.469 585.928 963.43C585.522 964.918 585.184 965.256 581.666 965.256C577.984 965.256 575.076 965.179 572.56 965.112H572.559H572.557H572.555H572.554H572.552H572.55L572.52 965.111C571.722 965.09 570.964 965.069 570.233 965.053C567.189 964.918 564.753 964.85 561.979 964.85C561.235 964.85 559.747 964.85 558.123 964.918C557.32 964.918 556.463 964.954 555.635 964.989L555.63 964.989C554.856 965.022 554.108 965.053 553.455 965.053C552.576 965.053 552.102 964.85 552.102 964.377C552.102 964.039 552.373 963.836 553.185 963.836C554.199 963.836 555.011 963.7 555.62 963.565C556.973 963.295 557.311 961.807 557.582 959.845C557.92 957.005 557.92 951.662 557.92 945.439V933.536C557.92 923.255 557.92 921.361 557.785 919.197C557.65 916.898 557.108 915.815 554.876 915.342C554.335 915.207 553.523 915.139 552.643 915.139C551.899 915.139 551.493 915.004 551.493 914.53C551.493 914.057 551.967 913.922 552.982 913.922C554.789 913.922 556.947 913.987 558.808 914.044L558.811 914.044C560.222 914.087 561.462 914.125 562.25 914.125C562.963 914.125 564.317 914.085 565.835 914.041L565.836 914.041H565.837H565.838H565.838H565.84L565.844 914.041C567.777 913.985 569.974 913.922 571.451 913.922C572.398 913.922 572.871 914.057 572.871 914.53C572.871 915.004 572.465 915.139 571.654 915.139C570.909 915.139 569.827 915.207 569.015 915.342C567.189 915.68 566.647 916.83 566.512 919.197C566.377 921.361 566.377 923.255 566.377 933.536V945.439ZM600.776 919.197C600.911 921.361 600.911 923.255 600.911 933.536V945.439C600.911 951.662 600.911 957.005 600.573 959.845C600.302 961.807 599.964 963.295 598.611 963.565C598.002 963.7 597.19 963.836 596.175 963.836C595.364 963.836 595.093 964.039 595.093 964.377C595.093 964.85 595.567 965.053 596.446 965.053C597.099 965.053 597.846 965.022 598.62 964.989L598.626 964.989C599.009 964.973 599.399 964.956 599.786 964.943C600.016 964.936 600.244 964.929 600.47 964.925C600.688 964.92 600.903 964.918 601.114 964.918C602.738 964.85 604.226 964.85 604.97 964.85C606.496 964.85 608.571 965.015 610.85 965.197L610.852 965.197H610.853L611.6 965.256C614.171 965.459 616.945 965.662 619.38 965.662C631.896 965.662 638.932 960.86 642.044 957.681C645.832 953.826 649.418 947.333 649.418 938.811C649.418 930.763 646.238 925.149 642.856 921.632C635.481 913.922 624.183 913.922 615.727 913.922C613.368 913.922 610.941 913.99 608.91 914.048H608.908L608.902 914.048C607.441 914.089 606.186 914.125 605.308 914.125C604.512 914.125 603.297 914.089 601.889 914.047H601.887H601.885C599.946 913.99 597.643 913.922 595.567 913.922C594.552 913.922 594.078 914.057 594.078 914.53C594.078 915.004 594.484 915.139 595.228 915.139C596.175 915.139 597.326 915.207 597.867 915.342C600.099 915.815 600.641 916.898 600.776 919.197ZM609.368 940.975V932.453C609.368 927.11 609.368 921.226 609.435 918.927C609.435 918.183 609.638 917.844 610.247 917.574C610.788 917.303 613.292 917.1 614.645 917.1C619.921 917.1 627.634 917.912 633.858 923.864C636.767 926.637 640.352 932.183 640.352 940.772C640.352 947.739 638.999 953.893 634.67 957.613C630.61 961.13 626.01 962.483 619.11 962.483C613.765 962.483 611.127 961.063 610.247 959.778C609.706 959.034 609.571 956.328 609.503 954.637C609.435 953.352 609.368 948.145 609.368 940.975ZM665.572 933.536C665.572 923.255 665.572 921.361 665.437 919.197C665.301 916.898 664.76 915.815 662.528 915.342C661.986 915.207 660.836 915.139 659.889 915.139C659.145 915.139 658.739 915.004 658.739 914.53C658.739 914.057 659.213 913.922 660.227 913.922C660.578 913.922 660.933 913.924 661.29 913.928C661.883 913.935 662.481 913.946 663.072 913.956C663.983 913.973 664.878 913.989 665.707 913.989C665.977 914 666.243 914.01 666.502 914.02C667.93 914.076 669.168 914.125 669.969 914.125C672.134 914.125 685.597 914.125 686.882 914.057C688.168 913.922 689.25 913.786 689.792 913.651C689.867 913.636 689.947 913.614 690.028 913.589C690.054 913.581 690.079 913.573 690.105 913.565L690.204 913.532C690.432 913.457 690.666 913.381 690.874 913.381C691.212 913.381 691.28 913.651 691.28 913.989C691.28 914.082 691.267 914.187 691.245 914.32C691.23 914.408 691.211 914.509 691.189 914.626L691.189 914.628C691.074 915.236 690.875 916.288 690.739 918.385C690.714 918.626 690.682 919.159 690.644 919.781C690.575 920.907 690.487 922.327 690.4 922.849C690.333 923.188 690.197 923.593 689.724 923.593C689.25 923.593 689.115 923.255 689.115 922.646C689.115 922.173 689.047 921.023 688.709 920.212C688.235 918.994 687.559 918.183 684.176 917.777C683.026 917.642 675.923 917.506 674.57 917.506C674.231 917.506 674.096 917.709 674.096 918.183V935.294C674.096 935.768 674.164 936.038 674.57 936.038C676.058 936.038 683.838 936.038 685.394 935.903C687.018 935.768 688.033 935.565 688.641 934.888L688.734 934.782C689.152 934.303 689.408 934.009 689.724 934.009C689.994 934.009 690.197 934.144 690.197 934.55C690.197 934.687 690.167 934.9 690.115 935.255L690.115 935.258C690.015 935.957 689.835 937.204 689.656 939.487C689.626 940.097 689.568 940.981 689.513 941.812L689.513 941.817L689.513 941.82C689.477 942.369 689.442 942.895 689.418 943.302C689.398 943.643 689.386 943.901 689.386 944.019C689.386 944.56 689.386 945.304 688.777 945.304C688.303 945.304 688.168 945.033 688.168 944.695C688.149 944.502 688.135 944.293 688.12 944.072C688.084 943.517 688.042 942.889 687.897 942.26C687.559 940.908 686.612 939.893 684.109 939.623C682.823 939.487 676.126 939.42 674.502 939.42C674.164 939.42 674.096 939.69 674.096 940.096V945.439C674.096 946.096 674.091 947.074 674.084 948.181L674.084 948.227C674.068 950.987 674.048 954.529 674.096 955.923C674.231 960.589 675.314 961.604 682.214 961.604C683.973 961.604 686.815 961.604 688.574 960.792C690.333 959.981 691.145 958.56 691.618 955.787C691.753 955.043 691.889 954.773 692.362 954.773C692.904 954.773 692.904 955.314 692.904 955.99C692.904 957.546 692.362 962.145 692.024 963.498C691.55 965.256 690.942 965.256 688.371 965.256C684.377 965.256 681.221 965.172 678.64 965.104H678.636L678.63 965.103C678.196 965.092 677.777 965.081 677.374 965.07L677.164 965.065C676.996 965.061 676.83 965.057 676.667 965.053C673.758 964.918 671.661 964.85 669.631 964.85C668.887 964.85 667.399 964.85 665.775 964.918C664.97 964.918 664.11 964.954 663.281 964.989C662.507 965.022 661.76 965.053 661.107 965.053C660.227 965.053 659.754 964.85 659.754 964.377C659.754 964.039 660.024 963.836 660.836 963.836C661.851 963.836 662.663 963.7 663.272 963.565C664.625 963.295 664.963 961.807 665.234 959.845C665.572 957.005 665.572 951.662 665.572 945.439V933.536ZM710.211 919.197C710.347 921.361 710.347 923.255 710.347 933.536V945.439C710.347 951.662 710.347 957.005 710.008 959.845C709.738 961.807 709.4 963.295 708.047 963.565C707.438 963.7 706.626 963.836 705.611 963.836C704.799 963.836 704.529 964.039 704.529 964.377C704.529 964.85 705.002 965.053 705.882 965.053C707.481 965.053 709.624 964.982 711.374 964.924L711.379 964.924L711.383 964.924L711.387 964.924L711.395 964.924C712.598 964.884 713.613 964.85 714.135 964.85C714.477 964.85 715.271 964.873 716.324 964.904H716.326H716.328L716.331 964.904H716.332C718.406 964.964 721.481 965.053 724.08 965.053C724.96 965.053 725.433 964.85 725.433 964.377C725.433 964.039 725.163 963.836 724.621 963.836C723.81 963.836 722.321 963.7 721.306 963.565C719.277 963.295 718.871 961.807 718.668 959.845C718.33 957.005 718.33 951.662 718.33 945.372V944.425C718.33 944.019 718.533 943.884 718.871 943.884L724.757 944.019C725.23 944.019 725.636 944.087 725.974 944.492C726.481 945.077 727.728 946.85 729.211 948.959L729.215 948.965C730.307 950.517 731.526 952.25 732.672 953.826C736.461 959.034 739.031 962.213 741.94 963.768C743.699 964.715 745.391 965.053 749.179 965.053H755.606C756.418 965.053 756.892 964.918 756.892 964.377C756.892 964.039 756.621 963.836 756.08 963.836C755.539 963.836 754.93 963.768 754.185 963.633L754.111 963.618C753.04 963.406 750.308 962.865 746.608 959.034C743.156 955.406 739.197 950.412 734.293 944.227L734.291 944.225L734.289 944.221L734.286 944.217L734.224 944.14C733.481 943.202 732.716 942.237 731.928 941.246C738.761 935.7 740.858 931.101 740.858 926.096C740.858 921.564 738.152 918.115 736.258 916.83C732.604 914.327 728.072 913.922 723.81 913.922C722.785 913.922 721.034 913.97 719.243 914.02C717.367 914.071 715.447 914.125 714.271 914.125C713.722 914.125 712.749 914.094 711.555 914.057C709.658 913.998 707.203 913.922 705.002 913.922C703.987 913.922 703.514 914.057 703.514 914.53C703.514 915.004 703.92 915.139 704.664 915.139C705.611 915.139 706.761 915.207 707.302 915.342C709.535 915.815 710.076 916.898 710.211 919.197ZM718.33 938.879V918.318C718.33 917.777 718.465 917.506 718.939 917.371C719.615 917.168 720.833 917.1 722.524 917.1C726.516 917.1 732.875 919.873 732.875 929.478C732.875 935.024 730.913 938.135 728.883 939.623C727.666 940.502 726.786 940.772 724.08 940.772C722.389 940.772 720.359 940.57 718.939 940.096C718.465 939.893 718.33 939.623 718.33 938.879Z" fill="black"/>
</svg>
