<?xml version="1.0" encoding="utf-8"?><!-- Uploaded to: SVG Repo, www.svgrepo.com, Generator: SVG Repo Mixer Tools -->
<svg width="800px" height="800px" viewBox="0 0 24 24" fill="none" xmlns="http://www.w3.org/2000/svg">
<path d="M8.78001 4.47C8.71001 4.4 8.63001 4.35 8.54001 4.31C8.36001 4.23 8.15001 4.23 7.97001 4.31C7.88001 4.35 7.80001 4.4 7.73001 4.47L5.23001 6.97C4.94001 7.26 4.94001 7.74 5.23001 8.03C5.52001 8.32 6.00001 8.32 6.29001 8.03L7.51001 6.81V19C7.51001 19.41 7.85001 19.75 8.26001 19.75C8.67001 19.75 9.01001 19.41 9.01001 19V6.81L10.23 8.03C10.38 8.18 10.57 8.25 10.76 8.25C10.95 8.25 11.14 8.18 11.29 8.03C11.58 7.74 11.58 7.26 11.29 6.97L8.79001 4.47H8.78001Z" fill="#000000"/>
<path d="M14 11.21C14.39 11.35 14.82 11.15 14.96 10.76L15.24 9.98001H17.27L17.55 10.76C17.66 11.07 17.95 11.26 18.26 11.26C18.34 11.26 18.43 11.25 18.51 11.22C18.9 11.08 19.1 10.65 18.96 10.26L17.25 5.47001C17.08 5.04001 16.69 4.76001 16.25 4.76001C15.81 4.76001 15.42 5.04001 15.25 5.49001L13.55 10.26C13.41 10.65 13.61 11.08 14 11.22V11.21ZM16.73 8.48001H15.77L16.25 7.14001L16.73 8.48001Z" fill="#000000"/>
<path d="M18.67 13.46C18.48 13.02 18.08 12.75 17.62 12.75H14.51C14.1 12.75 13.76 13.09 13.76 13.5C13.76 13.91 14.1 14.25 14.51 14.25H16.9L14.07 17.2C13.73 17.56 13.64 18.08 13.83 18.54C14.02 18.98 14.42 19.25 14.88 19.25H18.01C18.42 19.25 18.76 18.91 18.76 18.5C18.76 18.09 18.42 17.75 18.01 17.75H15.62L18.44 14.82C18.78 14.46 18.88 13.93 18.68 13.47L18.67 13.46Z" fill="#000000"/>
</svg>